G04*
G04 #@! TF.GenerationSoftware,Altium Limited,Altium Designer,20.0.11 (256)*
G04*
G04 Layer_Color=32896*
%FSLAX25Y25*%
%MOIN*%
G70*
G01*
G75*
%ADD10C,0.01000*%
%ADD12C,0.00787*%
%ADD13C,0.00600*%
%ADD14C,0.00500*%
%ADD16C,0.01400*%
D10*
X352268Y94779D02*
X363268D01*
X352268Y74779D02*
X363268D01*
X352768Y54779D02*
X363768D01*
X352268Y34779D02*
X363268D01*
X352268Y15779D02*
X363268D01*
X352268Y143779D02*
X363268D01*
X27130Y74096D02*
X37130D01*
X37430Y43179D02*
Y49979D01*
X27130Y43179D02*
X37430D01*
X37130Y58179D02*
Y58379D01*
Y68879D02*
Y74096D01*
Y39849D02*
Y45066D01*
Y29149D02*
Y29349D01*
X27130Y14149D02*
X37430D01*
Y20949D01*
X27130Y45066D02*
X37130D01*
X260565Y249779D02*
Y253779D01*
X258565Y251779D02*
X262565D01*
X311565Y-10721D02*
Y253779D01*
X265565Y-10721D02*
Y253779D01*
X187845Y249779D02*
Y253779D01*
X185845Y251779D02*
X189845D01*
X238845Y-10721D02*
Y253779D01*
X192845Y-10721D02*
Y253779D01*
X115125Y249779D02*
Y253779D01*
X113125Y251779D02*
X117125D01*
X166125Y-10721D02*
Y253779D01*
X120125Y-10721D02*
Y253779D01*
X42405Y249779D02*
Y253779D01*
X40405Y251779D02*
X44405D01*
X93405Y-10721D02*
Y253779D01*
X47405Y-10721D02*
Y253779D01*
D12*
X347144Y223478D02*
X348719D01*
X347144Y226234D02*
X348719D01*
X-12259Y216881D02*
Y218456D01*
X-15014Y216881D02*
Y218456D01*
X-4972Y216881D02*
Y218456D01*
X-7728Y216881D02*
Y218456D01*
X2314Y216881D02*
Y218456D01*
X-442Y216881D02*
Y218456D01*
X9600Y216881D02*
Y218456D01*
X6844Y216881D02*
Y218456D01*
X16886Y216881D02*
Y218456D01*
X14130Y216881D02*
Y218456D01*
X31458Y216881D02*
Y218456D01*
X28702Y216881D02*
Y218456D01*
X24172Y216881D02*
Y218456D01*
X21416Y216881D02*
Y218456D01*
X366624Y226164D02*
X368198D01*
X366624Y223408D02*
X368198D01*
D13*
X-48001Y168619D02*
X-24201D01*
X-48001Y101119D02*
Y168619D01*
Y101119D02*
X-24201D01*
Y168619D01*
X-25201Y196219D02*
X34899D01*
X-25201Y73519D02*
Y196219D01*
Y73519D02*
X34899D01*
Y196219D01*
X-48001Y78418D02*
X-25201D01*
X-48001D02*
Y92918D01*
X-25201D01*
X-48001Y176819D02*
X-25201D01*
X-48001D02*
Y191319D01*
X-25201D01*
D14*
X366522Y202026D02*
Y218758D01*
Y196120D02*
Y202026D01*
Y194152D02*
Y196120D01*
Y177420D02*
Y194152D01*
X350774Y209113D02*
Y218955D01*
X356680D01*
X366522Y202026D02*
X374396D01*
Y196120D02*
Y202026D01*
X366522Y196120D02*
X374396D01*
X367104Y140344D02*
X367520Y139927D01*
Y139094D01*
X367104Y138678D01*
X365437D01*
X365021Y139094D01*
Y139927D01*
X365437Y140344D01*
X365854D01*
X366270Y139927D01*
Y138678D01*
X365437Y130544D02*
X365021Y130127D01*
Y129294D01*
X365437Y128878D01*
X365854D01*
X366270Y129294D01*
X366687Y128878D01*
X367104D01*
X367520Y129294D01*
Y130127D01*
X367104Y130544D01*
X366687D01*
X366270Y130127D01*
X365854Y130544D01*
X365437D01*
X366270Y130127D02*
Y129294D01*
X365021Y120104D02*
Y118438D01*
X365437D01*
X367104Y120104D01*
X367520D01*
X365021Y108638D02*
X365437Y109471D01*
X366270Y110304D01*
X367104D01*
X367520Y109887D01*
Y109054D01*
X367104Y108638D01*
X366687D01*
X366270Y109054D01*
Y110304D01*
X365021Y98558D02*
Y100224D01*
X366270D01*
X365854Y99391D01*
Y98974D01*
X366270Y98558D01*
X367104D01*
X367520Y98974D01*
Y99807D01*
X367104Y100224D01*
X367520Y88734D02*
X365021D01*
X366270Y89984D01*
Y88318D01*
X365437Y70594D02*
X365021Y70177D01*
Y69344D01*
X365437Y68928D01*
X365854D01*
X366270Y69344D01*
Y69761D01*
Y69344D01*
X366687Y68928D01*
X367104D01*
X367520Y69344D01*
Y70177D01*
X367104Y70594D01*
X367520Y49004D02*
Y50670D01*
X365854Y49004D01*
X365437D01*
X365021Y49420D01*
Y50253D01*
X365437Y50670D01*
X367520Y30020D02*
Y29187D01*
Y29603D01*
X365021D01*
X365437Y30020D01*
X365437Y81026D02*
X365021Y81442D01*
Y82275D01*
X365437Y82692D01*
X367104D01*
X367520Y82275D01*
Y81442D01*
X367104Y81026D01*
X366270D01*
Y81859D01*
X367520Y80193D02*
X365021D01*
X367520Y78527D01*
X365021D01*
Y77694D02*
X367520D01*
Y76444D01*
X367104Y76028D01*
X365437D01*
X365021Y76444D01*
Y77694D01*
X365437Y60857D02*
X365021Y61274D01*
Y62107D01*
X365437Y62523D01*
X367104D01*
X367520Y62107D01*
Y61274D01*
X367104Y60857D01*
X366270D01*
Y61690D01*
X367520Y60024D02*
X365021D01*
X367520Y58358D01*
X365021D01*
Y57525D02*
X367520D01*
Y56275D01*
X367104Y55859D01*
X365437D01*
X365021Y56275D01*
Y57525D01*
X365437Y40597D02*
X365021Y41014D01*
Y41847D01*
X365437Y42263D01*
X367104D01*
X367520Y41847D01*
Y41014D01*
X367104Y40597D01*
X366270D01*
Y41430D01*
X367520Y39764D02*
X365021D01*
X367520Y38098D01*
X365021D01*
Y37265D02*
X367520D01*
Y36015D01*
X367104Y35599D01*
X365437D01*
X365021Y36015D01*
Y37265D01*
X365437Y21694D02*
X365021Y22110D01*
Y22943D01*
X365437Y23360D01*
X367104D01*
X367520Y22943D01*
Y22110D01*
X367104Y21694D01*
X366270D01*
Y22527D01*
X367520Y20861D02*
X365021D01*
X367520Y19195D01*
X365021D01*
Y18362D02*
X367520D01*
Y17112D01*
X367104Y16695D01*
X365437D01*
X365021Y17112D01*
Y18362D01*
X-12515Y207594D02*
X-15014D01*
Y208843D01*
X-14598Y209260D01*
X-14181D01*
X-13765Y208843D01*
Y207594D01*
Y208843D01*
X-13348Y209260D01*
X-12932D01*
X-12515Y208843D01*
Y207594D01*
X-15014Y210093D02*
Y210926D01*
Y210510D01*
X-12515D01*
X-12932Y210093D01*
X-5229Y207594D02*
X-7728D01*
Y208843D01*
X-7312Y209260D01*
X-6895D01*
X-6479Y208843D01*
Y207594D01*
Y208843D01*
X-6062Y209260D01*
X-5646D01*
X-5229Y208843D01*
Y207594D01*
X-7728Y211759D02*
Y210093D01*
X-6062Y211759D01*
X-5646D01*
X-5229Y211343D01*
Y210510D01*
X-5646Y210093D01*
X2499Y207594D02*
X0D01*
Y208843D01*
X416Y209260D01*
X833D01*
X1250Y208843D01*
Y207594D01*
Y208843D01*
X1666Y209260D01*
X2083D01*
X2499Y208843D01*
Y207594D01*
X2083Y210093D02*
X2499Y210510D01*
Y211343D01*
X2083Y211759D01*
X1666D01*
X1250Y211343D01*
Y210926D01*
Y211343D01*
X833Y211759D01*
X416D01*
X0Y211343D01*
Y210510D01*
X416Y210093D01*
X9627Y207594D02*
X7128D01*
Y208843D01*
X7544Y209260D01*
X7961D01*
X8377Y208843D01*
Y207594D01*
Y208843D01*
X8794Y209260D01*
X9210D01*
X9627Y208843D01*
Y207594D01*
X7128Y211343D02*
X9627D01*
X8377Y210093D01*
Y211759D01*
X16629Y207594D02*
X14130D01*
Y208843D01*
X14546Y209260D01*
X14963D01*
X15380Y208843D01*
Y207594D01*
Y208843D01*
X15796Y209260D01*
X16213D01*
X16629Y208843D01*
Y207594D01*
Y211759D02*
Y210093D01*
X15380D01*
X15796Y210926D01*
Y211343D01*
X15380Y211759D01*
X14546D01*
X14130Y211343D01*
Y210510D01*
X14546Y210093D01*
X23915Y207594D02*
X21416D01*
Y208843D01*
X21833Y209260D01*
X22249D01*
X22666Y208843D01*
Y207594D01*
Y208843D01*
X23082Y209260D01*
X23499D01*
X23915Y208843D01*
Y207594D01*
Y211759D02*
X23499Y210926D01*
X22666Y210093D01*
X21833D01*
X21416Y210510D01*
Y211343D01*
X21833Y211759D01*
X22249D01*
X22666Y211343D01*
Y210093D01*
X31489Y207594D02*
X28990D01*
Y208843D01*
X29406Y209260D01*
X29823D01*
X30240Y208843D01*
Y207594D01*
Y208843D01*
X30656Y209260D01*
X31073D01*
X31489Y208843D01*
Y207594D01*
Y210093D02*
Y211759D01*
X31073D01*
X29406Y210093D01*
X28990D01*
X359590Y226119D02*
X360423D01*
X360840Y225703D01*
Y224037D01*
X360423Y223620D01*
X359590D01*
X359174Y224037D01*
Y225703D01*
X359590Y226119D01*
X358341Y223620D02*
Y225286D01*
X357091D01*
X356675Y224870D01*
Y223620D01*
X348422Y138590D02*
Y141090D01*
X347172D01*
X346755Y140673D01*
Y139840D01*
X347172Y139424D01*
X348422D01*
X345922Y138590D02*
X345089D01*
X345506D01*
Y141090D01*
X345922Y140673D01*
X34655Y198999D02*
Y201499D01*
X33406D01*
X32989Y201082D01*
Y200249D01*
X33406Y199832D01*
X34655D01*
X32156Y198999D02*
X31323D01*
X31740D01*
Y201499D01*
X32156Y201082D01*
X28407Y198999D02*
X30074D01*
X28407Y200665D01*
Y201082D01*
X28824Y201499D01*
X29657D01*
X30074Y201082D01*
X341260Y224020D02*
Y226519D01*
X340010D01*
X339594Y226103D01*
Y225270D01*
X340010Y224853D01*
X341260D01*
X340427D02*
X339594Y224020D01*
X337095D02*
X338761D01*
X337095Y225686D01*
Y226103D01*
X337511Y226519D01*
X338344D01*
X338761Y226103D01*
X336262D02*
X335845Y226519D01*
X335012D01*
X334595Y226103D01*
Y225686D01*
X335012Y225270D01*
X335429D01*
X335012D01*
X334595Y224853D01*
Y224436D01*
X335012Y224020D01*
X335845D01*
X336262Y224436D01*
X-12515Y224170D02*
X-15014D01*
Y225420D01*
X-14598Y225836D01*
X-12932D01*
X-12515Y225420D01*
Y224170D01*
X-14598Y226669D02*
X-15014Y227086D01*
Y227919D01*
X-14598Y228335D01*
X-12932D01*
X-12515Y227919D01*
Y227086D01*
X-12932Y226669D01*
X-13348D01*
X-13765Y227086D01*
Y228335D01*
X2057Y224170D02*
X-442D01*
Y225420D01*
X-26Y225836D01*
X1640D01*
X2057Y225420D01*
Y224170D01*
Y226669D02*
Y228335D01*
X1640D01*
X-26Y226669D01*
X-442D01*
X9627Y224170D02*
X7128D01*
Y225420D01*
X7544Y225836D01*
X9210D01*
X9627Y225420D01*
Y224170D01*
Y228335D02*
X9210Y227502D01*
X8377Y226669D01*
X7544D01*
X7128Y227086D01*
Y227919D01*
X7544Y228335D01*
X7961D01*
X8377Y227919D01*
Y226669D01*
X16629Y224170D02*
X14130D01*
Y225420D01*
X14546Y225836D01*
X16213D01*
X16629Y225420D01*
Y224170D01*
X14130Y227919D02*
X16629D01*
X15380Y226669D01*
Y228335D01*
X23915Y224170D02*
X21416D01*
Y225420D01*
X21833Y225836D01*
X23499D01*
X23915Y225420D01*
Y224170D01*
X23499Y226669D02*
X23915Y227086D01*
Y227919D01*
X23499Y228335D01*
X23082D01*
X22666Y227919D01*
Y227502D01*
Y227919D01*
X22249Y228335D01*
X21833D01*
X21416Y227919D01*
Y227086D01*
X21833Y226669D01*
X31489Y224170D02*
X28990D01*
Y225420D01*
X29406Y225836D01*
X31073D01*
X31489Y225420D01*
Y224170D01*
X28990Y228335D02*
Y226669D01*
X30656Y228335D01*
X31073D01*
X31489Y227919D01*
Y227086D01*
X31073Y226669D01*
X-5229Y224170D02*
X-7728D01*
Y225420D01*
X-7312Y225836D01*
X-5646D01*
X-5229Y225420D01*
Y224170D01*
X-5646Y226669D02*
X-5229Y227086D01*
Y227919D01*
X-5646Y228335D01*
X-6062D01*
X-6479Y227919D01*
X-6895Y228335D01*
X-7312D01*
X-7728Y227919D01*
Y227086D01*
X-7312Y226669D01*
X-6895D01*
X-6479Y227086D01*
X-6062Y226669D01*
X-5646D01*
X-6479Y227086D02*
Y227919D01*
X372311Y217930D02*
X372728Y218347D01*
X373561D01*
X373977Y217930D01*
Y217514D01*
X373561Y217097D01*
X372728D01*
X372311Y216681D01*
Y216264D01*
X372728Y215848D01*
X373561D01*
X373977Y216264D01*
X369812Y218347D02*
X371478D01*
Y217097D01*
X370645Y217514D01*
X370228D01*
X369812Y217097D01*
Y216264D01*
X370228Y215848D01*
X371061D01*
X371478Y216264D01*
X373830Y231049D02*
Y228550D01*
X372580D01*
X372164Y228966D01*
Y230633D01*
X372580Y231049D01*
X373830D01*
X369665D02*
X371331D01*
Y229800D01*
X370498Y230216D01*
X370081D01*
X369665Y229800D01*
Y228966D01*
X370081Y228550D01*
X370914D01*
X371331Y228966D01*
X43027Y40869D02*
Y43368D01*
X41777D01*
X41360Y42952D01*
Y42118D01*
X41777Y41702D01*
X43027D01*
X39278Y40869D02*
Y43368D01*
X40527Y42118D01*
X38861D01*
X43097Y71619D02*
Y74118D01*
X41847D01*
X41430Y73702D01*
Y72869D01*
X41847Y72452D01*
X43097D01*
X40597Y73702D02*
X40181Y74118D01*
X39348D01*
X38931Y73702D01*
Y73285D01*
X39348Y72869D01*
X39764D01*
X39348D01*
X38931Y72452D01*
Y72035D01*
X39348Y71619D01*
X40181D01*
X40597Y72035D01*
X366630Y174312D02*
X367046Y174728D01*
X367879D01*
X368296Y174312D01*
Y173895D01*
X367879Y173478D01*
X367046D01*
X366630Y173062D01*
Y172645D01*
X367046Y172229D01*
X367879D01*
X368296Y172645D01*
X364547Y172229D02*
Y174728D01*
X365796Y173478D01*
X364130D01*
X247130Y248002D02*
Y245502D01*
X245880D01*
X245464Y245919D01*
Y246335D01*
X245880Y246752D01*
X247130D01*
X245880D01*
X245464Y247168D01*
Y247585D01*
X245880Y248002D01*
X247130D01*
X244631D02*
X242965D01*
X243798D01*
Y245502D01*
X240465Y248002D02*
X242132D01*
Y246752D01*
X241299Y247168D01*
X240882D01*
X240465Y246752D01*
Y245919D01*
X240882Y245502D01*
X241715D01*
X242132Y245919D01*
X321550Y249022D02*
Y246522D01*
X320300D01*
X319884Y246939D01*
Y247355D01*
X320300Y247772D01*
X321550D01*
X320300D01*
X319884Y248188D01*
Y248605D01*
X320300Y249022D01*
X321550D01*
X319051D02*
X317385D01*
X318218D01*
Y246522D01*
X316552Y249022D02*
X314885D01*
Y248605D01*
X316552Y246939D01*
Y246522D01*
X174610Y248182D02*
Y245682D01*
X173360D01*
X172944Y246099D01*
Y246515D01*
X173360Y246932D01*
X174610D01*
X173360D01*
X172944Y247348D01*
Y247765D01*
X173360Y248182D01*
X174610D01*
X172111D02*
X170445D01*
X171278D01*
Y245682D01*
X169612Y247765D02*
X169195Y248182D01*
X168362D01*
X167946Y247765D01*
Y247348D01*
X168362Y246932D01*
X168779D01*
X168362D01*
X167946Y246515D01*
Y246099D01*
X168362Y245682D01*
X169195D01*
X169612Y246099D01*
X95470Y248542D02*
Y246042D01*
X96720D01*
X97136Y246459D01*
Y246875D01*
X96720Y247292D01*
X95470D01*
X96720D01*
X97136Y247709D01*
Y248125D01*
X96720Y248542D01*
X95470D01*
X97969D02*
X99635D01*
X98802D01*
Y246042D01*
X100468D02*
X101301D01*
X100885D01*
Y248542D01*
X100468Y248125D01*
D16*
X321177Y-16218D02*
Y-9221D01*
X317678D01*
X316511Y-10387D01*
Y-11553D01*
X317678Y-12720D01*
X321177D01*
X317678D01*
X316511Y-13886D01*
Y-15052D01*
X317678Y-16218D01*
X321177D01*
X314179Y-12720D02*
X309514D01*
X180000Y-8060D02*
Y-15058D01*
X176501D01*
X175335Y-13891D01*
Y-12725D01*
X176501Y-11559D01*
X180000D01*
X176501D01*
X175335Y-10392D01*
Y-9226D01*
X176501Y-8060D01*
X180000D01*
X169503Y-15058D02*
Y-8060D01*
X173002Y-11559D01*
X168337D01*
X107710Y-7490D02*
Y-14488D01*
X104211D01*
X103045Y-13321D01*
Y-12155D01*
X104211Y-10989D01*
X107710D01*
X104211D01*
X103045Y-9822D01*
Y-8656D01*
X104211Y-7490D01*
X107710D01*
X96047D02*
X98380Y-8656D01*
X100712Y-10989D01*
Y-13321D01*
X99546Y-14488D01*
X97213D01*
X96047Y-13321D01*
Y-12155D01*
X97213Y-10989D01*
X100712D01*
X322620Y257810D02*
Y250812D01*
X319121D01*
X317955Y251979D01*
Y253145D01*
X319121Y254311D01*
X322620D01*
X319121D01*
X317955Y255477D01*
Y256644D01*
X319121Y257810D01*
X322620D01*
X315622Y250812D02*
X313290D01*
X314456D01*
Y257810D01*
X315622Y256644D01*
X106490Y259660D02*
Y252662D01*
X102991D01*
X101825Y253829D01*
Y254995D01*
X102991Y256161D01*
X106490D01*
X102991D01*
X101825Y257328D01*
Y258494D01*
X102991Y259660D01*
X106490D01*
X99492Y256161D02*
X94827D01*
X97160Y258494D02*
Y253829D01*
X252480Y-8870D02*
Y-15868D01*
X248981D01*
X247815Y-14701D01*
Y-13535D01*
X248981Y-12369D01*
X252480D01*
X248981D01*
X247815Y-11203D01*
Y-10036D01*
X248981Y-8870D01*
X252480D01*
X240817Y-15868D02*
X245482D01*
X240817Y-11203D01*
Y-10036D01*
X241983Y-8870D01*
X244316D01*
X245482Y-10036D01*
X253210Y258890D02*
Y251892D01*
X249711D01*
X248545Y253059D01*
Y254225D01*
X249711Y255391D01*
X253210D01*
X249711D01*
X248545Y256557D01*
Y257724D01*
X249711Y258890D01*
X253210D01*
X246212Y257724D02*
X245046Y258890D01*
X242713D01*
X241547Y257724D01*
Y256557D01*
X242713Y255391D01*
X243880D01*
X242713D01*
X241547Y254225D01*
Y253059D01*
X242713Y251892D01*
X245046D01*
X246212Y253059D01*
X180670Y259660D02*
Y252662D01*
X177171D01*
X176005Y253829D01*
Y254995D01*
X177171Y256161D01*
X180670D01*
X177171D01*
X176005Y257328D01*
Y258494D01*
X177171Y259660D01*
X180670D01*
X169007D02*
X173672D01*
Y256161D01*
X171340Y257328D01*
X170173D01*
X169007Y256161D01*
Y253829D01*
X170173Y252662D01*
X172506D01*
X173672Y253829D01*
M02*
