G04*
G04 #@! TF.GenerationSoftware,Altium Limited,Altium Designer,20.2.6 (244)*
G04*
G04 Layer_Physical_Order=2*
G04 Layer_Color=36540*
%FSLAX25Y25*%
%MOIN*%
G70*
G04*
G04 #@! TF.SameCoordinates,A281CC0B-DA72-4783-A236-2048B1716941*
G04*
G04*
G04 #@! TF.FilePolarity,Positive*
G04*
G01*
G75*
%ADD48C,0.08200*%
%ADD53C,0.01200*%
%ADD58C,0.05500*%
%ADD60C,0.05906*%
%ADD61R,0.05906X0.05906*%
%ADD62C,0.01987*%
G36*
X637063Y299068D02*
X636392Y298283D01*
X635144Y296247D01*
X634231Y294041D01*
X633673Y291720D01*
X633486Y289340D01*
X633673Y286960D01*
X634231Y284639D01*
X635144Y282433D01*
X636392Y280398D01*
X637942Y278582D01*
X639757Y277032D01*
X641793Y275784D01*
X643999Y274871D01*
X646320Y274313D01*
X648700Y274126D01*
X651080Y274313D01*
X653401Y274871D01*
X655300Y275657D01*
X655800Y275324D01*
Y14016D01*
X655300Y13683D01*
X653401Y14469D01*
X651080Y15026D01*
X648700Y15214D01*
X646320Y15026D01*
X643999Y14469D01*
X641793Y13556D01*
X639757Y12308D01*
X637942Y10758D01*
X636392Y8942D01*
X635144Y6907D01*
X634231Y4701D01*
X633673Y2380D01*
X633486Y0D01*
X633673Y-2380D01*
X634231Y-4701D01*
X635144Y-6907D01*
X635547Y-7564D01*
X635303Y-8000D01*
X13397D01*
X13153Y-7564D01*
X13556Y-6907D01*
X14469Y-4701D01*
X15026Y-2380D01*
X15214Y0D01*
X15026Y2380D01*
X14469Y4701D01*
X13556Y6907D01*
X12308Y8942D01*
X10758Y10758D01*
X8942Y12308D01*
X6907Y13556D01*
X4701Y14469D01*
X2380Y15026D01*
X0Y15214D01*
X-2380Y15026D01*
X-4701Y14469D01*
X-6907Y13556D01*
X-8942Y12308D01*
X-10758Y10758D01*
X-12308Y8942D01*
X-13556Y6907D01*
X-14469Y4701D01*
X-15026Y2380D01*
X-15214Y0D01*
X-15026Y-2380D01*
X-14469Y-4701D01*
X-13556Y-6907D01*
X-13153Y-7564D01*
X-13397Y-8000D01*
X-30160D01*
X-30450Y-7710D01*
Y297860D01*
X-13053Y297903D01*
X-12808Y297467D01*
X-13556Y296247D01*
X-14469Y294041D01*
X-15026Y291720D01*
X-15214Y289340D01*
X-15026Y286960D01*
X-14469Y284639D01*
X-13556Y282433D01*
X-12308Y280398D01*
X-10758Y278582D01*
X-8942Y277032D01*
X-6907Y275784D01*
X-4701Y274871D01*
X-2380Y274313D01*
X0Y274126D01*
X2380Y274313D01*
X4701Y274871D01*
X6907Y275784D01*
X8942Y277032D01*
X10758Y278582D01*
X12308Y280398D01*
X13556Y282433D01*
X14469Y284639D01*
X15026Y286960D01*
X15214Y289340D01*
X15026Y291720D01*
X14469Y294041D01*
X13556Y296247D01*
X12768Y297532D01*
X13012Y297968D01*
X636853Y299522D01*
X637063Y299068D01*
D02*
G37*
%LPC*%
G36*
X577310Y289471D02*
X576083Y289309D01*
X574940Y288835D01*
X573958Y288082D01*
X573205Y287100D01*
X572731Y285957D01*
X572569Y284730D01*
X572731Y283503D01*
X573205Y282360D01*
X573958Y281378D01*
X574940Y280625D01*
X576083Y280151D01*
X577310Y279989D01*
X578537Y280151D01*
X579680Y280625D01*
X580662Y281378D01*
X581415Y282360D01*
X581889Y283503D01*
X582051Y284730D01*
X581889Y285957D01*
X581415Y287100D01*
X580662Y288082D01*
X579680Y288835D01*
X578537Y289309D01*
X577310Y289471D01*
D02*
G37*
G36*
X405767Y289161D02*
X404540Y288999D01*
X403396Y288526D01*
X402415Y287772D01*
X401661Y286790D01*
X401188Y285647D01*
X401026Y284420D01*
X401188Y283193D01*
X401661Y282050D01*
X402415Y281068D01*
X403396Y280315D01*
X404540Y279841D01*
X405767Y279679D01*
X406994Y279841D01*
X408137Y280315D01*
X409119Y281068D01*
X409872Y282050D01*
X410346Y283193D01*
X410507Y284420D01*
X410346Y285647D01*
X409872Y286790D01*
X409119Y287772D01*
X408137Y288526D01*
X406994Y288999D01*
X405767Y289161D01*
D02*
G37*
G36*
X490538Y289121D02*
X489311Y288959D01*
X488168Y288485D01*
X487186Y287732D01*
X486433Y286750D01*
X485959Y285607D01*
X485798Y284380D01*
X485959Y283153D01*
X486433Y282010D01*
X487186Y281028D01*
X488168Y280275D01*
X489311Y279801D01*
X490538Y279639D01*
X491765Y279801D01*
X492909Y280275D01*
X493890Y281028D01*
X494644Y282010D01*
X495117Y283153D01*
X495279Y284380D01*
X495117Y285607D01*
X494644Y286750D01*
X493890Y287732D01*
X492909Y288485D01*
X491765Y288959D01*
X490538Y289121D01*
D02*
G37*
G36*
X318995D02*
X317768Y288959D01*
X316625Y288485D01*
X315643Y287732D01*
X314890Y286750D01*
X314416Y285607D01*
X314254Y284380D01*
X314416Y283153D01*
X314890Y282010D01*
X315643Y281028D01*
X316625Y280275D01*
X317768Y279801D01*
X318995Y279639D01*
X320222Y279801D01*
X321365Y280275D01*
X322347Y281028D01*
X323100Y282010D01*
X323574Y283153D01*
X323735Y284380D01*
X323574Y285607D01*
X323100Y286750D01*
X322347Y287732D01*
X321365Y288485D01*
X320222Y288959D01*
X318995Y289121D01*
D02*
G37*
G36*
X147547D02*
X146320Y288959D01*
X145176Y288485D01*
X144195Y287732D01*
X143441Y286750D01*
X142968Y285607D01*
X142806Y284380D01*
X142968Y283153D01*
X143441Y282010D01*
X144195Y281028D01*
X145176Y280275D01*
X146320Y279801D01*
X147547Y279639D01*
X148774Y279801D01*
X149917Y280275D01*
X150899Y281028D01*
X151652Y282010D01*
X152126Y283153D01*
X152287Y284380D01*
X152126Y285607D01*
X151652Y286750D01*
X150899Y287732D01*
X149917Y288485D01*
X148774Y288959D01*
X147547Y289121D01*
D02*
G37*
G36*
X234223Y289071D02*
X232996Y288909D01*
X231853Y288435D01*
X230871Y287682D01*
X230118Y286700D01*
X229644Y285557D01*
X229483Y284330D01*
X229644Y283103D01*
X230118Y281960D01*
X230871Y280978D01*
X231853Y280224D01*
X232996Y279751D01*
X234223Y279589D01*
X235450Y279751D01*
X236594Y280224D01*
X237575Y280978D01*
X238329Y281960D01*
X238802Y283103D01*
X238964Y284330D01*
X238802Y285557D01*
X238329Y286700D01*
X237575Y287682D01*
X236594Y288435D01*
X235450Y288909D01*
X234223Y289071D01*
D02*
G37*
G36*
X546310Y290558D02*
X545173Y290446D01*
X544080Y290114D01*
X543072Y289576D01*
X542189Y288851D01*
X541464Y287968D01*
X540926Y286960D01*
X540594Y285867D01*
X540482Y284730D01*
X540594Y283593D01*
X540926Y282500D01*
X541464Y281492D01*
X542189Y280609D01*
X543072Y279884D01*
X544080Y279346D01*
X545173Y279014D01*
X546310Y278902D01*
X547447Y279014D01*
X548540Y279346D01*
X549548Y279884D01*
X550431Y280609D01*
X551156Y281492D01*
X551694Y282500D01*
X552026Y283593D01*
X552138Y284730D01*
X552026Y285867D01*
X551694Y286960D01*
X551156Y287968D01*
X550431Y288851D01*
X549548Y289576D01*
X548540Y290114D01*
X547447Y290446D01*
X546310Y290558D01*
D02*
G37*
G36*
X374767Y290248D02*
X373630Y290136D01*
X372536Y289804D01*
X371529Y289266D01*
X370646Y288541D01*
X369921Y287658D01*
X369382Y286650D01*
X369051Y285557D01*
X368939Y284420D01*
X369051Y283283D01*
X369382Y282190D01*
X369921Y281182D01*
X370646Y280299D01*
X371529Y279574D01*
X372536Y279036D01*
X373630Y278704D01*
X374767Y278592D01*
X375904Y278704D01*
X376997Y279036D01*
X378005Y279574D01*
X378888Y280299D01*
X379612Y281182D01*
X380151Y282190D01*
X380483Y283283D01*
X380595Y284420D01*
X380483Y285557D01*
X380151Y286650D01*
X379612Y287658D01*
X378888Y288541D01*
X378005Y289266D01*
X376997Y289804D01*
X375904Y290136D01*
X374767Y290248D01*
D02*
G37*
G36*
X203223Y290158D02*
X202086Y290046D01*
X200993Y289714D01*
X199985Y289176D01*
X199102Y288451D01*
X198378Y287568D01*
X197839Y286560D01*
X197507Y285467D01*
X197395Y284330D01*
X197507Y283193D01*
X197839Y282100D01*
X198378Y281092D01*
X199102Y280209D01*
X199985Y279484D01*
X200993Y278946D01*
X202086Y278614D01*
X203223Y278502D01*
X204360Y278614D01*
X205454Y278946D01*
X206461Y279484D01*
X207344Y280209D01*
X208069Y281092D01*
X208608Y282100D01*
X208939Y283193D01*
X209051Y284330D01*
X208939Y285467D01*
X208608Y286560D01*
X208069Y287568D01*
X207344Y288451D01*
X206461Y289176D01*
X205454Y289714D01*
X204360Y290046D01*
X203223Y290158D01*
D02*
G37*
G36*
X31870D02*
X30733Y290046D01*
X29640Y289714D01*
X28632Y289176D01*
X27749Y288451D01*
X27024Y287568D01*
X26486Y286560D01*
X26154Y285467D01*
X26042Y284330D01*
X26154Y283193D01*
X26486Y282100D01*
X27024Y281092D01*
X27749Y280209D01*
X28632Y279484D01*
X29640Y278946D01*
X30733Y278614D01*
X31870Y278502D01*
X33007Y278614D01*
X34100Y278946D01*
X35108Y279484D01*
X35991Y280209D01*
X36716Y281092D01*
X37254Y282100D01*
X37586Y283193D01*
X37698Y284330D01*
X37586Y285467D01*
X37254Y286560D01*
X36716Y287568D01*
X35991Y288451D01*
X35108Y289176D01*
X34100Y289714D01*
X33007Y290046D01*
X31870Y290158D01*
D02*
G37*
G36*
X247730Y275015D02*
X247108Y274891D01*
X246581Y274539D01*
X246229Y274012D01*
X246105Y273390D01*
X246229Y272768D01*
X246581Y272241D01*
X247108Y271889D01*
X247730Y271765D01*
X248352Y271889D01*
X248879Y272241D01*
X249231Y272768D01*
X249355Y273390D01*
X249231Y274012D01*
X248879Y274539D01*
X248352Y274891D01*
X247730Y275015D01*
D02*
G37*
G36*
X65360Y271865D02*
X64738Y271741D01*
X64211Y271389D01*
X63859Y270862D01*
X63735Y270240D01*
X63859Y269618D01*
X64211Y269091D01*
X64738Y268739D01*
X65360Y268615D01*
X65982Y268739D01*
X66509Y269091D01*
X66861Y269618D01*
X66985Y270240D01*
X66861Y270862D01*
X66509Y271389D01*
X65982Y271741D01*
X65360Y271865D01*
D02*
G37*
G36*
X75080Y267775D02*
X74458Y267651D01*
X73931Y267299D01*
X73579Y266772D01*
X73455Y266150D01*
X73579Y265528D01*
X73931Y265001D01*
X74458Y264649D01*
X75080Y264525D01*
X75702Y264649D01*
X76229Y265001D01*
X76581Y265528D01*
X76705Y266150D01*
X76581Y266772D01*
X76229Y267299D01*
X75702Y267651D01*
X75080Y267775D01*
D02*
G37*
G36*
X235130Y261395D02*
X234508Y261271D01*
X233981Y260919D01*
X233629Y260392D01*
X233505Y259770D01*
X233629Y259148D01*
X233981Y258621D01*
X234508Y258269D01*
X235130Y258145D01*
X235752Y258269D01*
X236279Y258621D01*
X236631Y259148D01*
X236755Y259770D01*
X236631Y260392D01*
X236279Y260919D01*
X235752Y261271D01*
X235130Y261395D01*
D02*
G37*
G36*
X392628Y258635D02*
X392006Y258511D01*
X391478Y258159D01*
X391126Y257631D01*
X391003Y257010D01*
X391126Y256388D01*
X391478Y255861D01*
X392006Y255508D01*
X392628Y255385D01*
X393249Y255508D01*
X393776Y255861D01*
X394129Y256388D01*
X394252Y257010D01*
X394129Y257631D01*
X393776Y258159D01*
X393249Y258511D01*
X392628Y258635D01*
D02*
G37*
G36*
X635251Y264599D02*
X633789Y264407D01*
X632427Y263843D01*
X631257Y262945D01*
X630359Y261775D01*
X629795Y260413D01*
X629602Y258951D01*
X629795Y257489D01*
X630359Y256127D01*
X631257Y254957D01*
X632427Y254060D01*
X633789Y253495D01*
X635251Y253303D01*
X636713Y253495D01*
X638075Y254060D01*
X639245Y254957D01*
X640142Y256127D01*
X640707Y257489D01*
X640899Y258951D01*
X640707Y260413D01*
X640142Y261775D01*
X639245Y262945D01*
X638075Y263843D01*
X636713Y264407D01*
X635251Y264599D01*
D02*
G37*
G36*
X600Y263258D02*
X-862Y263066D01*
X-2224Y262502D01*
X-3394Y261604D01*
X-4292Y260434D01*
X-4856Y259072D01*
X-5048Y257610D01*
X-4856Y256148D01*
X-4292Y254786D01*
X-3394Y253616D01*
X-2224Y252718D01*
X-862Y252154D01*
X600Y251962D01*
X2062Y252154D01*
X3424Y252718D01*
X4594Y253616D01*
X5492Y254786D01*
X6056Y256148D01*
X6248Y257610D01*
X6056Y259072D01*
X5492Y260434D01*
X4594Y261604D01*
X3424Y262502D01*
X2062Y263066D01*
X600Y263258D01*
D02*
G37*
G36*
X416390Y252625D02*
X415768Y252501D01*
X415241Y252149D01*
X414889Y251622D01*
X414765Y251000D01*
X414889Y250378D01*
X415241Y249851D01*
X415768Y249499D01*
X416390Y249375D01*
X417012Y249499D01*
X417539Y249851D01*
X417891Y250378D01*
X418015Y251000D01*
X417891Y251622D01*
X417539Y252149D01*
X417012Y252501D01*
X416390Y252625D01*
D02*
G37*
G36*
X567740Y251785D02*
X567118Y251661D01*
X566591Y251309D01*
X566238Y250782D01*
X566115Y250160D01*
X566238Y249538D01*
X566591Y249011D01*
X567118Y248659D01*
X567740Y248535D01*
X568361Y248659D01*
X568889Y249011D01*
X569241Y249538D01*
X569365Y250160D01*
X569241Y250782D01*
X568889Y251309D01*
X568361Y251661D01*
X567740Y251785D01*
D02*
G37*
G36*
X396110Y251585D02*
X395488Y251461D01*
X394961Y251109D01*
X394609Y250582D01*
X394485Y249960D01*
X394609Y249338D01*
X394961Y248811D01*
X395488Y248459D01*
X396110Y248335D01*
X396732Y248459D01*
X397259Y248811D01*
X397611Y249338D01*
X397735Y249960D01*
X397611Y250582D01*
X397259Y251109D01*
X396732Y251461D01*
X396110Y251585D01*
D02*
G37*
G36*
X576870Y249615D02*
X576248Y249491D01*
X575721Y249139D01*
X575369Y248612D01*
X575245Y247990D01*
X575369Y247368D01*
X575721Y246841D01*
X576248Y246489D01*
X576870Y246365D01*
X577492Y246489D01*
X578019Y246841D01*
X578371Y247368D01*
X578495Y247990D01*
X578371Y248612D01*
X578019Y249139D01*
X577492Y249491D01*
X576870Y249615D01*
D02*
G37*
G36*
X608310Y259869D02*
X606722Y259713D01*
X605195Y259250D01*
X603788Y258498D01*
X602555Y257485D01*
X601543Y256252D01*
X600790Y254845D01*
X600327Y253318D01*
X600171Y251730D01*
X600327Y250142D01*
X600790Y248615D01*
X601543Y247208D01*
X602555Y245975D01*
X603788Y244963D01*
X605195Y244210D01*
X606722Y243747D01*
X608310Y243591D01*
X609898Y243747D01*
X611425Y244210D01*
X612832Y244963D01*
X614065Y245975D01*
X615077Y247208D01*
X615830Y248615D01*
X616293Y250142D01*
X616449Y251730D01*
X616293Y253318D01*
X615830Y254845D01*
X615077Y256252D01*
X614065Y257485D01*
X612832Y258498D01*
X611425Y259250D01*
X609898Y259713D01*
X608310Y259869D01*
D02*
G37*
G36*
X416560Y246815D02*
X415938Y246691D01*
X415411Y246339D01*
X415059Y245812D01*
X414935Y245190D01*
X415059Y244568D01*
X415411Y244041D01*
X415938Y243689D01*
X416560Y243565D01*
X417182Y243689D01*
X417709Y244041D01*
X418061Y244568D01*
X418185Y245190D01*
X418061Y245812D01*
X417709Y246339D01*
X417182Y246691D01*
X416560Y246815D01*
D02*
G37*
G36*
X436767Y259559D02*
X435179Y259403D01*
X433652Y258940D01*
X432245Y258188D01*
X431011Y257175D01*
X429999Y255942D01*
X429247Y254535D01*
X428784Y253008D01*
X428627Y251420D01*
X428784Y249832D01*
X429247Y248305D01*
X429999Y246898D01*
X431011Y245665D01*
X432245Y244653D01*
X433652Y243900D01*
X435179Y243437D01*
X436767Y243281D01*
X438354Y243437D01*
X439881Y243900D01*
X441289Y244653D01*
X442522Y245665D01*
X443534Y246898D01*
X444286Y248305D01*
X444749Y249832D01*
X444906Y251420D01*
X444749Y253008D01*
X444286Y254535D01*
X443534Y255942D01*
X442522Y257175D01*
X441289Y258188D01*
X439881Y258940D01*
X438354Y259403D01*
X436767Y259559D01*
D02*
G37*
G36*
X265223Y259469D02*
X263635Y259313D01*
X262109Y258850D01*
X260701Y258098D01*
X259468Y257085D01*
X258456Y255852D01*
X257704Y254445D01*
X257241Y252918D01*
X257084Y251330D01*
X257241Y249742D01*
X257704Y248215D01*
X258456Y246808D01*
X259468Y245575D01*
X260701Y244563D01*
X262109Y243810D01*
X263635Y243347D01*
X265223Y243191D01*
X266811Y243347D01*
X268338Y243810D01*
X269745Y244563D01*
X270979Y245575D01*
X271991Y246808D01*
X272743Y248215D01*
X273206Y249742D01*
X273362Y251330D01*
X273206Y252918D01*
X272743Y254445D01*
X271991Y255852D01*
X270979Y257085D01*
X269745Y258098D01*
X268338Y258850D01*
X266811Y259313D01*
X265223Y259469D01*
D02*
G37*
G36*
X93870D02*
X92282Y259313D01*
X90755Y258850D01*
X89348Y258098D01*
X88115Y257085D01*
X87103Y255852D01*
X86350Y254445D01*
X85887Y252918D01*
X85731Y251330D01*
X85887Y249742D01*
X86350Y248215D01*
X87103Y246808D01*
X88115Y245575D01*
X89348Y244563D01*
X90755Y243810D01*
X92282Y243347D01*
X93870Y243191D01*
X95458Y243347D01*
X96985Y243810D01*
X98392Y244563D01*
X99625Y245575D01*
X100637Y246808D01*
X101390Y248215D01*
X101853Y249742D01*
X102009Y251330D01*
X101853Y252918D01*
X101390Y254445D01*
X100637Y255852D01*
X99625Y257085D01*
X98392Y258098D01*
X96985Y258850D01*
X95458Y259313D01*
X93870Y259469D01*
D02*
G37*
G36*
X563180Y245705D02*
X562558Y245581D01*
X562031Y245229D01*
X561679Y244702D01*
X561555Y244080D01*
X561679Y243458D01*
X562031Y242931D01*
X562558Y242579D01*
X563180Y242455D01*
X563802Y242579D01*
X564329Y242931D01*
X564681Y243458D01*
X564805Y244080D01*
X564681Y244702D01*
X564329Y245229D01*
X563802Y245581D01*
X563180Y245705D01*
D02*
G37*
G36*
X521538Y258519D02*
X519950Y258363D01*
X518424Y257900D01*
X517016Y257148D01*
X515783Y256135D01*
X514771Y254902D01*
X514019Y253495D01*
X513555Y251968D01*
X513399Y250380D01*
X513555Y248792D01*
X514019Y247265D01*
X514771Y245858D01*
X515783Y244625D01*
X517016Y243613D01*
X518424Y242860D01*
X519950Y242397D01*
X521538Y242241D01*
X523126Y242397D01*
X524653Y242860D01*
X526060Y243613D01*
X527294Y244625D01*
X528306Y245858D01*
X529058Y247265D01*
X529521Y248792D01*
X529677Y250380D01*
X529521Y251968D01*
X529058Y253495D01*
X528306Y254902D01*
X527294Y256135D01*
X526060Y257148D01*
X524653Y257900D01*
X523126Y258363D01*
X521538Y258519D01*
D02*
G37*
G36*
X349995D02*
X348407Y258363D01*
X346880Y257900D01*
X345473Y257148D01*
X344240Y256135D01*
X343228Y254902D01*
X342475Y253495D01*
X342012Y251968D01*
X341856Y250380D01*
X342012Y248792D01*
X342475Y247265D01*
X343228Y245858D01*
X344240Y244625D01*
X345473Y243613D01*
X346880Y242860D01*
X348407Y242397D01*
X349995Y242241D01*
X351583Y242397D01*
X353110Y242860D01*
X354517Y243613D01*
X355750Y244625D01*
X356763Y245858D01*
X357515Y247265D01*
X357978Y248792D01*
X358134Y250380D01*
X357978Y251968D01*
X357515Y253495D01*
X356763Y254902D01*
X355750Y256135D01*
X354517Y257148D01*
X353110Y257900D01*
X351583Y258363D01*
X349995Y258519D01*
D02*
G37*
G36*
X178547D02*
X176959Y258363D01*
X175432Y257900D01*
X174025Y257148D01*
X172791Y256135D01*
X171779Y254902D01*
X171027Y253495D01*
X170564Y251968D01*
X170407Y250380D01*
X170564Y248792D01*
X171027Y247265D01*
X171779Y245858D01*
X172791Y244625D01*
X174025Y243613D01*
X175432Y242860D01*
X176959Y242397D01*
X178547Y242241D01*
X180134Y242397D01*
X181661Y242860D01*
X183069Y243613D01*
X184302Y244625D01*
X185314Y245858D01*
X186066Y247265D01*
X186530Y248792D01*
X186686Y250380D01*
X186530Y251968D01*
X186066Y253495D01*
X185314Y254902D01*
X184302Y256135D01*
X183069Y257148D01*
X181661Y257900D01*
X180134Y258363D01*
X178547Y258519D01*
D02*
G37*
G36*
X236480Y233265D02*
X235858Y233141D01*
X235331Y232789D01*
X234979Y232262D01*
X234855Y231640D01*
X234979Y231018D01*
X235331Y230491D01*
X235858Y230139D01*
X236480Y230015D01*
X237102Y230139D01*
X237629Y230491D01*
X237981Y231018D01*
X238105Y231640D01*
X237981Y232262D01*
X237629Y232789D01*
X237102Y233141D01*
X236480Y233265D01*
D02*
G37*
G36*
X5631Y233364D02*
X4756Y233249D01*
X3941Y232911D01*
X3241Y232374D01*
X2705Y231674D01*
X2367Y230859D01*
X2252Y229985D01*
X2367Y229110D01*
X2705Y228295D01*
X3241Y227596D01*
X3941Y227059D01*
X4756Y226721D01*
X5631Y226606D01*
X6505Y226721D01*
X7320Y227059D01*
X8020Y227596D01*
X8557Y228295D01*
X8895Y229110D01*
X9010Y229985D01*
X8895Y230859D01*
X8557Y231674D01*
X8020Y232374D01*
X7320Y232911D01*
X6505Y233249D01*
X5631Y233364D01*
D02*
G37*
G36*
X239700Y228105D02*
X239078Y227981D01*
X238551Y227629D01*
X238199Y227102D01*
X238075Y226480D01*
X238199Y225858D01*
X238551Y225331D01*
X239078Y224979D01*
X239700Y224855D01*
X240322Y224979D01*
X240849Y225331D01*
X241201Y225858D01*
X241325Y226480D01*
X241201Y227102D01*
X240849Y227629D01*
X240322Y227981D01*
X239700Y228105D01*
D02*
G37*
G36*
X-4369Y227970D02*
X-5244Y227855D01*
X-6059Y227517D01*
X-6758Y226980D01*
X-7295Y226281D01*
X-7633Y225466D01*
X-7748Y224591D01*
X-7633Y223717D01*
X-7295Y222902D01*
X-6758Y222202D01*
X-6059Y221665D01*
X-5244Y221327D01*
X-4369Y221212D01*
X-3495Y221327D01*
X-2680Y221665D01*
X-1980Y222202D01*
X-1443Y222902D01*
X-1106Y223717D01*
X-990Y224591D01*
X-1106Y225466D01*
X-1443Y226281D01*
X-1980Y226980D01*
X-2680Y227517D01*
X-3495Y227855D01*
X-4369Y227970D01*
D02*
G37*
G36*
X5631Y222576D02*
X4756Y222461D01*
X3941Y222124D01*
X3241Y221587D01*
X2705Y220887D01*
X2367Y220072D01*
X2252Y219197D01*
X2367Y218323D01*
X2705Y217508D01*
X3241Y216808D01*
X3941Y216271D01*
X4756Y215934D01*
X5631Y215819D01*
X6505Y215934D01*
X7320Y216271D01*
X8020Y216808D01*
X8557Y217508D01*
X8895Y218323D01*
X9010Y219197D01*
X8895Y220072D01*
X8557Y220887D01*
X8020Y221587D01*
X7320Y222124D01*
X6505Y222461D01*
X5631Y222576D01*
D02*
G37*
G36*
X-4369Y217183D02*
X-5244Y217068D01*
X-6059Y216730D01*
X-6758Y216193D01*
X-7295Y215493D01*
X-7633Y214678D01*
X-7748Y213804D01*
X-7633Y212929D01*
X-7295Y212114D01*
X-6758Y211414D01*
X-6059Y210877D01*
X-5244Y210540D01*
X-4369Y210425D01*
X-3495Y210540D01*
X-2680Y210877D01*
X-1980Y211414D01*
X-1443Y212114D01*
X-1106Y212929D01*
X-990Y213804D01*
X-1106Y214678D01*
X-1443Y215493D01*
X-1980Y216193D01*
X-2680Y216730D01*
X-3495Y217068D01*
X-4369Y217183D01*
D02*
G37*
G36*
X630220Y213130D02*
X629346Y213015D01*
X628531Y212677D01*
X627831Y212140D01*
X627294Y211440D01*
X626956Y210626D01*
X626841Y209751D01*
X626956Y208877D01*
X627294Y208062D01*
X627831Y207362D01*
X628531Y206825D01*
X629346Y206487D01*
X630220Y206372D01*
X631095Y206487D01*
X631910Y206825D01*
X632609Y207362D01*
X633146Y208062D01*
X633484Y208877D01*
X633599Y209751D01*
X633484Y210626D01*
X633146Y211440D01*
X632609Y212140D01*
X631910Y212677D01*
X631095Y213015D01*
X630220Y213130D01*
D02*
G37*
G36*
X5631Y211789D02*
X4756Y211674D01*
X3941Y211336D01*
X3241Y210799D01*
X2705Y210100D01*
X2367Y209284D01*
X2252Y208410D01*
X2367Y207536D01*
X2705Y206720D01*
X3241Y206021D01*
X3941Y205484D01*
X4756Y205146D01*
X5631Y205031D01*
X6505Y205146D01*
X7320Y205484D01*
X8020Y206021D01*
X8557Y206720D01*
X8895Y207536D01*
X9010Y208410D01*
X8895Y209284D01*
X8557Y210100D01*
X8020Y210799D01*
X7320Y211336D01*
X6505Y211674D01*
X5631Y211789D01*
D02*
G37*
G36*
X640220Y207736D02*
X639346Y207621D01*
X638531Y207284D01*
X637831Y206747D01*
X637294Y206047D01*
X636956Y205232D01*
X636841Y204357D01*
X636956Y203483D01*
X637294Y202668D01*
X637831Y201968D01*
X638531Y201431D01*
X639346Y201094D01*
X640220Y200978D01*
X641094Y201094D01*
X641910Y201431D01*
X642609Y201968D01*
X643146Y202668D01*
X643484Y203483D01*
X643599Y204357D01*
X643484Y205232D01*
X643146Y206047D01*
X642609Y206747D01*
X641910Y207284D01*
X641094Y207621D01*
X640220Y207736D01*
D02*
G37*
G36*
X-4369Y206395D02*
X-5244Y206280D01*
X-6059Y205943D01*
X-6758Y205405D01*
X-7295Y204706D01*
X-7633Y203891D01*
X-7748Y203016D01*
X-7633Y202142D01*
X-7295Y201327D01*
X-6758Y200627D01*
X-6059Y200090D01*
X-5244Y199752D01*
X-4369Y199637D01*
X-3495Y199752D01*
X-2680Y200090D01*
X-1980Y200627D01*
X-1443Y201327D01*
X-1106Y202142D01*
X-990Y203016D01*
X-1106Y203891D01*
X-1443Y204706D01*
X-1980Y205405D01*
X-2680Y205943D01*
X-3495Y206280D01*
X-4369Y206395D01*
D02*
G37*
G36*
X236350Y199775D02*
X235728Y199651D01*
X235201Y199299D01*
X234849Y198772D01*
X234725Y198150D01*
X234849Y197528D01*
X235201Y197001D01*
X235728Y196649D01*
X236350Y196525D01*
X236972Y196649D01*
X237499Y197001D01*
X237851Y197528D01*
X237975Y198150D01*
X237851Y198772D01*
X237499Y199299D01*
X236972Y199651D01*
X236350Y199775D01*
D02*
G37*
G36*
X630220Y202343D02*
X629346Y202227D01*
X628531Y201890D01*
X627831Y201353D01*
X627294Y200653D01*
X626956Y199838D01*
X626841Y198964D01*
X626956Y198089D01*
X627294Y197274D01*
X627831Y196574D01*
X628531Y196037D01*
X629346Y195700D01*
X630220Y195585D01*
X631095Y195700D01*
X631910Y196037D01*
X632609Y196574D01*
X633146Y197274D01*
X633484Y198089D01*
X633599Y198964D01*
X633484Y199838D01*
X633146Y200653D01*
X632609Y201353D01*
X631910Y201890D01*
X631095Y202227D01*
X630220Y202343D01*
D02*
G37*
G36*
X5631Y201002D02*
X4756Y200886D01*
X3941Y200549D01*
X3241Y200012D01*
X2705Y199312D01*
X2367Y198497D01*
X2252Y197623D01*
X2367Y196748D01*
X2705Y195933D01*
X3241Y195233D01*
X3941Y194696D01*
X4756Y194359D01*
X5631Y194244D01*
X6505Y194359D01*
X7320Y194696D01*
X8020Y195233D01*
X8557Y195933D01*
X8895Y196748D01*
X9010Y197623D01*
X8895Y198497D01*
X8557Y199312D01*
X8020Y200012D01*
X7320Y200549D01*
X6505Y200886D01*
X5631Y201002D01*
D02*
G37*
G36*
X640220Y196949D02*
X639346Y196834D01*
X638531Y196496D01*
X637831Y195959D01*
X637294Y195259D01*
X636956Y194445D01*
X636841Y193570D01*
X636956Y192695D01*
X637294Y191881D01*
X637831Y191181D01*
X638531Y190644D01*
X639346Y190306D01*
X640220Y190191D01*
X641094Y190306D01*
X641910Y190644D01*
X642609Y191181D01*
X643146Y191881D01*
X643484Y192695D01*
X643599Y193570D01*
X643484Y194445D01*
X643146Y195259D01*
X642609Y195959D01*
X641910Y196496D01*
X641094Y196834D01*
X640220Y196949D01*
D02*
G37*
G36*
X-4369Y195608D02*
X-5244Y195493D01*
X-6059Y195155D01*
X-6758Y194618D01*
X-7295Y193918D01*
X-7633Y193103D01*
X-7748Y192229D01*
X-7633Y191354D01*
X-7295Y190539D01*
X-6758Y189840D01*
X-6059Y189303D01*
X-5244Y188965D01*
X-4369Y188850D01*
X-3495Y188965D01*
X-2680Y189303D01*
X-1980Y189840D01*
X-1443Y190539D01*
X-1106Y191354D01*
X-990Y192229D01*
X-1106Y193103D01*
X-1443Y193918D01*
X-1980Y194618D01*
X-2680Y195155D01*
X-3495Y195493D01*
X-4369Y195608D01*
D02*
G37*
G36*
X630220Y191555D02*
X629346Y191440D01*
X628531Y191103D01*
X627831Y190566D01*
X627294Y189866D01*
X626956Y189051D01*
X626841Y188176D01*
X626956Y187302D01*
X627294Y186487D01*
X627831Y185787D01*
X628531Y185250D01*
X629346Y184913D01*
X630220Y184797D01*
X631095Y184913D01*
X631910Y185250D01*
X632609Y185787D01*
X633146Y186487D01*
X633484Y187302D01*
X633599Y188176D01*
X633484Y189051D01*
X633146Y189866D01*
X632609Y190566D01*
X631910Y191103D01*
X631095Y191440D01*
X630220Y191555D01*
D02*
G37*
G36*
X248640Y186085D02*
X248018Y185961D01*
X247491Y185609D01*
X247139Y185082D01*
X247015Y184460D01*
X247139Y183838D01*
X247491Y183311D01*
X248018Y182959D01*
X248640Y182835D01*
X249262Y182959D01*
X249789Y183311D01*
X250141Y183838D01*
X250265Y184460D01*
X250141Y185082D01*
X249789Y185609D01*
X249262Y185961D01*
X248640Y186085D01*
D02*
G37*
G36*
X504300Y176400D02*
X503678Y176276D01*
X503151Y175924D01*
X502799Y175397D01*
X502675Y174775D01*
X502799Y174153D01*
X503151Y173626D01*
X503678Y173274D01*
X504300Y173150D01*
X504922Y173274D01*
X505449Y173626D01*
X505801Y174153D01*
X505925Y174775D01*
X505801Y175397D01*
X505449Y175924D01*
X504922Y176276D01*
X504300Y176400D01*
D02*
G37*
G36*
X304410Y169768D02*
X303788Y169644D01*
X303261Y169292D01*
X302909Y168765D01*
X302785Y168143D01*
X302909Y167521D01*
X303261Y166994D01*
X303788Y166641D01*
X304410Y166518D01*
X305032Y166641D01*
X305559Y166994D01*
X305911Y167521D01*
X306035Y168143D01*
X305911Y168765D01*
X305559Y169292D01*
X305032Y169644D01*
X304410Y169768D01*
D02*
G37*
G36*
X263527Y168896D02*
X262905Y168772D01*
X262378Y168420D01*
X262026Y167893D01*
X261902Y167271D01*
X262026Y166649D01*
X262378Y166122D01*
X262905Y165770D01*
X263527Y165646D01*
X264149Y165770D01*
X264676Y166122D01*
X265028Y166649D01*
X265152Y167271D01*
X265028Y167893D01*
X264676Y168420D01*
X264149Y168772D01*
X263527Y168896D01*
D02*
G37*
G36*
X271300Y168555D02*
X270678Y168431D01*
X270151Y168079D01*
X269799Y167552D01*
X269675Y166930D01*
X269799Y166308D01*
X270151Y165781D01*
X270678Y165429D01*
X271300Y165305D01*
X271922Y165429D01*
X272449Y165781D01*
X272801Y166308D01*
X272925Y166930D01*
X272801Y167552D01*
X272449Y168079D01*
X271922Y168431D01*
X271300Y168555D01*
D02*
G37*
G36*
X564800Y167945D02*
X564178Y167821D01*
X563651Y167469D01*
X563299Y166942D01*
X563175Y166320D01*
X563299Y165698D01*
X563651Y165171D01*
X564178Y164819D01*
X564800Y164695D01*
X565422Y164819D01*
X565949Y165171D01*
X566301Y165698D01*
X566425Y166320D01*
X566301Y166942D01*
X565949Y167469D01*
X565422Y167821D01*
X564800Y167945D01*
D02*
G37*
G36*
X230415Y167859D02*
X229793Y167736D01*
X229266Y167384D01*
X228913Y166856D01*
X228790Y166235D01*
X228913Y165613D01*
X229266Y165086D01*
X229793Y164733D01*
X230415Y164610D01*
X231036Y164733D01*
X231564Y165086D01*
X231916Y165613D01*
X232039Y166235D01*
X231916Y166856D01*
X231564Y167384D01*
X231036Y167736D01*
X230415Y167859D01*
D02*
G37*
G36*
X217930Y165535D02*
X217308Y165411D01*
X216781Y165059D01*
X216429Y164532D01*
X216305Y163910D01*
X216429Y163288D01*
X216781Y162761D01*
X217308Y162409D01*
X217930Y162285D01*
X218552Y162409D01*
X219079Y162761D01*
X219431Y163288D01*
X219555Y163910D01*
X219431Y164532D01*
X219079Y165059D01*
X218552Y165411D01*
X217930Y165535D01*
D02*
G37*
G36*
X283420Y165145D02*
X282798Y165021D01*
X282271Y164669D01*
X281919Y164142D01*
X281795Y163520D01*
X281919Y162898D01*
X282271Y162371D01*
X282798Y162019D01*
X283420Y161895D01*
X284042Y162019D01*
X284569Y162371D01*
X284921Y162898D01*
X285045Y163520D01*
X284921Y164142D01*
X284569Y164669D01*
X284042Y165021D01*
X283420Y165145D01*
D02*
G37*
G36*
X346440Y161045D02*
X345818Y160921D01*
X345291Y160569D01*
X344939Y160042D01*
X344815Y159420D01*
X344939Y158798D01*
X345291Y158271D01*
X345818Y157919D01*
X346440Y157795D01*
X347062Y157919D01*
X347589Y158271D01*
X347941Y158798D01*
X348065Y159420D01*
X347941Y160042D01*
X347589Y160569D01*
X347062Y160921D01*
X346440Y161045D01*
D02*
G37*
G36*
X564567Y158345D02*
X563945Y158221D01*
X563418Y157869D01*
X563066Y157342D01*
X562942Y156720D01*
X563066Y156098D01*
X563418Y155571D01*
X563945Y155219D01*
X564567Y155095D01*
X565189Y155219D01*
X565716Y155571D01*
X566068Y156098D01*
X566192Y156720D01*
X566068Y157342D01*
X565716Y157869D01*
X565189Y158221D01*
X564567Y158345D01*
D02*
G37*
G36*
X217930Y158155D02*
X217308Y158031D01*
X216781Y157679D01*
X216429Y157152D01*
X216305Y156530D01*
X216429Y155908D01*
X216781Y155381D01*
X217308Y155029D01*
X217930Y154905D01*
X218552Y155029D01*
X219079Y155381D01*
X219431Y155908D01*
X219555Y156530D01*
X219431Y157152D01*
X219079Y157679D01*
X218552Y158031D01*
X217930Y158155D01*
D02*
G37*
G36*
X635251Y166199D02*
X633789Y166007D01*
X632427Y165443D01*
X631257Y164545D01*
X630359Y163375D01*
X629795Y162013D01*
X629602Y160551D01*
X629795Y159089D01*
X630359Y157727D01*
X631257Y156557D01*
X632427Y155659D01*
X633789Y155095D01*
X635251Y154903D01*
X636713Y155095D01*
X638075Y155659D01*
X639245Y156557D01*
X640142Y157727D01*
X640707Y159089D01*
X640899Y160551D01*
X640707Y162013D01*
X640142Y163375D01*
X639245Y164545D01*
X638075Y165443D01*
X636713Y166007D01*
X635251Y166199D01*
D02*
G37*
G36*
X600Y164858D02*
X-862Y164666D01*
X-2224Y164102D01*
X-3394Y163204D01*
X-4292Y162034D01*
X-4856Y160672D01*
X-5048Y159210D01*
X-4856Y157748D01*
X-4292Y156386D01*
X-3394Y155216D01*
X-2224Y154318D01*
X-862Y153754D01*
X600Y153562D01*
X2062Y153754D01*
X3424Y154318D01*
X4594Y155216D01*
X5492Y156386D01*
X6056Y157748D01*
X6248Y159210D01*
X6056Y160672D01*
X5492Y162034D01*
X4594Y163204D01*
X3424Y164102D01*
X2062Y164666D01*
X600Y164858D01*
D02*
G37*
G36*
X174930Y156225D02*
X174308Y156101D01*
X173781Y155749D01*
X173429Y155222D01*
X173305Y154600D01*
X173429Y153978D01*
X173781Y153451D01*
X174308Y153099D01*
X174930Y152975D01*
X175552Y153099D01*
X176079Y153451D01*
X176431Y153978D01*
X176555Y154600D01*
X176431Y155222D01*
X176079Y155749D01*
X175552Y156101D01*
X174930Y156225D01*
D02*
G37*
G36*
X302350Y155655D02*
X301728Y155531D01*
X301201Y155179D01*
X300849Y154652D01*
X300725Y154030D01*
X300849Y153408D01*
X301201Y152881D01*
X301728Y152529D01*
X302350Y152405D01*
X302972Y152529D01*
X303499Y152881D01*
X303851Y153408D01*
X303975Y154030D01*
X303851Y154652D01*
X303499Y155179D01*
X302972Y155531D01*
X302350Y155655D01*
D02*
G37*
G36*
X298340D02*
X297718Y155531D01*
X297191Y155179D01*
X296839Y154652D01*
X296715Y154030D01*
X296839Y153408D01*
X297191Y152881D01*
X297718Y152529D01*
X298340Y152405D01*
X298962Y152529D01*
X299489Y152881D01*
X299841Y153408D01*
X299965Y154030D01*
X299841Y154652D01*
X299489Y155179D01*
X298962Y155531D01*
X298340Y155655D01*
D02*
G37*
G36*
X273470D02*
X272848Y155531D01*
X272321Y155179D01*
X271969Y154652D01*
X271845Y154030D01*
X271969Y153408D01*
X272321Y152881D01*
X272848Y152529D01*
X273470Y152405D01*
X274092Y152529D01*
X274619Y152881D01*
X274971Y153408D01*
X275095Y154030D01*
X274971Y154652D01*
X274619Y155179D01*
X274092Y155531D01*
X273470Y155655D01*
D02*
G37*
G36*
X284646Y153456D02*
X284025Y153333D01*
X283497Y152980D01*
X283145Y152453D01*
X283021Y151831D01*
X283145Y151210D01*
X283497Y150682D01*
X284025Y150330D01*
X284646Y150206D01*
X285268Y150330D01*
X285795Y150682D01*
X286148Y151210D01*
X286271Y151831D01*
X286148Y152453D01*
X285795Y152980D01*
X285268Y153333D01*
X284646Y153456D01*
D02*
G37*
G36*
X346220Y151025D02*
X345598Y150901D01*
X345071Y150549D01*
X344719Y150022D01*
X344595Y149400D01*
X344719Y148778D01*
X345071Y148251D01*
X345598Y147899D01*
X346220Y147775D01*
X346842Y147899D01*
X347369Y148251D01*
X347721Y148778D01*
X347845Y149400D01*
X347721Y150022D01*
X347369Y150549D01*
X346842Y150901D01*
X346220Y151025D01*
D02*
G37*
G36*
X183068Y150948D02*
X182447Y150824D01*
X181919Y150472D01*
X181567Y149945D01*
X181443Y149323D01*
X181567Y148701D01*
X181919Y148174D01*
X182447Y147821D01*
X183068Y147698D01*
X183690Y147821D01*
X184217Y148174D01*
X184570Y148701D01*
X184693Y149323D01*
X184570Y149945D01*
X184217Y150472D01*
X183690Y150824D01*
X183068Y150948D01*
D02*
G37*
G36*
X332836Y146941D02*
X332215Y146818D01*
X331687Y146465D01*
X331335Y145938D01*
X331211Y145316D01*
X331335Y144694D01*
X331687Y144167D01*
X332215Y143815D01*
X332836Y143691D01*
X333458Y143815D01*
X333985Y144167D01*
X334338Y144694D01*
X334461Y145316D01*
X334338Y145938D01*
X333985Y146465D01*
X333458Y146818D01*
X332836Y146941D01*
D02*
G37*
G36*
X318120Y145779D02*
X317498Y145655D01*
X316971Y145303D01*
X316619Y144776D01*
X316495Y144154D01*
X316619Y143532D01*
X316971Y143005D01*
X317498Y142653D01*
X318120Y142529D01*
X318742Y142653D01*
X319269Y143005D01*
X319621Y143532D01*
X319745Y144154D01*
X319621Y144776D01*
X319269Y145303D01*
X318742Y145655D01*
X318120Y145779D01*
D02*
G37*
G36*
X202270Y145765D02*
X201648Y145641D01*
X201121Y145289D01*
X200769Y144762D01*
X200645Y144140D01*
X200769Y143518D01*
X201121Y142991D01*
X201648Y142639D01*
X202270Y142515D01*
X202892Y142639D01*
X203419Y142991D01*
X203771Y143518D01*
X203895Y144140D01*
X203771Y144762D01*
X203419Y145289D01*
X202892Y145641D01*
X202270Y145765D01*
D02*
G37*
G36*
X167013Y141483D02*
X166391Y141359D01*
X165864Y141007D01*
X165512Y140480D01*
X165388Y139858D01*
X165512Y139236D01*
X165864Y138709D01*
X166391Y138357D01*
X167013Y138233D01*
X167634Y138357D01*
X168162Y138709D01*
X168514Y139236D01*
X168638Y139858D01*
X168514Y140480D01*
X168162Y141007D01*
X167634Y141359D01*
X167013Y141483D01*
D02*
G37*
G36*
X348630Y139735D02*
X348008Y139611D01*
X347481Y139259D01*
X347129Y138732D01*
X347005Y138110D01*
X347129Y137488D01*
X347481Y136961D01*
X348008Y136609D01*
X348630Y136485D01*
X349252Y136609D01*
X349779Y136961D01*
X350131Y137488D01*
X350255Y138110D01*
X350131Y138732D01*
X349779Y139259D01*
X349252Y139611D01*
X348630Y139735D01*
D02*
G37*
G36*
X564630Y138725D02*
X564008Y138601D01*
X563481Y138249D01*
X563129Y137722D01*
X563005Y137100D01*
X563129Y136478D01*
X563481Y135951D01*
X564008Y135599D01*
X564630Y135475D01*
X565252Y135599D01*
X565779Y135951D01*
X566131Y136478D01*
X566255Y137100D01*
X566131Y137722D01*
X565779Y138249D01*
X565252Y138601D01*
X564630Y138725D01*
D02*
G37*
G36*
X171335Y138519D02*
X170713Y138395D01*
X170186Y138043D01*
X169834Y137516D01*
X169710Y136894D01*
X169834Y136272D01*
X170186Y135745D01*
X170713Y135393D01*
X171335Y135269D01*
X171957Y135393D01*
X172484Y135745D01*
X172836Y136272D01*
X172960Y136894D01*
X172836Y137516D01*
X172484Y138043D01*
X171957Y138395D01*
X171335Y138519D01*
D02*
G37*
G36*
X155030Y137595D02*
X154408Y137471D01*
X153881Y137119D01*
X153529Y136592D01*
X153405Y135970D01*
X153529Y135348D01*
X153881Y134821D01*
X154408Y134469D01*
X155030Y134345D01*
X155652Y134469D01*
X156179Y134821D01*
X156531Y135348D01*
X156655Y135970D01*
X156531Y136592D01*
X156179Y137119D01*
X155652Y137471D01*
X155030Y137595D01*
D02*
G37*
G36*
X27860Y132863D02*
X27238Y132739D01*
X26711Y132387D01*
X26359Y131860D01*
X26235Y131238D01*
X26359Y130616D01*
X26711Y130089D01*
X27238Y129737D01*
X27860Y129613D01*
X28482Y129737D01*
X29009Y130089D01*
X29361Y130616D01*
X29485Y131238D01*
X29361Y131860D01*
X29009Y132387D01*
X28482Y132739D01*
X27860Y132863D01*
D02*
G37*
G36*
X635251Y140349D02*
X633789Y140157D01*
X632427Y139593D01*
X631257Y138695D01*
X630359Y137525D01*
X629795Y136163D01*
X629602Y134701D01*
X629795Y133239D01*
X630359Y131877D01*
X631257Y130707D01*
X632427Y129809D01*
X633789Y129245D01*
X635251Y129053D01*
X636713Y129245D01*
X638075Y129809D01*
X639245Y130707D01*
X640142Y131877D01*
X640707Y133239D01*
X640899Y134701D01*
X640707Y136163D01*
X640142Y137525D01*
X639245Y138695D01*
X638075Y139593D01*
X636713Y140157D01*
X635251Y140349D01*
D02*
G37*
G36*
X131480Y131135D02*
X130858Y131011D01*
X130331Y130659D01*
X129979Y130132D01*
X129855Y129510D01*
X129979Y128888D01*
X130331Y128361D01*
X130858Y128009D01*
X131480Y127885D01*
X132102Y128009D01*
X132629Y128361D01*
X132981Y128888D01*
X133105Y129510D01*
X132981Y130132D01*
X132629Y130659D01*
X132102Y131011D01*
X131480Y131135D01*
D02*
G37*
G36*
X8579Y135001D02*
X7651Y134879D01*
X6787Y134521D01*
X6045Y133951D01*
X5475Y133209D01*
X5117Y132345D01*
X4995Y131417D01*
X5117Y130490D01*
X5475Y129625D01*
X6045Y128883D01*
X6787Y128314D01*
X7651Y127956D01*
X8579Y127834D01*
X9506Y127956D01*
X10370Y128314D01*
X11112Y128883D01*
X11682Y129625D01*
X12040Y130490D01*
X12162Y131417D01*
X12040Y132345D01*
X11682Y133209D01*
X11112Y133951D01*
X10370Y134521D01*
X9506Y134879D01*
X8579Y135001D01*
D02*
G37*
G36*
X167106Y127004D02*
X166484Y126880D01*
X165957Y126528D01*
X165604Y126001D01*
X165481Y125379D01*
X165604Y124757D01*
X165957Y124230D01*
X166484Y123878D01*
X167106Y123754D01*
X167727Y123878D01*
X168255Y124230D01*
X168607Y124757D01*
X168731Y125379D01*
X168607Y126001D01*
X168255Y126528D01*
X167727Y126880D01*
X167106Y127004D01*
D02*
G37*
G36*
X124010Y126865D02*
X123388Y126741D01*
X122861Y126389D01*
X122509Y125862D01*
X122385Y125240D01*
X122509Y124618D01*
X122861Y124091D01*
X123388Y123739D01*
X124010Y123615D01*
X124632Y123739D01*
X125159Y124091D01*
X125511Y124618D01*
X125635Y125240D01*
X125511Y125862D01*
X125159Y126389D01*
X124632Y126741D01*
X124010Y126865D01*
D02*
G37*
G36*
X310609Y127866D02*
X309987Y127742D01*
X309460Y127390D01*
X309108Y126863D01*
X308984Y126241D01*
X309108Y125619D01*
X309460Y125092D01*
X309987Y124740D01*
X310609Y124616D01*
X311231Y124740D01*
X311409Y124858D01*
X311658Y124742D01*
X311888Y124577D01*
X311999Y124018D01*
X312351Y123491D01*
X312878Y123139D01*
X313500Y123015D01*
X314122Y123139D01*
X314649Y123491D01*
X315001Y124018D01*
X315125Y124640D01*
X315001Y125262D01*
X314649Y125789D01*
X314122Y126141D01*
X313500Y126265D01*
X312878Y126141D01*
X312701Y126023D01*
X312452Y126139D01*
X312222Y126304D01*
X312111Y126863D01*
X311758Y127390D01*
X311231Y127742D01*
X310609Y127866D01*
D02*
G37*
G36*
X300698Y126265D02*
X300077Y126141D01*
X299549Y125789D01*
X299197Y125262D01*
X299073Y124640D01*
X299197Y124018D01*
X299549Y123491D01*
X300077Y123139D01*
X300698Y123015D01*
X301320Y123139D01*
X301847Y123491D01*
X302200Y124018D01*
X302323Y124640D01*
X302200Y125262D01*
X301847Y125789D01*
X301320Y126141D01*
X300698Y126265D01*
D02*
G37*
G36*
X293060Y125605D02*
X292438Y125481D01*
X291911Y125129D01*
X291559Y124602D01*
X291435Y123980D01*
X291559Y123358D01*
X291911Y122831D01*
X292438Y122479D01*
X293060Y122355D01*
X293682Y122479D01*
X294209Y122831D01*
X294561Y123358D01*
X294685Y123980D01*
X294561Y124602D01*
X294209Y125129D01*
X293682Y125481D01*
X293060Y125605D01*
D02*
G37*
G36*
X288039D02*
X287417Y125481D01*
X286890Y125129D01*
X286538Y124602D01*
X286414Y123980D01*
X286538Y123358D01*
X286890Y122831D01*
X287417Y122479D01*
X288039Y122355D01*
X288661Y122479D01*
X289188Y122831D01*
X289541Y123358D01*
X289664Y123980D01*
X289541Y124602D01*
X289188Y125129D01*
X288661Y125481D01*
X288039Y125605D01*
D02*
G37*
G36*
X318530Y125129D02*
X317908Y125005D01*
X317381Y124653D01*
X317028Y124126D01*
X316905Y123504D01*
X317028Y122882D01*
X317381Y122355D01*
X317908Y122002D01*
X318530Y121879D01*
X319151Y122002D01*
X319679Y122355D01*
X320031Y122882D01*
X320155Y123504D01*
X320031Y124126D01*
X319679Y124653D01*
X319151Y125005D01*
X318530Y125129D01*
D02*
G37*
G36*
X325520Y122935D02*
X324898Y122811D01*
X324371Y122459D01*
X324019Y121932D01*
X323895Y121310D01*
X324019Y120688D01*
X324371Y120161D01*
X324898Y119809D01*
X325520Y119685D01*
X326142Y119809D01*
X326669Y120161D01*
X327021Y120688D01*
X327145Y121310D01*
X327021Y121932D01*
X326669Y122459D01*
X326142Y122811D01*
X325520Y122935D01*
D02*
G37*
G36*
X119430Y122825D02*
X118808Y122701D01*
X118281Y122349D01*
X117929Y121822D01*
X117805Y121200D01*
X117929Y120578D01*
X118281Y120051D01*
X118808Y119699D01*
X119430Y119575D01*
X120052Y119699D01*
X120579Y120051D01*
X120931Y120578D01*
X121055Y121200D01*
X120931Y121822D01*
X120579Y122349D01*
X120052Y122701D01*
X119430Y122825D01*
D02*
G37*
G36*
X272582Y118805D02*
X271960Y118681D01*
X271433Y118329D01*
X271081Y117802D01*
X270957Y117180D01*
X271081Y116558D01*
X271433Y116031D01*
X271960Y115679D01*
X272582Y115555D01*
X273204Y115679D01*
X273731Y116031D01*
X274083Y116558D01*
X274207Y117180D01*
X274083Y117802D01*
X273731Y118329D01*
X273204Y118681D01*
X272582Y118805D01*
D02*
G37*
G36*
X487630Y118665D02*
X487008Y118541D01*
X486481Y118189D01*
X486129Y117662D01*
X486005Y117040D01*
X486129Y116418D01*
X486481Y115891D01*
X487008Y115539D01*
X487630Y115415D01*
X488252Y115539D01*
X488779Y115891D01*
X489131Y116418D01*
X489255Y117040D01*
X489131Y117662D01*
X488779Y118189D01*
X488252Y118541D01*
X487630Y118665D01*
D02*
G37*
G36*
X492220Y117855D02*
X491598Y117731D01*
X491071Y117379D01*
X490719Y116852D01*
X490595Y116230D01*
X490719Y115608D01*
X491071Y115081D01*
X491598Y114729D01*
X492220Y114605D01*
X492842Y114729D01*
X493369Y115081D01*
X493721Y115608D01*
X493845Y116230D01*
X493721Y116852D01*
X493369Y117379D01*
X492842Y117731D01*
X492220Y117855D01*
D02*
G37*
G36*
X27860Y112952D02*
X27238Y112829D01*
X26711Y112477D01*
X26359Y111949D01*
X26235Y111328D01*
X26359Y110706D01*
X26711Y110178D01*
X27238Y109826D01*
X27860Y109703D01*
X28482Y109826D01*
X29009Y110178D01*
X29361Y110706D01*
X29485Y111328D01*
X29361Y111949D01*
X29009Y112477D01*
X28482Y112829D01*
X27860Y112952D01*
D02*
G37*
G36*
X8579Y115001D02*
X7651Y114879D01*
X6787Y114521D01*
X6045Y113951D01*
X5475Y113209D01*
X5117Y112345D01*
X4995Y111417D01*
X5117Y110490D01*
X5475Y109625D01*
X6045Y108883D01*
X6787Y108314D01*
X7651Y107956D01*
X8579Y107834D01*
X9506Y107956D01*
X10370Y108314D01*
X11112Y108883D01*
X11682Y109625D01*
X12040Y110490D01*
X12162Y111417D01*
X12040Y112345D01*
X11682Y113209D01*
X11112Y113951D01*
X10370Y114521D01*
X9506Y114879D01*
X8579Y115001D01*
D02*
G37*
G36*
X-2990Y109265D02*
X-3612Y109141D01*
X-4139Y108789D01*
X-4491Y108262D01*
X-4615Y107640D01*
X-4491Y107018D01*
X-4139Y106491D01*
X-3612Y106139D01*
X-2990Y106015D01*
X-2368Y106139D01*
X-1841Y106491D01*
X-1489Y107018D01*
X-1365Y107640D01*
X-1489Y108262D01*
X-1841Y108789D01*
X-2368Y109141D01*
X-2990Y109265D01*
D02*
G37*
G36*
X27860Y93042D02*
X27238Y92918D01*
X26711Y92566D01*
X26359Y92039D01*
X26235Y91417D01*
X26359Y90795D01*
X26711Y90268D01*
X27238Y89916D01*
X27860Y89792D01*
X28482Y89916D01*
X29009Y90268D01*
X29361Y90795D01*
X29485Y91417D01*
X29361Y92039D01*
X29009Y92566D01*
X28482Y92918D01*
X27860Y93042D01*
D02*
G37*
G36*
X8579Y95001D02*
X7651Y94879D01*
X6787Y94521D01*
X6045Y93951D01*
X5475Y93209D01*
X5117Y92345D01*
X4995Y91417D01*
X5117Y90490D01*
X5475Y89626D01*
X6045Y88883D01*
X6787Y88314D01*
X7651Y87956D01*
X8579Y87834D01*
X9506Y87956D01*
X10370Y88314D01*
X11112Y88883D01*
X11682Y89626D01*
X12040Y90490D01*
X12162Y91417D01*
X12040Y92345D01*
X11682Y93209D01*
X11112Y93951D01*
X10370Y94521D01*
X9506Y94879D01*
X8579Y95001D01*
D02*
G37*
G36*
X630220Y88880D02*
X629346Y88765D01*
X628531Y88427D01*
X627831Y87890D01*
X627294Y87191D01*
X626956Y86376D01*
X626841Y85501D01*
X626956Y84627D01*
X627294Y83812D01*
X627831Y83112D01*
X628531Y82575D01*
X629346Y82237D01*
X630220Y82122D01*
X631095Y82237D01*
X631910Y82575D01*
X632609Y83112D01*
X633146Y83812D01*
X633484Y84627D01*
X633599Y85501D01*
X633484Y86376D01*
X633146Y87191D01*
X632609Y87890D01*
X631910Y88427D01*
X631095Y88765D01*
X630220Y88880D01*
D02*
G37*
G36*
X640220Y83486D02*
X639346Y83371D01*
X638531Y83034D01*
X637831Y82497D01*
X637294Y81797D01*
X636956Y80982D01*
X636841Y80107D01*
X636956Y79233D01*
X637294Y78418D01*
X637831Y77718D01*
X638531Y77181D01*
X639346Y76844D01*
X640220Y76728D01*
X641094Y76844D01*
X641910Y77181D01*
X642609Y77718D01*
X643146Y78418D01*
X643484Y79233D01*
X643599Y80107D01*
X643484Y80982D01*
X643146Y81797D01*
X642609Y82497D01*
X641910Y83034D01*
X641094Y83371D01*
X640220Y83486D01*
D02*
G37*
G36*
X-4030Y79105D02*
X-4652Y78981D01*
X-5179Y78629D01*
X-5531Y78102D01*
X-5655Y77480D01*
X-5531Y76858D01*
X-5179Y76331D01*
X-4652Y75979D01*
X-4030Y75855D01*
X-3408Y75979D01*
X-2881Y76331D01*
X-2529Y76858D01*
X-2405Y77480D01*
X-2529Y78102D01*
X-2881Y78629D01*
X-3408Y78981D01*
X-4030Y79105D01*
D02*
G37*
G36*
X630220Y78093D02*
X629346Y77978D01*
X628531Y77640D01*
X627831Y77103D01*
X627294Y76403D01*
X626956Y75588D01*
X626841Y74714D01*
X626956Y73839D01*
X627294Y73024D01*
X627831Y72325D01*
X628531Y71788D01*
X629346Y71450D01*
X630220Y71335D01*
X631095Y71450D01*
X631910Y71788D01*
X632609Y72325D01*
X633146Y73024D01*
X633484Y73839D01*
X633599Y74714D01*
X633484Y75588D01*
X633146Y76403D01*
X632609Y77103D01*
X631910Y77640D01*
X631095Y77978D01*
X630220Y78093D01*
D02*
G37*
G36*
X27897Y73042D02*
X27275Y72918D01*
X26748Y72566D01*
X26396Y72039D01*
X26272Y71417D01*
X26396Y70795D01*
X26748Y70268D01*
X27275Y69916D01*
X27897Y69792D01*
X28519Y69916D01*
X29046Y70268D01*
X29399Y70795D01*
X29522Y71417D01*
X29399Y72039D01*
X29046Y72566D01*
X28519Y72918D01*
X27897Y73042D01*
D02*
G37*
G36*
X293050Y72895D02*
X292428Y72771D01*
X291901Y72419D01*
X291549Y71892D01*
X291425Y71270D01*
X291549Y70648D01*
X291901Y70121D01*
X292428Y69769D01*
X293050Y69645D01*
X293672Y69769D01*
X294199Y70121D01*
X294551Y70648D01*
X294675Y71270D01*
X294551Y71892D01*
X294199Y72419D01*
X293672Y72771D01*
X293050Y72895D01*
D02*
G37*
G36*
X8579Y75001D02*
X7651Y74879D01*
X6787Y74521D01*
X6045Y73951D01*
X5475Y73209D01*
X5117Y72345D01*
X4995Y71417D01*
X5117Y70490D01*
X5475Y69626D01*
X6045Y68883D01*
X6787Y68314D01*
X7651Y67956D01*
X8579Y67834D01*
X9506Y67956D01*
X10370Y68314D01*
X11112Y68883D01*
X11682Y69626D01*
X12040Y70490D01*
X12162Y71417D01*
X12040Y72345D01*
X11682Y73209D01*
X11112Y73951D01*
X10370Y74521D01*
X9506Y74879D01*
X8579Y75001D01*
D02*
G37*
G36*
X640220Y72699D02*
X639346Y72584D01*
X638531Y72246D01*
X637831Y71709D01*
X637294Y71009D01*
X636956Y70195D01*
X636841Y69320D01*
X636956Y68445D01*
X637294Y67631D01*
X637831Y66931D01*
X638531Y66394D01*
X639346Y66056D01*
X640220Y65941D01*
X641094Y66056D01*
X641910Y66394D01*
X642609Y66931D01*
X643146Y67631D01*
X643484Y68445D01*
X643599Y69320D01*
X643484Y70195D01*
X643146Y71009D01*
X642609Y71709D01*
X641910Y72246D01*
X641094Y72584D01*
X640220Y72699D01*
D02*
G37*
G36*
X318120Y66645D02*
X317498Y66521D01*
X316971Y66169D01*
X316619Y65642D01*
X316495Y65020D01*
X316619Y64398D01*
X316971Y63871D01*
X317498Y63519D01*
X318120Y63395D01*
X318742Y63519D01*
X319269Y63871D01*
X319621Y64398D01*
X319745Y65020D01*
X319621Y65642D01*
X319269Y66169D01*
X318742Y66521D01*
X318120Y66645D01*
D02*
G37*
G36*
X630220Y67305D02*
X629346Y67190D01*
X628531Y66852D01*
X627831Y66316D01*
X627294Y65616D01*
X626956Y64801D01*
X626841Y63926D01*
X626956Y63052D01*
X627294Y62237D01*
X627831Y61537D01*
X628531Y61000D01*
X629346Y60663D01*
X630220Y60547D01*
X631095Y60663D01*
X631910Y61000D01*
X632609Y61537D01*
X633146Y62237D01*
X633484Y63052D01*
X633599Y63926D01*
X633484Y64801D01*
X633146Y65616D01*
X632609Y66316D01*
X631910Y66852D01*
X631095Y67190D01*
X630220Y67305D01*
D02*
G37*
G36*
X8579Y65001D02*
X7651Y64879D01*
X6787Y64521D01*
X6045Y63951D01*
X5475Y63209D01*
X5117Y62345D01*
X4995Y61417D01*
X5117Y60490D01*
X5475Y59626D01*
X6045Y58883D01*
X6787Y58314D01*
X7651Y57956D01*
X8579Y57834D01*
X9506Y57956D01*
X10370Y58314D01*
X11112Y58883D01*
X11682Y59626D01*
X12040Y60490D01*
X12162Y61417D01*
X12040Y62345D01*
X11682Y63209D01*
X11112Y63951D01*
X10370Y64521D01*
X9506Y64879D01*
X8579Y65001D01*
D02*
G37*
G36*
X282270Y60015D02*
X281648Y59891D01*
X281121Y59539D01*
X280769Y59012D01*
X280645Y58390D01*
X280769Y57768D01*
X281121Y57241D01*
X281648Y56889D01*
X282270Y56765D01*
X282892Y56889D01*
X283419Y57241D01*
X283771Y57768D01*
X283895Y58390D01*
X283771Y59012D01*
X283419Y59539D01*
X282892Y59891D01*
X282270Y60015D01*
D02*
G37*
G36*
X323740Y57815D02*
X323118Y57691D01*
X322591Y57339D01*
X322239Y56812D01*
X322115Y56190D01*
X322239Y55568D01*
X322591Y55041D01*
X323118Y54689D01*
X323740Y54565D01*
X324362Y54689D01*
X324889Y55041D01*
X325241Y55568D01*
X325365Y56190D01*
X325241Y56812D01*
X324889Y57339D01*
X324362Y57691D01*
X323740Y57815D01*
D02*
G37*
G36*
X286300Y54695D02*
X285678Y54571D01*
X285151Y54219D01*
X284799Y53692D01*
X284675Y53070D01*
X284799Y52448D01*
X285151Y51921D01*
X285678Y51569D01*
X286300Y51445D01*
X286922Y51569D01*
X287449Y51921D01*
X287801Y52448D01*
X287925Y53070D01*
X287801Y53692D01*
X287449Y54219D01*
X286922Y54571D01*
X286300Y54695D01*
D02*
G37*
G36*
X8579Y55001D02*
X7651Y54879D01*
X6787Y54521D01*
X6045Y53951D01*
X5475Y53209D01*
X5117Y52345D01*
X4995Y51417D01*
X5117Y50490D01*
X5475Y49626D01*
X6045Y48883D01*
X6787Y48314D01*
X7651Y47956D01*
X8579Y47834D01*
X9506Y47956D01*
X10370Y48314D01*
X11112Y48883D01*
X11682Y49626D01*
X12040Y50490D01*
X12162Y51417D01*
X12040Y52345D01*
X11682Y53209D01*
X11112Y53951D01*
X10370Y54521D01*
X9506Y54879D01*
X8579Y55001D01*
D02*
G37*
G36*
X285150Y48195D02*
X284528Y48071D01*
X284001Y47719D01*
X283649Y47192D01*
X283525Y46570D01*
X283649Y45948D01*
X284001Y45421D01*
X284528Y45069D01*
X285150Y44945D01*
X285772Y45069D01*
X286299Y45421D01*
X286651Y45948D01*
X286775Y46570D01*
X286651Y47192D01*
X286299Y47719D01*
X285772Y48071D01*
X285150Y48195D01*
D02*
G37*
G36*
X95140Y47385D02*
X94518Y47261D01*
X93991Y46909D01*
X93639Y46382D01*
X93515Y45760D01*
X93639Y45138D01*
X93991Y44611D01*
X94518Y44259D01*
X95140Y44135D01*
X95762Y44259D01*
X96289Y44611D01*
X96641Y45138D01*
X96765Y45760D01*
X96641Y46382D01*
X96289Y46909D01*
X95762Y47261D01*
X95140Y47385D01*
D02*
G37*
G36*
Y43042D02*
X94518Y42919D01*
X93991Y42566D01*
X93639Y42039D01*
X93515Y41417D01*
X93639Y40795D01*
X93991Y40268D01*
X94518Y39916D01*
X95140Y39792D01*
X95762Y39916D01*
X96289Y40268D01*
X96641Y40795D01*
X96765Y41417D01*
X96641Y42039D01*
X96289Y42566D01*
X95762Y42919D01*
X95140Y43042D01*
D02*
G37*
G36*
X8579Y45001D02*
X7651Y44879D01*
X6787Y44521D01*
X6045Y43951D01*
X5475Y43209D01*
X5117Y42345D01*
X4995Y41417D01*
X5117Y40490D01*
X5475Y39625D01*
X6045Y38883D01*
X6787Y38314D01*
X7651Y37956D01*
X8579Y37834D01*
X9506Y37956D01*
X10370Y38314D01*
X11112Y38883D01*
X11682Y39625D01*
X12040Y40490D01*
X12162Y41417D01*
X12040Y42345D01*
X11682Y43209D01*
X11112Y43951D01*
X10370Y44521D01*
X9506Y44879D01*
X8579Y45001D01*
D02*
G37*
G36*
X496250Y34555D02*
X495628Y34431D01*
X495101Y34079D01*
X494749Y33552D01*
X494625Y32930D01*
X494749Y32308D01*
X495101Y31781D01*
X495628Y31429D01*
X496250Y31305D01*
X496872Y31429D01*
X497399Y31781D01*
X497751Y32308D01*
X497875Y32930D01*
X497751Y33552D01*
X497399Y34079D01*
X496872Y34431D01*
X496250Y34555D01*
D02*
G37*
G36*
X488794Y34225D02*
X488172Y34101D01*
X487645Y33749D01*
X487293Y33222D01*
X487169Y32600D01*
X487293Y31978D01*
X487645Y31451D01*
X488172Y31099D01*
X488794Y30975D01*
X489416Y31099D01*
X489943Y31451D01*
X490296Y31978D01*
X490419Y32600D01*
X490296Y33222D01*
X489943Y33749D01*
X489416Y34101D01*
X488794Y34225D01*
D02*
G37*
G36*
X635251Y41949D02*
X633789Y41757D01*
X632427Y41193D01*
X631257Y40295D01*
X630359Y39125D01*
X629795Y37763D01*
X629602Y36301D01*
X629795Y34839D01*
X630359Y33477D01*
X631257Y32307D01*
X632427Y31409D01*
X633789Y30845D01*
X635251Y30653D01*
X636713Y30845D01*
X638075Y31409D01*
X639245Y32307D01*
X640142Y33477D01*
X640707Y34839D01*
X640899Y36301D01*
X640707Y37763D01*
X640142Y39125D01*
X639245Y40295D01*
X638075Y41193D01*
X636713Y41757D01*
X635251Y41949D01*
D02*
G37*
G36*
X8579Y35001D02*
X7651Y34879D01*
X6787Y34521D01*
X6045Y33951D01*
X5475Y33209D01*
X5117Y32345D01*
X4995Y31417D01*
X5117Y30490D01*
X5475Y29625D01*
X6045Y28883D01*
X6787Y28314D01*
X7651Y27956D01*
X8579Y27834D01*
X9506Y27956D01*
X10370Y28314D01*
X11112Y28883D01*
X11682Y29625D01*
X12040Y30490D01*
X12162Y31417D01*
X12040Y32345D01*
X11682Y33209D01*
X11112Y33951D01*
X10370Y34521D01*
X9506Y34879D01*
X8579Y35001D01*
D02*
G37*
G36*
X546310Y42369D02*
X544722Y42213D01*
X543195Y41750D01*
X541788Y40997D01*
X540555Y39985D01*
X539542Y38752D01*
X538790Y37345D01*
X538327Y35818D01*
X538171Y34230D01*
X538327Y32642D01*
X538790Y31115D01*
X539542Y29708D01*
X540555Y28475D01*
X541788Y27463D01*
X543195Y26710D01*
X544722Y26247D01*
X546310Y26091D01*
X547898Y26247D01*
X549425Y26710D01*
X550832Y27463D01*
X552065Y28475D01*
X553078Y29708D01*
X553830Y31115D01*
X554293Y32642D01*
X554449Y34230D01*
X554293Y35818D01*
X553830Y37345D01*
X553078Y38752D01*
X552065Y39985D01*
X550832Y40997D01*
X549425Y41750D01*
X547898Y42213D01*
X546310Y42369D01*
D02*
G37*
G36*
X374767Y42059D02*
X373179Y41903D01*
X371652Y41440D01*
X370245Y40688D01*
X369011Y39675D01*
X367999Y38442D01*
X367247Y37035D01*
X366784Y35508D01*
X366627Y33920D01*
X366784Y32332D01*
X367247Y30805D01*
X367999Y29398D01*
X369011Y28165D01*
X370245Y27152D01*
X371652Y26400D01*
X373179Y25937D01*
X374767Y25781D01*
X376355Y25937D01*
X377881Y26400D01*
X379289Y27152D01*
X380522Y28165D01*
X381534Y29398D01*
X382286Y30805D01*
X382749Y32332D01*
X382906Y33920D01*
X382749Y35508D01*
X382286Y37035D01*
X381534Y38442D01*
X380522Y39675D01*
X379289Y40688D01*
X377881Y41440D01*
X376355Y41903D01*
X374767Y42059D01*
D02*
G37*
G36*
X203223Y41969D02*
X201635Y41813D01*
X200109Y41350D01*
X198701Y40598D01*
X197468Y39585D01*
X196456Y38352D01*
X195704Y36945D01*
X195240Y35418D01*
X195084Y33830D01*
X195240Y32242D01*
X195704Y30715D01*
X196456Y29308D01*
X197468Y28075D01*
X198701Y27062D01*
X200109Y26310D01*
X201635Y25847D01*
X203223Y25691D01*
X204811Y25847D01*
X206338Y26310D01*
X207745Y27062D01*
X208979Y28075D01*
X209991Y29308D01*
X210743Y30715D01*
X211206Y32242D01*
X211363Y33830D01*
X211206Y35418D01*
X210743Y36945D01*
X209991Y38352D01*
X208979Y39585D01*
X207745Y40598D01*
X206338Y41350D01*
X204811Y41813D01*
X203223Y41969D01*
D02*
G37*
G36*
X31870D02*
X30282Y41813D01*
X28755Y41350D01*
X27348Y40598D01*
X26115Y39585D01*
X25102Y38352D01*
X24350Y36945D01*
X23887Y35418D01*
X23731Y33830D01*
X23887Y32242D01*
X24350Y30715D01*
X25102Y29308D01*
X26115Y28075D01*
X27348Y27062D01*
X28755Y26310D01*
X30282Y25847D01*
X31870Y25691D01*
X33458Y25847D01*
X34985Y26310D01*
X36392Y27062D01*
X37625Y28075D01*
X38638Y29308D01*
X39390Y30715D01*
X39853Y32242D01*
X40009Y33830D01*
X39853Y35418D01*
X39390Y36945D01*
X38638Y38352D01*
X37625Y39585D01*
X36392Y40598D01*
X34985Y41350D01*
X33458Y41813D01*
X31870Y41969D01*
D02*
G37*
G36*
X459538Y41019D02*
X457950Y40863D01*
X456424Y40400D01*
X455016Y39647D01*
X453783Y38635D01*
X452771Y37402D01*
X452019Y35995D01*
X451555Y34468D01*
X451399Y32880D01*
X451555Y31292D01*
X452019Y29765D01*
X452771Y28358D01*
X453783Y27125D01*
X455016Y26112D01*
X456424Y25360D01*
X457950Y24897D01*
X459538Y24741D01*
X461126Y24897D01*
X462653Y25360D01*
X464060Y26112D01*
X465294Y27125D01*
X466306Y28358D01*
X467058Y29765D01*
X467521Y31292D01*
X467677Y32880D01*
X467521Y34468D01*
X467058Y35995D01*
X466306Y37402D01*
X465294Y38635D01*
X464060Y39647D01*
X462653Y40400D01*
X461126Y40863D01*
X459538Y41019D01*
D02*
G37*
G36*
X287995D02*
X286407Y40863D01*
X284880Y40400D01*
X283473Y39647D01*
X282240Y38635D01*
X281227Y37402D01*
X280475Y35995D01*
X280012Y34468D01*
X279856Y32880D01*
X280012Y31292D01*
X280475Y29765D01*
X281227Y28358D01*
X282240Y27125D01*
X283473Y26112D01*
X284880Y25360D01*
X286407Y24897D01*
X287995Y24741D01*
X289583Y24897D01*
X291110Y25360D01*
X292517Y26112D01*
X293750Y27125D01*
X294762Y28358D01*
X295515Y29765D01*
X295978Y31292D01*
X296134Y32880D01*
X295978Y34468D01*
X295515Y35995D01*
X294762Y37402D01*
X293750Y38635D01*
X292517Y39647D01*
X291110Y40400D01*
X289583Y40863D01*
X287995Y41019D01*
D02*
G37*
G36*
X116547D02*
X114959Y40863D01*
X113432Y40400D01*
X112025Y39647D01*
X110791Y38635D01*
X109779Y37402D01*
X109027Y35995D01*
X108564Y34468D01*
X108407Y32880D01*
X108564Y31292D01*
X109027Y29765D01*
X109779Y28358D01*
X110791Y27125D01*
X112025Y26112D01*
X113432Y25360D01*
X114959Y24897D01*
X116547Y24741D01*
X118134Y24897D01*
X119661Y25360D01*
X121069Y26112D01*
X122302Y27125D01*
X123314Y28358D01*
X124066Y29765D01*
X124530Y31292D01*
X124686Y32880D01*
X124530Y34468D01*
X124066Y35995D01*
X123314Y37402D01*
X122302Y38635D01*
X121069Y39647D01*
X119661Y40400D01*
X118134Y40863D01*
X116547Y41019D01*
D02*
G37*
G36*
X483020Y27635D02*
X482398Y27511D01*
X481871Y27159D01*
X481519Y26632D01*
X481395Y26010D01*
X481519Y25388D01*
X481871Y24861D01*
X482398Y24509D01*
X483020Y24385D01*
X483642Y24509D01*
X484169Y24861D01*
X484521Y25388D01*
X484645Y26010D01*
X484521Y26632D01*
X484169Y27159D01*
X483642Y27511D01*
X483020Y27635D01*
D02*
G37*
G36*
X145606Y26585D02*
X144984Y26461D01*
X144457Y26109D01*
X144105Y25582D01*
X143981Y24960D01*
X144105Y24338D01*
X144457Y23811D01*
X144984Y23459D01*
X145606Y23335D01*
X146228Y23459D01*
X146755Y23811D01*
X147108Y24338D01*
X147231Y24960D01*
X147108Y25582D01*
X146755Y26109D01*
X146228Y26461D01*
X145606Y26585D01*
D02*
G37*
G36*
X147547Y21098D02*
X146925Y20975D01*
X146398Y20622D01*
X146045Y20095D01*
X145922Y19473D01*
X146045Y18851D01*
X146398Y18324D01*
X146925Y17972D01*
X147547Y17848D01*
X148169Y17972D01*
X148696Y18324D01*
X149048Y18851D01*
X149172Y19473D01*
X149048Y20095D01*
X148696Y20622D01*
X148169Y20975D01*
X147547Y21098D01*
D02*
G37*
G36*
X8579Y25001D02*
X7651Y24879D01*
X6787Y24521D01*
X6045Y23951D01*
X5475Y23209D01*
X5117Y22345D01*
X4995Y21417D01*
X5117Y20490D01*
X5475Y19626D01*
X6045Y18883D01*
X6787Y18314D01*
X7651Y17956D01*
X8579Y17834D01*
X9506Y17956D01*
X10370Y18314D01*
X11112Y18883D01*
X11682Y19626D01*
X12040Y20490D01*
X12162Y21417D01*
X12040Y22345D01*
X11682Y23209D01*
X11112Y23951D01*
X10370Y24521D01*
X9506Y24879D01*
X8579Y25001D01*
D02*
G37*
G36*
X465780Y18375D02*
X465158Y18251D01*
X464631Y17899D01*
X464279Y17372D01*
X464155Y16750D01*
X464279Y16128D01*
X464631Y15601D01*
X465158Y15249D01*
X465780Y15125D01*
X466402Y15249D01*
X466929Y15601D01*
X467281Y16128D01*
X467405Y16750D01*
X467281Y17372D01*
X466929Y17899D01*
X466402Y18251D01*
X465780Y18375D01*
D02*
G37*
G36*
X293080Y18315D02*
X292458Y18191D01*
X291931Y17839D01*
X291579Y17312D01*
X291455Y16690D01*
X291579Y16068D01*
X291931Y15541D01*
X292458Y15189D01*
X293080Y15065D01*
X293702Y15189D01*
X294229Y15541D01*
X294581Y16068D01*
X294705Y16690D01*
X294581Y17312D01*
X294229Y17839D01*
X293702Y18191D01*
X293080Y18315D01*
D02*
G37*
G36*
X313170Y13365D02*
X312548Y13241D01*
X312021Y12889D01*
X311669Y12362D01*
X311545Y11740D01*
X311669Y11118D01*
X312021Y10591D01*
X312548Y10239D01*
X313170Y10115D01*
X313792Y10239D01*
X314319Y10591D01*
X314671Y11118D01*
X314795Y11740D01*
X314671Y12362D01*
X314319Y12889D01*
X313792Y13241D01*
X313170Y13365D01*
D02*
G37*
G36*
X577310Y4971D02*
X576083Y4809D01*
X574940Y4335D01*
X573958Y3582D01*
X573205Y2600D01*
X572731Y1457D01*
X572569Y230D01*
X572731Y-997D01*
X573205Y-2140D01*
X573958Y-3122D01*
X574940Y-3875D01*
X576083Y-4349D01*
X577310Y-4511D01*
X578537Y-4349D01*
X579680Y-3875D01*
X580662Y-3122D01*
X581415Y-2140D01*
X581889Y-997D01*
X582051Y230D01*
X581889Y1457D01*
X581415Y2600D01*
X580662Y3582D01*
X579680Y4335D01*
X578537Y4809D01*
X577310Y4971D01*
D02*
G37*
G36*
X405767Y4661D02*
X404540Y4499D01*
X403396Y4025D01*
X402415Y3272D01*
X401661Y2290D01*
X401188Y1147D01*
X401026Y-80D01*
X401188Y-1307D01*
X401661Y-2450D01*
X402415Y-3432D01*
X403396Y-4185D01*
X404540Y-4659D01*
X405767Y-4821D01*
X406994Y-4659D01*
X408137Y-4185D01*
X409119Y-3432D01*
X409872Y-2450D01*
X410346Y-1307D01*
X410507Y-80D01*
X410346Y1147D01*
X409872Y2290D01*
X409119Y3272D01*
X408137Y4025D01*
X406994Y4499D01*
X405767Y4661D01*
D02*
G37*
G36*
X490538Y4621D02*
X489311Y4459D01*
X488168Y3985D01*
X487186Y3232D01*
X486433Y2250D01*
X485959Y1107D01*
X485798Y-120D01*
X485959Y-1347D01*
X486433Y-2490D01*
X487186Y-3472D01*
X488168Y-4225D01*
X489311Y-4699D01*
X490538Y-4861D01*
X491765Y-4699D01*
X492909Y-4225D01*
X493890Y-3472D01*
X494644Y-2490D01*
X495117Y-1347D01*
X495279Y-120D01*
X495117Y1107D01*
X494644Y2250D01*
X493890Y3232D01*
X492909Y3985D01*
X491765Y4459D01*
X490538Y4621D01*
D02*
G37*
G36*
X318995D02*
X317768Y4459D01*
X316625Y3985D01*
X315643Y3232D01*
X314890Y2250D01*
X314416Y1107D01*
X314254Y-120D01*
X314416Y-1347D01*
X314890Y-2490D01*
X315643Y-3472D01*
X316625Y-4225D01*
X317768Y-4699D01*
X318995Y-4861D01*
X320222Y-4699D01*
X321365Y-4225D01*
X322347Y-3472D01*
X323100Y-2490D01*
X323574Y-1347D01*
X323735Y-120D01*
X323574Y1107D01*
X323100Y2250D01*
X322347Y3232D01*
X321365Y3985D01*
X320222Y4459D01*
X318995Y4621D01*
D02*
G37*
G36*
X147547D02*
X146320Y4459D01*
X145176Y3985D01*
X144195Y3232D01*
X143441Y2250D01*
X142968Y1107D01*
X142806Y-120D01*
X142968Y-1347D01*
X143441Y-2490D01*
X144195Y-3472D01*
X145176Y-4225D01*
X146320Y-4699D01*
X147547Y-4861D01*
X148774Y-4699D01*
X149917Y-4225D01*
X150899Y-3472D01*
X151652Y-2490D01*
X152126Y-1347D01*
X152287Y-120D01*
X152126Y1107D01*
X151652Y2250D01*
X150899Y3232D01*
X149917Y3985D01*
X148774Y4459D01*
X147547Y4621D01*
D02*
G37*
G36*
X234223Y4571D02*
X232996Y4409D01*
X231853Y3935D01*
X230871Y3182D01*
X230118Y2200D01*
X229644Y1057D01*
X229483Y-170D01*
X229644Y-1397D01*
X230118Y-2540D01*
X230871Y-3522D01*
X231853Y-4276D01*
X232996Y-4749D01*
X234223Y-4911D01*
X235450Y-4749D01*
X236594Y-4276D01*
X237575Y-3522D01*
X238329Y-2540D01*
X238802Y-1397D01*
X238964Y-170D01*
X238802Y1057D01*
X238329Y2200D01*
X237575Y3182D01*
X236594Y3935D01*
X235450Y4409D01*
X234223Y4571D01*
D02*
G37*
G36*
X62870D02*
X61643Y4409D01*
X60500Y3935D01*
X59518Y3182D01*
X58764Y2200D01*
X58291Y1057D01*
X58129Y-170D01*
X58291Y-1397D01*
X58764Y-2540D01*
X59518Y-3522D01*
X60500Y-4276D01*
X61643Y-4749D01*
X62870Y-4911D01*
X64097Y-4749D01*
X65240Y-4276D01*
X66222Y-3522D01*
X66975Y-2540D01*
X67449Y-1397D01*
X67611Y-170D01*
X67449Y1057D01*
X66975Y2200D01*
X66222Y3182D01*
X65240Y3935D01*
X64097Y4409D01*
X62870Y4571D01*
D02*
G37*
G36*
X521538Y5708D02*
X520401Y5596D01*
X519308Y5264D01*
X518300Y4726D01*
X517417Y4001D01*
X516692Y3118D01*
X516154Y2110D01*
X515822Y1017D01*
X515710Y-120D01*
X515822Y-1257D01*
X516154Y-2350D01*
X516692Y-3358D01*
X517417Y-4241D01*
X518300Y-4966D01*
X519308Y-5504D01*
X520401Y-5836D01*
X521538Y-5948D01*
X522675Y-5836D01*
X523769Y-5504D01*
X524776Y-4966D01*
X525659Y-4241D01*
X526384Y-3358D01*
X526923Y-2350D01*
X527254Y-1257D01*
X527366Y-120D01*
X527254Y1017D01*
X526923Y2110D01*
X526384Y3118D01*
X525659Y4001D01*
X524776Y4726D01*
X523769Y5264D01*
X522675Y5596D01*
X521538Y5708D01*
D02*
G37*
G36*
X349995D02*
X348858Y5596D01*
X347765Y5264D01*
X346757Y4726D01*
X345874Y4001D01*
X345149Y3118D01*
X344611Y2110D01*
X344279Y1017D01*
X344167Y-120D01*
X344279Y-1257D01*
X344611Y-2350D01*
X345149Y-3358D01*
X345874Y-4241D01*
X346757Y-4966D01*
X347765Y-5504D01*
X348858Y-5836D01*
X349995Y-5948D01*
X351132Y-5836D01*
X352225Y-5504D01*
X353233Y-4966D01*
X354116Y-4241D01*
X354841Y-3358D01*
X355379Y-2350D01*
X355711Y-1257D01*
X355823Y-120D01*
X355711Y1017D01*
X355379Y2110D01*
X354841Y3118D01*
X354116Y4001D01*
X353233Y4726D01*
X352225Y5264D01*
X351132Y5596D01*
X349995Y5708D01*
D02*
G37*
G36*
X178547D02*
X177410Y5596D01*
X176316Y5264D01*
X175309Y4726D01*
X174426Y4001D01*
X173701Y3118D01*
X173162Y2110D01*
X172831Y1017D01*
X172719Y-120D01*
X172831Y-1257D01*
X173162Y-2350D01*
X173701Y-3358D01*
X174426Y-4241D01*
X175309Y-4966D01*
X176316Y-5504D01*
X177410Y-5836D01*
X178547Y-5948D01*
X179684Y-5836D01*
X180777Y-5504D01*
X181785Y-4966D01*
X182668Y-4241D01*
X183393Y-3358D01*
X183931Y-2350D01*
X184263Y-1257D01*
X184375Y-120D01*
X184263Y1017D01*
X183931Y2110D01*
X183393Y3118D01*
X182668Y4001D01*
X181785Y4726D01*
X180777Y5264D01*
X179684Y5596D01*
X178547Y5708D01*
D02*
G37*
%LPD*%
D48*
X62870Y284330D02*
D03*
D53*
X261700Y93041D02*
X286226D01*
X287826Y91440D01*
X288039D01*
D58*
X640220Y90895D02*
D03*
X630220Y96289D02*
D03*
X640220Y101682D02*
D03*
X630220Y107076D02*
D03*
X640220Y215145D02*
D03*
X630220Y220538D02*
D03*
X640220Y225932D02*
D03*
X630220Y231326D02*
D03*
X5631Y186835D02*
D03*
D60*
X8579Y121417D02*
D03*
Y101417D02*
D03*
Y81417D02*
D03*
D61*
Y141417D02*
D03*
D62*
X603737Y266130D02*
D03*
X623422Y226760D02*
D03*
X584052D02*
D03*
X564367Y187390D02*
D03*
Y108650D02*
D03*
Y29910D02*
D03*
X524997Y187390D02*
D03*
Y108650D02*
D03*
X544682Y69280D02*
D03*
X524997Y29910D02*
D03*
X505312Y226760D02*
D03*
Y148020D02*
D03*
Y69280D02*
D03*
X446257Y266130D02*
D03*
X465942Y226760D02*
D03*
Y148020D02*
D03*
X446257Y108650D02*
D03*
X465942Y69280D02*
D03*
X446257Y29910D02*
D03*
X426572Y226760D02*
D03*
Y148020D02*
D03*
Y69280D02*
D03*
X387201Y226760D02*
D03*
X367516Y187390D02*
D03*
X387201Y148020D02*
D03*
X367516Y108650D02*
D03*
X387201Y69280D02*
D03*
X347831Y226760D02*
D03*
X328146Y187390D02*
D03*
Y108650D02*
D03*
X347831Y69280D02*
D03*
X328146Y29910D02*
D03*
X288776Y266130D02*
D03*
X308461Y226760D02*
D03*
X288776Y187390D02*
D03*
X269091Y226760D02*
D03*
X249406Y187390D02*
D03*
Y29910D02*
D03*
X229721Y226760D02*
D03*
X210036Y187390D02*
D03*
X229721Y148020D02*
D03*
X190351Y226760D02*
D03*
Y148020D02*
D03*
X170666Y29910D02*
D03*
X150981Y226760D02*
D03*
X131296Y29910D02*
D03*
X91926Y266130D02*
D03*
X111611Y226760D02*
D03*
X91926Y187390D02*
D03*
X111611Y69280D02*
D03*
X91926Y29910D02*
D03*
X72241Y226760D02*
D03*
X52556Y187390D02*
D03*
X72241Y69280D02*
D03*
X13186Y266130D02*
D03*
X32871Y226760D02*
D03*
X-26184Y266130D02*
D03*
X-6499Y69280D02*
D03*
X-26184Y29910D02*
D03*
X273796Y145988D02*
D03*
X302350Y128030D02*
D03*
X261700Y93041D02*
D03*
X315340Y95526D02*
D03*
X288039Y91440D02*
D03*
X549650Y131400D02*
D03*
X348640Y126620D02*
D03*
X548810Y161070D02*
D03*
X127549Y117870D02*
D03*
X-15130Y19220D02*
D03*
M02*
