G04*
G04 #@! TF.GenerationSoftware,Altium Limited,Altium Designer,20.0.11 (256)*
G04*
G04 Layer_Color=128*
%FSLAX25Y25*%
%MOIN*%
G70*
G01*
G75*
%ADD19R,0.02756X0.03543*%
%ADD28R,0.03543X0.02756*%
%ADD71R,0.06693X0.06693*%
%ADD72R,0.10039X0.03937*%
%ADD73R,0.13504X0.05000*%
G36*
X345768Y151919D02*
Y146919D01*
X359272D01*
Y151919D01*
X345768D01*
D02*
G37*
G36*
Y171919D02*
Y166919D01*
X359272D01*
Y171919D01*
X345768D01*
D02*
G37*
G36*
X357264Y161919D02*
Y156919D01*
X370768D01*
Y161919D01*
X357264D01*
D02*
G37*
D19*
X350884Y224856D02*
D03*
X344978D02*
D03*
X370364Y224786D02*
D03*
X364458D02*
D03*
D28*
X-13636Y214716D02*
D03*
Y220622D02*
D03*
X-6350Y214716D02*
D03*
Y220622D02*
D03*
X936Y214716D02*
D03*
Y220622D02*
D03*
X8222Y214716D02*
D03*
Y220622D02*
D03*
X15508Y214716D02*
D03*
Y220622D02*
D03*
X30080Y214716D02*
D03*
Y220622D02*
D03*
X22794Y214716D02*
D03*
Y220622D02*
D03*
D71*
X361207Y178798D02*
D03*
Y217380D02*
D03*
D72*
X347526Y190215D02*
D03*
Y198089D02*
D03*
Y205963D02*
D03*
D73*
X352520Y149419D02*
D03*
X364016Y159419D02*
D03*
X352520Y169419D02*
D03*
M02*
