G04*
G04 #@! TF.GenerationSoftware,Altium Limited,Altium Designer,20.0.11 (256)*
G04*
G04 Layer_Color=8388736*
%FSLAX25Y25*%
%MOIN*%
G70*
G01*
G75*
G04:AMPARAMS|DCode=25|XSize=10.63mil|YSize=57.53mil|CornerRadius=0mil|HoleSize=0mil|Usage=FLASHONLY|Rotation=225.000|XOffset=0mil|YOffset=0mil|HoleType=Round|Shape=Rectangle|*
%AMROTATEDRECTD25*
4,1,4,-0.01658,0.02410,0.02410,-0.01658,0.01658,-0.02410,-0.02410,0.01658,-0.01658,0.02410,0.0*
%
%ADD25ROTATEDRECTD25*%

G04:AMPARAMS|DCode=26|XSize=10.63mil|YSize=57.53mil|CornerRadius=0mil|HoleSize=0mil|Usage=FLASHONLY|Rotation=135.000|XOffset=0mil|YOffset=0mil|HoleType=Round|Shape=Rectangle|*
%AMROTATEDRECTD26*
4,1,4,0.02410,0.01658,-0.01658,-0.02410,-0.02410,-0.01658,0.01658,0.02410,0.02410,0.01658,0.0*
%
%ADD26ROTATEDRECTD26*%

%ADD32R,0.55918X0.28359*%
%ADD33R,0.08241X0.05800*%
%ADD34R,0.03556X0.04343*%
%ADD35R,0.04343X0.03950*%
%ADD36R,0.11824X0.11036*%
%ADD37R,0.05524X0.06312*%
%ADD38R,0.11036X0.11824*%
%ADD39R,0.04343X0.03950*%
%ADD40P,0.31959X4X360.0*%
%ADD41R,0.04343X0.03556*%
%ADD42R,0.06272X0.06312*%
%ADD43R,0.19934X0.14028*%
%ADD44R,0.05524X0.11036*%
%ADD45C,0.29934*%
%ADD46C,0.06706*%
%ADD47R,0.06706X0.06706*%
%ADD48C,0.10800*%
%ADD49C,0.06300*%
%ADD50C,0.07847*%
%ADD51R,0.07847X0.07847*%
G04:AMPARAMS|DCode=52|XSize=8mil|YSize=8mil|CornerRadius=0mil|HoleSize=0mil|Usage=FLASHONLY|Rotation=90.000|XOffset=0mil|YOffset=0mil|HoleType=Round|Shape=RoundedRectangle|*
%AMROUNDEDRECTD52*
21,1,0.00800,0.00800,0,0,90.0*
21,1,0.00800,0.00800,0,0,90.0*
1,1,0.00000,0.00400,0.00400*
1,1,0.00000,0.00400,-0.00400*
1,1,0.00000,-0.00400,-0.00400*
1,1,0.00000,-0.00400,0.00400*
%
%ADD52ROUNDEDRECTD52*%
G04:AMPARAMS|DCode=53|XSize=362.33mil|YSize=441.07mil|CornerRadius=48.29mil|HoleSize=0mil|Usage=FLASHONLY|Rotation=270.000|XOffset=0mil|YOffset=0mil|HoleType=Round|Shape=RoundedRectangle|*
%AMROUNDEDRECTD53*
21,1,0.36233,0.34449,0,0,270.0*
21,1,0.26575,0.44107,0,0,270.0*
1,1,0.09658,-0.17224,-0.13287*
1,1,0.09658,-0.17224,0.13287*
1,1,0.09658,0.17224,0.13287*
1,1,0.09658,0.17224,-0.13287*
%
%ADD53ROUNDEDRECTD53*%
D25*
X173390Y170951D02*
D03*
X171998Y169559D02*
D03*
X170606Y168167D02*
D03*
X169214Y166776D02*
D03*
X167823Y165384D02*
D03*
X166430Y163992D02*
D03*
X165039Y162600D02*
D03*
X163647Y161208D02*
D03*
X162255Y159816D02*
D03*
X160863Y158424D02*
D03*
X159471Y157032D02*
D03*
X158079Y155640D02*
D03*
X156687Y154248D02*
D03*
X155295Y152856D02*
D03*
X153903Y151464D02*
D03*
X152511Y150072D02*
D03*
X183830Y118753D02*
D03*
X185222Y120145D02*
D03*
X186614Y121537D02*
D03*
X188006Y122929D02*
D03*
X189398Y124321D02*
D03*
X190789Y125713D02*
D03*
X192181Y127105D02*
D03*
X193573Y128497D02*
D03*
X194965Y129889D02*
D03*
X196357Y131281D02*
D03*
X197749Y132673D02*
D03*
X199141Y134065D02*
D03*
X200533Y135457D02*
D03*
X201925Y136849D02*
D03*
X203317Y138241D02*
D03*
X204709Y139633D02*
D03*
D26*
X152511D02*
D03*
X153903Y138241D02*
D03*
X155295Y136849D02*
D03*
X156687Y135457D02*
D03*
X158079Y134065D02*
D03*
X159471Y132673D02*
D03*
X160863Y131281D02*
D03*
X162255Y129889D02*
D03*
X163647Y128497D02*
D03*
X165039Y127105D02*
D03*
X166430Y125713D02*
D03*
X167823Y124321D02*
D03*
X169214Y122929D02*
D03*
X170606Y121537D02*
D03*
X171998Y120145D02*
D03*
X173390Y118753D02*
D03*
X204709Y150072D02*
D03*
X203317Y151464D02*
D03*
X201925Y152856D02*
D03*
X200533Y154248D02*
D03*
X199141Y155640D02*
D03*
X197749Y157032D02*
D03*
X196357Y158424D02*
D03*
X194965Y159816D02*
D03*
X193573Y161208D02*
D03*
X192181Y162600D02*
D03*
X190789Y163992D02*
D03*
X189398Y165384D02*
D03*
X188006Y166776D02*
D03*
X186614Y168167D02*
D03*
X185222Y169559D02*
D03*
X183830Y170951D02*
D03*
D32*
X342520Y199602D02*
D03*
Y163386D02*
D03*
D33*
X204651Y40639D02*
D03*
Y50639D02*
D03*
Y60639D02*
D03*
Y70639D02*
D03*
Y80639D02*
D03*
X150360Y40639D02*
D03*
Y50639D02*
D03*
Y60639D02*
D03*
Y70639D02*
D03*
Y80639D02*
D03*
D34*
X344Y146663D02*
D03*
X6250D02*
D03*
X344Y152890D02*
D03*
X6250D02*
D03*
X344Y115528D02*
D03*
X6250D02*
D03*
X344Y121755D02*
D03*
X6250D02*
D03*
X344Y127982D02*
D03*
X6250D02*
D03*
X344Y140436D02*
D03*
X6250D02*
D03*
X344Y134209D02*
D03*
X6250D02*
D03*
X110163Y168462D02*
D03*
X104257D02*
D03*
X221368Y80639D02*
D03*
X215462D02*
D03*
X221308Y70782D02*
D03*
X215402D02*
D03*
X221368Y40639D02*
D03*
X215462D02*
D03*
X221368Y50639D02*
D03*
X215462D02*
D03*
X149670Y125452D02*
D03*
X143764D02*
D03*
X181563Y189869D02*
D03*
X175657D02*
D03*
X262836Y158902D02*
D03*
X256930D02*
D03*
X149670Y118632D02*
D03*
X143764D02*
D03*
X163043Y179332D02*
D03*
X157137D02*
D03*
X336874Y90099D02*
D03*
X342780D02*
D03*
X336874Y70099D02*
D03*
X342780D02*
D03*
X336874Y50099D02*
D03*
X342780D02*
D03*
X336874Y30274D02*
D03*
X342780D02*
D03*
X104257Y56275D02*
D03*
X110163D02*
D03*
X104257Y66474D02*
D03*
X110163D02*
D03*
X104257Y76673D02*
D03*
X110163D02*
D03*
X104257Y86872D02*
D03*
X110163D02*
D03*
X104257Y97070D02*
D03*
X110163D02*
D03*
X104257Y107269D02*
D03*
X110163D02*
D03*
X104257Y117468D02*
D03*
X110163D02*
D03*
X104257Y127667D02*
D03*
X110163D02*
D03*
X104257Y137865D02*
D03*
X110163D02*
D03*
X104257Y148064D02*
D03*
X110163D02*
D03*
X104257Y158263D02*
D03*
X110163D02*
D03*
X104257Y178661D02*
D03*
X110163D02*
D03*
X104257Y188859D02*
D03*
X110163D02*
D03*
D35*
X89359Y61449D02*
D03*
X97233Y65189D02*
D03*
Y57709D02*
D03*
Y118879D02*
D03*
Y126359D02*
D03*
X89359Y122619D02*
D03*
X97233Y139269D02*
D03*
Y146749D02*
D03*
X89359Y143009D02*
D03*
X97233Y78099D02*
D03*
Y85579D02*
D03*
X89359Y81839D02*
D03*
X97233Y98489D02*
D03*
Y105969D02*
D03*
X89359Y102229D02*
D03*
X97233Y159659D02*
D03*
Y167139D02*
D03*
X89359Y163399D02*
D03*
X97233Y180049D02*
D03*
Y187529D02*
D03*
X89359Y183789D02*
D03*
D36*
X300040Y70782D02*
D03*
Y28656D02*
D03*
X300050Y81956D02*
D03*
Y124082D02*
D03*
X287500Y124132D02*
D03*
Y166258D02*
D03*
D37*
X213427Y158902D02*
D03*
X220513D02*
D03*
X235539Y158902D02*
D03*
X228453D02*
D03*
X181833Y179252D02*
D03*
X174747D02*
D03*
X250565Y158902D02*
D03*
X243479D02*
D03*
X212347Y144692D02*
D03*
X219433D02*
D03*
D38*
X232461Y207972D02*
D03*
X190335D02*
D03*
X285746D02*
D03*
X243620D02*
D03*
X125890D02*
D03*
X83764D02*
D03*
X179175D02*
D03*
X137049D02*
D03*
D39*
X230310Y70611D02*
D03*
Y65099D02*
D03*
X230480Y50633D02*
D03*
Y56145D02*
D03*
X116540Y59036D02*
D03*
Y64548D02*
D03*
X116540Y79337D02*
D03*
Y84848D02*
D03*
Y99637D02*
D03*
Y105148D02*
D03*
Y119936D02*
D03*
Y125448D02*
D03*
Y140236D02*
D03*
Y145748D02*
D03*
Y160536D02*
D03*
Y166048D02*
D03*
Y180836D02*
D03*
Y186348D02*
D03*
D40*
X178610Y144852D02*
D03*
D41*
X198850Y185015D02*
D03*
Y179110D02*
D03*
X204765Y184932D02*
D03*
Y179026D02*
D03*
D42*
X228583Y140660D02*
D03*
Y147904D02*
D03*
D43*
X244260Y144282D02*
D03*
D44*
X81317Y61449D02*
D03*
X63994D02*
D03*
X81317Y81839D02*
D03*
X63994D02*
D03*
X81317Y102229D02*
D03*
X63994D02*
D03*
X81317Y122619D02*
D03*
X63994D02*
D03*
X81317Y143009D02*
D03*
X63994D02*
D03*
X81317Y163399D02*
D03*
X63994D02*
D03*
X81317Y183789D02*
D03*
X63994D02*
D03*
D45*
X358268Y244094D02*
D03*
Y0D02*
D03*
X0D02*
D03*
Y244094D02*
D03*
D46*
X357768Y69779D02*
D03*
Y79779D02*
D03*
Y89779D02*
D03*
Y59779D02*
D03*
Y49779D02*
D03*
Y39779D02*
D03*
Y29779D02*
D03*
Y119779D02*
D03*
Y129779D02*
D03*
Y139779D02*
D03*
Y109779D02*
D03*
Y99779D02*
D03*
D47*
Y19779D02*
D03*
D48*
X21260Y183919D02*
D03*
Y85519D02*
D03*
D49*
X26291Y156294D02*
D03*
X16291Y150900D02*
D03*
X26291Y145506D02*
D03*
X16291Y140113D02*
D03*
X26291Y134719D02*
D03*
X16291Y129325D02*
D03*
X26291Y123932D02*
D03*
X16291Y118538D02*
D03*
X26291Y113144D02*
D03*
D50*
X33330Y53679D02*
D03*
Y24649D02*
D03*
D51*
Y63679D02*
D03*
Y34649D02*
D03*
D52*
X288565Y250779D02*
D03*
Y-8221D02*
D03*
X215845Y250779D02*
D03*
Y-8221D02*
D03*
X143125Y250779D02*
D03*
Y-8221D02*
D03*
X70405Y250779D02*
D03*
Y-8221D02*
D03*
D53*
X288565Y4559D02*
D03*
Y238000D02*
D03*
X215845Y4559D02*
D03*
Y238000D02*
D03*
X143125Y4559D02*
D03*
Y238000D02*
D03*
X70405Y4559D02*
D03*
Y238000D02*
D03*
M02*
