G04*
G04 #@! TF.GenerationSoftware,Altium Limited,Altium Designer,20.2.6 (244)*
G04*
G04 Layer_Physical_Order=1*
G04 Layer_Color=255*
%FSLAX25Y25*%
%MOIN*%
G70*
G04*
G04 #@! TF.SameCoordinates,A281CC0B-DA72-4783-A236-2048B1716941*
G04*
G04*
G04 #@! TF.FilePolarity,Positive*
G04*
G01*
G75*
%ADD12C,0.01000*%
%ADD17R,0.02756X0.03543*%
%ADD18R,0.03150X0.03543*%
%ADD19R,0.03543X0.03150*%
%ADD20R,0.10236X0.04724*%
%ADD21R,0.03543X0.02756*%
%ADD22R,0.03150X0.03543*%
%ADD23R,0.05512X0.04724*%
%ADD24R,0.13228X0.19134*%
%ADD25R,0.05512X0.05472*%
%ADD26R,0.07441X0.05000*%
%ADD28R,0.01063X0.05753*%
%ADD29R,0.05753X0.01063*%
%ADD30R,0.04724X0.05512*%
%ADD41R,0.22598X0.22598*%
%ADD48C,0.08200*%
%ADD52C,0.01968*%
%ADD53C,0.01200*%
%ADD54C,0.01500*%
%ADD55C,0.15000*%
%ADD56C,0.10400*%
%ADD57C,0.10000*%
%ADD58C,0.05500*%
%ADD59C,0.29134*%
%ADD60C,0.05906*%
%ADD61R,0.05906X0.05906*%
%ADD62C,0.01987*%
G36*
X637063Y299068D02*
X636392Y298283D01*
X635144Y296247D01*
X634231Y294041D01*
X633673Y291720D01*
X633486Y289340D01*
X633673Y286960D01*
X634231Y284639D01*
X635144Y282433D01*
X636392Y280398D01*
X637942Y278582D01*
X639757Y277032D01*
X641793Y275784D01*
X643999Y274871D01*
X646320Y274313D01*
X648700Y274126D01*
X651080Y274313D01*
X653401Y274871D01*
X655300Y275657D01*
X655800Y275324D01*
Y14016D01*
X655300Y13683D01*
X653401Y14469D01*
X651080Y15026D01*
X648700Y15214D01*
X646320Y15026D01*
X643999Y14469D01*
X641793Y13556D01*
X639757Y12308D01*
X637942Y10758D01*
X636392Y8942D01*
X635144Y6907D01*
X634231Y4701D01*
X633673Y2380D01*
X633486Y0D01*
X633673Y-2380D01*
X634231Y-4701D01*
X635144Y-6907D01*
X635547Y-7564D01*
X635303Y-8000D01*
X13397D01*
X13153Y-7564D01*
X13556Y-6907D01*
X14469Y-4701D01*
X15026Y-2380D01*
X15214Y0D01*
X15026Y2380D01*
X14469Y4701D01*
X13556Y6907D01*
X12308Y8942D01*
X10758Y10758D01*
X8942Y12308D01*
X6907Y13556D01*
X4701Y14469D01*
X2380Y15026D01*
X0Y15214D01*
X-2380Y15026D01*
X-4701Y14469D01*
X-6907Y13556D01*
X-8942Y12308D01*
X-10758Y10758D01*
X-12308Y8942D01*
X-13556Y6907D01*
X-14469Y4701D01*
X-15026Y2380D01*
X-15214Y0D01*
X-15026Y-2380D01*
X-14469Y-4701D01*
X-13556Y-6907D01*
X-13153Y-7564D01*
X-13397Y-8000D01*
X-30160D01*
X-30450Y-7710D01*
Y297860D01*
X-13053Y297903D01*
X-12808Y297467D01*
X-13556Y296247D01*
X-14469Y294041D01*
X-15026Y291720D01*
X-15214Y289340D01*
X-15026Y286960D01*
X-14469Y284639D01*
X-13556Y282433D01*
X-12308Y280398D01*
X-10758Y278582D01*
X-8942Y277032D01*
X-6907Y275784D01*
X-4701Y274871D01*
X-2380Y274313D01*
X0Y274126D01*
X2380Y274313D01*
X4701Y274871D01*
X6907Y275784D01*
X8942Y277032D01*
X10758Y278582D01*
X12308Y280398D01*
X13556Y282433D01*
X14469Y284639D01*
X15026Y286960D01*
X15214Y289340D01*
X15026Y291720D01*
X14469Y294041D01*
X13556Y296247D01*
X12768Y297532D01*
X13012Y297968D01*
X636853Y299522D01*
X637063Y299068D01*
D02*
G37*
%LPC*%
G36*
X577310Y289471D02*
X576083Y289309D01*
X574940Y288835D01*
X573958Y288082D01*
X573205Y287100D01*
X572731Y285957D01*
X572730Y285953D01*
X567658D01*
Y286854D01*
X556222D01*
Y280929D01*
X567658D01*
Y283506D01*
X572730D01*
X572731Y283503D01*
X573205Y282360D01*
X573958Y281378D01*
X574940Y280625D01*
X576083Y280151D01*
X577310Y279989D01*
X578537Y280151D01*
X579680Y280625D01*
X580662Y281378D01*
X581415Y282360D01*
X581889Y283503D01*
X582051Y284730D01*
X581889Y285957D01*
X581415Y287100D01*
X580662Y288082D01*
X579680Y288835D01*
X578537Y289309D01*
X577310Y289471D01*
D02*
G37*
G36*
X405767Y289161D02*
X404540Y288999D01*
X403396Y288526D01*
X402415Y287772D01*
X401661Y286790D01*
X401188Y285647D01*
X401187Y285644D01*
X397338D01*
Y286604D01*
X385902D01*
Y280679D01*
X397338D01*
Y283196D01*
X401187D01*
X401188Y283193D01*
X401661Y282050D01*
X402415Y281068D01*
X403396Y280315D01*
X404540Y279841D01*
X405767Y279679D01*
X406994Y279841D01*
X408137Y280315D01*
X409119Y281068D01*
X409872Y282050D01*
X410346Y283193D01*
X410507Y284420D01*
X410346Y285647D01*
X409872Y286790D01*
X409119Y287772D01*
X408137Y288526D01*
X406994Y288999D01*
X405767Y289161D01*
D02*
G37*
G36*
X234223Y289071D02*
X232996Y288909D01*
X231853Y288435D01*
X230871Y287682D01*
X230118Y286700D01*
X229644Y285557D01*
X229644Y285554D01*
X225168D01*
Y286854D01*
X213732D01*
Y280929D01*
X225168D01*
Y283106D01*
X229644D01*
X229644Y283103D01*
X230118Y281960D01*
X230871Y280978D01*
X231853Y280224D01*
X232996Y279751D01*
X234223Y279589D01*
X235450Y279751D01*
X236594Y280224D01*
X237575Y280978D01*
X238329Y281960D01*
X238802Y283103D01*
X238964Y284330D01*
X238802Y285557D01*
X238329Y286700D01*
X237575Y287682D01*
X236594Y288435D01*
X235450Y288909D01*
X234223Y289071D01*
D02*
G37*
G36*
X490538Y289121D02*
X489311Y288959D01*
X488168Y288485D01*
X487186Y287732D01*
X486433Y286750D01*
X485959Y285607D01*
X485798Y284380D01*
X485959Y283153D01*
X486433Y282010D01*
X487186Y281028D01*
X488168Y280275D01*
X489311Y279801D01*
X490538Y279639D01*
X491765Y279801D01*
X492909Y280275D01*
X493890Y281028D01*
X494644Y282010D01*
X495117Y283153D01*
X495279Y284380D01*
X495117Y285607D01*
X494644Y286750D01*
X493890Y287732D01*
X492909Y288485D01*
X491765Y288959D01*
X490538Y289121D01*
D02*
G37*
G36*
X318995D02*
X317768Y288959D01*
X316625Y288485D01*
X315643Y287732D01*
X314890Y286750D01*
X314416Y285607D01*
X314254Y284380D01*
X314416Y283153D01*
X314890Y282010D01*
X314892Y282007D01*
X235485Y202600D01*
X235220Y202203D01*
X235126Y201735D01*
Y199188D01*
X234849Y198772D01*
X234725Y198150D01*
X234849Y197528D01*
X235201Y197001D01*
X235728Y196649D01*
X236350Y196525D01*
X236972Y196649D01*
X237499Y197001D01*
X237851Y197528D01*
X237975Y198150D01*
X237851Y198772D01*
X237574Y199188D01*
Y201228D01*
X316622Y280277D01*
X316625Y280275D01*
X317768Y279801D01*
X318995Y279639D01*
X320222Y279801D01*
X321365Y280275D01*
X322347Y281028D01*
X323100Y282010D01*
X323574Y283153D01*
X323735Y284380D01*
X323574Y285607D01*
X323100Y286750D01*
X322347Y287732D01*
X321365Y288485D01*
X320222Y288959D01*
X318995Y289121D01*
D02*
G37*
G36*
X147547D02*
X146320Y288959D01*
X145176Y288485D01*
X144195Y287732D01*
X143441Y286750D01*
X142968Y285607D01*
X142806Y284380D01*
X142968Y283153D01*
X143441Y282010D01*
X144195Y281028D01*
X145176Y280275D01*
X146320Y279801D01*
X147547Y279639D01*
X148774Y279801D01*
X149917Y280275D01*
X150899Y281028D01*
X151652Y282010D01*
X152126Y283153D01*
X152287Y284380D01*
X152126Y285607D01*
X151652Y286750D01*
X150899Y287732D01*
X149917Y288485D01*
X148774Y288959D01*
X147547Y289121D01*
D02*
G37*
G36*
X546310Y290558D02*
X545173Y290446D01*
X544080Y290114D01*
X543072Y289576D01*
X542189Y288851D01*
X541464Y287968D01*
X540926Y286960D01*
X540594Y285867D01*
X540482Y284730D01*
X540594Y283593D01*
X540926Y282500D01*
X541464Y281492D01*
X542189Y280609D01*
X543072Y279884D01*
X544080Y279346D01*
X545173Y279014D01*
X546310Y278902D01*
X547447Y279014D01*
X548540Y279346D01*
X549548Y279884D01*
X550431Y280609D01*
X551156Y281492D01*
X551694Y282500D01*
X552026Y283593D01*
X552138Y284730D01*
X552026Y285867D01*
X551694Y286960D01*
X551156Y287968D01*
X550431Y288851D01*
X549548Y289576D01*
X548540Y290114D01*
X547447Y290446D01*
X546310Y290558D01*
D02*
G37*
G36*
X374767Y290248D02*
X373630Y290136D01*
X372536Y289804D01*
X371529Y289266D01*
X370646Y288541D01*
X369921Y287658D01*
X369382Y286650D01*
X369051Y285557D01*
X368939Y284420D01*
X369051Y283283D01*
X369382Y282190D01*
X369921Y281182D01*
X370646Y280299D01*
X371529Y279574D01*
X372536Y279036D01*
X373630Y278704D01*
X374767Y278592D01*
X375904Y278704D01*
X376997Y279036D01*
X378005Y279574D01*
X378888Y280299D01*
X379612Y281182D01*
X380151Y282190D01*
X380483Y283283D01*
X380595Y284420D01*
X380483Y285557D01*
X380151Y286650D01*
X379612Y287658D01*
X378888Y288541D01*
X378005Y289266D01*
X376997Y289804D01*
X375904Y290136D01*
X374767Y290248D01*
D02*
G37*
G36*
X203223Y290158D02*
X202086Y290046D01*
X200993Y289714D01*
X199985Y289176D01*
X199102Y288451D01*
X198378Y287568D01*
X197839Y286560D01*
X197507Y285467D01*
X197395Y284330D01*
X197507Y283193D01*
X197839Y282100D01*
X198378Y281092D01*
X199102Y280209D01*
X199985Y279484D01*
X200993Y278946D01*
X202086Y278614D01*
X203223Y278502D01*
X204360Y278614D01*
X205454Y278946D01*
X206461Y279484D01*
X207344Y280209D01*
X208069Y281092D01*
X208608Y282100D01*
X208939Y283193D01*
X209051Y284330D01*
X208939Y285467D01*
X208608Y286560D01*
X208069Y287568D01*
X207344Y288451D01*
X206461Y289176D01*
X205454Y289714D01*
X204360Y290046D01*
X203223Y290158D01*
D02*
G37*
G36*
X31870D02*
X30733Y290046D01*
X29640Y289714D01*
X28632Y289176D01*
X27749Y288451D01*
X27024Y287568D01*
X26486Y286560D01*
X26154Y285467D01*
X26042Y284330D01*
X26154Y283193D01*
X26486Y282100D01*
X27024Y281092D01*
X27749Y280209D01*
X28632Y279484D01*
X29640Y278946D01*
X30733Y278614D01*
X31870Y278502D01*
X33007Y278614D01*
X34100Y278946D01*
X35108Y279484D01*
X35991Y280209D01*
X36716Y281092D01*
X37254Y282100D01*
X37586Y283193D01*
X37698Y284330D01*
X37586Y285467D01*
X37254Y286560D01*
X36716Y287568D01*
X35991Y288451D01*
X35108Y289176D01*
X34100Y289714D01*
X33007Y290046D01*
X31870Y290158D01*
D02*
G37*
G36*
X237238Y276579D02*
X232888D01*
Y274512D01*
X229027D01*
X229027Y274512D01*
X228598Y274426D01*
X228234Y274183D01*
X223582Y269531D01*
X213732D01*
Y263606D01*
X225168D01*
Y267945D01*
X229492Y272268D01*
X232888D01*
Y271835D01*
X237238D01*
Y272268D01*
X246563D01*
X246581Y272241D01*
X247108Y271889D01*
X247730Y271765D01*
X248352Y271889D01*
X248879Y272241D01*
X249231Y272768D01*
X249355Y273390D01*
X249231Y274012D01*
X248879Y274539D01*
X248352Y274891D01*
X247730Y275015D01*
X247108Y274891D01*
X246581Y274539D01*
X246563Y274512D01*
X237238D01*
Y276579D01*
D02*
G37*
G36*
X408785Y276466D02*
X404435D01*
Y274057D01*
X399067D01*
X398638Y273972D01*
X398274Y273728D01*
X398274Y273728D01*
X394933Y270388D01*
X394690Y270024D01*
X394605Y269595D01*
X394259Y269281D01*
X385902D01*
Y263356D01*
X391408D01*
Y258054D01*
X391126Y257631D01*
X391003Y257010D01*
X391126Y256388D01*
X391478Y255861D01*
X392006Y255508D01*
X392628Y255385D01*
X393249Y255508D01*
X393776Y255861D01*
X394129Y256388D01*
X394252Y257010D01*
X394129Y257631D01*
X393776Y258159D01*
X393652Y258242D01*
Y263356D01*
X397338D01*
Y269281D01*
X397338Y269281D01*
X397338D01*
X397463Y269746D01*
X399531Y271814D01*
X404435D01*
Y271722D01*
X408785D01*
Y276466D01*
D02*
G37*
G36*
X579325Y276579D02*
X574975D01*
Y274240D01*
X574601Y274166D01*
X574203Y273901D01*
X569233Y268930D01*
X568968Y268533D01*
X568937Y268377D01*
X568351Y267792D01*
X567658D01*
Y269531D01*
X556222D01*
Y265337D01*
X515822Y224937D01*
X290886D01*
X290418Y224844D01*
X290021Y224579D01*
X251126Y185684D01*
X249677D01*
X249262Y185961D01*
X248640Y186085D01*
X248018Y185961D01*
X247491Y185609D01*
X247139Y185082D01*
X247015Y184460D01*
X247139Y183838D01*
X247491Y183311D01*
X248018Y182959D01*
X248640Y182835D01*
X249262Y182959D01*
X249677Y183237D01*
X251632D01*
X252100Y183330D01*
X252498Y183595D01*
X291393Y222490D01*
X516329D01*
X516797Y222583D01*
X517194Y222848D01*
X557952Y263606D01*
X567658D01*
Y265345D01*
X568858D01*
X569326Y265438D01*
X569723Y265703D01*
X570735Y266715D01*
X571235Y266508D01*
Y263961D01*
X572186D01*
Y257930D01*
X571038D01*
Y253974D01*
X575781D01*
Y257930D01*
X574633D01*
Y263961D01*
X575585D01*
Y268705D01*
X573122D01*
X572930Y269167D01*
X575575Y271812D01*
X576175D01*
X576293Y271835D01*
X579325D01*
Y276579D01*
D02*
G37*
G36*
X67415D02*
X63065D01*
Y274259D01*
X62115D01*
X61647Y274166D01*
X61250Y273901D01*
X55141Y267792D01*
X54448D01*
Y269531D01*
X43012D01*
Y263606D01*
X54448D01*
Y265345D01*
X55648D01*
X56116Y265438D01*
X56513Y265704D01*
X58863Y268053D01*
X59325Y267862D01*
Y263961D01*
X60276D01*
Y257881D01*
X59128D01*
Y253925D01*
X63872D01*
Y257881D01*
X62723D01*
Y263961D01*
X63675D01*
Y268705D01*
X60168D01*
X59976Y269167D01*
X62622Y271812D01*
X64016D01*
Y271098D01*
X63859Y270862D01*
X63735Y270240D01*
X63859Y269618D01*
X64211Y269091D01*
X64738Y268739D01*
X65360Y268615D01*
X65982Y268739D01*
X66376Y269002D01*
X66745Y268761D01*
X66768Y268740D01*
X66805Y268280D01*
X66805Y268215D01*
X66805Y268212D01*
X66805Y268205D01*
Y263961D01*
X67855D01*
Y257881D01*
X66805D01*
Y254288D01*
X66805Y254017D01*
X66440Y253706D01*
X66406Y253683D01*
X66043Y253440D01*
X65125Y252522D01*
X64859Y252125D01*
X64766Y251657D01*
Y251422D01*
X64565Y251221D01*
X63872D01*
Y251975D01*
X59128D01*
Y248019D01*
X63872D01*
Y248774D01*
X65071D01*
X65540Y248867D01*
X65937Y249132D01*
X66343Y249539D01*
X66805Y249347D01*
Y248019D01*
X69560D01*
X148506Y169073D01*
X148315Y168612D01*
X136937D01*
X136937Y168612D01*
X136508Y168526D01*
X136144Y168283D01*
X136144Y168283D01*
X131949Y164088D01*
X129579D01*
Y162940D01*
X99671D01*
X42548Y220063D01*
X42151Y220328D01*
X41683Y220421D01*
X8750D01*
X8557Y220887D01*
X8020Y221587D01*
X7320Y222124D01*
X6505Y222461D01*
X5631Y222576D01*
X4756Y222461D01*
X3941Y222124D01*
X3241Y221587D01*
X2705Y220887D01*
X2367Y220072D01*
X2252Y219197D01*
X2367Y218323D01*
X2705Y217508D01*
X3241Y216808D01*
X3941Y216271D01*
X4756Y215934D01*
X5631Y215819D01*
X6505Y215934D01*
X7320Y216271D01*
X8020Y216808D01*
X8557Y217508D01*
X8750Y217974D01*
X41176D01*
X98299Y160851D01*
X98696Y160586D01*
X99164Y160493D01*
X129579D01*
Y159345D01*
X133535D01*
Y162502D01*
X134985Y163951D01*
X135485Y163744D01*
X135485Y163730D01*
Y159492D01*
X135485Y159345D01*
X135131Y158992D01*
X134603D01*
X134603Y158992D01*
X134174Y158906D01*
X133810Y158663D01*
X131949Y156802D01*
X129579D01*
Y155654D01*
X94817D01*
X35801Y214669D01*
X35405Y214934D01*
X34936Y215027D01*
X-1250D01*
X-1443Y215493D01*
X-1980Y216193D01*
X-2680Y216730D01*
X-3495Y217068D01*
X-4166Y217156D01*
X-4368Y217661D01*
X-3504Y218525D01*
X-3239Y218922D01*
X-3146Y219390D01*
Y221472D01*
X-2680Y221665D01*
X-1980Y222202D01*
X-1443Y222902D01*
X-1106Y223717D01*
X-990Y224591D01*
X-1106Y225466D01*
X-1443Y226281D01*
X-1980Y226980D01*
X-2680Y227517D01*
X-3495Y227855D01*
X-4369Y227970D01*
X-5244Y227855D01*
X-6059Y227517D01*
X-6758Y226980D01*
X-7295Y226281D01*
X-7633Y225466D01*
X-7748Y224591D01*
X-7633Y223717D01*
X-7295Y222902D01*
X-6758Y222202D01*
X-6059Y221665D01*
X-5593Y221472D01*
Y219897D01*
X-9184Y216305D01*
X-9450Y215908D01*
X-9543Y215440D01*
Y110491D01*
X-9565Y110469D01*
X-9830Y110072D01*
X-9923Y109604D01*
Y108609D01*
X-9830Y108141D01*
X-9565Y107744D01*
X-9543Y107722D01*
Y81769D01*
X-9450Y81301D01*
X-9184Y80904D01*
X-5629Y77349D01*
X-5531Y76858D01*
X-5179Y76331D01*
X-4652Y75979D01*
X-4030Y75855D01*
X-3408Y75979D01*
X-2881Y76331D01*
X-2529Y76858D01*
X-2405Y77480D01*
X-2529Y78102D01*
X-2881Y78629D01*
X-3408Y78981D01*
X-3898Y79079D01*
X-7096Y82276D01*
Y108229D01*
X-7189Y108697D01*
X-7454Y109094D01*
X-7466Y109107D01*
X-7454Y109119D01*
X-7189Y109516D01*
X-7096Y109984D01*
Y189500D01*
X-6596Y189715D01*
X-6059Y189303D01*
X-5593Y189110D01*
Y186369D01*
X-5500Y185901D01*
X-5234Y185504D01*
X55849Y124421D01*
X56246Y124155D01*
X56714Y124062D01*
X122904D01*
X123388Y123739D01*
X124010Y123615D01*
X124632Y123739D01*
X125048Y124016D01*
X129579D01*
Y122924D01*
X129579Y122914D01*
X129557Y122424D01*
X120467D01*
X120052Y122701D01*
X119430Y122825D01*
X118808Y122701D01*
X118281Y122349D01*
X117929Y121822D01*
X117805Y121200D01*
X117929Y120578D01*
X118281Y120051D01*
X118808Y119699D01*
X119430Y119575D01*
X120052Y119699D01*
X120467Y119976D01*
X135485D01*
Y115628D01*
X139441D01*
Y116776D01*
X155124D01*
Y115628D01*
X159080D01*
Y119976D01*
X159694D01*
X161030Y118641D01*
Y115628D01*
X164985D01*
Y120371D01*
X162760D01*
X161066Y122065D01*
X160669Y122330D01*
X160201Y122424D01*
X159102D01*
X159080Y122914D01*
X159080Y122924D01*
Y127657D01*
X155124D01*
Y126509D01*
X139441D01*
Y127657D01*
X135485D01*
Y122924D01*
X135485Y122914D01*
X135462Y122424D01*
X133558D01*
X133535Y122914D01*
X133535Y122924D01*
Y127657D01*
X132476D01*
X132324Y128157D01*
X132629Y128361D01*
X132981Y128888D01*
X133105Y129510D01*
X133067Y129700D01*
X133477Y130200D01*
X133535D01*
Y134747D01*
X135485D01*
Y130200D01*
X139441D01*
Y131348D01*
X155124D01*
Y130200D01*
X159080D01*
Y134943D01*
X156816D01*
X156550Y135443D01*
X156655Y135970D01*
X156531Y136592D01*
X156268Y136986D01*
X156437Y137424D01*
X156489Y137486D01*
X159080D01*
Y142230D01*
X155124D01*
Y141082D01*
X139441D01*
Y142230D01*
X135485D01*
Y137486D01*
X135106Y137194D01*
X133914D01*
X133535Y137486D01*
Y142230D01*
X131310D01*
X130954Y142586D01*
X130557Y142851D01*
X130088Y142944D01*
X77326D01*
X16389Y203881D01*
X15992Y204147D01*
X15524Y204240D01*
X-1250D01*
X-1443Y204706D01*
X-1980Y205405D01*
X-2680Y205943D01*
X-3495Y206280D01*
X-4369Y206395D01*
X-5244Y206280D01*
X-6059Y205943D01*
X-6596Y205530D01*
X-7096Y205745D01*
Y211075D01*
X-6596Y211290D01*
X-6059Y210877D01*
X-5244Y210540D01*
X-4369Y210425D01*
X-3495Y210540D01*
X-2680Y210877D01*
X-1980Y211414D01*
X-1443Y212114D01*
X-1250Y212580D01*
X34429D01*
X93445Y153565D01*
X93842Y153300D01*
X94310Y153207D01*
X129579D01*
Y152058D01*
X133535D01*
Y155216D01*
X134985Y156665D01*
X135485Y156548D01*
Y152058D01*
X139441D01*
Y153207D01*
X155124D01*
Y152058D01*
X159080D01*
Y156748D01*
X161030D01*
Y152058D01*
X164985D01*
Y153309D01*
X173994D01*
X174308Y153099D01*
X174930Y152975D01*
X175552Y153099D01*
X176079Y153451D01*
X176431Y153978D01*
X176555Y154600D01*
X176431Y155222D01*
X176079Y155749D01*
X175552Y156101D01*
X174930Y156225D01*
X174308Y156101D01*
X173781Y155749D01*
X173649Y155552D01*
X164985D01*
Y156748D01*
X194395D01*
X195407Y155737D01*
X195407Y155737D01*
X195771Y155494D01*
X196200Y155408D01*
X196200Y155408D01*
X216763D01*
X216781Y155381D01*
X217308Y155029D01*
X217930Y154905D01*
X218552Y155029D01*
X219079Y155381D01*
X219431Y155908D01*
X219555Y156530D01*
X219431Y157152D01*
X219079Y157679D01*
X218552Y158031D01*
X217930Y158155D01*
X217308Y158031D01*
X216781Y157679D01*
X216763Y157651D01*
X196665D01*
X195653Y158663D01*
X195289Y158906D01*
X194860Y158992D01*
X194860Y158992D01*
X165339D01*
X164985Y159345D01*
X164985Y159492D01*
Y160493D01*
X225252D01*
X225302Y160460D01*
X225770Y160366D01*
X226238Y160460D01*
X226635Y160725D01*
X230546Y164636D01*
X231036Y164733D01*
X231564Y165086D01*
X231916Y165613D01*
X232039Y166235D01*
X231916Y166856D01*
X231564Y167384D01*
X231440Y167466D01*
X231591Y167966D01*
X249496D01*
X258607Y158856D01*
Y157231D01*
X258700Y156762D01*
X258965Y156365D01*
X261057Y154273D01*
X261454Y154008D01*
X261799Y153939D01*
Y150998D01*
X262681D01*
Y148352D01*
X261659D01*
Y144175D01*
X205372D01*
X204904Y144082D01*
X204507Y143817D01*
X204299Y143609D01*
X203838Y143855D01*
X203895Y144140D01*
X203771Y144762D01*
X203419Y145289D01*
X202892Y145641D01*
X202270Y145765D01*
X201648Y145641D01*
X201121Y145289D01*
X201103Y145262D01*
X164985D01*
Y146022D01*
X180890D01*
X180890Y146022D01*
X181319Y146108D01*
X181683Y146351D01*
X183036Y147704D01*
X183068Y147698D01*
X183690Y147821D01*
X184217Y148174D01*
X184570Y148701D01*
X184693Y149323D01*
X184570Y149945D01*
X184217Y150472D01*
X183690Y150824D01*
X183068Y150948D01*
X182447Y150824D01*
X181919Y150472D01*
X181567Y149945D01*
X181443Y149323D01*
X181450Y149290D01*
X180425Y148266D01*
X164985D01*
Y149516D01*
X161030D01*
Y145262D01*
X159080D01*
Y149516D01*
X155124D01*
Y148368D01*
X139441D01*
Y149516D01*
X135485D01*
Y145262D01*
X134632D01*
X133535Y146359D01*
Y149516D01*
X129579D01*
Y148368D01*
X87663D01*
X26755Y209275D01*
X26358Y209540D01*
X25890Y209633D01*
X8750D01*
X8557Y210100D01*
X8020Y210799D01*
X7320Y211336D01*
X6505Y211674D01*
X5631Y211789D01*
X4756Y211674D01*
X3941Y211336D01*
X3241Y210799D01*
X2705Y210100D01*
X2367Y209284D01*
X2252Y208410D01*
X2367Y207536D01*
X2705Y206720D01*
X3241Y206021D01*
X3941Y205484D01*
X4756Y205146D01*
X5631Y205031D01*
X6505Y205146D01*
X7320Y205484D01*
X8020Y206021D01*
X8557Y206720D01*
X8750Y207187D01*
X25383D01*
X86291Y146279D01*
X86688Y146014D01*
X87156Y145921D01*
X129579D01*
Y144772D01*
X131949D01*
X133375Y143347D01*
X133375Y143347D01*
X133738Y143104D01*
X134168Y143018D01*
X201103D01*
X201121Y142991D01*
X201648Y142639D01*
X202270Y142515D01*
X202555Y142572D01*
X202801Y142111D01*
X174334Y113644D01*
X38008D01*
X23106Y128546D01*
X23313Y129046D01*
X26781D01*
Y129512D01*
X27158Y129713D01*
X27281Y129728D01*
X27860Y129613D01*
X28482Y129737D01*
X29009Y130089D01*
X29361Y130616D01*
X29485Y131238D01*
X29361Y131860D01*
X29009Y132387D01*
X28482Y132739D01*
X27860Y132863D01*
X27281Y132747D01*
X27213Y132756D01*
X26781Y133035D01*
Y133789D01*
X22825D01*
Y129533D01*
X22325Y129326D01*
X20875Y130776D01*
Y133789D01*
X16919D01*
Y132641D01*
X11917D01*
X11682Y133209D01*
X11112Y133951D01*
X10370Y134521D01*
X9506Y134879D01*
X8579Y135001D01*
X7651Y134879D01*
X6787Y134521D01*
X6045Y133951D01*
X5475Y133209D01*
X5117Y132345D01*
X4995Y131417D01*
X5117Y130490D01*
X5475Y129625D01*
X6045Y128883D01*
X6787Y128314D01*
X7651Y127956D01*
X8579Y127834D01*
X9506Y127956D01*
X10370Y128314D01*
X11112Y128883D01*
X11682Y129625D01*
X11917Y130194D01*
X16919D01*
Y129046D01*
X19145D01*
X36636Y111555D01*
X37033Y111290D01*
X37501Y111196D01*
X174703D01*
X174899Y110853D01*
X174923Y110709D01*
X173881Y109667D01*
X29144D01*
X28992Y110167D01*
X29009Y110178D01*
X29361Y110706D01*
X29485Y111328D01*
X29361Y111949D01*
X29009Y112477D01*
X28482Y112829D01*
X27860Y112952D01*
X27281Y112837D01*
X27213Y112845D01*
X26781Y113124D01*
Y113789D01*
X22825D01*
Y109667D01*
X21840D01*
X20875Y110632D01*
Y113789D01*
X16919D01*
Y112641D01*
X11917D01*
X11682Y113209D01*
X11112Y113951D01*
X10370Y114521D01*
X9506Y114879D01*
X8579Y115001D01*
X7651Y114879D01*
X6787Y114521D01*
X6045Y113951D01*
X5475Y113209D01*
X5117Y112345D01*
X4995Y111417D01*
X5117Y110490D01*
X5475Y109625D01*
X6045Y108883D01*
X6787Y108314D01*
X7651Y107956D01*
X8579Y107834D01*
X9506Y107956D01*
X10370Y108314D01*
X11112Y108883D01*
X11682Y109625D01*
X11917Y110194D01*
X16919D01*
Y109046D01*
X19289D01*
X20582Y107753D01*
X20582Y107753D01*
X20946Y107509D01*
X21375Y107424D01*
X59561D01*
X59753Y106962D01*
X42458Y89667D01*
X29009D01*
X28858Y90167D01*
X29009Y90268D01*
X29361Y90795D01*
X29485Y91417D01*
X29361Y92039D01*
X29009Y92566D01*
X28482Y92918D01*
X27860Y93042D01*
X27281Y92927D01*
X27213Y92935D01*
X26781Y93214D01*
Y93789D01*
X22825D01*
Y92604D01*
X22325Y92349D01*
X22168Y92453D01*
X21739Y92539D01*
X21739Y92539D01*
X20875D01*
Y93789D01*
X16919D01*
Y92641D01*
X11917D01*
X11682Y93209D01*
X11112Y93951D01*
X10370Y94521D01*
X9506Y94879D01*
X8579Y95001D01*
X7651Y94879D01*
X6787Y94521D01*
X6045Y93951D01*
X5475Y93209D01*
X5117Y92345D01*
X4995Y91417D01*
X5117Y90490D01*
X5475Y89626D01*
X6045Y88883D01*
X6787Y88314D01*
X7651Y87956D01*
X8579Y87834D01*
X9506Y87956D01*
X10370Y88314D01*
X11112Y88883D01*
X11682Y89626D01*
X11917Y90194D01*
X16919D01*
Y89046D01*
X20761D01*
X20875Y89046D01*
X21278Y88812D01*
X21289Y88761D01*
X21532Y88397D01*
X22176Y87753D01*
X22176Y87752D01*
X22540Y87509D01*
X22969Y87424D01*
X22969Y87424D01*
X32271D01*
X32462Y86962D01*
X19289Y73789D01*
X16919D01*
Y72641D01*
X11917D01*
X11682Y73209D01*
X11112Y73951D01*
X10370Y74521D01*
X9506Y74879D01*
X8579Y75001D01*
X7651Y74879D01*
X6787Y74521D01*
X6045Y73951D01*
X5475Y73209D01*
X5117Y72345D01*
X4995Y71417D01*
X5117Y70490D01*
X5475Y69626D01*
X6045Y68883D01*
X6787Y68314D01*
X7651Y67956D01*
X8579Y67834D01*
X9506Y67956D01*
X10370Y68314D01*
X11112Y68883D01*
X11682Y69626D01*
X11917Y70194D01*
X16919D01*
Y69046D01*
X20875D01*
Y72203D01*
X22325Y73652D01*
X22825Y73445D01*
Y69046D01*
X26781D01*
Y69645D01*
X27275Y69916D01*
X27897Y69792D01*
X28519Y69916D01*
X29046Y70268D01*
X29399Y70795D01*
X29522Y71417D01*
X29399Y72039D01*
X29046Y72566D01*
X28519Y72918D01*
X27897Y73042D01*
X27275Y72918D01*
X26781Y73189D01*
Y73789D01*
X23168D01*
X22961Y74289D01*
X34496Y85824D01*
X49380D01*
X49572Y85362D01*
X26851Y62641D01*
X11917D01*
X11682Y63209D01*
X11112Y63951D01*
X10370Y64521D01*
X9506Y64879D01*
X8579Y65001D01*
X7651Y64879D01*
X6787Y64521D01*
X6045Y63951D01*
X5475Y63209D01*
X5117Y62345D01*
X4995Y61417D01*
X5117Y60490D01*
X5475Y59626D01*
X6045Y58883D01*
X6787Y58314D01*
X7651Y57956D01*
X8579Y57834D01*
X9506Y57956D01*
X10370Y58314D01*
X11112Y58883D01*
X11682Y59626D01*
X11917Y60194D01*
X27357D01*
X27825Y60287D01*
X28222Y60552D01*
X65121Y97451D01*
X233086D01*
X233277Y96989D01*
X228952Y92664D01*
X67920D01*
X67452Y92570D01*
X67055Y92305D01*
X27391Y52641D01*
X11917D01*
X11682Y53209D01*
X11112Y53951D01*
X10370Y54521D01*
X9506Y54879D01*
X8579Y55001D01*
X7651Y54879D01*
X6787Y54521D01*
X6045Y53951D01*
X5475Y53209D01*
X5117Y52345D01*
X4995Y51417D01*
X5117Y50490D01*
X5475Y49626D01*
X6045Y48883D01*
X6787Y48314D01*
X7651Y47956D01*
X8579Y47834D01*
X9506Y47956D01*
X10370Y48314D01*
X11112Y48883D01*
X11682Y49626D01*
X11917Y50194D01*
X27897D01*
X28365Y50287D01*
X28762Y50552D01*
X68427Y90216D01*
X228397D01*
X228588Y89754D01*
X227077Y88244D01*
X72666D01*
X72198Y88150D01*
X71801Y87885D01*
X26557Y42641D01*
X11917D01*
X11682Y43209D01*
X11112Y43951D01*
X10370Y44521D01*
X9506Y44879D01*
X8579Y45001D01*
X7651Y44879D01*
X6787Y44521D01*
X6045Y43951D01*
X5475Y43209D01*
X5117Y42345D01*
X4995Y41417D01*
X5117Y40490D01*
X5475Y39625D01*
X6045Y38883D01*
X6787Y38314D01*
X7651Y37956D01*
X8579Y37834D01*
X9506Y37956D01*
X10370Y38314D01*
X11112Y38883D01*
X11682Y39625D01*
X11917Y40194D01*
X26114D01*
X26283Y39723D01*
X26115Y39585D01*
X25102Y38352D01*
X24350Y36945D01*
X23887Y35418D01*
X23731Y33830D01*
X23887Y32242D01*
X24350Y30715D01*
X25102Y29308D01*
X26115Y28075D01*
X27348Y27062D01*
X28656Y26364D01*
X28580Y25864D01*
X15863D01*
X11804Y29922D01*
X12040Y30490D01*
X12162Y31417D01*
X12040Y32345D01*
X11682Y33209D01*
X11112Y33951D01*
X10370Y34521D01*
X9506Y34879D01*
X8579Y35001D01*
X7651Y34879D01*
X6787Y34521D01*
X6045Y33951D01*
X5475Y33209D01*
X5117Y32345D01*
X4995Y31417D01*
X5117Y30490D01*
X5475Y29625D01*
X6045Y28883D01*
X6787Y28314D01*
X7651Y27956D01*
X8579Y27834D01*
X9506Y27956D01*
X10074Y28191D01*
X14491Y23775D01*
X14887Y23510D01*
X15356Y23416D01*
X48800D01*
X49268Y23510D01*
X49665Y23775D01*
X109887Y83996D01*
X116380D01*
X116571Y83535D01*
X55678Y22641D01*
X11917D01*
X11682Y23209D01*
X11112Y23951D01*
X10370Y24521D01*
X9506Y24879D01*
X8579Y25001D01*
X7651Y24879D01*
X6787Y24521D01*
X6045Y23951D01*
X5475Y23209D01*
X5117Y22345D01*
X4995Y21417D01*
X5117Y20490D01*
X5475Y19626D01*
X6045Y18883D01*
X6787Y18314D01*
X7651Y17956D01*
X8579Y17834D01*
X9506Y17956D01*
X10370Y18314D01*
X11112Y18883D01*
X11682Y19626D01*
X11917Y20194D01*
X56185D01*
X56653Y20287D01*
X57050Y20552D01*
X118694Y82196D01*
X229075D01*
X229544Y82290D01*
X229941Y82555D01*
X261889Y114504D01*
X261889Y114504D01*
X264392Y117007D01*
X274303Y126917D01*
X275568D01*
X275775Y126417D01*
X268103Y118745D01*
X267837Y118348D01*
X267744Y117879D01*
Y108725D01*
X265612D01*
Y106612D01*
X265056D01*
Y108475D01*
X258344D01*
Y104281D01*
X232486Y78424D01*
X132120D01*
X131652Y78330D01*
X131255Y78065D01*
X100173Y46984D01*
X96178D01*
X95762Y47261D01*
X95140Y47385D01*
X94518Y47261D01*
X93991Y46909D01*
X93639Y46382D01*
X93515Y45760D01*
X93639Y45138D01*
X93991Y44611D01*
X94518Y44259D01*
X95140Y44135D01*
X95762Y44259D01*
X96178Y44537D01*
X100680D01*
X101148Y44630D01*
X101545Y44895D01*
X132627Y75977D01*
X232993D01*
X233461Y76070D01*
X233858Y76335D01*
X260074Y102551D01*
X265056D01*
Y104165D01*
X265612D01*
Y102053D01*
X272323D01*
Y108725D01*
X270191D01*
Y117373D01*
X270559Y117740D01*
X271019Y117494D01*
X270957Y117180D01*
X271081Y116558D01*
X271358Y116142D01*
Y115502D01*
X271047D01*
Y110758D01*
X274988D01*
Y108725D01*
X272856D01*
Y102053D01*
X278455D01*
X278772Y101666D01*
X278761Y101608D01*
Y100566D01*
X278074Y99879D01*
X265375D01*
Y79545D01*
X279804D01*
Y98148D01*
X280849Y99194D01*
X281115Y99591D01*
X281208Y100059D01*
Y101102D01*
X282314Y102208D01*
X287296D01*
Y106781D01*
X287394Y106861D01*
X288022Y106820D01*
X288440Y106402D01*
Y102208D01*
X295152D01*
X295152Y102208D01*
X295374D01*
Y102208D01*
X295652Y102208D01*
X302086D01*
Y106246D01*
X302548Y106438D01*
X304475Y104510D01*
Y101949D01*
X304568Y101481D01*
X304834Y101084D01*
X307530Y98387D01*
Y96161D01*
X312274D01*
Y100117D01*
X309261D01*
X307811Y101567D01*
X308018Y102067D01*
X312274D01*
Y102821D01*
X313020D01*
Y102067D01*
X317764D01*
Y106023D01*
X313020D01*
Y105268D01*
X312274D01*
Y106023D01*
X309261D01*
X305859Y109424D01*
Y118859D01*
X305767Y119322D01*
Y122335D01*
X301922D01*
Y123602D01*
X302200Y124018D01*
X302323Y124640D01*
X302200Y125262D01*
X301847Y125789D01*
X301320Y126141D01*
X300698Y126265D01*
X300077Y126141D01*
X299549Y125789D01*
X299197Y125262D01*
X299073Y124640D01*
X299197Y124018D01*
X299303Y123860D01*
X298915Y123541D01*
X295350Y127106D01*
X294953Y127371D01*
X294484Y127464D01*
X283013D01*
Y132983D01*
Y136920D01*
Y140857D01*
Y145089D01*
X279999D01*
X279537Y145181D01*
X279074Y145089D01*
X276061D01*
Y145018D01*
X274234D01*
X273766Y144925D01*
X273369Y144660D01*
X272884Y144175D01*
X266009D01*
Y146424D01*
X268224Y148639D01*
X276061D01*
Y146763D01*
X279074D01*
X279537Y146671D01*
X279881Y146739D01*
X286544D01*
X287012Y146833D01*
X287409Y147098D01*
X290049Y149737D01*
X290314Y150134D01*
X290407Y150602D01*
Y153718D01*
X290314Y154186D01*
X290049Y154583D01*
X283203Y161428D01*
X283382Y161814D01*
X283440Y161899D01*
X284042Y162019D01*
X284457Y162296D01*
X285787D01*
Y159674D01*
X289724D01*
Y159674D01*
X289890D01*
X289962Y159309D01*
X290228Y158912D01*
X290931Y158209D01*
X291328Y157943D01*
X291796Y157850D01*
X293853D01*
X294321Y157943D01*
X294718Y158209D01*
X295589Y159080D01*
X295855Y159477D01*
X295894Y159674D01*
X299475D01*
Y156895D01*
X298208Y155629D01*
X297718Y155531D01*
X297191Y155179D01*
X296839Y154652D01*
X296715Y154030D01*
X296839Y153408D01*
X297191Y152881D01*
X297718Y152529D01*
X298340Y152405D01*
X298962Y152529D01*
X299489Y152881D01*
X299841Y153408D01*
X299934Y153875D01*
X300290Y154125D01*
X300746Y153925D01*
X300849Y153408D01*
X301201Y152881D01*
X301728Y152529D01*
X302350Y152405D01*
X302972Y152529D01*
X303499Y152881D01*
X303851Y153408D01*
X303975Y154030D01*
X303880Y154508D01*
X303890Y154560D01*
Y159674D01*
X313377D01*
X313416Y159477D01*
X313681Y159080D01*
X315820Y156942D01*
X316217Y156676D01*
X316685Y156583D01*
X319075D01*
X320352Y155307D01*
Y152963D01*
X320352D01*
Y148731D01*
Y145181D01*
X319351D01*
X319269Y145303D01*
X318742Y145655D01*
X318120Y145779D01*
X317498Y145655D01*
X316971Y145303D01*
X316619Y144776D01*
X316495Y144154D01*
X316619Y143532D01*
X316971Y143005D01*
X317498Y142653D01*
X318120Y142529D01*
X318742Y142653D01*
X318863Y142734D01*
X320352D01*
Y139183D01*
X320352D01*
Y137049D01*
X319987Y136977D01*
X319590Y136712D01*
X318887Y136009D01*
X318621Y135612D01*
X318528Y135143D01*
Y133086D01*
X318621Y132618D01*
X318887Y132221D01*
X319758Y131350D01*
X320155Y131085D01*
X320352Y131045D01*
Y129046D01*
X320352D01*
Y125109D01*
X323366D01*
X323828Y125017D01*
X334299D01*
Y123334D01*
X338493D01*
X340959Y120868D01*
Y119362D01*
X340205D01*
Y114823D01*
X340205Y114618D01*
X339827Y114323D01*
X338633D01*
X338255Y114618D01*
X338255Y114823D01*
Y119362D01*
X335636D01*
X332822Y122175D01*
X332425Y122440D01*
X331957Y122534D01*
X326557D01*
X326142Y122811D01*
X325520Y122935D01*
X324898Y122811D01*
X324371Y122459D01*
X324019Y121932D01*
X323895Y121310D01*
X324019Y120688D01*
X324371Y120161D01*
X324898Y119809D01*
X325520Y119685D01*
X326142Y119809D01*
X326557Y120087D01*
X331451D01*
X334240Y117297D01*
X334299Y117257D01*
Y114823D01*
X334299Y114618D01*
X333921Y114323D01*
X328743D01*
X325618Y117448D01*
X325221Y117713D01*
X324753Y117806D01*
X317670D01*
Y118859D01*
X317578Y119322D01*
Y121622D01*
X317661Y121717D01*
X318078Y121969D01*
X318530Y121879D01*
X319151Y122002D01*
X319679Y122355D01*
X320031Y122882D01*
X320155Y123504D01*
X320031Y124126D01*
X319679Y124653D01*
X319151Y125005D01*
X318530Y125129D01*
X317908Y125005D01*
X317381Y124653D01*
X317330Y124576D01*
X315835D01*
X315613Y124532D01*
X315279Y124606D01*
X315075Y124890D01*
X315001Y125262D01*
X314649Y125789D01*
X314122Y126141D01*
X313500Y126265D01*
X312878Y126141D01*
X312701Y126023D01*
X312452Y126139D01*
X312222Y126304D01*
X312111Y126863D01*
X311758Y127390D01*
X311231Y127742D01*
X310609Y127866D01*
X309987Y127742D01*
X309460Y127390D01*
X309108Y126863D01*
X308984Y126241D01*
X309108Y125619D01*
X309317Y125306D01*
Y118859D01*
X309409Y118396D01*
Y115383D01*
X316397D01*
X316515Y115359D01*
X324246D01*
X327371Y112235D01*
X327767Y111970D01*
X328236Y111876D01*
X533314D01*
X533782Y111970D01*
X534179Y112235D01*
X545245Y123301D01*
X547471D01*
Y124428D01*
X552668D01*
Y123280D01*
X561309D01*
Y129480D01*
X552668D01*
Y126875D01*
X547471D01*
Y128044D01*
X543515D01*
Y125031D01*
X542065Y123582D01*
X541565Y123789D01*
Y128044D01*
X540811D01*
Y129008D01*
X541959D01*
Y133752D01*
X540811D01*
Y134737D01*
X541565D01*
Y139480D01*
X537609D01*
Y134737D01*
X538364D01*
Y133752D01*
X537609D01*
Y129008D01*
X538364D01*
Y128044D01*
X537609D01*
Y123301D01*
X541077D01*
X541285Y122801D01*
X532807Y114323D01*
X493135D01*
X492984Y114823D01*
X493369Y115081D01*
X493721Y115608D01*
X493845Y116230D01*
X493721Y116852D01*
X493443Y117268D01*
Y117570D01*
X493350Y118038D01*
X493085Y118435D01*
X457105Y154415D01*
X456708Y154680D01*
X456240Y154773D01*
X333223D01*
X332755Y154680D01*
X332358Y154415D01*
X329029Y151086D01*
X327305D01*
Y152668D01*
X327305D01*
Y155307D01*
X329975Y157976D01*
X334089D01*
Y156828D01*
X338045D01*
Y161084D01*
X338545Y161291D01*
X339995Y159841D01*
Y156828D01*
X343951D01*
Y157976D01*
X345732D01*
X345818Y157919D01*
X346440Y157795D01*
X347062Y157919D01*
X347589Y158271D01*
X347941Y158798D01*
X348065Y159420D01*
X347941Y160042D01*
X347589Y160569D01*
X347062Y160921D01*
X346440Y161045D01*
X345818Y160921D01*
X345291Y160569D01*
X345194Y160424D01*
X343951D01*
Y161572D01*
X341725D01*
X329012Y174285D01*
X328615Y174550D01*
X328146Y174644D01*
X309566D01*
Y175792D01*
X305216D01*
Y171048D01*
X305449D01*
Y169916D01*
X304949Y169660D01*
X304410Y169768D01*
X303788Y169644D01*
X303603Y169520D01*
X303103Y169787D01*
Y171011D01*
X303289Y171048D01*
X304054D01*
Y172159D01*
X304059Y172182D01*
Y176477D01*
X304722D01*
Y180826D01*
X300533D01*
X300326Y181326D01*
X300988Y181989D01*
X304722D01*
Y186338D01*
X299978D01*
Y184439D01*
X288151Y172612D01*
X285925D01*
Y167868D01*
X286063D01*
X286270Y167368D01*
X286122Y167220D01*
X285857Y166823D01*
X285818Y166627D01*
X285787D01*
Y166473D01*
X285764Y166355D01*
Y164743D01*
X284457D01*
X284042Y165021D01*
X283420Y165145D01*
X282798Y165021D01*
X282271Y164669D01*
X281919Y164142D01*
X281799Y163540D01*
X281714Y163482D01*
X281328Y163303D01*
X279834Y164798D01*
Y170897D01*
X279740Y171365D01*
X279475Y171762D01*
X278772Y172465D01*
X278375Y172730D01*
X277907Y172824D01*
X155317D01*
X74700Y253440D01*
X74303Y253706D01*
X73835Y253799D01*
X71996D01*
X71549Y253925D01*
X71549Y254299D01*
Y257881D01*
X70302D01*
Y263961D01*
X71155D01*
Y264927D01*
X74042D01*
X74458Y264649D01*
X75080Y264525D01*
X75702Y264649D01*
X76229Y265001D01*
X76581Y265528D01*
X76705Y266150D01*
X76581Y266772D01*
X76229Y267299D01*
X75702Y267651D01*
X75080Y267775D01*
X74458Y267651D01*
X74042Y267373D01*
X71155D01*
Y268705D01*
X67305D01*
X67303Y268705D01*
X67301Y268705D01*
X66806Y268705D01*
X66793Y268719D01*
X66516Y269082D01*
X66509Y269091D01*
X66861Y269618D01*
X66985Y270240D01*
X66861Y270862D01*
X66545Y271335D01*
X66607Y271578D01*
X66740Y271835D01*
X67415D01*
Y276579D01*
D02*
G37*
G36*
X405045Y268592D02*
X400695D01*
Y263848D01*
X401756D01*
Y257930D01*
X399928D01*
Y253974D01*
X404671D01*
Y257930D01*
X404204D01*
Y263848D01*
X405045D01*
Y268592D01*
D02*
G37*
G36*
X240978Y268705D02*
X236628D01*
Y265692D01*
X234366Y263429D01*
X234100Y263032D01*
X234007Y262564D01*
Y260936D01*
X233981Y260919D01*
X233629Y260392D01*
X233505Y259770D01*
X233629Y259148D01*
X233981Y258621D01*
X234508Y258269D01*
X235063Y258158D01*
X236628Y256593D01*
Y253974D01*
X241372D01*
Y257930D01*
X238752D01*
X236716Y259966D01*
X236631Y260392D01*
X236454Y260657D01*
Y262057D01*
X238359Y263961D01*
X240978D01*
Y268705D01*
D02*
G37*
G36*
X233498D02*
X229148D01*
Y263961D01*
X230023D01*
Y257930D01*
X228798D01*
Y253974D01*
X233542D01*
Y257930D01*
X232470D01*
Y263961D01*
X233498D01*
Y268705D01*
D02*
G37*
G36*
X635251Y264599D02*
X633789Y264407D01*
X632427Y263843D01*
X631257Y262945D01*
X630359Y261775D01*
X629795Y260413D01*
X629602Y258951D01*
X629795Y257489D01*
X630359Y256127D01*
X631257Y254957D01*
X632427Y254060D01*
X633789Y253495D01*
X635251Y253303D01*
X636713Y253495D01*
X638075Y254060D01*
X639245Y254957D01*
X640142Y256127D01*
X640707Y257489D01*
X640899Y258951D01*
X640707Y260413D01*
X640142Y261775D01*
X639245Y262945D01*
X638075Y263843D01*
X636713Y264407D01*
X635251Y264599D01*
D02*
G37*
G36*
X600Y263258D02*
X-862Y263066D01*
X-2224Y262502D01*
X-3394Y261604D01*
X-4292Y260434D01*
X-4856Y259072D01*
X-5048Y257610D01*
X-4856Y256148D01*
X-4292Y254786D01*
X-3394Y253616D01*
X-2224Y252718D01*
X-862Y252154D01*
X600Y251962D01*
X2062Y252154D01*
X3424Y252718D01*
X4594Y253616D01*
X5492Y254786D01*
X6056Y256148D01*
X6248Y257610D01*
X6056Y259072D01*
X5492Y260434D01*
X4594Y261604D01*
X3424Y262502D01*
X2062Y263066D01*
X600Y263258D01*
D02*
G37*
G36*
X404671Y252024D02*
X399928D01*
Y251227D01*
X397083D01*
X396732Y251461D01*
X396110Y251585D01*
X395488Y251461D01*
X394961Y251109D01*
X394609Y250582D01*
X394485Y249960D01*
X394609Y249338D01*
X394961Y248811D01*
X395488Y248459D01*
X396110Y248335D01*
X396732Y248459D01*
X397212Y248780D01*
X399928D01*
Y248068D01*
X404671D01*
Y252024D01*
D02*
G37*
G36*
X583065Y268705D02*
X578715D01*
Y263961D01*
X579667D01*
Y257930D01*
X578518D01*
Y253974D01*
X578153Y253754D01*
X577756Y253489D01*
X577053Y252786D01*
X576788Y252389D01*
X576695Y251921D01*
Y249758D01*
X576473Y249536D01*
X576281Y249498D01*
X576172Y249501D01*
X575781Y249710D01*
Y252024D01*
X571038D01*
Y251327D01*
X568862D01*
X568361Y251661D01*
X567740Y251785D01*
X567118Y251661D01*
X566591Y251309D01*
X566238Y250782D01*
X566115Y250160D01*
X566238Y249538D01*
X566591Y249011D01*
X567118Y248659D01*
X567740Y248535D01*
X568361Y248659D01*
X568692Y248880D01*
X571038D01*
Y248068D01*
X575181D01*
X575245Y247990D01*
X575369Y247368D01*
X575721Y246841D01*
X576248Y246489D01*
X576870Y246365D01*
X577492Y246489D01*
X578019Y246841D01*
X578371Y247368D01*
X578419Y247609D01*
X578502Y247991D01*
X578981Y248068D01*
X579667D01*
Y246367D01*
X578603Y245304D01*
X564218D01*
X563802Y245581D01*
X563180Y245705D01*
X562558Y245581D01*
X562031Y245229D01*
X561679Y244702D01*
X561555Y244080D01*
X561679Y243458D01*
X562031Y242931D01*
X562558Y242579D01*
X563180Y242455D01*
X563802Y242579D01*
X564218Y242857D01*
X579110D01*
X579578Y242950D01*
X579975Y243215D01*
X581755Y244995D01*
X582021Y245392D01*
X582114Y245860D01*
Y248068D01*
X583262D01*
Y252024D01*
X581937D01*
X581922Y252059D01*
X581797Y252524D01*
X582021Y252859D01*
X582114Y253327D01*
Y253974D01*
X583262D01*
Y257930D01*
X582114D01*
Y263961D01*
X583065D01*
Y268705D01*
D02*
G37*
G36*
X412525Y268592D02*
X408176D01*
Y263848D01*
X408898D01*
Y257930D01*
X407409D01*
Y253974D01*
X410566D01*
X412015Y252524D01*
X411808Y252024D01*
X407409D01*
Y248068D01*
X410422D01*
X414165Y244325D01*
X414562Y244060D01*
X415030Y243967D01*
X415522D01*
X415938Y243689D01*
X416560Y243565D01*
X417182Y243689D01*
X417709Y244041D01*
X418061Y244568D01*
X418185Y245190D01*
X418061Y245812D01*
X417709Y246339D01*
X417182Y246691D01*
X416560Y246815D01*
X415938Y246691D01*
X415531Y246419D01*
X412152Y249798D01*
Y251680D01*
X412652Y251888D01*
X414144Y250396D01*
X414507Y250153D01*
X414937Y250067D01*
X414937Y250067D01*
X415096D01*
X415241Y249851D01*
X415768Y249499D01*
X416390Y249375D01*
X417012Y249499D01*
X417539Y249851D01*
X417891Y250378D01*
X418015Y251000D01*
X417891Y251622D01*
X417539Y252149D01*
X417012Y252501D01*
X416390Y252625D01*
X415768Y252501D01*
X415483Y252310D01*
X415401D01*
X412152Y255560D01*
Y257930D01*
X411142D01*
Y263848D01*
X412525D01*
Y268592D01*
D02*
G37*
G36*
X608310Y259869D02*
X606722Y259713D01*
X605195Y259250D01*
X603788Y258498D01*
X602555Y257485D01*
X601543Y256252D01*
X600790Y254845D01*
X600327Y253318D01*
X600171Y251730D01*
X600327Y250142D01*
X600790Y248615D01*
X601543Y247208D01*
X602555Y245975D01*
X603788Y244963D01*
X605195Y244210D01*
X606722Y243747D01*
X608310Y243591D01*
X609898Y243747D01*
X611425Y244210D01*
X612832Y244963D01*
X614065Y245975D01*
X615077Y247208D01*
X615830Y248615D01*
X616293Y250142D01*
X616449Y251730D01*
X616293Y253318D01*
X615830Y254845D01*
X615077Y256252D01*
X614065Y257485D01*
X612832Y258498D01*
X611425Y259250D01*
X609898Y259713D01*
X608310Y259869D01*
D02*
G37*
G36*
X436767Y259559D02*
X435179Y259403D01*
X433652Y258940D01*
X432245Y258188D01*
X431011Y257175D01*
X429999Y255942D01*
X429247Y254535D01*
X428784Y253008D01*
X428627Y251420D01*
X428784Y249832D01*
X429247Y248305D01*
X429999Y246898D01*
X431011Y245665D01*
X432245Y244653D01*
X433652Y243900D01*
X435179Y243437D01*
X436767Y243281D01*
X438354Y243437D01*
X439881Y243900D01*
X441289Y244653D01*
X442522Y245665D01*
X443534Y246898D01*
X444286Y248305D01*
X444749Y249832D01*
X444906Y251420D01*
X444749Y253008D01*
X444286Y254535D01*
X443534Y255942D01*
X442522Y257175D01*
X441289Y258188D01*
X439881Y258940D01*
X438354Y259403D01*
X436767Y259559D01*
D02*
G37*
G36*
X265223Y259469D02*
X263635Y259313D01*
X262109Y258850D01*
X260701Y258098D01*
X259468Y257085D01*
X258456Y255852D01*
X257704Y254445D01*
X257241Y252918D01*
X257084Y251330D01*
X257241Y249742D01*
X257704Y248215D01*
X258456Y246808D01*
X259468Y245575D01*
X260701Y244563D01*
X262109Y243810D01*
X263635Y243347D01*
X265223Y243191D01*
X266811Y243347D01*
X268338Y243810D01*
X269745Y244563D01*
X270979Y245575D01*
X271991Y246808D01*
X272743Y248215D01*
X273206Y249742D01*
X273362Y251330D01*
X273206Y252918D01*
X272743Y254445D01*
X271991Y255852D01*
X270979Y257085D01*
X269745Y258098D01*
X268338Y258850D01*
X266811Y259313D01*
X265223Y259469D01*
D02*
G37*
G36*
X93870D02*
X92282Y259313D01*
X90755Y258850D01*
X89348Y258098D01*
X88115Y257085D01*
X87103Y255852D01*
X86350Y254445D01*
X85887Y252918D01*
X85731Y251330D01*
X85887Y249742D01*
X86350Y248215D01*
X87103Y246808D01*
X88115Y245575D01*
X89348Y244563D01*
X90755Y243810D01*
X92282Y243347D01*
X93870Y243191D01*
X95458Y243347D01*
X96985Y243810D01*
X98392Y244563D01*
X99625Y245575D01*
X100637Y246808D01*
X101390Y248215D01*
X101853Y249742D01*
X102009Y251330D01*
X101853Y252918D01*
X101390Y254445D01*
X100637Y255852D01*
X99625Y257085D01*
X98392Y258098D01*
X96985Y258850D01*
X95458Y259313D01*
X93870Y259469D01*
D02*
G37*
G36*
X521538Y258519D02*
X519950Y258363D01*
X518424Y257900D01*
X517016Y257148D01*
X515783Y256135D01*
X514771Y254902D01*
X514019Y253495D01*
X513555Y251968D01*
X513399Y250380D01*
X513555Y248792D01*
X514019Y247265D01*
X514771Y245858D01*
X515783Y244625D01*
X517016Y243613D01*
X518424Y242860D01*
X519950Y242397D01*
X521538Y242241D01*
X523126Y242397D01*
X524653Y242860D01*
X526060Y243613D01*
X527294Y244625D01*
X528306Y245858D01*
X529058Y247265D01*
X529521Y248792D01*
X529677Y250380D01*
X529521Y251968D01*
X529058Y253495D01*
X528306Y254902D01*
X527294Y256135D01*
X526060Y257148D01*
X524653Y257900D01*
X523126Y258363D01*
X521538Y258519D01*
D02*
G37*
G36*
X349995D02*
X348407Y258363D01*
X346880Y257900D01*
X345473Y257148D01*
X344240Y256135D01*
X343228Y254902D01*
X342475Y253495D01*
X342012Y251968D01*
X341856Y250380D01*
X342012Y248792D01*
X342475Y247265D01*
X343228Y245858D01*
X344240Y244625D01*
X345473Y243613D01*
X346880Y242860D01*
X348407Y242397D01*
X349995Y242241D01*
X351583Y242397D01*
X353110Y242860D01*
X354517Y243613D01*
X355750Y244625D01*
X356763Y245858D01*
X357515Y247265D01*
X357978Y248792D01*
X358134Y250380D01*
X357978Y251968D01*
X357515Y253495D01*
X356763Y254902D01*
X355750Y256135D01*
X354517Y257148D01*
X353110Y257900D01*
X351583Y258363D01*
X349995Y258519D01*
D02*
G37*
G36*
X178547D02*
X176959Y258363D01*
X175432Y257900D01*
X174025Y257148D01*
X172791Y256135D01*
X171779Y254902D01*
X171027Y253495D01*
X170564Y251968D01*
X170407Y250380D01*
X170564Y248792D01*
X171027Y247265D01*
X171779Y245858D01*
X172791Y244625D01*
X174025Y243613D01*
X175432Y242860D01*
X176959Y242397D01*
X178547Y242241D01*
X180134Y242397D01*
X181661Y242860D01*
X183069Y243613D01*
X184302Y244625D01*
X185314Y245858D01*
X186066Y247265D01*
X186530Y248792D01*
X186686Y250380D01*
X186530Y251968D01*
X186066Y253495D01*
X185314Y254902D01*
X184302Y256135D01*
X183069Y257148D01*
X181661Y257900D01*
X180134Y258363D01*
X178547Y258519D01*
D02*
G37*
G36*
X241372Y252024D02*
X236628D01*
Y248068D01*
X238476D01*
Y232335D01*
X237981Y232262D01*
X237629Y232789D01*
X237102Y233141D01*
X236612Y233239D01*
X232394Y237457D01*
Y248068D01*
X233542D01*
Y252024D01*
X228798D01*
Y248068D01*
X229946D01*
Y236950D01*
X230040Y236482D01*
X230305Y236085D01*
X234881Y231508D01*
X234979Y231018D01*
X235331Y230491D01*
X235858Y230139D01*
X236480Y230015D01*
X237102Y230139D01*
X237629Y230491D01*
X237981Y231018D01*
X238476Y230945D01*
Y227518D01*
X238199Y227102D01*
X238075Y226480D01*
X238199Y225858D01*
X238551Y225331D01*
X239078Y224979D01*
X239700Y224855D01*
X240322Y224979D01*
X240849Y225331D01*
X241201Y225858D01*
X241325Y226480D01*
X241201Y227102D01*
X240924Y227518D01*
Y248068D01*
X241372D01*
Y252024D01*
D02*
G37*
G36*
X5631Y233364D02*
X4756Y233249D01*
X3941Y232911D01*
X3241Y232374D01*
X2705Y231674D01*
X2367Y230859D01*
X2252Y229985D01*
X2367Y229110D01*
X2705Y228295D01*
X3241Y227596D01*
X3941Y227059D01*
X4756Y226721D01*
X5631Y226606D01*
X6505Y226721D01*
X7320Y227059D01*
X8020Y227596D01*
X8557Y228295D01*
X8895Y229110D01*
X9010Y229985D01*
X8895Y230859D01*
X8557Y231674D01*
X8020Y232374D01*
X7320Y232911D01*
X6505Y233249D01*
X5631Y233364D01*
D02*
G37*
G36*
X630220Y213130D02*
X629346Y213015D01*
X628531Y212677D01*
X627831Y212140D01*
X627294Y211440D01*
X626956Y210626D01*
X626841Y209751D01*
X626956Y208877D01*
X627294Y208062D01*
X627771Y207440D01*
X627693Y207148D01*
X627559Y206940D01*
X627486D01*
X627486Y206940D01*
X626960Y206835D01*
X626513Y206537D01*
X626513Y206537D01*
X620375Y200399D01*
X620077Y199953D01*
X619972Y199426D01*
Y168177D01*
X616127Y164332D01*
X615627Y164539D01*
Y164630D01*
X615600Y164763D01*
Y169480D01*
X606959D01*
Y163280D01*
X612920D01*
X612979Y162982D01*
X613277Y162535D01*
X614127Y161685D01*
X614196Y161558D01*
Y161202D01*
X614127Y161075D01*
X613277Y160225D01*
X612979Y159778D01*
X612920Y159480D01*
X606959D01*
Y153280D01*
X615600D01*
Y157997D01*
X615627Y158130D01*
Y158681D01*
X615699Y158754D01*
X617407D01*
X617934Y158858D01*
X618381Y159157D01*
X624822Y165598D01*
X624822Y165598D01*
X625120Y166044D01*
X625225Y166571D01*
X625225Y166571D01*
Y197820D01*
X626361Y198956D01*
X626868Y198757D01*
X626956Y198089D01*
X627294Y197274D01*
X627831Y196574D01*
X628531Y196037D01*
X629346Y195700D01*
X630220Y195585D01*
X631095Y195700D01*
X631910Y196037D01*
X632609Y196574D01*
X633146Y197274D01*
X633484Y198089D01*
X633599Y198964D01*
X633484Y199838D01*
X633146Y200653D01*
X632609Y201353D01*
X631910Y201890D01*
X631333Y202129D01*
X631187Y202689D01*
X631872Y203375D01*
X637001D01*
X637294Y202668D01*
X637831Y201968D01*
X638531Y201431D01*
X639346Y201094D01*
X640220Y200978D01*
X641094Y201094D01*
X641910Y201431D01*
X642609Y201968D01*
X643146Y202668D01*
X643484Y203483D01*
X643599Y204357D01*
X643484Y205232D01*
X643146Y206047D01*
X642609Y206747D01*
X641910Y207284D01*
X641094Y207621D01*
X640220Y207736D01*
X639346Y207621D01*
X638531Y207284D01*
X637831Y206747D01*
X637356Y206128D01*
X631532D01*
X631433Y206628D01*
X631910Y206825D01*
X632609Y207362D01*
X633146Y208062D01*
X633484Y208877D01*
X633599Y209751D01*
X633484Y210626D01*
X633146Y211440D01*
X632609Y212140D01*
X631910Y212677D01*
X631095Y213015D01*
X630220Y213130D01*
D02*
G37*
G36*
X640220Y196949D02*
X639346Y196834D01*
X638531Y196496D01*
X637831Y195959D01*
X637294Y195259D01*
X636956Y194445D01*
X636841Y193570D01*
X636956Y192695D01*
X637294Y191881D01*
X637831Y191181D01*
X638531Y190644D01*
X639346Y190306D01*
X640220Y190191D01*
X641094Y190306D01*
X641910Y190644D01*
X642609Y191181D01*
X643146Y191881D01*
X643484Y192695D01*
X643599Y193570D01*
X643484Y194445D01*
X643146Y195259D01*
X642609Y195959D01*
X641910Y196496D01*
X641094Y196834D01*
X640220Y196949D01*
D02*
G37*
G36*
X630220Y191555D02*
X629346Y191440D01*
X628531Y191103D01*
X627831Y190566D01*
X627294Y189866D01*
X626956Y189051D01*
X626841Y188176D01*
X626956Y187302D01*
X627294Y186487D01*
X627831Y185787D01*
X628531Y185250D01*
X629346Y184913D01*
X630220Y184797D01*
X631095Y184913D01*
X631910Y185250D01*
X632609Y185787D01*
X633146Y186487D01*
X633484Y187302D01*
X633599Y188176D01*
X633484Y189051D01*
X633146Y189866D01*
X632609Y190566D01*
X631910Y191103D01*
X631095Y191440D01*
X630220Y191555D01*
D02*
G37*
G36*
X504300Y176400D02*
X503678Y176276D01*
X503151Y175924D01*
X502799Y175397D01*
X502675Y174775D01*
X502799Y174153D01*
X503151Y173626D01*
X503678Y173274D01*
X504300Y173150D01*
X504922Y173274D01*
X505449Y173626D01*
X505801Y174153D01*
X505925Y174775D01*
X505801Y175397D01*
X505449Y175924D01*
X504922Y176276D01*
X504300Y176400D01*
D02*
G37*
G36*
X561309Y169480D02*
X552668D01*
Y168332D01*
X547471D01*
Y169480D01*
X543515D01*
Y164737D01*
X547471D01*
Y165885D01*
X552668D01*
Y163280D01*
X561309D01*
Y165096D01*
X563763D01*
X564178Y164819D01*
X564800Y164695D01*
X565422Y164819D01*
X565949Y165171D01*
X566301Y165698D01*
X566425Y166320D01*
X566301Y166942D01*
X565949Y167469D01*
X565422Y167821D01*
X564800Y167945D01*
X564178Y167821D01*
X563763Y167543D01*
X561309D01*
Y169480D01*
D02*
G37*
G36*
Y159480D02*
X552668D01*
Y156875D01*
X547471D01*
Y158023D01*
X543515D01*
Y153280D01*
X547471D01*
Y154428D01*
X552668D01*
Y153280D01*
X561309D01*
Y155157D01*
X564227D01*
X564243Y155160D01*
X564567Y155095D01*
X565189Y155219D01*
X565716Y155571D01*
X566068Y156098D01*
X566192Y156720D01*
X566068Y157342D01*
X565716Y157869D01*
X565189Y158221D01*
X564567Y158345D01*
X563945Y158221D01*
X563418Y157869D01*
X563240Y157604D01*
X561309D01*
Y159480D01*
D02*
G37*
G36*
X635251Y166199D02*
X633789Y166007D01*
X632427Y165443D01*
X631257Y164545D01*
X630359Y163375D01*
X629795Y162013D01*
X629602Y160551D01*
X629795Y159089D01*
X630359Y157727D01*
X631257Y156557D01*
X632427Y155659D01*
X633789Y155095D01*
X635251Y154903D01*
X636713Y155095D01*
X638075Y155659D01*
X639245Y156557D01*
X640142Y157727D01*
X640707Y159089D01*
X640899Y160551D01*
X640707Y162013D01*
X640142Y163375D01*
X639245Y164545D01*
X638075Y165443D01*
X636713Y166007D01*
X635251Y166199D01*
D02*
G37*
G36*
X600Y164858D02*
X-862Y164666D01*
X-2224Y164102D01*
X-3394Y163204D01*
X-4292Y162034D01*
X-4856Y160672D01*
X-5048Y159210D01*
X-4856Y157748D01*
X-4292Y156386D01*
X-3394Y155216D01*
X-2224Y154318D01*
X-862Y153754D01*
X600Y153562D01*
X2062Y153754D01*
X3424Y154318D01*
X4594Y155216D01*
X5492Y156386D01*
X6056Y157748D01*
X6248Y159210D01*
X6056Y160672D01*
X5492Y162034D01*
X4594Y163204D01*
X3424Y164102D01*
X2062Y164666D01*
X600Y164858D01*
D02*
G37*
G36*
X541565Y169480D02*
X537609D01*
Y164737D01*
X538364D01*
Y163752D01*
X537609D01*
Y159008D01*
X538364D01*
Y158023D01*
X537609D01*
Y153280D01*
X541565D01*
Y158023D01*
X540811D01*
Y159008D01*
X541959D01*
Y163752D01*
X540811D01*
Y164737D01*
X541565D01*
Y169480D01*
D02*
G37*
G36*
X615600Y149480D02*
X606959D01*
Y143280D01*
X615600D01*
Y149480D01*
D02*
G37*
G36*
X561309D02*
X552668D01*
Y143280D01*
X561309D01*
Y149480D01*
D02*
G37*
G36*
Y139480D02*
X552668D01*
Y138332D01*
X547471D01*
Y139480D01*
X543515D01*
Y134737D01*
X547471D01*
Y135885D01*
X552668D01*
Y133280D01*
X561309D01*
Y135877D01*
X563592D01*
X564008Y135599D01*
X564630Y135475D01*
X565252Y135599D01*
X565779Y135951D01*
X566131Y136478D01*
X566255Y137100D01*
X566131Y137722D01*
X565779Y138249D01*
X565252Y138601D01*
X564630Y138725D01*
X564008Y138601D01*
X563592Y138323D01*
X561309D01*
Y139480D01*
D02*
G37*
G36*
X164985Y142230D02*
X161030D01*
Y137486D01*
X164985D01*
Y138736D01*
X165845D01*
X165864Y138709D01*
X166391Y138357D01*
X167013Y138233D01*
X167634Y138357D01*
X168162Y138709D01*
X168514Y139236D01*
X168638Y139858D01*
X168514Y140480D01*
X168162Y141007D01*
X167634Y141359D01*
X167013Y141483D01*
X166391Y141359D01*
X165864Y141007D01*
X165845Y140980D01*
X164985D01*
Y142230D01*
D02*
G37*
G36*
X171335Y138519D02*
X170713Y138395D01*
X170186Y138043D01*
X169834Y137516D01*
X169710Y136894D01*
X169716Y136862D01*
X166548Y133693D01*
X164985D01*
Y134943D01*
X161030D01*
Y130200D01*
X164985D01*
Y131450D01*
X167013D01*
X167013Y131450D01*
X167442Y131536D01*
X167806Y131779D01*
X171302Y135275D01*
X171335Y135269D01*
X171957Y135393D01*
X172484Y135745D01*
X172836Y136272D01*
X172960Y136894D01*
X172836Y137516D01*
X172484Y138043D01*
X171957Y138395D01*
X171335Y138519D01*
D02*
G37*
G36*
X635251Y140349D02*
X633789Y140157D01*
X632427Y139593D01*
X631257Y138695D01*
X630359Y137525D01*
X629795Y136163D01*
X629602Y134701D01*
X629795Y133239D01*
X630359Y131877D01*
X631257Y130707D01*
X632427Y129809D01*
X633789Y129245D01*
X635251Y129053D01*
X636713Y129245D01*
X638075Y129809D01*
X639245Y130707D01*
X640142Y131877D01*
X640707Y133239D01*
X640899Y134701D01*
X640707Y136163D01*
X640142Y137525D01*
X639245Y138695D01*
X638075Y139593D01*
X636713Y140157D01*
X635251Y140349D01*
D02*
G37*
G36*
X164985Y127657D02*
X161030D01*
Y122914D01*
X164985D01*
Y124062D01*
X166208D01*
X166484Y123878D01*
X167106Y123754D01*
X167727Y123878D01*
X168255Y124230D01*
X168607Y124757D01*
X168731Y125379D01*
X168607Y126001D01*
X168255Y126528D01*
X167727Y126880D01*
X167106Y127004D01*
X166484Y126880D01*
X165957Y126528D01*
X165944Y126509D01*
X164985D01*
Y127657D01*
D02*
G37*
G36*
X-2990Y109265D02*
X-3612Y109141D01*
X-4139Y108789D01*
X-4491Y108262D01*
X-4615Y107640D01*
X-4491Y107018D01*
X-4139Y106491D01*
X-3612Y106139D01*
X-2990Y106015D01*
X-2368Y106139D01*
X-1841Y106491D01*
X-1489Y107018D01*
X-1365Y107640D01*
X-1489Y108262D01*
X-1841Y108789D01*
X-2368Y109141D01*
X-2990Y109265D01*
D02*
G37*
G36*
X615600Y139480D02*
X606959D01*
Y133280D01*
X612920D01*
X612979Y132982D01*
X613277Y132535D01*
X614127Y131685D01*
X614196Y131559D01*
Y131202D01*
X614127Y131075D01*
X613277Y130225D01*
X612979Y129778D01*
X612920Y129480D01*
X606959D01*
Y123280D01*
X615600D01*
Y127997D01*
X615627Y128130D01*
Y128221D01*
X616127Y128428D01*
X619669Y124887D01*
Y96130D01*
X619773Y95603D01*
X620072Y95156D01*
X626513Y88715D01*
X626513Y88715D01*
X626960Y88417D01*
X627486Y88312D01*
X627486Y88312D01*
X627559D01*
X627693Y88105D01*
X627771Y87812D01*
X627294Y87191D01*
X626956Y86376D01*
X626841Y85501D01*
X626956Y84627D01*
X627294Y83812D01*
X627831Y83112D01*
X628531Y82575D01*
X629346Y82237D01*
X630220Y82122D01*
X631095Y82237D01*
X631910Y82575D01*
X632609Y83112D01*
X633146Y83812D01*
X633356Y84318D01*
X633946Y84435D01*
X637086Y81295D01*
X636956Y80982D01*
X636841Y80107D01*
X636956Y79233D01*
X637294Y78418D01*
X637831Y77718D01*
X638531Y77181D01*
X639346Y76844D01*
X640220Y76728D01*
X641094Y76844D01*
X641910Y77181D01*
X642609Y77718D01*
X643146Y78418D01*
X643484Y79233D01*
X643599Y80107D01*
X643484Y80982D01*
X643146Y81797D01*
X642609Y82497D01*
X641910Y83034D01*
X641094Y83371D01*
X640220Y83486D01*
X639346Y83371D01*
X639033Y83241D01*
X635719Y86554D01*
Y87460D01*
X635615Y87987D01*
X635316Y88433D01*
X630588Y93162D01*
X630141Y93460D01*
X629614Y93565D01*
X629092D01*
X624922Y97735D01*
Y126492D01*
X624922Y126492D01*
X624817Y127019D01*
X624518Y127465D01*
X624518Y127465D01*
X618381Y133603D01*
X617934Y133902D01*
X617407Y134006D01*
X615699D01*
X615627Y134079D01*
Y134630D01*
X615600Y134763D01*
Y139480D01*
D02*
G37*
G36*
X630220Y78093D02*
X629346Y77978D01*
X628531Y77640D01*
X627831Y77103D01*
X627294Y76403D01*
X626956Y75588D01*
X626841Y74714D01*
X626956Y73839D01*
X627294Y73024D01*
X627831Y72325D01*
X628531Y71788D01*
X629346Y71450D01*
X630220Y71335D01*
X631095Y71450D01*
X631910Y71788D01*
X632609Y72325D01*
X633146Y73024D01*
X633484Y73839D01*
X633599Y74714D01*
X633484Y75588D01*
X633146Y76403D01*
X632609Y77103D01*
X631910Y77640D01*
X631095Y77978D01*
X630220Y78093D01*
D02*
G37*
G36*
X293050Y72895D02*
X292428Y72771D01*
X291901Y72419D01*
X291549Y71892D01*
X291522Y71756D01*
X291289Y71523D01*
X137963D01*
X137495Y71430D01*
X137098Y71165D01*
X108573Y42641D01*
X96178D01*
X95762Y42919D01*
X95140Y43042D01*
X94518Y42919D01*
X93991Y42566D01*
X93639Y42039D01*
X93515Y41417D01*
X93639Y40795D01*
X93991Y40268D01*
X94518Y39916D01*
X95140Y39792D01*
X95762Y39916D01*
X96178Y40194D01*
X109080D01*
X109548Y40287D01*
X109945Y40552D01*
X138470Y69077D01*
X291796D01*
X292264Y69170D01*
X292661Y69435D01*
X292901Y69675D01*
X293050Y69645D01*
X293672Y69769D01*
X294199Y70121D01*
X294551Y70648D01*
X294675Y71270D01*
X294551Y71892D01*
X294199Y72419D01*
X293672Y72771D01*
X293050Y72895D01*
D02*
G37*
G36*
X640220Y72699D02*
X639346Y72584D01*
X638531Y72246D01*
X637831Y71709D01*
X637294Y71009D01*
X636956Y70195D01*
X636841Y69320D01*
X636956Y68445D01*
X637294Y67631D01*
X637831Y66931D01*
X638531Y66394D01*
X639346Y66056D01*
X640220Y65941D01*
X641094Y66056D01*
X641910Y66394D01*
X642609Y66931D01*
X643146Y67631D01*
X643484Y68445D01*
X643599Y69320D01*
X643484Y70195D01*
X643146Y71009D01*
X642609Y71709D01*
X641910Y72246D01*
X641094Y72584D01*
X640220Y72699D01*
D02*
G37*
G36*
X630220Y67305D02*
X629346Y67190D01*
X628531Y66852D01*
X627831Y66316D01*
X627294Y65616D01*
X626956Y64801D01*
X626841Y63926D01*
X626956Y63052D01*
X627294Y62237D01*
X627831Y61537D01*
X628531Y61000D01*
X629346Y60663D01*
X630220Y60547D01*
X631095Y60663D01*
X631910Y61000D01*
X632609Y61537D01*
X633146Y62237D01*
X633484Y63052D01*
X633599Y63926D01*
X633484Y64801D01*
X633146Y65616D01*
X632609Y66316D01*
X631910Y66852D01*
X631095Y67190D01*
X630220Y67305D01*
D02*
G37*
G36*
X282270Y60015D02*
X281648Y59891D01*
X281233Y59614D01*
X171663D01*
X171195Y59520D01*
X170798Y59255D01*
X142846Y31304D01*
X142581Y30907D01*
X142488Y30439D01*
Y30101D01*
X141340D01*
Y26145D01*
X143880D01*
X144147Y25645D01*
X144105Y25582D01*
X143981Y24960D01*
X144001Y24863D01*
X143753Y24492D01*
X143694Y24195D01*
X141340D01*
Y20239D01*
X142488D01*
Y18859D01*
X141537D01*
Y14115D01*
X145728D01*
X145886Y14115D01*
X146228Y13757D01*
Y10985D01*
X145277D01*
Y9974D01*
X144584D01*
X139468Y15089D01*
Y19284D01*
X128032D01*
Y13359D01*
X137738D01*
X143212Y7885D01*
X143609Y7620D01*
X144077Y7527D01*
X145277D01*
Y6241D01*
X149627D01*
Y10985D01*
X148675D01*
Y13757D01*
X149017Y14115D01*
X153367D01*
Y18859D01*
X152415D01*
Y20239D01*
X153563D01*
Y24195D01*
X148820D01*
Y21140D01*
X148320Y20873D01*
X148169Y20975D01*
X147547Y21098D01*
X146925Y20975D01*
X146583Y20746D01*
X146083Y20983D01*
Y22877D01*
X146107Y22995D01*
Y23435D01*
X146228Y23459D01*
X146755Y23811D01*
X147108Y24338D01*
X147231Y24960D01*
X147108Y25582D01*
X146755Y26109D01*
X146228Y26461D01*
X146083Y26490D01*
Y30101D01*
X145757D01*
X145566Y30563D01*
X172170Y57166D01*
X281233D01*
X281648Y56889D01*
X282270Y56765D01*
X282892Y56889D01*
X283419Y57241D01*
X283771Y57768D01*
X283895Y58390D01*
X283771Y59012D01*
X283419Y59539D01*
X282892Y59891D01*
X282270Y60015D01*
D02*
G37*
G36*
X286300Y54695D02*
X285678Y54571D01*
X285262Y54294D01*
X180704D01*
X180236Y54200D01*
X179839Y53935D01*
X155251Y29346D01*
X153563D01*
Y30101D01*
X148820D01*
Y26145D01*
X153563D01*
Y26899D01*
X155757D01*
X156226Y26992D01*
X156622Y27258D01*
X181211Y51846D01*
X285262D01*
X285678Y51569D01*
X286300Y51445D01*
X286922Y51569D01*
X287449Y51921D01*
X287801Y52448D01*
X287925Y53070D01*
X287801Y53692D01*
X287449Y54219D01*
X286922Y54571D01*
X286300Y54695D01*
D02*
G37*
G36*
X285150Y48195D02*
X284528Y48071D01*
X284001Y47719D01*
X283649Y47192D01*
X283525Y46570D01*
X283649Y45948D01*
X284001Y45421D01*
X284528Y45069D01*
X285150Y44945D01*
X285772Y45069D01*
X286188Y45347D01*
X287532D01*
X292895Y39984D01*
X292559Y39613D01*
X292517Y39647D01*
X291110Y40400D01*
X289583Y40863D01*
X287995Y41019D01*
X286407Y40863D01*
X284880Y40400D01*
X283473Y39647D01*
X282240Y38635D01*
X281227Y37402D01*
X280475Y35995D01*
X280012Y34468D01*
X279856Y32880D01*
X280012Y31292D01*
X280475Y29765D01*
X281227Y28358D01*
X282240Y27125D01*
X283473Y26112D01*
X284880Y25360D01*
X286407Y24897D01*
X287995Y24741D01*
X289583Y24897D01*
X291110Y25360D01*
X292517Y26112D01*
X293750Y27125D01*
X294762Y28358D01*
X295515Y29765D01*
X295978Y31292D01*
X296134Y32880D01*
X295978Y34468D01*
X295515Y35995D01*
X294762Y37402D01*
X294728Y37444D01*
X295099Y37780D01*
X311527Y21352D01*
X311924Y21087D01*
X312392Y20994D01*
X313868D01*
Y20239D01*
X315016D01*
Y18859D01*
X314065D01*
Y15701D01*
X312566Y14202D01*
X312323Y13838D01*
X312237Y13409D01*
X312237Y13409D01*
Y13034D01*
X312021Y12889D01*
X311669Y12362D01*
X311640Y12219D01*
X311098Y12054D01*
X310254Y12897D01*
X310446Y13359D01*
X310818D01*
Y19284D01*
X299382D01*
Y17811D01*
X294247D01*
X294229Y17839D01*
X293702Y18191D01*
X293080Y18315D01*
X292458Y18191D01*
X291931Y17839D01*
X291579Y17312D01*
X291455Y16690D01*
X291579Y16068D01*
X291931Y15541D01*
X292458Y15189D01*
X293080Y15065D01*
X293702Y15189D01*
X294229Y15541D01*
X294247Y15568D01*
X299382D01*
Y13359D01*
X307336D01*
Y12862D01*
X307429Y12394D01*
X307694Y11997D01*
X311943Y7748D01*
X312340Y7483D01*
X312808Y7389D01*
X317805D01*
Y6241D01*
X322155D01*
Y10985D01*
X317805D01*
Y9837D01*
X314090D01*
X313938Y10336D01*
X314319Y10591D01*
X314671Y11118D01*
X314795Y11740D01*
X314671Y12362D01*
X314480Y12647D01*
Y12945D01*
X315651Y14115D01*
X318415D01*
Y18859D01*
X317463D01*
Y20239D01*
X318612D01*
Y24195D01*
X313868D01*
Y23441D01*
X312899D01*
X288904Y47435D01*
X288508Y47700D01*
X288039Y47793D01*
X286188D01*
X285772Y48071D01*
X285150Y48195D01*
D02*
G37*
G36*
X635251Y41949D02*
X633789Y41757D01*
X632427Y41193D01*
X631257Y40295D01*
X630359Y39125D01*
X629795Y37763D01*
X629602Y36301D01*
X629795Y34839D01*
X630359Y33477D01*
X631257Y32307D01*
X632427Y31409D01*
X633789Y30845D01*
X635251Y30653D01*
X636713Y30845D01*
X638075Y31409D01*
X639245Y32307D01*
X640142Y33477D01*
X640707Y34839D01*
X640899Y36301D01*
X640707Y37763D01*
X640142Y39125D01*
X639245Y40295D01*
X638075Y41193D01*
X636713Y41757D01*
X635251Y41949D01*
D02*
G37*
G36*
X488794Y34225D02*
X488172Y34101D01*
X487645Y33749D01*
X487293Y33222D01*
X487169Y32600D01*
X487293Y31978D01*
X487546Y31599D01*
Y30101D01*
X486398D01*
Y26633D01*
X485898Y26425D01*
X485449Y26875D01*
X485052Y27140D01*
X484583Y27233D01*
X484058D01*
X483642Y27511D01*
X483020Y27635D01*
X482398Y27511D01*
X481871Y27159D01*
X481519Y26632D01*
X481395Y26010D01*
X481519Y25388D01*
X481871Y24861D01*
X482398Y24509D01*
X483020Y24385D01*
X483642Y24509D01*
X484058Y24787D01*
X484077D01*
X486398Y22465D01*
Y20239D01*
X487546D01*
Y18859D01*
X486595D01*
Y14115D01*
X490945D01*
Y18859D01*
X489993D01*
Y20239D01*
X491142D01*
Y24195D01*
X488129D01*
X486679Y25645D01*
X486886Y26145D01*
X491142D01*
Y30101D01*
X489993D01*
Y31526D01*
X490296Y31978D01*
X490419Y32600D01*
X490296Y33222D01*
X489943Y33749D01*
X489416Y34101D01*
X488794Y34225D01*
D02*
G37*
G36*
X496250Y34555D02*
X495628Y34431D01*
X495101Y34079D01*
X494749Y33552D01*
X494625Y32930D01*
X494749Y32308D01*
X495027Y31892D01*
Y30101D01*
X493879D01*
Y26145D01*
X498622D01*
Y30101D01*
X497474D01*
Y31892D01*
X497751Y32308D01*
X497875Y32930D01*
X497751Y33552D01*
X497399Y34079D01*
X496872Y34431D01*
X496250Y34555D01*
D02*
G37*
G36*
X323740Y57815D02*
X323118Y57691D01*
X322591Y57339D01*
X322239Y56812D01*
X322115Y56190D01*
X322239Y55568D01*
X322497Y55182D01*
Y30101D01*
X321349D01*
Y26145D01*
X326092D01*
Y30101D01*
X324944D01*
Y55123D01*
X325241Y55568D01*
X325365Y56190D01*
X325241Y56812D01*
X324889Y57339D01*
X324362Y57691D01*
X323740Y57815D01*
D02*
G37*
G36*
X318120Y66645D02*
X317498Y66521D01*
X316971Y66169D01*
X316619Y65642D01*
X316495Y65020D01*
X316619Y64398D01*
X316897Y63982D01*
Y30510D01*
X316488Y30101D01*
X313868D01*
Y26145D01*
X318612D01*
Y28764D01*
X318985Y29138D01*
X319250Y29535D01*
X319343Y30003D01*
Y63982D01*
X319621Y64398D01*
X319745Y65020D01*
X319621Y65642D01*
X319269Y66169D01*
X318742Y66521D01*
X318120Y66645D01*
D02*
G37*
G36*
X546310Y42369D02*
X544722Y42213D01*
X543195Y41750D01*
X541788Y40997D01*
X540555Y39985D01*
X539542Y38752D01*
X538790Y37345D01*
X538327Y35818D01*
X538171Y34230D01*
X538327Y32642D01*
X538790Y31115D01*
X539542Y29708D01*
X540555Y28475D01*
X541788Y27463D01*
X543195Y26710D01*
X544722Y26247D01*
X546310Y26091D01*
X547898Y26247D01*
X549425Y26710D01*
X550832Y27463D01*
X552065Y28475D01*
X553078Y29708D01*
X553830Y31115D01*
X554293Y32642D01*
X554449Y34230D01*
X554293Y35818D01*
X553830Y37345D01*
X553078Y38752D01*
X552065Y39985D01*
X550832Y40997D01*
X549425Y41750D01*
X547898Y42213D01*
X546310Y42369D01*
D02*
G37*
G36*
X374767Y42059D02*
X373179Y41903D01*
X371652Y41440D01*
X370245Y40688D01*
X369011Y39675D01*
X367999Y38442D01*
X367247Y37035D01*
X366784Y35508D01*
X366627Y33920D01*
X366784Y32332D01*
X367247Y30805D01*
X367999Y29398D01*
X369011Y28165D01*
X370245Y27152D01*
X371652Y26400D01*
X373179Y25937D01*
X374767Y25781D01*
X376355Y25937D01*
X377881Y26400D01*
X379289Y27152D01*
X380522Y28165D01*
X381534Y29398D01*
X382286Y30805D01*
X382749Y32332D01*
X382906Y33920D01*
X382749Y35508D01*
X382286Y37035D01*
X381534Y38442D01*
X380522Y39675D01*
X379289Y40688D01*
X377881Y41440D01*
X376355Y41903D01*
X374767Y42059D01*
D02*
G37*
G36*
X203223Y41969D02*
X201635Y41813D01*
X200109Y41350D01*
X198701Y40598D01*
X197468Y39585D01*
X196456Y38352D01*
X195704Y36945D01*
X195240Y35418D01*
X195084Y33830D01*
X195240Y32242D01*
X195704Y30715D01*
X196456Y29308D01*
X197468Y28075D01*
X198701Y27062D01*
X200109Y26310D01*
X201635Y25847D01*
X203223Y25691D01*
X204811Y25847D01*
X206338Y26310D01*
X207745Y27062D01*
X208979Y28075D01*
X209991Y29308D01*
X210743Y30715D01*
X211206Y32242D01*
X211363Y33830D01*
X211206Y35418D01*
X210743Y36945D01*
X209991Y38352D01*
X208979Y39585D01*
X207745Y40598D01*
X206338Y41350D01*
X204811Y41813D01*
X203223Y41969D01*
D02*
G37*
G36*
X459538Y41019D02*
X457950Y40863D01*
X456424Y40400D01*
X455016Y39647D01*
X453783Y38635D01*
X452771Y37402D01*
X452019Y35995D01*
X451555Y34468D01*
X451399Y32880D01*
X451555Y31292D01*
X452019Y29765D01*
X452771Y28358D01*
X453783Y27125D01*
X455016Y26112D01*
X456424Y25360D01*
X457950Y24897D01*
X459538Y24741D01*
X461126Y24897D01*
X462653Y25360D01*
X464060Y26112D01*
X465294Y27125D01*
X466306Y28358D01*
X467058Y29765D01*
X467521Y31292D01*
X467677Y32880D01*
X467521Y34468D01*
X467058Y35995D01*
X466306Y37402D01*
X465294Y38635D01*
X464060Y39647D01*
X462653Y40400D01*
X461126Y40863D01*
X459538Y41019D01*
D02*
G37*
G36*
X116547D02*
X114959Y40863D01*
X113432Y40400D01*
X112025Y39647D01*
X110791Y38635D01*
X109779Y37402D01*
X109027Y35995D01*
X108564Y34468D01*
X108407Y32880D01*
X108564Y31292D01*
X109027Y29765D01*
X109779Y28358D01*
X110791Y27125D01*
X112025Y26112D01*
X113432Y25360D01*
X114959Y24897D01*
X116547Y24741D01*
X118134Y24897D01*
X119661Y25360D01*
X121069Y26112D01*
X122302Y27125D01*
X123314Y28358D01*
X124066Y29765D01*
X124530Y31292D01*
X124686Y32880D01*
X124530Y34468D01*
X124066Y35995D01*
X123314Y37402D01*
X122302Y38635D01*
X121069Y39647D01*
X119661Y40400D01*
X118134Y40863D01*
X116547Y41019D01*
D02*
G37*
G36*
X484048Y19284D02*
X472612D01*
Y17872D01*
X466947D01*
X466929Y17899D01*
X466402Y18251D01*
X465780Y18375D01*
X465158Y18251D01*
X464631Y17899D01*
X464279Y17372D01*
X464155Y16750D01*
X464279Y16128D01*
X464631Y15601D01*
X465158Y15249D01*
X465780Y15125D01*
X466402Y15249D01*
X466929Y15601D01*
X466947Y15629D01*
X472612D01*
Y13359D01*
X482462D01*
X488001Y7820D01*
X488001Y7820D01*
X488365Y7577D01*
X488794Y7491D01*
X490335D01*
Y6241D01*
X494685D01*
Y10985D01*
X490335D01*
Y9735D01*
X489259D01*
X484048Y14945D01*
Y19284D01*
D02*
G37*
G36*
X498622Y24195D02*
X493879D01*
Y20239D01*
X495027D01*
Y18859D01*
X494075D01*
Y14115D01*
X498425D01*
Y18859D01*
X497474D01*
Y20239D01*
X498622D01*
Y24195D01*
D02*
G37*
G36*
X326092D02*
X321349D01*
Y20239D01*
X322497D01*
Y18859D01*
X321545D01*
Y14115D01*
X325895D01*
Y18859D01*
X324944D01*
Y20239D01*
X326092D01*
Y24195D01*
D02*
G37*
G36*
X490538Y4621D02*
X489311Y4459D01*
X488168Y3985D01*
X487186Y3232D01*
X486433Y2250D01*
X485959Y1107D01*
X485959Y1103D01*
X484048D01*
Y1961D01*
X472612D01*
Y-3964D01*
X484048D01*
Y-1343D01*
X485959D01*
X485959Y-1347D01*
X486433Y-2490D01*
X487186Y-3472D01*
X488168Y-4225D01*
X489311Y-4699D01*
X490538Y-4861D01*
X491765Y-4699D01*
X492909Y-4225D01*
X493890Y-3472D01*
X494644Y-2490D01*
X495117Y-1347D01*
X495279Y-120D01*
X495117Y1107D01*
X494644Y2250D01*
X493890Y3232D01*
X492909Y3985D01*
X491765Y4459D01*
X490538Y4621D01*
D02*
G37*
G36*
X318995D02*
X317768Y4459D01*
X316625Y3985D01*
X315643Y3232D01*
X314890Y2250D01*
X314416Y1107D01*
X314416Y1103D01*
X310818D01*
Y1961D01*
X299382D01*
Y-3964D01*
X310818D01*
Y-1343D01*
X314416D01*
X314416Y-1347D01*
X314890Y-2490D01*
X315643Y-3472D01*
X316625Y-4225D01*
X317768Y-4699D01*
X318995Y-4861D01*
X320222Y-4699D01*
X321365Y-4225D01*
X322347Y-3472D01*
X323100Y-2490D01*
X323574Y-1347D01*
X323735Y-120D01*
X323574Y1107D01*
X323100Y2250D01*
X322347Y3232D01*
X321365Y3985D01*
X320222Y4459D01*
X318995Y4621D01*
D02*
G37*
G36*
X147547D02*
X146320Y4459D01*
X145176Y3985D01*
X144195Y3232D01*
X143441Y2250D01*
X142968Y1107D01*
X142967Y1103D01*
X139468D01*
Y1961D01*
X128032D01*
Y-3964D01*
X139468D01*
Y-1343D01*
X142967D01*
X142968Y-1347D01*
X143441Y-2490D01*
X144195Y-3472D01*
X145176Y-4225D01*
X146320Y-4699D01*
X147547Y-4861D01*
X148774Y-4699D01*
X149917Y-4225D01*
X150899Y-3472D01*
X151652Y-2490D01*
X152126Y-1347D01*
X152287Y-120D01*
X152126Y1107D01*
X151652Y2250D01*
X150899Y3232D01*
X149917Y3985D01*
X148774Y4459D01*
X147547Y4621D01*
D02*
G37*
G36*
X577310Y4971D02*
X576083Y4809D01*
X574940Y4335D01*
X573958Y3582D01*
X573205Y2600D01*
X572731Y1457D01*
X572569Y230D01*
X572731Y-997D01*
X573205Y-2140D01*
X573958Y-3122D01*
X574940Y-3875D01*
X576083Y-4349D01*
X577310Y-4511D01*
X578537Y-4349D01*
X579680Y-3875D01*
X580662Y-3122D01*
X581415Y-2140D01*
X581889Y-997D01*
X582051Y230D01*
X581889Y1457D01*
X581415Y2600D01*
X580662Y3582D01*
X579680Y4335D01*
X578537Y4809D01*
X577310Y4971D01*
D02*
G37*
G36*
X405767Y4661D02*
X404540Y4499D01*
X403396Y4025D01*
X402415Y3272D01*
X401661Y2290D01*
X401188Y1147D01*
X401026Y-80D01*
X401188Y-1307D01*
X401661Y-2450D01*
X402415Y-3432D01*
X403396Y-4185D01*
X404540Y-4659D01*
X405767Y-4821D01*
X406994Y-4659D01*
X408137Y-4185D01*
X409119Y-3432D01*
X409872Y-2450D01*
X410346Y-1307D01*
X410507Y-80D01*
X410346Y1147D01*
X409872Y2290D01*
X409119Y3272D01*
X408137Y4025D01*
X406994Y4499D01*
X405767Y4661D01*
D02*
G37*
G36*
X234223Y4571D02*
X232996Y4409D01*
X231853Y3935D01*
X230871Y3182D01*
X230118Y2200D01*
X229644Y1057D01*
X229483Y-170D01*
X229644Y-1397D01*
X230118Y-2540D01*
X230871Y-3522D01*
X231853Y-4276D01*
X232996Y-4749D01*
X234223Y-4911D01*
X235450Y-4749D01*
X236594Y-4276D01*
X237575Y-3522D01*
X238329Y-2540D01*
X238802Y-1397D01*
X238964Y-170D01*
X238802Y1057D01*
X238329Y2200D01*
X237575Y3182D01*
X236594Y3935D01*
X235450Y4409D01*
X234223Y4571D01*
D02*
G37*
G36*
X62870D02*
X61643Y4409D01*
X60500Y3935D01*
X59518Y3182D01*
X58764Y2200D01*
X58291Y1057D01*
X58129Y-170D01*
X58291Y-1397D01*
X58764Y-2540D01*
X59518Y-3522D01*
X60500Y-4276D01*
X61643Y-4749D01*
X62870Y-4911D01*
X64097Y-4749D01*
X65240Y-4276D01*
X66222Y-3522D01*
X66975Y-2540D01*
X67449Y-1397D01*
X67611Y-170D01*
X67449Y1057D01*
X66975Y2200D01*
X66222Y3182D01*
X65240Y3935D01*
X64097Y4409D01*
X62870Y4571D01*
D02*
G37*
G36*
X521538Y5708D02*
X520401Y5596D01*
X519308Y5264D01*
X518300Y4726D01*
X517417Y4001D01*
X516692Y3118D01*
X516154Y2110D01*
X515822Y1017D01*
X515710Y-120D01*
X515822Y-1257D01*
X516154Y-2350D01*
X516692Y-3358D01*
X517417Y-4241D01*
X518300Y-4966D01*
X519308Y-5504D01*
X520401Y-5836D01*
X521538Y-5948D01*
X522675Y-5836D01*
X523769Y-5504D01*
X524776Y-4966D01*
X525659Y-4241D01*
X526384Y-3358D01*
X526923Y-2350D01*
X527254Y-1257D01*
X527366Y-120D01*
X527254Y1017D01*
X526923Y2110D01*
X526384Y3118D01*
X525659Y4001D01*
X524776Y4726D01*
X523769Y5264D01*
X522675Y5596D01*
X521538Y5708D01*
D02*
G37*
G36*
X349995D02*
X348858Y5596D01*
X347765Y5264D01*
X346757Y4726D01*
X345874Y4001D01*
X345149Y3118D01*
X344611Y2110D01*
X344279Y1017D01*
X344167Y-120D01*
X344279Y-1257D01*
X344611Y-2350D01*
X345149Y-3358D01*
X345874Y-4241D01*
X346757Y-4966D01*
X347765Y-5504D01*
X348858Y-5836D01*
X349995Y-5948D01*
X351132Y-5836D01*
X352225Y-5504D01*
X353233Y-4966D01*
X354116Y-4241D01*
X354841Y-3358D01*
X355379Y-2350D01*
X355711Y-1257D01*
X355823Y-120D01*
X355711Y1017D01*
X355379Y2110D01*
X354841Y3118D01*
X354116Y4001D01*
X353233Y4726D01*
X352225Y5264D01*
X351132Y5596D01*
X349995Y5708D01*
D02*
G37*
G36*
X178547D02*
X177410Y5596D01*
X176316Y5264D01*
X175309Y4726D01*
X174426Y4001D01*
X173701Y3118D01*
X173162Y2110D01*
X172831Y1017D01*
X172719Y-120D01*
X172831Y-1257D01*
X173162Y-2350D01*
X173701Y-3358D01*
X174426Y-4241D01*
X175309Y-4966D01*
X176316Y-5504D01*
X177410Y-5836D01*
X178547Y-5948D01*
X179684Y-5836D01*
X180777Y-5504D01*
X181785Y-4966D01*
X182668Y-4241D01*
X183393Y-3358D01*
X183931Y-2350D01*
X184263Y-1257D01*
X184375Y-120D01*
X184263Y1017D01*
X183931Y2110D01*
X183393Y3118D01*
X182668Y4001D01*
X181785Y4726D01*
X180777Y5264D01*
X179684Y5596D01*
X178547Y5708D01*
D02*
G37*
%LPD*%
G36*
X153766Y170914D02*
X153559Y170413D01*
X150627D01*
X71549Y249492D01*
Y251352D01*
X73328D01*
X153766Y170914D01*
D02*
G37*
G36*
X299978Y180272D02*
Y176477D01*
X301612D01*
Y175792D01*
X299705D01*
Y171048D01*
X300656D01*
Y167625D01*
X300749Y167157D01*
X300769Y167127D01*
X300502Y166627D01*
X299567D01*
Y166627D01*
X295894D01*
X295855Y166823D01*
X295589Y167220D01*
X295441Y167368D01*
X295649Y167868D01*
X295786D01*
Y172612D01*
X292318D01*
X292111Y173112D01*
X299478Y180479D01*
X299978Y180272D01*
D02*
G37*
G36*
X229390Y167466D02*
X229266Y167384D01*
X228913Y166856D01*
X228816Y166366D01*
X225389Y162940D01*
X219754D01*
X219461Y163440D01*
X219555Y163910D01*
X219431Y164532D01*
X219079Y165059D01*
X218552Y165411D01*
X217930Y165535D01*
X217308Y165411D01*
X216781Y165059D01*
X216763Y165032D01*
X206475D01*
X206474Y165032D01*
X206045Y164946D01*
X205681Y164703D01*
X205681Y164703D01*
X205516Y164538D01*
X195257D01*
X192290Y167505D01*
X192482Y167966D01*
X229238D01*
X229390Y167466D01*
D02*
G37*
G36*
X193221Y163402D02*
X193030Y162940D01*
X164985D01*
Y164088D01*
X161030D01*
Y159492D01*
X161029Y159345D01*
X160676Y158992D01*
X159434D01*
X159080Y159345D01*
X159080Y159492D01*
Y164088D01*
X155124D01*
Y162940D01*
X139441D01*
Y164088D01*
X135843Y164088D01*
X135828Y164088D01*
X135621Y164588D01*
X137402Y166368D01*
X190254D01*
X193221Y163402D01*
D02*
G37*
G36*
X337765Y162072D02*
X337557Y161572D01*
X334089D01*
Y160424D01*
X329468D01*
X328999Y160330D01*
X328603Y160065D01*
X325529Y156992D01*
X322127D01*
X320447Y158672D01*
X320050Y158937D01*
X319582Y159030D01*
X317476D01*
X317372Y159174D01*
X317578Y159674D01*
X317578D01*
Y166627D01*
X315579D01*
X315540Y166823D01*
X315275Y167220D01*
X314403Y168092D01*
X314006Y168357D01*
X313538Y168450D01*
X311481D01*
X311013Y168357D01*
X310616Y168092D01*
X309913Y167389D01*
X309647Y166992D01*
X309575Y166627D01*
X307896D01*
Y171048D01*
X309566D01*
Y172196D01*
X327640D01*
X337765Y162072D01*
D02*
G37*
G36*
X277386Y164291D02*
X277480Y163823D01*
X277745Y163426D01*
X287960Y153211D01*
Y151109D01*
X286037Y149186D01*
X283013D01*
Y150608D01*
X283609D01*
X284025Y150330D01*
X284646Y150206D01*
X285268Y150330D01*
X285795Y150682D01*
X286148Y151210D01*
X286271Y151831D01*
X286148Y152453D01*
X285795Y152980D01*
X285268Y153333D01*
X284646Y153456D01*
X284025Y153333D01*
X283609Y153055D01*
X283013D01*
Y156900D01*
X279999D01*
X279537Y156992D01*
X278484D01*
Y160969D01*
X278391Y161438D01*
X278126Y161835D01*
X272899Y167062D01*
X272801Y167552D01*
X272449Y168079D01*
X271922Y168431D01*
X271300Y168555D01*
X270678Y168431D01*
X270151Y168079D01*
X269799Y167552D01*
X269675Y166930D01*
X269799Y166308D01*
X270151Y165781D01*
X270678Y165429D01*
X271168Y165331D01*
X276037Y160463D01*
Y155837D01*
X276061Y155719D01*
Y154955D01*
X274769D01*
X274619Y155179D01*
X274092Y155531D01*
X273470Y155655D01*
X272848Y155531D01*
X272321Y155179D01*
X272171Y154955D01*
X271661D01*
Y155738D01*
X271681D01*
Y160482D01*
X267331D01*
Y155742D01*
X267311D01*
Y151006D01*
X267249Y150993D01*
X266852Y150728D01*
X265590Y149466D01*
X265128Y149657D01*
Y150998D01*
X266149D01*
Y155738D01*
X266169D01*
Y160482D01*
X264751D01*
Y166234D01*
X265028Y166649D01*
X265152Y167271D01*
X265028Y167893D01*
X264676Y168420D01*
X264149Y168772D01*
X263527Y168896D01*
X262905Y168772D01*
X262378Y168420D01*
X262026Y167893D01*
X261902Y167271D01*
X262026Y166649D01*
X262303Y166234D01*
Y160482D01*
X261819D01*
Y157742D01*
X261355Y157539D01*
X261053Y157783D01*
Y159363D01*
X260960Y159831D01*
X260695Y160228D01*
X251046Y169877D01*
X251254Y170377D01*
X277386D01*
Y164291D01*
D02*
G37*
G36*
X490915Y117145D02*
X490719Y116852D01*
X490595Y116230D01*
X490719Y115608D01*
X491071Y115081D01*
X491456Y114823D01*
X491305Y114323D01*
X344539D01*
X344161Y114618D01*
X344161Y114823D01*
Y119362D01*
X343406D01*
Y121375D01*
X343313Y121843D01*
X343048Y122240D01*
X340224Y125064D01*
Y130046D01*
X334299D01*
Y127464D01*
X327305D01*
Y129341D01*
X327305D01*
Y131015D01*
Y134860D01*
X334702D01*
X335171Y134953D01*
X335568Y135218D01*
X336030Y135680D01*
X338255D01*
Y140424D01*
X336646D01*
X336414Y140924D01*
X336418Y140928D01*
X339219D01*
Y144538D01*
X339681Y144729D01*
X340381Y144029D01*
Y140928D01*
X344731D01*
Y142077D01*
X460863D01*
X486031Y116909D01*
X486129Y116418D01*
X486481Y115891D01*
X487008Y115539D01*
X487630Y115415D01*
X488252Y115539D01*
X488779Y115891D01*
X489131Y116418D01*
X489255Y117040D01*
X489131Y117662D01*
X488779Y118189D01*
X488252Y118541D01*
X487762Y118639D01*
X462235Y144165D01*
X461838Y144430D01*
X461370Y144524D01*
X344731D01*
Y145672D01*
X342199D01*
X341304Y146566D01*
X341495Y147028D01*
X344161D01*
Y148177D01*
X345182D01*
X345598Y147899D01*
X346220Y147775D01*
X346842Y147899D01*
X347369Y148251D01*
X347721Y148778D01*
X347845Y149400D01*
X347721Y150022D01*
X347369Y150549D01*
X346842Y150901D01*
X346220Y151025D01*
X345598Y150901D01*
X345182Y150624D01*
X344161D01*
Y151772D01*
X339811D01*
Y148713D01*
X339349Y148521D01*
X338777Y149093D01*
X338649Y149179D01*
Y151772D01*
X334299D01*
Y150427D01*
X332484D01*
X332292Y150889D01*
X333730Y152327D01*
X455733D01*
X490915Y117145D01*
D02*
G37*
G36*
X75955Y140855D02*
X76351Y140590D01*
X76820Y140497D01*
X129579D01*
Y137486D01*
X130334D01*
Y136267D01*
X130427Y135799D01*
X130664Y135443D01*
X130626Y135280D01*
X130444Y134943D01*
X129579D01*
Y133795D01*
X71188D01*
X8702Y196282D01*
X8895Y196748D01*
X9010Y197623D01*
X8895Y198497D01*
X8557Y199312D01*
X8020Y200012D01*
X7320Y200549D01*
X6505Y200886D01*
X5631Y201002D01*
X4756Y200886D01*
X3941Y200549D01*
X3241Y200012D01*
X2705Y199312D01*
X2367Y198497D01*
X2252Y197623D01*
X2367Y196748D01*
X2705Y195933D01*
X3241Y195233D01*
X3941Y194696D01*
X4756Y194359D01*
X5631Y194244D01*
X6505Y194359D01*
X6971Y194552D01*
X69816Y131707D01*
X70213Y131441D01*
X70681Y131348D01*
X129579D01*
Y130200D01*
X129579D01*
X129893Y129700D01*
X129855Y129510D01*
X129979Y128888D01*
X130331Y128361D01*
X130636Y128157D01*
X130484Y127657D01*
X129579D01*
Y126509D01*
X124979D01*
X124632Y126741D01*
X124010Y126865D01*
X123388Y126741D01*
X123041Y126509D01*
X57221D01*
X-3146Y186876D01*
Y189110D01*
X-2680Y189303D01*
X-1980Y189840D01*
X-1443Y190539D01*
X-1106Y191354D01*
X-990Y192229D01*
X-1106Y193103D01*
X-1443Y193918D01*
X-1980Y194618D01*
X-2680Y195155D01*
X-3495Y195493D01*
X-4369Y195608D01*
X-5244Y195493D01*
X-6059Y195155D01*
X-6596Y194743D01*
X-7096Y194958D01*
Y200287D01*
X-6596Y200502D01*
X-6059Y200090D01*
X-5244Y199752D01*
X-4369Y199637D01*
X-3495Y199752D01*
X-2680Y200090D01*
X-1980Y200627D01*
X-1443Y201327D01*
X-1250Y201793D01*
X15017D01*
X75955Y140855D01*
D02*
G37*
G36*
X155124Y122924D02*
X155124Y122914D01*
X155101Y122424D01*
X139463D01*
X139441Y122914D01*
X139441Y122924D01*
Y124062D01*
X155124D01*
Y122924D01*
D02*
G37*
G36*
X286521Y124517D02*
X286414Y123980D01*
X286538Y123358D01*
X286890Y122831D01*
X286732Y122335D01*
X285787D01*
Y120082D01*
X278989D01*
X278520Y119989D01*
X278123Y119724D01*
X275347Y116947D01*
X275081Y116550D01*
X274988Y116082D01*
Y115502D01*
X273805D01*
Y116142D01*
X274083Y116558D01*
X274207Y117180D01*
X274083Y117802D01*
X273731Y118329D01*
X273204Y118681D01*
X272582Y118805D01*
X272268Y118743D01*
X272022Y119203D01*
X277836Y125017D01*
X286260D01*
X286521Y124517D01*
D02*
G37*
G36*
X301443Y108133D02*
X297104D01*
X296975Y108262D01*
Y109287D01*
X296882Y109755D01*
X296617Y110152D01*
X292079Y114689D01*
Y115383D01*
X301443D01*
Y108133D01*
D02*
G37*
G36*
X285787Y115383D02*
X287664D01*
Y108452D01*
X287296Y108133D01*
X282387D01*
X280262Y110258D01*
X280414Y110758D01*
X280908D01*
Y115502D01*
X278069D01*
X277862Y116002D01*
X279495Y117635D01*
X285787D01*
Y115383D01*
D02*
G37*
G36*
X211962Y139668D02*
X180361Y108067D01*
X176107D01*
X175915Y108529D01*
X207516Y140130D01*
X211771D01*
X211962Y139668D01*
D02*
G37*
G36*
X214782Y138068D02*
X182115Y105402D01*
X181264D01*
X181215Y105902D01*
X181255Y105909D01*
X181619Y106152D01*
X213996Y138530D01*
X214591D01*
X214782Y138068D01*
D02*
G37*
G36*
X270173Y136430D02*
X233641Y99898D01*
X65673D01*
X65482Y100360D01*
X68280Y103158D01*
X182580D01*
X182580Y103158D01*
X183009Y103244D01*
X183373Y103487D01*
X216816Y136930D01*
X269966D01*
X270173Y136430D01*
D02*
G37*
G36*
X67426Y105324D02*
X67387Y105316D01*
X67023Y105073D01*
X67023Y105073D01*
X50017Y88067D01*
X44683D01*
X44492Y88529D01*
X61787Y105824D01*
X67377D01*
X67426Y105324D01*
D02*
G37*
G36*
X107764Y85335D02*
X48293Y25864D01*
X35160D01*
X35084Y26364D01*
X36392Y27062D01*
X37625Y28075D01*
X38638Y29308D01*
X39390Y30715D01*
X39853Y32242D01*
X40009Y33830D01*
X39853Y35418D01*
X39390Y36945D01*
X38638Y38352D01*
X37625Y39585D01*
X36392Y40598D01*
X34985Y41350D01*
X33458Y41813D01*
X31870Y41969D01*
X30282Y41813D01*
X29729Y41645D01*
X29464Y42087D01*
X73173Y85796D01*
X107573D01*
X107764Y85335D01*
D02*
G37*
%LPC*%
G36*
X344161Y140424D02*
X340205D01*
Y135680D01*
X344161D01*
Y136857D01*
X347636D01*
X348008Y136609D01*
X348630Y136485D01*
X349252Y136609D01*
X349779Y136961D01*
X350131Y137488D01*
X350255Y138110D01*
X350131Y138732D01*
X349779Y139259D01*
X349252Y139611D01*
X348630Y139735D01*
X348008Y139611D01*
X347549Y139304D01*
X344161D01*
Y140424D01*
D02*
G37*
%LPD*%
D12*
X673108Y290120D02*
G03*
X649300Y309800I-21744J-2064D01*
G01*
X399067Y272935D02*
X404965D01*
X392920Y266349D02*
X393894D01*
X395726Y268181D01*
Y269595D01*
X399067Y272935D01*
X392530Y257107D02*
X392628Y257010D01*
X391620Y266319D02*
X392530Y265409D01*
Y257107D02*
Y265409D01*
X409780Y255952D02*
X410020Y256191D01*
Y265890D02*
X410350Y266220D01*
X410020Y256191D02*
Y265890D01*
X180890Y147144D02*
X183068Y149323D01*
X163007Y147144D02*
X180890D01*
X301862Y128030D02*
X302350D01*
X301683Y128209D02*
X301862Y128030D01*
X205981Y163416D02*
X206474Y163910D01*
X217930D01*
X190719Y167490D02*
X194793Y163416D01*
X205981D01*
X196200Y156530D02*
X217930D01*
X194860Y157870D02*
X196200Y156530D01*
X131557Y154824D02*
X134603Y157870D01*
X194860D01*
X134168Y144140D02*
X202270D01*
X131557Y146750D02*
X134168Y144140D01*
X301683Y128209D02*
X306572Y123320D01*
X131557Y162110D02*
X136937Y167490D01*
X190719D01*
X348570Y126690D02*
X348640Y126620D01*
X344348Y126690D02*
X348570D01*
X163007Y139858D02*
X167013D01*
Y132572D02*
X171335Y136894D01*
X306572Y118891D02*
Y123320D01*
Y118891D02*
X306604Y118859D01*
X308572D01*
X279537Y145926D02*
X296761D01*
X301683Y141005D01*
Y128209D02*
Y141005D01*
X127420Y118000D02*
X131557D01*
X127420D02*
X127549Y117870D01*
X488794Y8613D02*
X492510D01*
X481086Y16321D02*
X488794Y8613D01*
X478330Y16321D02*
X481086D01*
X477901Y16750D02*
X478330Y16321D01*
X465780Y16750D02*
X477901D01*
X174760Y154430D02*
X174930Y154600D01*
X163007Y154430D02*
X174760D01*
X406040Y274010D02*
Y274207D01*
X404965Y272935D02*
X406040Y274010D01*
X416201Y251189D02*
X416390Y251000D01*
X414937Y251189D02*
X416201D01*
X410174Y255952D02*
X414937Y251189D01*
X131557Y161716D02*
Y162110D01*
X409780Y255952D02*
X410174D01*
X131557Y154430D02*
Y154824D01*
X316240Y16290D02*
Y16487D01*
X313359Y13409D02*
X316240Y16290D01*
X313359Y11929D02*
Y13409D01*
X313170Y11740D02*
X313359Y11929D01*
X131557Y146750D02*
Y147144D01*
X304731Y16690D02*
X305100Y16321D01*
X293080Y16690D02*
X304731D01*
X229027Y273390D02*
X247730D01*
X219450Y266569D02*
X222206D01*
X229027Y273390D01*
X163007Y132572D02*
X167013D01*
X42922Y88546D02*
X61322Y106946D01*
X180826D01*
X34032Y86946D02*
X50481D01*
X18897Y71811D02*
X34032Y86946D01*
X22969Y88546D02*
X42922D01*
X67816Y104280D02*
X182580D01*
X50481Y86946D02*
X67816Y104280D01*
X18897Y71417D02*
Y71811D01*
X180826Y106946D02*
X213532Y139652D01*
X174346Y108546D02*
X207052Y141252D01*
X21375Y108546D02*
X174346D01*
X182580Y104280D02*
X216352Y138052D01*
X279537D01*
X274250Y141252D02*
X274987Y141989D01*
X275282Y140020D02*
X279537D01*
X207052Y141252D02*
X274250D01*
X274913Y139652D02*
X275282Y140020D01*
X213532Y139652D02*
X274913D01*
X274987Y141989D02*
X279537D01*
X18897Y91417D02*
X21739D01*
X22325Y90832D01*
Y89190D02*
Y90832D01*
Y89190D02*
X22969Y88546D01*
X18897Y111024D02*
Y111417D01*
Y111024D02*
X21375Y108546D01*
X-6860Y-21960D02*
X-285D01*
X-270D01*
X0D01*
X673108Y5696D02*
X673159Y5645D01*
D17*
X157102Y118000D02*
D03*
X163007D02*
D03*
X157102Y125286D02*
D03*
X163007D02*
D03*
X157102Y132572D02*
D03*
X163007D02*
D03*
X157102Y139858D02*
D03*
X163007D02*
D03*
X157102Y147144D02*
D03*
X163007D02*
D03*
X157102Y154430D02*
D03*
X163007D02*
D03*
X157102Y161716D02*
D03*
X163007D02*
D03*
X131557Y118000D02*
D03*
X137463D02*
D03*
X131557Y125286D02*
D03*
X137463D02*
D03*
X131557Y132572D02*
D03*
X137463D02*
D03*
X131557Y139858D02*
D03*
X137463D02*
D03*
X131557Y147144D02*
D03*
X137463D02*
D03*
X131557Y154430D02*
D03*
X137463D02*
D03*
X131557Y161716D02*
D03*
X137463D02*
D03*
X18897Y71417D02*
D03*
X24803D02*
D03*
X18897Y91417D02*
D03*
X24803D02*
D03*
X18897Y111417D02*
D03*
X24803D02*
D03*
X18897Y131417D02*
D03*
X24803D02*
D03*
X545493Y167108D02*
D03*
X539587D02*
D03*
X545493Y155652D02*
D03*
X539587D02*
D03*
X545493Y137108D02*
D03*
X539587D02*
D03*
X545493Y125673D02*
D03*
X539587D02*
D03*
X287903Y170240D02*
D03*
X293809D02*
D03*
X341973Y159200D02*
D03*
X336067D02*
D03*
X278930Y113130D02*
D03*
X273025D02*
D03*
X342183Y138052D02*
D03*
X336277D02*
D03*
X342183Y116990D02*
D03*
X336277D02*
D03*
D18*
X269346Y145980D02*
D03*
X263834D02*
D03*
X263974Y153370D02*
D03*
X269486D02*
D03*
X269506Y158110D02*
D03*
X263994D02*
D03*
X301879Y173420D02*
D03*
X307391D02*
D03*
X341986Y149400D02*
D03*
X336474D02*
D03*
X342556Y143300D02*
D03*
X337044D02*
D03*
X545296Y161380D02*
D03*
X539784D02*
D03*
X545296Y131380D02*
D03*
X539784D02*
D03*
D19*
X302350Y184163D02*
D03*
Y178652D02*
D03*
D20*
X478330Y16321D02*
D03*
Y-1001D02*
D03*
X561940Y266569D02*
D03*
Y283891D02*
D03*
X391620Y266319D02*
D03*
Y283641D02*
D03*
X219450Y266569D02*
D03*
Y283891D02*
D03*
X305100Y16321D02*
D03*
Y-1001D02*
D03*
X133750Y16321D02*
D03*
Y-1001D02*
D03*
X48730Y283891D02*
D03*
Y266569D02*
D03*
D21*
X496250Y22217D02*
D03*
Y28123D02*
D03*
X488770D02*
D03*
Y22217D02*
D03*
X580890Y255952D02*
D03*
Y250046D02*
D03*
X573410Y255952D02*
D03*
Y250046D02*
D03*
X409780Y255952D02*
D03*
Y250046D02*
D03*
X402300Y255952D02*
D03*
Y250046D02*
D03*
X239000Y255952D02*
D03*
Y250046D02*
D03*
X231170Y255952D02*
D03*
Y250046D02*
D03*
X323720Y22217D02*
D03*
Y28123D02*
D03*
X316240D02*
D03*
Y22217D02*
D03*
X151192Y28123D02*
D03*
Y22217D02*
D03*
X143711D02*
D03*
Y28123D02*
D03*
X69177Y249997D02*
D03*
Y255903D02*
D03*
X61500Y249997D02*
D03*
Y255903D02*
D03*
X315392Y98139D02*
D03*
Y104045D02*
D03*
X309902Y98139D02*
D03*
Y104045D02*
D03*
D22*
X496250Y16487D02*
D03*
X488770D02*
D03*
X492510Y8613D02*
D03*
X573410Y266333D02*
D03*
X580890D02*
D03*
X577150Y274207D02*
D03*
X406610Y274094D02*
D03*
X410350Y266220D02*
D03*
X402870D02*
D03*
X235063Y274207D02*
D03*
X238803Y266333D02*
D03*
X231323D02*
D03*
X323720Y16487D02*
D03*
X316240D02*
D03*
X319980Y8613D02*
D03*
X65240Y274207D02*
D03*
X68980Y266333D02*
D03*
X61500D02*
D03*
X147452Y8613D02*
D03*
X143711Y16487D02*
D03*
X151192D02*
D03*
D23*
X261700Y105513D02*
D03*
Y98427D02*
D03*
X291796Y98084D02*
D03*
Y105171D02*
D03*
X298730Y98084D02*
D03*
Y105171D02*
D03*
X283940Y98084D02*
D03*
Y105171D02*
D03*
D24*
X272590Y89712D02*
D03*
D25*
X276212Y105389D02*
D03*
X268968D02*
D03*
D26*
X611280Y126380D02*
D03*
Y136380D02*
D03*
Y146380D02*
D03*
Y156380D02*
D03*
Y166380D02*
D03*
X556989Y126380D02*
D03*
Y136380D02*
D03*
Y146380D02*
D03*
Y156380D02*
D03*
Y166380D02*
D03*
D28*
X316446Y118859D02*
D03*
X314478D02*
D03*
X312509D02*
D03*
X310541D02*
D03*
X308572D02*
D03*
X306604D02*
D03*
X304635D02*
D03*
X302667D02*
D03*
X300698D02*
D03*
X298730D02*
D03*
X296761D02*
D03*
X294793D02*
D03*
X292824D02*
D03*
X290856D02*
D03*
X288887D02*
D03*
X286919D02*
D03*
Y163150D02*
D03*
X288887D02*
D03*
X290856Y163150D02*
D03*
X292824D02*
D03*
X294793D02*
D03*
X296761D02*
D03*
X298730D02*
D03*
X300698Y163150D02*
D03*
X302667D02*
D03*
X304635Y163150D02*
D03*
X306604D02*
D03*
X308572D02*
D03*
X310541D02*
D03*
X312509D02*
D03*
X314478Y163150D02*
D03*
X316446D02*
D03*
D29*
X279537Y126241D02*
D03*
Y128209D02*
D03*
Y130178D02*
D03*
Y132146D02*
D03*
Y134115D02*
D03*
Y136083D02*
D03*
Y138052D02*
D03*
Y140020D02*
D03*
Y141989D02*
D03*
Y143957D02*
D03*
Y145926D02*
D03*
Y147894D02*
D03*
Y149863D02*
D03*
Y151831D02*
D03*
Y153800D02*
D03*
Y155768D02*
D03*
X323828D02*
D03*
Y153800D02*
D03*
X323828Y151831D02*
D03*
Y149863D02*
D03*
Y147894D02*
D03*
Y145926D02*
D03*
Y143957D02*
D03*
X323828Y141989D02*
D03*
Y140020D02*
D03*
X323828Y138052D02*
D03*
Y136083D02*
D03*
Y134115D02*
D03*
Y132146D02*
D03*
Y130178D02*
D03*
X323828Y128209D02*
D03*
Y126241D02*
D03*
D30*
X337262Y126690D02*
D03*
X344348D02*
D03*
D41*
X301683Y141005D02*
D03*
D48*
X405767Y-80D02*
D03*
Y284420D02*
D03*
X147547Y-120D02*
D03*
Y284380D02*
D03*
X234223Y-170D02*
D03*
Y284330D02*
D03*
X318995Y-120D02*
D03*
Y284380D02*
D03*
X577310Y284730D02*
D03*
Y230D02*
D03*
X62870Y-170D02*
D03*
Y284330D02*
D03*
X490538Y-120D02*
D03*
Y284380D02*
D03*
D52*
X-44080Y-157D02*
G03*
X-23030Y-20960I20927J123D01*
G01*
X648700Y-21300D02*
G03*
X673159Y6305I-1573J26032D01*
G01*
X-25930Y309800D02*
G03*
X-44080Y294490I-1420J-16730D01*
G01*
X-24944Y309800D02*
X649300D01*
X673108Y290120D02*
X673108Y6305D01*
X648700Y-20960D02*
X649420D01*
X673108Y6305D02*
X673108Y5696D01*
X625670Y-20960D02*
X648700D01*
X-23030D02*
X625670D01*
X-44080Y-156D02*
Y294490D01*
D53*
X147452Y8613D02*
Y19378D01*
X147547Y19473D01*
X402300Y255952D02*
X402980Y256632D01*
X402870Y266220D02*
X402980Y266110D01*
Y256632D02*
Y266110D01*
X269381Y146015D02*
X273769D01*
X273796Y145988D01*
X274234Y143795D02*
X279374D01*
X279537Y143957D01*
X273796Y145988D02*
X279475D01*
X273391Y142952D02*
X274234Y143795D01*
X279475Y145988D02*
X279537Y145926D01*
X269346Y145980D02*
X269381Y146015D01*
X300698Y118859D02*
Y124640D01*
X-8319Y81769D02*
Y108229D01*
X-8699Y109604D02*
X-8319Y109984D01*
X-8699Y108609D02*
X-8319Y108229D01*
X-8699Y108609D02*
Y109604D01*
X336277Y116990D02*
Y117384D01*
X335499Y118162D02*
X336277Y117384D01*
X335106Y118162D02*
X335499D01*
X331957Y121310D02*
X335106Y118162D01*
X325520Y121310D02*
X331957D01*
X315835Y123353D02*
X318379D01*
X318530Y123504D01*
X314546Y122064D02*
X315835Y123353D01*
X294484Y126241D02*
X298661Y122064D01*
X293060Y123767D02*
Y123980D01*
X288039Y123767D02*
Y123980D01*
X277329Y126241D02*
X279537D01*
X294484D01*
X298661Y118928D02*
Y122064D01*
X272582Y113833D02*
Y117180D01*
X312509Y123649D02*
X313500Y124640D01*
X-8319Y109984D02*
Y215440D01*
X288960Y118932D02*
Y122846D01*
X288039Y123767D02*
X288960Y122846D01*
X496250Y28123D02*
Y32930D01*
X492220Y116230D02*
Y117570D01*
X456240Y153550D02*
X492220Y117570D01*
X333223Y153550D02*
X456240D01*
X329536Y149863D02*
X333223Y153550D01*
X323828Y149863D02*
X329536D01*
X330148Y147894D02*
X331456Y149203D01*
X336474D01*
X323828Y147894D02*
X330148D01*
X341986Y149400D02*
X346220D01*
X307391Y173420D02*
X328146D01*
X341973Y159594D01*
Y159200D02*
Y159594D01*
X304567Y163219D02*
Y167773D01*
X306672Y172701D02*
X307391Y173420D01*
X304410Y167930D02*
X304567Y167773D01*
X306604Y163150D02*
X306672Y163219D01*
X304410Y167930D02*
Y168143D01*
X306672Y163219D02*
Y172701D01*
X304567Y163219D02*
X304635Y163150D01*
X341973Y159200D02*
X346220D01*
X332227Y145926D02*
X332836Y145316D01*
X323828Y145926D02*
X332227D01*
X488770Y28123D02*
Y32576D01*
X488794Y32600D01*
X342556Y143300D02*
X461370D01*
X487630Y117040D02*
Y117040D01*
X461370Y143300D02*
X487630Y117040D01*
X286987Y163383D02*
Y166355D01*
Y163219D02*
Y163383D01*
X286850Y163520D02*
X286987Y163383D01*
X283420Y163520D02*
X286850D01*
X271300Y166930D02*
X277260Y160969D01*
Y155837D02*
Y160969D01*
X278610Y164291D02*
X289183Y153718D01*
X154810Y171600D02*
X277907D01*
X278610Y170897D01*
Y164291D02*
Y170897D01*
X263527Y158577D02*
X263994Y158110D01*
X263527Y158577D02*
Y167271D01*
X314409Y163219D02*
X314478Y163150D01*
X314409Y163219D02*
Y166355D01*
X313538Y167227D02*
X314409Y166355D01*
X311481Y167227D02*
X313538D01*
X310778Y166524D02*
X311481Y167227D01*
X310778Y165595D02*
Y166524D01*
X310541Y165358D02*
X310778Y165595D01*
X310541Y163150D02*
Y165358D01*
X321620Y155768D02*
X323828D01*
X319582Y157807D02*
X321620Y155768D01*
X316685Y157807D02*
X319582D01*
X314546Y159945D02*
X316685Y157807D01*
X314546Y159945D02*
Y163082D01*
X314478Y163150D02*
X314546Y163082D01*
X329468Y159200D02*
X336067D01*
X326036Y155768D02*
X329468Y159200D01*
X323828Y155768D02*
X326036D01*
X302667Y154560D02*
Y163150D01*
X302350Y154243D02*
X302667Y154560D01*
X302350Y154030D02*
Y154243D01*
X302835Y172182D02*
Y178558D01*
X301879Y167625D02*
Y173420D01*
Y167625D02*
X302598Y166906D01*
Y163219D02*
Y166906D01*
Y163219D02*
X302667Y163150D01*
X269847Y153731D02*
X279468D01*
X269496Y153380D02*
X269847Y153731D01*
X287903Y170634D02*
X300945Y183676D01*
X303372D01*
X287903Y170240D02*
Y170634D01*
Y167271D02*
Y170240D01*
X580890Y245860D02*
Y250046D01*
X579110Y244080D02*
X580890Y245860D01*
X563180Y244080D02*
X579110D01*
X576870Y247990D02*
Y248203D01*
X577918Y249252D02*
Y251921D01*
X576870Y248203D02*
X577918Y249252D01*
Y251921D02*
X578621Y252624D01*
X567740Y250160D02*
X567797Y250103D01*
X573353D01*
X318120Y144154D02*
X318317Y143957D01*
X323828D01*
X402257Y250003D02*
X402300Y250046D01*
X396153Y250003D02*
X402257D01*
X396110Y249960D02*
X396153Y250003D01*
X415030Y245190D02*
X416560D01*
X409780Y250046D02*
X410174D01*
X415030Y245190D01*
X329670Y143957D02*
X331842Y141785D01*
X336049Y142228D02*
X337024Y143203D01*
X335346Y141989D02*
X335586Y142228D01*
X336049D01*
X337024Y143203D02*
Y143400D01*
X332836Y141785D02*
X333040Y141989D01*
X335346D01*
X331842Y141785D02*
X332836D01*
X323828Y140020D02*
X330403D01*
X332372Y138052D02*
X336277D01*
X330403Y140020D02*
X332372Y138052D01*
X573353Y250103D02*
X573410Y250046D01*
X323828Y143957D02*
X329670D01*
X483020Y26010D02*
X484583D01*
X488376Y22217D02*
X488770D01*
X484583Y26010D02*
X488376Y22217D01*
X248640Y184460D02*
X251632D01*
X290886Y223713D01*
X516329D01*
X559184Y266569D01*
X561940D01*
X225770Y161590D02*
X230415Y166235D01*
X150120Y169190D02*
X250003D01*
X263904Y146050D02*
Y146247D01*
X225644Y161716D02*
X225770Y161590D01*
X163007Y161716D02*
X225644D01*
X278989Y118859D02*
X286919D01*
X276212Y116082D02*
X278989Y118859D01*
X276212Y105389D02*
Y116082D01*
X281784Y106933D02*
Y107006D01*
X278930Y109859D02*
X281784Y107006D01*
X278930Y109859D02*
Y113130D01*
X272590Y89712D02*
Y92664D01*
X279984Y100059D01*
Y101608D01*
X283546Y105171D01*
X281784Y106933D02*
X283546Y105171D01*
X261700Y93041D02*
Y98427D01*
X315340Y95526D02*
X315392Y95578D01*
Y98139D01*
X283940Y98084D02*
X291402D01*
X288039Y91440D02*
X289640Y93041D01*
X291402Y98084D02*
X291796D01*
X289640Y96322D02*
X291402Y98084D01*
X289640Y93041D02*
Y96322D01*
X309508Y98139D02*
X309902D01*
X305699Y101949D02*
X309508Y98139D01*
X291796Y98084D02*
X298730D01*
X323828Y126241D02*
X337206D01*
X337262Y126296D01*
X174840Y112420D02*
X205372Y142952D01*
X37501Y112420D02*
X174840D01*
X205372Y142952D02*
X273391D01*
X312392Y22217D02*
X316240D01*
X288039Y46570D02*
X312392Y22217D01*
X285150Y46570D02*
X288039D01*
X236350Y201735D02*
X318995Y284380D01*
X236350Y198150D02*
Y201735D01*
X239700Y226480D02*
Y249346D01*
X239000Y250046D02*
X239700Y249346D01*
X231170Y236950D02*
X236480Y231640D01*
X231170Y236950D02*
Y250046D01*
X277329Y155768D02*
X279537D01*
X277260Y155837D02*
X277329Y155768D01*
X73835Y252575D02*
X154810Y171600D01*
X478330Y-1001D02*
X479211Y-120D01*
X490538D01*
X496250Y16487D02*
Y22217D01*
X488770Y16487D02*
Y22217D01*
X219450Y283891D02*
X219889Y284330D01*
X234223D01*
X392700Y283891D02*
X393229Y284420D01*
X405767D01*
X305100Y-1001D02*
X305981Y-120D01*
X318995D01*
X300698Y156388D02*
Y163150D01*
X298340Y154030D02*
X300698Y156388D01*
X292828Y118863D02*
Y123535D01*
X293060Y123767D01*
X323720Y28123D02*
Y56170D01*
X323740Y56190D01*
X318120Y30003D02*
Y65020D01*
X316240Y28123D02*
X318120Y30003D01*
X310541Y126172D02*
X310609Y126241D01*
X310541Y118859D02*
Y126172D01*
X267717Y149863D02*
X279537D01*
X264809Y147152D02*
X265006D01*
X263904Y146247D02*
X264809Y147152D01*
X265006D02*
X267717Y149863D01*
X263904Y153300D02*
X263974Y153370D01*
X263904Y146050D02*
Y153300D01*
X263834Y145980D02*
X263904Y146050D01*
X263974Y153370D02*
Y153567D01*
X262403Y155138D02*
X263974Y153567D01*
X261922Y155138D02*
X262403D01*
X259830Y157231D02*
X261922Y155138D01*
X259830Y157231D02*
Y159363D01*
X250003Y169190D02*
X259830Y159363D01*
X269486Y153370D02*
X269496Y153380D01*
X279468Y153731D02*
X279537Y153800D01*
X269496Y158100D02*
X269506Y158110D01*
X269496Y153380D02*
Y158100D01*
X272975Y113180D02*
X273025Y113130D01*
X171663Y58390D02*
X282270D01*
X143711Y30439D02*
X171663Y58390D01*
X180704Y53070D02*
X286300D01*
X155757Y28123D02*
X180704Y53070D01*
X151192Y28123D02*
X155757D01*
X279537Y151831D02*
X284646D01*
X289183Y150602D02*
Y153718D01*
X286544Y147963D02*
X289183Y150602D01*
X279605Y147963D02*
X286544D01*
X279537Y147894D02*
X279605Y147963D01*
X70349Y248961D02*
X150120Y169190D01*
X61500Y249997D02*
X65071D01*
X65990Y250916D01*
Y251657D01*
X66908Y252575D01*
X73835D01*
X573410Y255952D02*
Y266333D01*
X561940Y266569D02*
X568858D01*
X570098Y267809D01*
Y268065D01*
X575069Y273035D01*
X576175D01*
X577150Y274010D01*
Y274207D01*
X561940Y283891D02*
X562779Y284730D01*
X577310D01*
X292824Y118859D02*
X292828Y118863D01*
X292766Y71270D02*
X293050D01*
X291796Y70300D02*
X292766Y71270D01*
X137963Y70300D02*
X291796D01*
X95140Y41417D02*
X109080D01*
X137963Y70300D01*
X143711Y28123D02*
Y30439D01*
X302667Y108049D02*
Y118859D01*
Y108049D02*
X305699Y105017D01*
Y101949D02*
Y105017D01*
X304635Y108918D02*
Y118859D01*
Y108918D02*
X309508Y104045D01*
X309902D01*
X315392D01*
X95140Y45760D02*
X100680D01*
X132120Y77200D01*
X232993D01*
X56185Y21417D02*
X118187Y83420D01*
X229075D01*
X8579Y21417D02*
X56185D01*
X232993Y77200D02*
X261306Y105513D01*
X261700D01*
X298661Y118928D02*
X298730Y118859D01*
X268968Y105389D02*
Y117879D01*
X277329Y126241D01*
X261824Y105389D02*
X268968D01*
X261700Y105513D02*
X261824Y105389D01*
X298336Y105171D02*
X298730D01*
X295752Y107755D02*
X298336Y105171D01*
X295752Y107755D02*
Y109287D01*
X290856Y114183D02*
X295752Y109287D01*
X290856Y114183D02*
Y118859D01*
X288887Y107685D02*
Y118859D01*
Y107685D02*
X291402Y105171D01*
X291796D01*
X288887Y118859D02*
X288960Y118932D01*
X557709Y137100D02*
X564630D01*
X556989Y136380D02*
X557709Y137100D01*
X545296Y131380D02*
X549630D01*
X549650Y131400D01*
X337262Y126296D02*
X342183Y121375D01*
Y116990D02*
Y121375D01*
X314478Y118859D02*
X314546Y118928D01*
Y122064D01*
X312509Y118859D02*
Y123649D01*
X564227Y156380D02*
X564567Y156720D01*
X556989Y156380D02*
X564227D01*
X556989Y166380D02*
X557049Y166320D01*
X564800D01*
X548500Y161380D02*
X548810Y161070D01*
X545296Y161380D02*
X548500D01*
X238803Y266136D02*
Y266333D01*
X235231Y262564D02*
X238803Y266136D01*
X235231Y259871D02*
Y262564D01*
X235130Y259770D02*
X235231Y259871D01*
X231170Y255952D02*
X231246Y256028D01*
Y266257D01*
X231323Y266333D01*
X235182Y259770D02*
X239000Y255952D01*
X235130Y259770D02*
X235182D01*
X69163Y266150D02*
X75080D01*
X68980Y266333D02*
X69163Y266150D01*
X119430Y121200D02*
X160201D01*
X163007Y118393D01*
X124010Y125240D02*
X131511D01*
X131557Y125286D01*
X163007Y118000D02*
Y118393D01*
X131557Y136267D02*
X131854Y135970D01*
X155030D01*
X131557Y136267D02*
Y140252D01*
X167013Y125286D02*
X167106Y125379D01*
X163007Y125286D02*
X167013D01*
X130088Y141720D02*
X131557Y140252D01*
X24803Y111417D02*
X24848Y111372D01*
X27815D01*
X27860Y111328D01*
X24803Y91417D02*
X27860D01*
X24803Y131417D02*
X24893Y131327D01*
X27770D01*
X27860Y131238D01*
X24803Y71417D02*
X27897D01*
X-8319Y215440D02*
X-4369Y219390D01*
Y186369D02*
X56714Y125286D01*
X-4369Y186369D02*
Y192229D01*
Y219390D02*
Y224591D01*
X-8319Y81769D02*
X-4030Y77480D01*
X69571Y249997D02*
X70349Y249219D01*
X69177Y249997D02*
X69571D01*
X70349Y248961D02*
Y249219D01*
X8579Y31417D02*
X15356Y24640D01*
X48800D02*
X109380Y85220D01*
X15356Y24640D02*
X48800D01*
X348601Y138081D02*
X348630Y138110D01*
X342212Y138081D02*
X348601D01*
X342183Y138052D02*
X342212Y138081D01*
X580890Y255952D02*
Y266333D01*
X580187Y252624D02*
X580890Y253327D01*
Y255952D01*
X578621Y252624D02*
X580187D01*
X273796Y128141D02*
X279468D01*
X263527Y117872D02*
X263527D01*
X273796Y128141D01*
X261024Y115369D02*
Y115369D01*
X229075Y83420D02*
X261024Y115369D01*
X72666Y87020D02*
X227584D01*
X27064Y41417D02*
X72666Y87020D01*
X227584D02*
X272710Y132146D01*
X109380Y85220D02*
X228330D01*
X273288Y130178D01*
X261024Y115369D02*
X263527Y117872D01*
X229459Y91440D02*
X272133Y134115D01*
X279537D01*
X271388Y135915D02*
X276712D01*
X273288Y130178D02*
X279537D01*
X272710Y132146D02*
X279537D01*
X64614Y98674D02*
X234148D01*
X271388Y135915D01*
X67920Y91440D02*
X229459D01*
X137463Y154430D02*
X137463Y154430D01*
X157102D01*
X308559Y12862D02*
X312808Y8613D01*
X308559Y12862D02*
Y14559D01*
X312808Y8613D02*
X319980D01*
X306797Y16321D02*
X308559Y14559D01*
X305100Y16321D02*
X306797D01*
X18897Y131024D02*
X37501Y112420D01*
X56714Y125286D02*
X131557D01*
X276712Y135915D02*
X276812Y136015D01*
X279468D01*
Y128141D02*
X279537Y128209D01*
X15524Y203016D02*
X76820Y141720D01*
X130088D01*
X27897Y51417D02*
X67920Y91440D01*
X27357Y61417D02*
X64614Y98674D01*
X8579Y61417D02*
X27357D01*
X279468Y136015D02*
X279537Y136083D01*
X18897Y131024D02*
Y131417D01*
X70681Y132572D02*
X131557D01*
X5631Y197623D02*
X70681Y132572D01*
X131557Y129587D02*
Y132572D01*
X131480Y129510D02*
X131557Y129587D01*
X-4369Y203016D02*
X15524D01*
X65240Y274010D02*
Y274207D01*
Y270360D02*
Y274010D01*
Y270360D02*
X65360Y270240D01*
X145606Y24747D02*
Y24960D01*
X144883Y22995D02*
Y24024D01*
X144105Y22217D02*
X144883Y22995D01*
Y24024D02*
X145606Y24747D01*
X143711Y22217D02*
X144105D01*
X133750Y-1001D02*
X134631Y-120D01*
X147452D01*
X48730Y283891D02*
X49259Y284420D01*
X62870D01*
X151192Y16487D02*
Y22217D01*
X143711Y16487D02*
Y22217D01*
X133750Y16321D02*
X136506D01*
X144077Y8750D01*
X147314D01*
X147452Y8613D01*
X323720Y16487D02*
Y22217D01*
X316240Y16487D02*
Y22217D01*
X341986Y143957D02*
Y144154D01*
X337912Y148228D02*
X341986Y144154D01*
X337449Y148228D02*
X337912D01*
X336474Y149203D02*
X337449Y148228D01*
X323760Y132215D02*
X323828Y132146D01*
X320623Y132215D02*
X323760D01*
X319752Y133086D02*
X320623Y132215D01*
X319752Y133086D02*
Y135143D01*
X320455Y135846D01*
X321383D01*
X321620Y136083D01*
X323828D01*
X336277Y137658D02*
Y138052D01*
X323828Y136083D02*
X334702D01*
X336277Y137658D01*
X545493Y125652D02*
X556260D01*
X545493D02*
X545493D01*
Y125673D01*
Y125279D02*
Y125652D01*
X533314Y113100D02*
X545493Y125279D01*
X328236Y113100D02*
X533314D01*
X316446Y116651D02*
Y118859D01*
Y116651D02*
X316515Y116583D01*
X324753D01*
X328236Y113100D01*
X294724Y163082D02*
X294793Y163150D01*
X294724Y159945D02*
Y163082D01*
X293853Y159074D02*
X294724Y159945D01*
X291796Y159074D02*
X293853D01*
X291093Y159777D02*
X291796Y159074D01*
X291093Y159777D02*
Y160705D01*
X290856Y160942D02*
X291093Y160705D01*
X290856Y160942D02*
Y163150D01*
X293809Y167271D02*
Y170240D01*
Y167271D02*
X294724Y166355D01*
Y163219D02*
Y166355D01*
Y163219D02*
X294793Y163150D01*
X286987Y166355D02*
X287903Y167271D01*
X286919Y163150D02*
X286987Y163219D01*
X539587Y125673D02*
Y137108D01*
Y125673D02*
X539587Y125673D01*
X539587Y137108D02*
X539587Y137108D01*
X539587Y155652D02*
Y167108D01*
X556260Y155652D02*
X556989Y156380D01*
X545493Y155652D02*
X556260D01*
Y167108D02*
X556989Y166380D01*
X545493Y167108D02*
X556260D01*
Y137108D02*
X556989Y136380D01*
X545493Y137108D02*
X556260D01*
Y125652D02*
X556989Y126380D01*
X68980Y266333D02*
X69079Y266235D01*
Y256001D02*
Y266235D01*
Y256001D02*
X69177Y255903D01*
X61500D02*
Y266333D01*
X48730Y266569D02*
X55648D01*
X62115Y273035D01*
X64265D01*
X65240Y274010D01*
X137463Y118000D02*
X137463Y118000D01*
X157102D01*
X157102Y118000D01*
X137463Y161716D02*
X137463Y161716D01*
X157102D01*
X157102Y161716D01*
X157102Y154430D02*
X157102Y154430D01*
X137463Y147144D02*
X137463Y147144D01*
X157102D01*
X157102Y147144D01*
X137463Y139858D02*
X137463Y139858D01*
X157102D01*
X157102Y139858D01*
X137463Y132572D02*
X137463Y132572D01*
X157102D01*
X157102Y132572D01*
X137463Y125286D02*
X137463Y125286D01*
X157102D01*
X157102Y125286D01*
X9001Y131840D02*
X9424Y131417D01*
X18897D01*
X8579D02*
X9001Y131840D01*
X8579Y111417D02*
X18897D01*
X8579Y91417D02*
X18897D01*
X8579Y71417D02*
X18897D01*
X8579Y51417D02*
X27897D01*
X8579Y41417D02*
X27064D01*
X99164Y161716D02*
X131557D01*
X41683Y219197D02*
X99164Y161716D01*
X5631Y219197D02*
X41683D01*
X94310Y154430D02*
X131557D01*
X34936Y213804D02*
X94310Y154430D01*
X-4369Y213804D02*
X34936D01*
X87156Y147144D02*
X131557D01*
X25890Y208410D02*
X87156Y147144D01*
X5631Y208410D02*
X25890D01*
D54*
X616372Y130130D02*
X621045Y125457D01*
X614251Y129251D02*
X615129Y130130D01*
X611280Y126380D02*
X612500D01*
X614251Y133509D02*
Y134630D01*
X612500Y136380D02*
X614251Y134630D01*
X621045Y96130D02*
X627486Y89688D01*
X615129Y130130D02*
X616372D01*
X634343Y85984D02*
X640220Y80107D01*
X629614Y92189D02*
X634343Y87460D01*
X628522Y92189D02*
X629614D01*
X615129Y132630D02*
X617407D01*
X614251Y133509D02*
X615129Y132630D01*
X611280Y136380D02*
X612500D01*
X614251Y128130D02*
Y129251D01*
X612500Y126380D02*
X614251Y128130D01*
X623545Y97165D02*
X628522Y92189D01*
X623545Y97165D02*
Y126492D01*
X617407Y132630D02*
X623545Y126492D01*
X629458Y86263D02*
X630220Y85501D01*
X629458Y86263D02*
Y88810D01*
X628579Y89688D02*
X629458Y88810D01*
X627486Y89688D02*
X628579D01*
X621045Y96130D02*
Y125457D01*
X634343Y85984D02*
Y87460D01*
X623848Y166571D02*
Y198390D01*
X611280Y166380D02*
X612500D01*
X614251Y164630D01*
Y163509D02*
X615129Y162630D01*
X616372D01*
X614251Y159251D02*
X615129Y160130D01*
X617407D01*
X623848Y166571D01*
X616372Y162630D02*
X621348Y167607D01*
Y199426D01*
X628579Y205564D02*
X629458Y206442D01*
Y208989D01*
X630220Y209751D01*
X611280Y156380D02*
X612500D01*
X614251Y158130D02*
Y159251D01*
X623848Y198390D02*
X628522Y203064D01*
X629614D01*
X631302Y204751D01*
X639826D01*
X614251Y163509D02*
Y164630D01*
X621348Y199426D02*
X627486Y205564D01*
X628579D01*
X612500Y156380D02*
X614251Y158130D01*
X639826Y204751D02*
X640220Y204357D01*
D55*
X436767Y251420D02*
D03*
X374767Y33920D02*
D03*
X178547Y250380D02*
D03*
X116547Y32880D02*
D03*
X265223Y251330D02*
D03*
X203223Y33830D02*
D03*
X349995Y250380D02*
D03*
X287995Y32880D02*
D03*
X546310Y34230D02*
D03*
X608310Y251730D02*
D03*
X93870Y251330D02*
D03*
X31870Y33830D02*
D03*
X521538Y250380D02*
D03*
X459538Y32880D02*
D03*
D56*
X374767Y284420D02*
D03*
X178547Y-120D02*
D03*
X203223Y284330D02*
D03*
X349995Y-120D02*
D03*
X546310Y284730D02*
D03*
X31870Y284330D02*
D03*
X521538Y-120D02*
D03*
D57*
X635251Y36301D02*
D03*
Y134701D02*
D03*
Y160551D02*
D03*
Y258951D02*
D03*
X600Y159210D02*
D03*
Y257610D02*
D03*
D58*
X630220Y63926D02*
D03*
X640220Y69320D02*
D03*
X630220Y74714D02*
D03*
X640220Y80107D02*
D03*
X630220Y85501D02*
D03*
X640220Y90895D02*
D03*
X630220Y96289D02*
D03*
X640220Y101682D02*
D03*
X630220Y107076D02*
D03*
Y188176D02*
D03*
X640220Y193570D02*
D03*
X630220Y198964D02*
D03*
X640220Y204357D02*
D03*
X630220Y209751D02*
D03*
X640220Y215145D02*
D03*
X630220Y220538D02*
D03*
X640220Y225932D02*
D03*
X630220Y231326D02*
D03*
X5631Y186835D02*
D03*
X-4369Y192229D02*
D03*
X5631Y197623D02*
D03*
X-4369Y203016D02*
D03*
X5631Y208410D02*
D03*
X-4369Y213804D02*
D03*
X5631Y219197D02*
D03*
X-4369Y224591D02*
D03*
X5631Y229985D02*
D03*
D59*
X0Y289340D02*
D03*
Y0D02*
D03*
X648700D02*
D03*
Y289340D02*
D03*
D60*
X8579Y61417D02*
D03*
Y51417D02*
D03*
Y21417D02*
D03*
Y31417D02*
D03*
Y41417D02*
D03*
Y131417D02*
D03*
Y121417D02*
D03*
Y111417D02*
D03*
Y101417D02*
D03*
Y71417D02*
D03*
Y81417D02*
D03*
Y91417D02*
D03*
D61*
Y141417D02*
D03*
D62*
X147547Y19473D02*
D03*
X603737Y266130D02*
D03*
X623422Y226760D02*
D03*
X584052D02*
D03*
X564367Y187390D02*
D03*
Y108650D02*
D03*
Y29910D02*
D03*
X524997Y187390D02*
D03*
Y108650D02*
D03*
X544682Y69280D02*
D03*
X524997Y29910D02*
D03*
X505312Y226760D02*
D03*
Y148020D02*
D03*
Y69280D02*
D03*
X446257Y266130D02*
D03*
X465942Y226760D02*
D03*
Y148020D02*
D03*
X446257Y108650D02*
D03*
X465942Y69280D02*
D03*
X446257Y29910D02*
D03*
X426572Y226760D02*
D03*
Y148020D02*
D03*
Y69280D02*
D03*
X387201Y226760D02*
D03*
X367516Y187390D02*
D03*
X387201Y148020D02*
D03*
X367516Y108650D02*
D03*
X387201Y69280D02*
D03*
X347831Y226760D02*
D03*
X328146Y187390D02*
D03*
Y108650D02*
D03*
X347831Y69280D02*
D03*
X328146Y29910D02*
D03*
X288776Y266130D02*
D03*
X308461Y226760D02*
D03*
X288776Y187390D02*
D03*
X269091Y226760D02*
D03*
X249406Y187390D02*
D03*
Y29910D02*
D03*
X229721Y226760D02*
D03*
X210036Y187390D02*
D03*
X229721Y148020D02*
D03*
X190351Y226760D02*
D03*
Y148020D02*
D03*
X170666Y29910D02*
D03*
X150981Y226760D02*
D03*
X131296Y29910D02*
D03*
X91926Y266130D02*
D03*
X111611Y226760D02*
D03*
X91926Y187390D02*
D03*
X111611Y69280D02*
D03*
X91926Y29910D02*
D03*
X72241Y226760D02*
D03*
X52556Y187390D02*
D03*
X72241Y69280D02*
D03*
X13186Y266130D02*
D03*
X32871Y226760D02*
D03*
X-26184Y266130D02*
D03*
X-6499Y69280D02*
D03*
X-26184Y29910D02*
D03*
X392628Y257010D02*
D03*
X273796Y145988D02*
D03*
X183068Y149323D02*
D03*
X300698Y124640D02*
D03*
X302350Y128030D02*
D03*
X-2990Y107640D02*
D03*
X325520Y121310D02*
D03*
X318530Y123504D02*
D03*
X293060Y123980D02*
D03*
X288039D02*
D03*
X272582Y117180D02*
D03*
X313500Y124640D02*
D03*
X496250Y32930D02*
D03*
X492220Y116230D02*
D03*
X346220Y149400D02*
D03*
X304410Y168143D02*
D03*
X346440Y159420D02*
D03*
X332836Y145316D02*
D03*
X488794Y32600D02*
D03*
X487630Y117040D02*
D03*
X283420Y163520D02*
D03*
X271300Y166930D02*
D03*
X298340Y154030D02*
D03*
X273470D02*
D03*
X302350D02*
D03*
X576870Y247990D02*
D03*
X563180Y244080D02*
D03*
X567740Y250160D02*
D03*
X318120Y144154D02*
D03*
X396110Y249960D02*
D03*
X416560Y245190D02*
D03*
X483020Y26010D02*
D03*
X504300Y174775D02*
D03*
X248640Y184460D02*
D03*
X230415Y166235D02*
D03*
X217930Y163910D02*
D03*
Y156530D02*
D03*
X261700Y93041D02*
D03*
X315340Y95526D02*
D03*
X288039Y91440D02*
D03*
X202270Y144140D02*
D03*
X285150Y46570D02*
D03*
X236350Y198150D02*
D03*
X239700Y226480D02*
D03*
X236480Y231640D02*
D03*
X263527Y167271D02*
D03*
X323740Y56190D02*
D03*
X318120Y65020D02*
D03*
X310609Y126241D02*
D03*
X282270Y58390D02*
D03*
X286300Y53070D02*
D03*
X284646Y151831D02*
D03*
X293050Y71270D02*
D03*
X95140Y41417D02*
D03*
Y45760D02*
D03*
X564630Y137100D02*
D03*
X549650Y131400D02*
D03*
X348640Y126620D02*
D03*
X564567Y156720D02*
D03*
X564800Y166320D02*
D03*
X548810Y161070D02*
D03*
X235130Y259770D02*
D03*
X75080Y266150D02*
D03*
X119430Y121200D02*
D03*
X124010Y125240D02*
D03*
X155030Y135970D02*
D03*
X167106Y125379D02*
D03*
X167013Y139858D02*
D03*
X171335Y136894D02*
D03*
X27860Y111328D02*
D03*
Y91417D02*
D03*
Y131238D02*
D03*
X27897Y71417D02*
D03*
X348630Y138110D02*
D03*
X-4030Y77480D02*
D03*
X127549Y117870D02*
D03*
X465780Y16750D02*
D03*
X174930Y154600D02*
D03*
X416390Y251000D02*
D03*
X313170Y11740D02*
D03*
X293080Y16690D02*
D03*
X247730Y273390D02*
D03*
X131480Y129510D02*
D03*
X-15130Y19220D02*
D03*
X65360Y270240D02*
D03*
X145606Y24960D02*
D03*
M02*
