G04*
G04 #@! TF.GenerationSoftware,Altium Limited,Altium Designer,20.2.6 (244)*
G04*
G04 Layer_Color=8421504*
%FSLAX25Y25*%
%MOIN*%
G70*
G04*
G04 #@! TF.SameCoordinates,A281CC0B-DA72-4783-A236-2048B1716941*
G04*
G04*
G04 #@! TF.FilePolarity,Positive*
G04*
G01*
G75*
%ADD17R,0.02756X0.03543*%
%ADD18R,0.03150X0.03543*%
%ADD19R,0.03543X0.03150*%
%ADD20R,0.10236X0.04724*%
%ADD21R,0.03543X0.02756*%
%ADD22R,0.03150X0.03543*%
%ADD23R,0.05512X0.04724*%
%ADD24R,0.13228X0.19134*%
%ADD25R,0.05512X0.05472*%
%ADD26R,0.07441X0.05000*%
%ADD27R,0.00100X0.00100*%
%ADD28R,0.01063X0.05753*%
%ADD29R,0.05753X0.01063*%
%ADD30R,0.04724X0.05512*%
D17*
X157102Y118000D02*
D03*
X163007D02*
D03*
X157102Y125286D02*
D03*
X163007D02*
D03*
X157102Y132572D02*
D03*
X163007D02*
D03*
X157102Y139858D02*
D03*
X163007D02*
D03*
X157102Y147144D02*
D03*
X163007D02*
D03*
X157102Y154430D02*
D03*
X163007D02*
D03*
X157102Y161716D02*
D03*
X163007D02*
D03*
X131557Y118000D02*
D03*
X137463D02*
D03*
X131557Y125286D02*
D03*
X137463D02*
D03*
X131557Y132572D02*
D03*
X137463D02*
D03*
X131557Y139858D02*
D03*
X137463D02*
D03*
X131557Y147144D02*
D03*
X137463D02*
D03*
X131557Y154430D02*
D03*
X137463D02*
D03*
X131557Y161716D02*
D03*
X137463D02*
D03*
X18897Y71417D02*
D03*
X24803D02*
D03*
X18897Y91417D02*
D03*
X24803D02*
D03*
X18897Y111417D02*
D03*
X24803D02*
D03*
X18897Y131417D02*
D03*
X24803D02*
D03*
X545493Y167108D02*
D03*
X539587D02*
D03*
X545493Y155652D02*
D03*
X539587D02*
D03*
X545493Y137108D02*
D03*
X539587D02*
D03*
X545493Y125673D02*
D03*
X539587D02*
D03*
X287903Y170240D02*
D03*
X293809D02*
D03*
X341973Y159200D02*
D03*
X336067D02*
D03*
X278930Y113130D02*
D03*
X273025D02*
D03*
X342183Y138052D02*
D03*
X336277D02*
D03*
X342183Y116990D02*
D03*
X336277D02*
D03*
D18*
X269346Y145980D02*
D03*
X263834D02*
D03*
X263974Y153370D02*
D03*
X269486D02*
D03*
X269506Y158110D02*
D03*
X263994D02*
D03*
X301879Y173420D02*
D03*
X307391D02*
D03*
X341986Y149400D02*
D03*
X336474D02*
D03*
X342556Y143300D02*
D03*
X337044D02*
D03*
X545296Y161380D02*
D03*
X539784D02*
D03*
X545296Y131380D02*
D03*
X539784D02*
D03*
D19*
X302350Y184163D02*
D03*
Y178652D02*
D03*
D20*
X478330Y16321D02*
D03*
Y-1001D02*
D03*
X561940Y266569D02*
D03*
Y283891D02*
D03*
X391620Y266319D02*
D03*
Y283641D02*
D03*
X219450Y266569D02*
D03*
Y283891D02*
D03*
X305100Y16321D02*
D03*
Y-1001D02*
D03*
X133750Y16321D02*
D03*
Y-1001D02*
D03*
X48730Y283891D02*
D03*
Y266569D02*
D03*
D21*
X496250Y22217D02*
D03*
Y28123D02*
D03*
X488770D02*
D03*
Y22217D02*
D03*
X580890Y255952D02*
D03*
Y250046D02*
D03*
X573410Y255952D02*
D03*
Y250046D02*
D03*
X409780Y255952D02*
D03*
Y250046D02*
D03*
X402300Y255952D02*
D03*
Y250046D02*
D03*
X239000Y255952D02*
D03*
Y250046D02*
D03*
X231170Y255952D02*
D03*
Y250046D02*
D03*
X323720Y22217D02*
D03*
Y28123D02*
D03*
X316240D02*
D03*
Y22217D02*
D03*
X151192Y28123D02*
D03*
Y22217D02*
D03*
X143711D02*
D03*
Y28123D02*
D03*
X69177Y249997D02*
D03*
Y255903D02*
D03*
X61500Y249997D02*
D03*
Y255903D02*
D03*
X315392Y98139D02*
D03*
Y104045D02*
D03*
X309902Y98139D02*
D03*
Y104045D02*
D03*
D22*
X496250Y16487D02*
D03*
X488770D02*
D03*
X492510Y8613D02*
D03*
X573410Y266333D02*
D03*
X580890D02*
D03*
X577150Y274207D02*
D03*
X406610Y274094D02*
D03*
X410350Y266220D02*
D03*
X402870D02*
D03*
X235063Y274207D02*
D03*
X238803Y266333D02*
D03*
X231323D02*
D03*
X323720Y16487D02*
D03*
X316240D02*
D03*
X319980Y8613D02*
D03*
X65240Y274207D02*
D03*
X68980Y266333D02*
D03*
X61500D02*
D03*
X147452Y8613D02*
D03*
X143711Y16487D02*
D03*
X151192D02*
D03*
D23*
X261700Y105513D02*
D03*
Y98427D02*
D03*
X291796Y98084D02*
D03*
Y105171D02*
D03*
X298730Y98084D02*
D03*
Y105171D02*
D03*
X283940Y98084D02*
D03*
Y105171D02*
D03*
D24*
X272590Y89712D02*
D03*
D25*
X276212Y105389D02*
D03*
X268968D02*
D03*
D26*
X611280Y126380D02*
D03*
Y136380D02*
D03*
Y146380D02*
D03*
Y156380D02*
D03*
Y166380D02*
D03*
X556989Y126380D02*
D03*
Y136380D02*
D03*
Y146380D02*
D03*
Y156380D02*
D03*
Y166380D02*
D03*
D27*
X301683Y141005D02*
D03*
D28*
X316446Y118859D02*
D03*
X314478D02*
D03*
X312509D02*
D03*
X310541D02*
D03*
X308572D02*
D03*
X306604D02*
D03*
X304635D02*
D03*
X302667D02*
D03*
X300698D02*
D03*
X298730D02*
D03*
X296761D02*
D03*
X294793D02*
D03*
X292824D02*
D03*
X290856D02*
D03*
X288887D02*
D03*
X286919D02*
D03*
Y163150D02*
D03*
X288887D02*
D03*
X290856Y163150D02*
D03*
X292824D02*
D03*
X294793D02*
D03*
X296761D02*
D03*
X298730D02*
D03*
X300698Y163150D02*
D03*
X302667D02*
D03*
X304635Y163150D02*
D03*
X306604D02*
D03*
X308572D02*
D03*
X310541D02*
D03*
X312509D02*
D03*
X314478Y163150D02*
D03*
X316446D02*
D03*
D29*
X279537Y126241D02*
D03*
Y128209D02*
D03*
Y130178D02*
D03*
Y132146D02*
D03*
Y134115D02*
D03*
Y136083D02*
D03*
Y138052D02*
D03*
Y140020D02*
D03*
Y141989D02*
D03*
Y143957D02*
D03*
Y145926D02*
D03*
Y147894D02*
D03*
Y149863D02*
D03*
Y151831D02*
D03*
Y153800D02*
D03*
Y155768D02*
D03*
X323828D02*
D03*
Y153800D02*
D03*
X323828Y151831D02*
D03*
Y149863D02*
D03*
Y147894D02*
D03*
Y145926D02*
D03*
Y143957D02*
D03*
X323828Y141989D02*
D03*
Y140020D02*
D03*
X323828Y138052D02*
D03*
Y136083D02*
D03*
Y134115D02*
D03*
Y132146D02*
D03*
Y130178D02*
D03*
X323828Y128209D02*
D03*
Y126241D02*
D03*
D30*
X337262Y126690D02*
D03*
X344348D02*
D03*
M02*
