G04*
G04 #@! TF.GenerationSoftware,Altium Limited,Altium Designer,20.2.6 (244)*
G04*
G04 Layer_Color=32768*
%FSLAX25Y25*%
%MOIN*%
G70*
G04*
G04 #@! TF.SameCoordinates,A281CC0B-DA72-4783-A236-2048B1716941*
G04*
G04*
G04 #@! TF.FilePolarity,Positive*
G04*
G01*
G75*
%ADD14C,0.00600*%
%ADD70C,0.00394*%
%ADD71C,0.00197*%
G36*
X361645Y-11070D02*
X277345D01*
Y124241D01*
X275873D01*
Y-11120D01*
X191573D01*
Y295280D01*
X275873D01*
Y157768D01*
X277345D01*
Y295330D01*
X361645D01*
Y-11070D01*
D02*
G37*
G36*
X618960Y-10720D02*
X534660D01*
Y295680D01*
X618960D01*
Y-10720D01*
D02*
G37*
G36*
X447417Y-11030D02*
X363117D01*
Y295370D01*
X447417D01*
Y-11030D01*
D02*
G37*
G36*
X533188Y-11070D02*
X448888D01*
Y295330D01*
X533188D01*
Y-11070D01*
D02*
G37*
G36*
X190197D02*
X105897D01*
Y295330D01*
X190197D01*
Y-11070D01*
D02*
G37*
G36*
X104520Y-11120D02*
X20220D01*
Y295280D01*
X104520D01*
Y-11120D01*
D02*
G37*
D14*
X363117Y-11030D02*
X447417D01*
X363117D02*
Y295370D01*
X447417D01*
Y-11030D02*
Y295370D01*
X105897Y-11070D02*
Y295330D01*
Y-11070D02*
X190197D01*
Y295330D01*
X105897D02*
X190197D01*
X191573Y-11120D02*
X275873D01*
X191573D02*
Y295280D01*
X275873D01*
Y-11120D02*
Y295280D01*
X277345Y-11070D02*
Y295330D01*
Y-11070D02*
X361645D01*
Y295330D01*
X277345D02*
X361645D01*
X618960Y-10720D02*
Y295680D01*
X534660D02*
X618960D01*
X534660Y-10720D02*
Y295680D01*
Y-10720D02*
X618960D01*
X20220Y-11120D02*
X104520D01*
X20220D02*
Y295280D01*
X104520D01*
Y-11120D02*
Y295280D01*
X448888Y-11070D02*
Y295330D01*
Y-11070D02*
X533188D01*
Y295330D01*
X448888D02*
X533188D01*
X318446Y161690D02*
X322368D01*
X318446D02*
X318446Y167158D01*
X284919D02*
X318446D01*
X284919D02*
X284919Y161690D01*
X280997D02*
X284919D01*
X280997Y157768D02*
Y161690D01*
X275529Y157768D02*
X280997Y157768D01*
X275529Y124241D02*
Y157768D01*
Y124241D02*
X280997Y124241D01*
Y120320D02*
Y124241D01*
Y120320D02*
X284919D01*
X284919Y114851D02*
X284919Y120320D01*
X284919Y114851D02*
X318446D01*
X318446Y120320D02*
X318446Y114851D01*
X318446Y120320D02*
X322368D01*
Y124241D01*
X327836Y124241D01*
Y157768D01*
X322368Y157768D02*
X327836Y157768D01*
X322368Y157768D02*
Y161690D01*
D70*
X155330Y115834D02*
Y120165D01*
X164779D01*
X155330Y115834D02*
X164779D01*
X160055Y116130D02*
Y119870D01*
X164779Y115834D02*
Y120165D01*
X158185Y118000D02*
X161925D01*
X155330Y123120D02*
Y127451D01*
X164779D01*
X155330Y123120D02*
X164779D01*
X160055Y123416D02*
Y127156D01*
X164779Y123120D02*
Y127451D01*
X158185Y125286D02*
X161925D01*
X155330Y130406D02*
Y134737D01*
X164779D01*
X155330Y130406D02*
X164779D01*
X160055Y130702D02*
Y134442D01*
X164779Y130406D02*
Y134737D01*
X158185Y132572D02*
X161925D01*
X155330Y137693D02*
Y142023D01*
X164779D01*
X155330Y137693D02*
X164779D01*
X160055Y137988D02*
Y141728D01*
X164779Y137693D02*
Y142023D01*
X158185Y139858D02*
X161925D01*
X155330Y144979D02*
Y149309D01*
X164779D01*
X155330Y144979D02*
X164779D01*
X160055Y145274D02*
Y149014D01*
X164779Y144979D02*
Y149309D01*
X158185Y147144D02*
X161925D01*
X155330Y152265D02*
Y156596D01*
X164779D01*
X155330Y152265D02*
X164779D01*
X160055Y152560D02*
Y156300D01*
X164779Y152265D02*
Y156596D01*
X158185Y154430D02*
X161925D01*
X155330Y159551D02*
Y163882D01*
X164779D01*
X155330Y159551D02*
X164779D01*
X160055Y159846D02*
Y163586D01*
X164779Y159551D02*
Y163882D01*
X158185Y161716D02*
X161925D01*
X271314Y143815D02*
Y148145D01*
X261866Y143815D02*
Y148145D01*
Y143815D02*
X271314D01*
X261866Y148145D02*
X271314D01*
X264720Y145980D02*
X268460D01*
X266590Y144110D02*
Y147850D01*
X262006Y151205D02*
Y155535D01*
X271454Y151205D02*
Y155535D01*
X262006D02*
X271454D01*
X262006Y151205D02*
X271454D01*
X264860Y153370D02*
X268600D01*
X266730Y151500D02*
Y155240D01*
X271474Y155945D02*
Y160275D01*
X262026Y155945D02*
Y160275D01*
Y155945D02*
X271474D01*
X262026Y160275D02*
X271474D01*
X264880Y158110D02*
X268620D01*
X266750Y156240D02*
Y159980D01*
X300185Y186132D02*
X304515D01*
X300185Y176683D02*
X304515D01*
Y186132D01*
X300185Y176683D02*
Y186132D01*
X302350Y179537D02*
Y183278D01*
X300480Y181407D02*
X304220D01*
X299911Y171255D02*
Y175585D01*
X309360Y171255D02*
Y175585D01*
X299911D02*
X309360D01*
X299911Y171255D02*
X309360D01*
X302765Y173420D02*
X306505D01*
X304635Y171550D02*
Y175290D01*
X343954Y147235D02*
Y151565D01*
X334506Y147235D02*
Y151565D01*
Y147235D02*
X343954D01*
X334506Y151565D02*
X343954D01*
X337360Y149400D02*
X341100D01*
X339230Y147530D02*
Y151270D01*
X344524Y141135D02*
Y145465D01*
X335076Y141135D02*
Y145465D01*
Y141135D02*
X344524D01*
X335076Y145465D02*
X344524D01*
X337930Y143300D02*
X341670D01*
X339800Y141430D02*
Y145170D01*
X472818Y19077D02*
X483842D01*
X472818Y-3757D02*
X483842D01*
Y19077D01*
X472818Y-3757D02*
Y19077D01*
X478330Y5692D02*
Y9629D01*
X476362Y7660D02*
X480299D01*
X494085Y20446D02*
X498416D01*
X494085Y29894D02*
X498416D01*
X494085Y20446D02*
Y29894D01*
X498416Y20446D02*
Y29894D01*
X496250Y23300D02*
Y27040D01*
X494380Y25170D02*
X498120D01*
X488770Y23300D02*
Y27040D01*
X486604Y29894D02*
X490935D01*
X486900Y25170D02*
X490640D01*
X486604Y20446D02*
Y29894D01*
X490935Y20446D02*
Y29894D01*
X486604Y20446D02*
X490935D01*
X492510Y10582D02*
Y14518D01*
X490542Y12550D02*
X494479D01*
X556428Y263813D02*
X567452D01*
X556428Y286647D02*
X567452D01*
X556428Y263813D02*
Y286647D01*
X567452Y263813D02*
Y286647D01*
X561940Y273261D02*
Y277199D01*
X559972Y275230D02*
X563908D01*
X577150Y268302D02*
Y272238D01*
X575181Y270270D02*
X579118D01*
X578725Y257723D02*
X583055D01*
X578725Y248274D02*
X583055D01*
Y257723D01*
X578725Y248274D02*
Y257723D01*
X580890Y251129D02*
Y254869D01*
X579020Y252999D02*
X582760D01*
X571244Y257723D02*
X575575D01*
X571244Y248274D02*
X575575D01*
Y257723D01*
X571244Y248274D02*
Y257723D01*
X573410Y251129D02*
Y254869D01*
X571540Y252999D02*
X575280D01*
X407615Y257723D02*
X411945D01*
X407615Y248274D02*
X411945D01*
Y257723D01*
X407615Y248274D02*
Y257723D01*
X409780Y251129D02*
Y254869D01*
X407910Y252999D02*
X411650D01*
X400135Y257723D02*
X404465D01*
X400135Y248274D02*
X404465D01*
Y257723D01*
X400135Y248274D02*
Y257723D01*
X402300Y251129D02*
Y254869D01*
X400430Y252999D02*
X404170D01*
X404642Y270157D02*
X408579D01*
X406610Y268189D02*
Y272126D01*
X386108Y263563D02*
X397132D01*
X386108Y286397D02*
X397132D01*
X386108Y263563D02*
Y286397D01*
X397132Y263563D02*
Y286397D01*
X391620Y273011D02*
Y276948D01*
X389651Y274980D02*
X393588D01*
X236835Y257723D02*
X241165D01*
X236835Y248274D02*
X241165D01*
Y257723D01*
X236835Y248274D02*
Y257723D01*
X239000Y251129D02*
Y254869D01*
X237130Y252999D02*
X240870D01*
X229005Y257723D02*
X233335D01*
X229005Y248274D02*
X233335D01*
Y257723D01*
X229005Y248274D02*
Y257723D01*
X231170Y251129D02*
Y254869D01*
X229300Y252999D02*
X233040D01*
X213938Y263813D02*
X224962D01*
X213938Y286647D02*
X224962D01*
X213938Y263813D02*
Y286647D01*
X224962Y263813D02*
Y286647D01*
X219450Y273261D02*
Y277199D01*
X217481Y275230D02*
X221418D01*
X233095Y270270D02*
X237032D01*
X235063Y268302D02*
Y272238D01*
X321555Y20446D02*
X325886D01*
X321555Y29894D02*
X325886D01*
X321555Y20446D02*
Y29894D01*
X325886Y20446D02*
Y29894D01*
X323720Y23300D02*
Y27040D01*
X321850Y25170D02*
X325590D01*
X314370D02*
X318110D01*
X316240Y23300D02*
Y27040D01*
X318405Y20446D02*
Y29894D01*
X314074Y20446D02*
Y29894D01*
X318405D01*
X314074Y20446D02*
X318405D01*
X319980Y10582D02*
Y14518D01*
X318011Y12550D02*
X321949D01*
X299588Y19077D02*
X310612D01*
X299588Y-3757D02*
X310612D01*
Y19077D01*
X299588Y-3757D02*
Y19077D01*
X305100Y5692D02*
Y9629D01*
X303132Y7660D02*
X307068D01*
X149322Y25170D02*
X153062D01*
X151192Y23300D02*
Y27040D01*
X153357Y20446D02*
Y29894D01*
X149027Y20446D02*
Y29894D01*
X153357D01*
X149027Y20446D02*
X153357D01*
X141546D02*
X145877D01*
X141546Y29894D02*
X145877D01*
X141546Y20446D02*
Y29894D01*
X145877Y20446D02*
Y29894D01*
X143711Y23300D02*
Y27040D01*
X141841Y25170D02*
X145582D01*
X128238Y19077D02*
X139262D01*
X128238Y-3757D02*
X139262D01*
Y19077D01*
X128238Y-3757D02*
Y19077D01*
X133750Y5692D02*
Y9629D01*
X131781Y7660D02*
X135719D01*
X67307Y252950D02*
X71047D01*
X69177Y251080D02*
Y254820D01*
X67012Y248226D02*
Y257674D01*
X71342Y248226D02*
Y257674D01*
X67012Y248226D02*
X71342D01*
X67012Y257674D02*
X71342D01*
X59630Y252950D02*
X63370D01*
X61500Y251080D02*
Y254820D01*
X59334Y248226D02*
Y257674D01*
X63665Y248226D02*
Y257674D01*
X59334Y248226D02*
X63665D01*
X59334Y257674D02*
X63665D01*
X63271Y270270D02*
X67208D01*
X65240Y268302D02*
Y272238D01*
X259732Y101970D02*
X263668D01*
X261700Y100002D02*
Y103938D01*
X265440Y95080D02*
Y108860D01*
X257960Y95080D02*
Y108860D01*
X265440D01*
X257960Y95080D02*
X265440D01*
X145483Y12550D02*
X149420D01*
X147452Y10582D02*
Y14518D01*
X-14717Y108730D02*
X-10977D01*
X-8123Y106565D02*
Y110895D01*
X-12847Y106860D02*
Y110600D01*
X-17571Y110895D02*
X-8123D01*
X-17571Y106565D02*
X-8123D01*
X-17571D02*
Y110895D01*
X-31489Y106565D02*
Y110895D01*
X-22040D01*
X-31489Y106565D02*
X-22040D01*
X-26764Y106860D02*
Y110600D01*
X-22040Y106565D02*
Y110895D01*
X-28634Y108730D02*
X-24894D01*
X129786Y115834D02*
Y120165D01*
X139234D01*
X129786Y115834D02*
X139234D01*
X134510Y116130D02*
Y119870D01*
X139234Y115834D02*
Y120165D01*
X132640Y118000D02*
X136380D01*
X129786Y123120D02*
Y127451D01*
X139234D01*
X129786Y123120D02*
X139234D01*
X134510Y123416D02*
Y127156D01*
X139234Y123120D02*
Y127451D01*
X132640Y125286D02*
X136380D01*
X129786Y130406D02*
Y134737D01*
X139234D01*
X129786Y130406D02*
X139234D01*
X134510Y130702D02*
Y134442D01*
X139234Y130406D02*
Y134737D01*
X132640Y132572D02*
X136380D01*
X129786Y137693D02*
Y142023D01*
X139234D01*
X129786Y137693D02*
X139234D01*
X134510Y137988D02*
Y141728D01*
X139234Y137693D02*
Y142023D01*
X132640Y139858D02*
X136380D01*
X129786Y144979D02*
Y149309D01*
X139234D01*
X129786Y144979D02*
X139234D01*
X134510Y145274D02*
Y149014D01*
X139234Y144979D02*
Y149309D01*
X132640Y147144D02*
X136380D01*
X129786Y152265D02*
Y156596D01*
X139234D01*
X129786Y152265D02*
X139234D01*
X134510Y152560D02*
Y156300D01*
X139234Y152265D02*
Y156596D01*
X132640Y154430D02*
X136380D01*
X129786Y159551D02*
Y163882D01*
X139234D01*
X129786Y159551D02*
X139234D01*
X134510Y159846D02*
Y163586D01*
X139234Y159551D02*
Y163882D01*
X132640Y161716D02*
X136380D01*
X21850Y69547D02*
Y73287D01*
X19980Y71417D02*
X23720D01*
X17126Y73583D02*
X26574D01*
X17126Y69252D02*
X26574D01*
X17126D02*
Y73583D01*
X26574Y69252D02*
Y73583D01*
X21850Y89547D02*
Y93287D01*
X19980Y91417D02*
X23720D01*
X17126Y93583D02*
X26574D01*
X17126Y89252D02*
X26574D01*
X17126D02*
Y93583D01*
X26574Y89252D02*
Y93583D01*
X21850Y109547D02*
Y113287D01*
X19980Y111417D02*
X23720D01*
X17126Y113583D02*
X26574D01*
X17126Y109252D02*
X26574D01*
X17126D02*
Y113583D01*
X26574Y109252D02*
Y113583D01*
X21850Y129547D02*
Y133287D01*
X19980Y131417D02*
X23720D01*
X17126Y133583D02*
X26574D01*
X17126Y129252D02*
X26574D01*
X17126D02*
Y133583D01*
X26574Y129252D02*
Y133583D01*
X547264Y164943D02*
Y169274D01*
X537816D02*
X547264D01*
X537816Y164943D02*
X547264D01*
X542540Y165238D02*
Y168978D01*
X537816Y164943D02*
Y169274D01*
X540670Y167108D02*
X544410D01*
X547264Y153486D02*
Y157817D01*
X537816D02*
X547264D01*
X537816Y153486D02*
X547264D01*
X542540Y153782D02*
Y157522D01*
X537816Y153486D02*
Y157817D01*
X540670Y155652D02*
X544410D01*
X547264Y134943D02*
Y139274D01*
X537816D02*
X547264D01*
X537816Y134943D02*
X547264D01*
X542540Y135238D02*
Y138978D01*
X537816Y134943D02*
Y139274D01*
X540670Y137108D02*
X544410D01*
X547264Y123507D02*
Y127838D01*
X537816D02*
X547264D01*
X537816Y123507D02*
X547264D01*
X542540Y123802D02*
Y127543D01*
X537816Y123507D02*
Y127838D01*
X540670Y125673D02*
X544410D01*
X547264Y159215D02*
Y163545D01*
X537816D02*
X547264D01*
X537816Y159215D02*
X547264D01*
X537816D02*
Y163545D01*
X540670Y161380D02*
X544410D01*
X542540Y159510D02*
Y163250D01*
X547264Y129215D02*
Y133545D01*
X537816D02*
X547264D01*
X537816Y129215D02*
X547264D01*
X537816D02*
Y133545D01*
X540670Y131380D02*
X544410D01*
X542540Y129510D02*
Y133250D01*
X313227Y96367D02*
Y105816D01*
Y96367D02*
X317557D01*
X313227Y105816D02*
X317557D01*
Y96367D02*
Y105816D01*
X315392Y99222D02*
Y102962D01*
X313522Y101092D02*
X317262D01*
X307737Y96367D02*
Y105816D01*
Y96367D02*
X312067D01*
X307737Y105816D02*
X312067D01*
X309902Y99222D02*
Y102962D01*
X312067Y96367D02*
Y105816D01*
X308032Y101092D02*
X311772D01*
X288056Y94737D02*
Y108517D01*
Y94737D02*
X295536Y94737D01*
X288056Y108517D02*
X295536D01*
Y94737D02*
Y108517D01*
X289827Y101627D02*
X293764D01*
X291796Y99659D02*
Y103596D01*
X286131Y168075D02*
Y172405D01*
Y168075D02*
X295580D01*
X286131Y172405D02*
X295580D01*
X290856Y168370D02*
Y172110D01*
X295580Y168075D02*
Y172405D01*
X288986Y170240D02*
X292726D01*
X343744Y157035D02*
Y161365D01*
X334296D02*
X343744D01*
X334296Y157035D02*
X343744D01*
X339020Y157330D02*
Y161070D01*
X334296Y157035D02*
Y161365D01*
X337150Y159200D02*
X340890D01*
X280702Y110965D02*
Y115295D01*
X271253D02*
X280702D01*
X271253Y110965D02*
X280702D01*
X275978Y111260D02*
Y115000D01*
X271253Y110965D02*
Y115295D01*
X274108Y113130D02*
X277848D01*
X294990Y94737D02*
X302470Y94737D01*
X294990Y108517D02*
X302470D01*
X294990Y94737D02*
Y108517D01*
X302470Y94737D02*
Y108517D01*
X298730Y99659D02*
Y103596D01*
X296761Y101627D02*
X300698D01*
X280200Y94737D02*
X287680D01*
Y108517D01*
X280200Y94737D02*
Y108517D01*
X287680D01*
X281972Y101627D02*
X285909D01*
X283940Y99659D02*
Y103596D01*
X343954Y135887D02*
Y140217D01*
X334506D02*
X343954D01*
X334506Y135887D02*
X343954D01*
X339230Y136182D02*
Y139922D01*
X334506Y135887D02*
Y140217D01*
X337360Y138052D02*
X341100D01*
X333915Y122950D02*
Y130430D01*
Y122950D02*
X347695D01*
X333915Y130430D02*
X347695D01*
Y122950D02*
Y130430D01*
X340805Y124722D02*
Y128658D01*
X338836Y126690D02*
X342773D01*
X343954Y114825D02*
Y119155D01*
X334506D02*
X343954D01*
X334506Y114825D02*
X343954D01*
X339230Y115120D02*
Y118860D01*
X334506Y114825D02*
Y119155D01*
X337360Y116990D02*
X341100D01*
X46762Y275230D02*
X50699D01*
X48730Y273261D02*
Y277199D01*
X54242Y263813D02*
Y286647D01*
X43218Y263813D02*
Y286647D01*
X54242D01*
X43218Y263813D02*
X54242D01*
D71*
X485620Y20129D02*
X499400D01*
X485620Y4971D02*
X499400D01*
Y20129D01*
X485620Y4971D02*
Y20129D01*
X570260Y262691D02*
X584040D01*
X570260Y277849D02*
X584040D01*
X570260Y262691D02*
Y277849D01*
X584040Y262691D02*
Y277849D01*
X413500Y262578D02*
Y277736D01*
X399720Y262578D02*
Y277736D01*
X413500D01*
X399720Y262578D02*
X413500D01*
X241953Y262691D02*
Y277849D01*
X228173Y262691D02*
Y277849D01*
X241953D01*
X228173Y262691D02*
X241953D01*
X313090Y20129D02*
X326870D01*
X313090Y4971D02*
X326870D01*
Y20129D01*
X313090Y4971D02*
Y20129D01*
X72130Y262691D02*
Y277849D01*
X58350Y262691D02*
Y277849D01*
X72130D01*
X58350Y262691D02*
X72130D01*
X140562Y4971D02*
Y20129D01*
X154341Y4971D02*
Y20129D01*
X140562Y4971D02*
X154341D01*
X140562Y20129D02*
X154341D01*
M02*
