G04*
G04 #@! TF.GenerationSoftware,Altium Limited,Altium Designer,20.0.11 (256)*
G04*
G04 Layer_Physical_Order=2*
G04 Layer_Color=16711680*
%FSLAX25Y25*%
%MOIN*%
G70*
G01*
G75*
%ADD10C,0.01000*%
%ADD19R,0.02756X0.03543*%
%ADD28R,0.03543X0.02756*%
%ADD54C,0.03500*%
%ADD55C,0.01200*%
%ADD57C,0.03000*%
%ADD59C,0.05000*%
%ADD61C,0.29134*%
%ADD62C,0.05906*%
%ADD63R,0.05906X0.05906*%
%ADD64C,0.10000*%
%ADD65C,0.05500*%
%ADD66C,0.07047*%
%ADD67R,0.07047X0.07047*%
%ADD69C,0.01987*%
%ADD70C,0.05000*%
%ADD71R,0.06693X0.06693*%
%ADD72R,0.10039X0.03937*%
%ADD73R,0.13504X0.05000*%
G04:AMPARAMS|DCode=74|XSize=83.66mil|YSize=433.07mil|CornerRadius=41.83mil|HoleSize=0mil|Usage=FLASHONLY|Rotation=90.000|XOffset=0mil|YOffset=0mil|HoleType=Round|Shape=RoundedRectangle|*
%AMROUNDEDRECTD74*
21,1,0.08366,0.34941,0,0,90.0*
21,1,0.00000,0.43307,0,0,90.0*
1,1,0.08366,0.17471,0.00000*
1,1,0.08366,0.17471,0.00000*
1,1,0.08366,-0.17471,0.00000*
1,1,0.08366,-0.17471,0.00000*
%
%ADD74ROUNDEDRECTD74*%
G04:AMPARAMS|DCode=75|XSize=88.58mil|YSize=433.07mil|CornerRadius=44.29mil|HoleSize=0mil|Usage=FLASHONLY|Rotation=270.000|XOffset=0mil|YOffset=0mil|HoleType=Round|Shape=RoundedRectangle|*
%AMROUNDEDRECTD75*
21,1,0.08858,0.34449,0,0,270.0*
21,1,0.00000,0.43307,0,0,270.0*
1,1,0.08858,-0.17224,0.00000*
1,1,0.08858,-0.17224,0.00000*
1,1,0.08858,0.17224,0.00000*
1,1,0.08858,0.17224,0.00000*
%
%ADD75ROUNDEDRECTD75*%
G36*
X278290Y182222D02*
X325402Y182222D01*
X325402Y182222D01*
X325402Y182222D01*
X326066Y182222D01*
X327368Y181963D01*
X328594Y181456D01*
X329697Y180718D01*
X330636Y179780D01*
X331373Y178676D01*
X331881Y177450D01*
X332140Y176148D01*
X332140Y175485D01*
X332140Y-14010D01*
X332140Y-14010D01*
X332140Y-14491D01*
X331952Y-15436D01*
X331584Y-16325D01*
X331049Y-17126D01*
X330368Y-17807D01*
X329951Y-18085D01*
X257429Y-18085D01*
X256844Y-17694D01*
X256093Y-16944D01*
X255503Y-16061D01*
X255097Y-15080D01*
X254890Y-14039D01*
X254890Y-13508D01*
X254890Y45390D01*
X254890Y45390D01*
X254890Y45390D01*
X254890Y45903D01*
X255090Y46909D01*
X255483Y47857D01*
X256053Y48710D01*
X256778Y49436D01*
X257631Y50006D01*
X258579Y50399D01*
X259586Y50599D01*
X260099Y50599D01*
X265067Y50599D01*
X265538Y50599D01*
X265538Y50599D01*
X265538Y50599D01*
X266206Y50632D01*
X267514Y50892D01*
X268747Y51403D01*
X269857Y52144D01*
X270801Y53087D01*
X271542Y54197D01*
X272053Y55430D01*
X272313Y56739D01*
X272346Y57406D01*
X272360Y149722D01*
X272360Y175821D01*
X272360Y176292D01*
X272360Y176292D01*
Y176292D01*
X272360Y176292D01*
X272360Y176876D01*
X272588Y178022D01*
X273035Y179101D01*
X273684Y180073D01*
X274510Y180899D01*
X275481Y181548D01*
X276560Y181995D01*
X277706Y182222D01*
X278290Y182222D01*
D02*
G37*
D10*
X336850Y45929D02*
X336874Y45904D01*
X336850Y45929D02*
Y61628D01*
X242163Y54046D02*
X242361D01*
X242160Y54049D02*
X242163Y54046D01*
X242050Y117879D02*
X242160Y117769D01*
Y54049D02*
Y117769D01*
X222667Y116279D02*
Y116291D01*
X337820Y140660D02*
Y147914D01*
X349282Y159375D01*
X363972D01*
X209461Y152834D02*
Y159581D01*
X209420Y159622D02*
X209461Y159581D01*
X363972Y159375D02*
X364016Y159419D01*
X209460Y152832D02*
X209461Y152834D01*
X150390Y133029D02*
X153940Y136579D01*
X163320D01*
X120486Y145817D02*
X139090Y127212D01*
Y125499D02*
Y127212D01*
X185875Y75874D02*
X186005D01*
X176280Y85469D02*
Y163339D01*
Y85469D02*
X185875Y75874D01*
X174110Y83409D02*
X183825Y73694D01*
X174110Y83409D02*
Y161149D01*
X123370Y27172D02*
X123650Y27452D01*
Y59162D01*
X180990Y90289D02*
X190705Y80574D01*
X178580Y88053D02*
X188382Y78251D01*
X180990Y90289D02*
Y168029D01*
X178580Y88053D02*
Y165793D01*
X198580Y163290D02*
X198769Y163479D01*
Y165381D01*
X198850Y165462D01*
X203361Y86478D02*
Y120321D01*
X203140Y120542D02*
X203361Y120321D01*
X190200Y157722D02*
X191540Y156382D01*
X328090Y169419D02*
X352520D01*
X327980Y169529D02*
X328090Y169419D01*
X270118Y158902D02*
X270220Y159004D01*
Y183359D01*
X136430Y187479D02*
X136510Y187559D01*
X136430Y174019D02*
Y187479D01*
X161102Y158200D02*
Y182992D01*
Y158200D02*
X164240Y155062D01*
X294527Y224856D02*
X344978D01*
X256880Y187209D02*
X294527Y224856D01*
X287274Y205963D02*
X347526D01*
X271180Y189869D02*
X287274Y205963D01*
X313511Y198195D02*
X313814D01*
X313920Y198089D02*
X347526D01*
X313814Y198195D02*
X313920Y198089D01*
X347526Y205963D02*
X360874D01*
X370364Y215453D02*
Y224786D01*
X360874Y205963D02*
X370364Y215453D01*
X336874Y24821D02*
Y45904D01*
X336850Y61628D02*
X336874Y61652D01*
X342780Y74538D02*
Y119749D01*
X348268Y149419D02*
X352520D01*
X346268Y147419D02*
X348268Y149419D01*
X346268Y143707D02*
Y147419D01*
X334854Y132292D02*
X346268Y143707D01*
X358268Y79581D02*
Y79779D01*
Y79581D02*
X363310Y74538D01*
X358268Y59779D02*
X363310Y64821D01*
Y74538D01*
X358268Y59701D02*
Y59779D01*
Y59701D02*
X364360Y53609D01*
X358268Y39779D02*
X364360Y45871D01*
Y53609D01*
X358268Y19779D02*
X363310Y24821D01*
X358268Y39779D02*
X363310Y34737D01*
Y24821D02*
Y34737D01*
X330950Y19779D02*
X358268D01*
X330390Y20339D02*
X330950Y19779D01*
X152360Y181739D02*
X152511Y181588D01*
X152360Y181739D02*
Y189799D01*
X57138Y188052D02*
X72750D01*
X-13636Y142535D02*
X54380Y74519D01*
X58570D01*
X-13636Y142535D02*
Y214716D01*
X24696Y130869D02*
X24798D01*
X58351Y94525D02*
Y97316D01*
X22390Y133175D02*
X24696Y130869D01*
X-6350Y157309D02*
Y214716D01*
Y157309D02*
X17783Y133175D01*
X22390D01*
X24798Y130869D02*
X58351Y97316D01*
X58640Y115209D02*
Y118639D01*
X24957Y152322D02*
X58640Y118639D01*
X936Y176204D02*
Y214716D01*
Y176204D02*
X24818Y152322D01*
X24957D01*
X8222Y182907D02*
X58050Y133079D01*
X8222Y182907D02*
Y214716D01*
X15508Y201395D02*
Y214716D01*
Y201395D02*
X63615Y153288D01*
X22794Y214716D02*
X23188D01*
X24066Y213838D01*
Y211183D02*
Y213838D01*
Y211183D02*
X62260Y172989D01*
X30474Y214716D02*
X57138Y188052D01*
X30080Y214716D02*
X30474D01*
X-13636Y220622D02*
X-13530Y220728D01*
Y225219D01*
X-6350Y220622D02*
Y224799D01*
X936Y220622D02*
X1185Y220871D01*
Y224780D01*
X8222Y220622D02*
Y224799D01*
X15440Y220690D02*
X15508Y220622D01*
X15440Y220690D02*
Y224799D01*
X22700Y220716D02*
X22794Y220622D01*
X22700Y220716D02*
Y224789D01*
X30080Y220622D02*
X30280Y220822D01*
Y225039D01*
X170190Y179342D02*
Y188052D01*
X171670Y189532D01*
Y189799D01*
X190200Y157722D02*
Y183269D01*
X195490Y165942D02*
Y184862D01*
Y165942D02*
X195500Y165932D01*
X143125Y192072D02*
X143375Y191822D01*
X364431Y224759D02*
X364458Y224786D01*
X350981Y224759D02*
X364431D01*
X350884Y224856D02*
X350981Y224759D01*
X70405Y171099D02*
X72611Y168893D01*
X72450Y184022D02*
X72750Y183722D01*
X70405Y167612D02*
X70482Y167535D01*
X211850Y88642D02*
X212050D01*
X220370Y163512D02*
Y178602D01*
X219610Y135912D02*
X222669Y132854D01*
X219610Y135912D02*
Y139592D01*
X220350Y113197D02*
Y130312D01*
X220223Y113069D02*
X220350Y113197D01*
X222669Y116292D02*
Y132854D01*
X222667Y116291D02*
X222669Y116292D01*
X261930Y147832D02*
Y155142D01*
Y147682D02*
Y147832D01*
X215845Y183152D02*
X215895Y183102D01*
X198850Y165462D02*
Y175592D01*
X146530Y166192D02*
X152360Y160362D01*
X223610Y134862D02*
Y142422D01*
Y134862D02*
X226140Y132332D01*
X223610Y154212D02*
X224460Y155062D01*
X223610Y142422D02*
Y154212D01*
X208790Y109162D02*
Y125052D01*
X211850Y88642D02*
Y139522D01*
X205880Y96462D02*
Y123742D01*
X205860Y96442D02*
X205880Y96462D01*
D19*
X350884Y224856D02*
D03*
X344978D02*
D03*
X370364Y224786D02*
D03*
X364458D02*
D03*
D28*
X-13636Y214716D02*
D03*
Y220622D02*
D03*
X-6350Y214716D02*
D03*
Y220622D02*
D03*
X936Y214716D02*
D03*
Y220622D02*
D03*
X8222Y214716D02*
D03*
Y220622D02*
D03*
X15508Y214716D02*
D03*
Y220622D02*
D03*
X30080Y214716D02*
D03*
Y220622D02*
D03*
X22794Y214716D02*
D03*
Y220622D02*
D03*
D54*
X215750Y113172D02*
Y113792D01*
X126440Y72792D02*
Y103442D01*
X126020Y72372D02*
X126440Y72792D01*
X126020Y72129D02*
Y72372D01*
X63615Y132592D02*
X63621Y132599D01*
X247135Y104952D02*
Y209349D01*
X283431Y250779D02*
X288565D01*
X247135Y209349D02*
X281183Y243396D01*
Y248531D02*
X283431Y250779D01*
X281183Y243396D02*
Y248531D01*
X63615Y29897D02*
Y132592D01*
Y29897D02*
X64100Y29412D01*
X215845Y-8221D02*
Y92877D01*
Y183152D02*
Y250779D01*
Y113888D02*
Y183152D01*
X143125Y192072D02*
Y250779D01*
Y153288D02*
Y192072D01*
X215750Y113792D02*
X215845Y113888D01*
D55*
X183825Y99599D02*
X183830Y99594D01*
X183825Y99599D02*
Y125499D01*
X187418Y97070D02*
Y115560D01*
X197460Y84886D02*
Y115872D01*
X189710Y87059D02*
X191056Y88405D01*
Y117068D01*
X191070Y117082D01*
X195260Y88642D02*
Y115022D01*
X120284Y64649D02*
Y79337D01*
X120286Y84886D02*
Y99637D01*
X194634Y115648D02*
X195260Y115022D01*
X146180Y133932D02*
X152020Y128092D01*
X120300Y166202D02*
Y180832D01*
X158810Y122272D02*
X158940Y122143D01*
Y108529D02*
Y122143D01*
X130104Y108348D02*
Y117468D01*
X152020Y128092D02*
X154950D01*
X152129Y164172D02*
X152169Y164132D01*
X152129Y164172D02*
Y178062D01*
X120416Y105148D02*
Y119916D01*
X120594Y125467D02*
Y140236D01*
X120486Y145817D02*
Y160536D01*
D57*
X72611Y168893D02*
X89211D01*
D59*
X70405Y171099D02*
Y181378D01*
Y167612D02*
Y171099D01*
Y181378D02*
X72750Y183722D01*
X70405Y167612D02*
X70405Y-8221D01*
D61*
X358268Y244094D02*
D03*
Y0D02*
D03*
X0D02*
D03*
Y244094D02*
D03*
D62*
X357768Y69779D02*
D03*
Y79779D02*
D03*
Y89779D02*
D03*
Y59779D02*
D03*
Y49779D02*
D03*
Y39779D02*
D03*
Y29779D02*
D03*
Y119779D02*
D03*
Y129779D02*
D03*
Y139779D02*
D03*
Y109779D02*
D03*
Y99779D02*
D03*
D63*
Y19779D02*
D03*
D64*
X21260Y183919D02*
D03*
Y85519D02*
D03*
D65*
X26291Y156294D02*
D03*
X16291Y150900D02*
D03*
X26291Y145506D02*
D03*
X16291Y140113D02*
D03*
X26291Y134719D02*
D03*
X16291Y129325D02*
D03*
X26291Y123932D02*
D03*
X16291Y118538D02*
D03*
X26291Y113144D02*
D03*
D66*
X33330Y53679D02*
D03*
Y24649D02*
D03*
D67*
Y63679D02*
D03*
Y34649D02*
D03*
D69*
X328827Y145359D02*
D03*
X326268Y48115D02*
D03*
X328827Y42997D02*
D03*
X326268Y37879D02*
D03*
X328827Y32761D02*
D03*
X326268Y27643D02*
D03*
X328827Y22524D02*
D03*
X326268Y17406D02*
D03*
X328827Y12288D02*
D03*
X326268Y7170D02*
D03*
X328827Y2052D02*
D03*
X326268Y-3066D02*
D03*
X328827Y-8184D02*
D03*
X326268Y-13302D02*
D03*
X323709Y145359D02*
D03*
X321150Y48115D02*
D03*
X323709Y42997D02*
D03*
X321150Y37879D02*
D03*
X323709Y32761D02*
D03*
Y22524D02*
D03*
X321150Y17406D02*
D03*
X323709Y12288D02*
D03*
X321150Y7170D02*
D03*
X323709Y2052D02*
D03*
X321150Y-3066D02*
D03*
X323709Y-8184D02*
D03*
X321150Y-13302D02*
D03*
X318591Y145359D02*
D03*
X316032Y48115D02*
D03*
X318591Y42997D02*
D03*
X316032Y37879D02*
D03*
X318591Y32761D02*
D03*
X316032Y27643D02*
D03*
X318591Y22524D02*
D03*
X316032Y17406D02*
D03*
X318591Y12288D02*
D03*
X316032Y7170D02*
D03*
X318591Y2052D02*
D03*
X316032Y-3066D02*
D03*
X318591Y-8184D02*
D03*
X316032Y-13302D02*
D03*
X310914Y170950D02*
D03*
Y160713D02*
D03*
Y150477D02*
D03*
X313473Y145359D02*
D03*
X310914Y48115D02*
D03*
X313473Y42997D02*
D03*
X310914Y37879D02*
D03*
X313473Y32761D02*
D03*
X310914Y27643D02*
D03*
X313473Y22524D02*
D03*
Y12288D02*
D03*
Y2052D02*
D03*
Y-8184D02*
D03*
X308355Y176068D02*
D03*
X305796Y170950D02*
D03*
X308355Y165832D02*
D03*
X305796Y160713D02*
D03*
X308355Y155595D02*
D03*
X305796Y150477D02*
D03*
X308355Y145359D02*
D03*
X305796Y48115D02*
D03*
X308355Y42997D02*
D03*
X305796Y37879D02*
D03*
X308355Y32761D02*
D03*
X303237Y176068D02*
D03*
X300677Y170950D02*
D03*
X303237Y165832D02*
D03*
X300677Y160713D02*
D03*
X303237Y155595D02*
D03*
X300677Y150477D02*
D03*
X303237Y145359D02*
D03*
X300677Y48115D02*
D03*
X303237Y42997D02*
D03*
X300677Y37879D02*
D03*
X298118Y176068D02*
D03*
X295559Y170950D02*
D03*
X298118Y165832D02*
D03*
X295559Y160713D02*
D03*
X298118Y155595D02*
D03*
X295559Y150477D02*
D03*
X298118Y145359D02*
D03*
X295559Y48115D02*
D03*
X298118Y42997D02*
D03*
X295559Y37879D02*
D03*
X293000Y176068D02*
D03*
Y155595D02*
D03*
X290441Y150477D02*
D03*
X293000Y145359D02*
D03*
X290441Y48115D02*
D03*
X293000Y42997D02*
D03*
X290441Y37879D02*
D03*
X293000Y32761D02*
D03*
X290441Y27643D02*
D03*
X287882Y176068D02*
D03*
Y155595D02*
D03*
X285323Y150477D02*
D03*
X287882Y145359D02*
D03*
X285323Y48115D02*
D03*
X287882Y42997D02*
D03*
X285323Y37879D02*
D03*
X287882Y32761D02*
D03*
X285323Y27643D02*
D03*
X282764Y176068D02*
D03*
X280205Y170950D02*
D03*
Y160713D02*
D03*
X282764Y155595D02*
D03*
X280205Y150477D02*
D03*
X282764Y145359D02*
D03*
X280205Y48115D02*
D03*
X282764Y42997D02*
D03*
X280205Y37879D02*
D03*
X282764Y32761D02*
D03*
X280205Y27643D02*
D03*
X277646Y176068D02*
D03*
X275087Y170950D02*
D03*
X277646Y165832D02*
D03*
X275087Y160713D02*
D03*
X277646Y155595D02*
D03*
X275087Y150477D02*
D03*
X277646Y145359D02*
D03*
X275087Y48115D02*
D03*
X277646Y42997D02*
D03*
X275087Y37879D02*
D03*
X277646Y32761D02*
D03*
X275087Y27643D02*
D03*
X269969Y48115D02*
D03*
X272528Y42997D02*
D03*
X269969Y37879D02*
D03*
X272528Y32761D02*
D03*
X269969Y27643D02*
D03*
X264851Y48115D02*
D03*
X267410Y42997D02*
D03*
X264851Y37879D02*
D03*
Y27643D02*
D03*
X267410Y22524D02*
D03*
X264851Y17406D02*
D03*
Y7170D02*
D03*
Y-3066D02*
D03*
Y-13302D02*
D03*
X259733Y48115D02*
D03*
X262292Y42997D02*
D03*
X259733Y37879D02*
D03*
X262292Y32761D02*
D03*
X259733Y27643D02*
D03*
X262292Y22524D02*
D03*
X259733Y17406D02*
D03*
X262292Y12288D02*
D03*
X259733Y7170D02*
D03*
X262292Y2052D02*
D03*
X259733Y-3066D02*
D03*
X262292Y-8184D02*
D03*
X259733Y-13302D02*
D03*
X336850Y45929D02*
D03*
X286090Y56140D02*
D03*
X242361Y54046D02*
D03*
X242050Y117879D02*
D03*
X222667Y116279D02*
D03*
X337820Y140660D02*
D03*
X183825Y125499D02*
D03*
X183830Y99594D02*
D03*
X187418Y115560D02*
D03*
X163320Y136579D02*
D03*
X150390Y133029D02*
D03*
X139090Y125499D02*
D03*
X123650Y59162D02*
D03*
X197460Y84886D02*
D03*
X190705Y80574D02*
D03*
X188382Y78251D02*
D03*
X183825Y73694D02*
D03*
X186005Y75874D02*
D03*
X178580Y165793D02*
D03*
X180990Y168029D02*
D03*
X176280Y163339D02*
D03*
X174110Y161149D02*
D03*
X187418Y97070D02*
D03*
X198580Y163290D02*
D03*
X203361Y86478D02*
D03*
X197460Y115872D02*
D03*
X195260Y88642D02*
D03*
X120284Y79337D02*
D03*
X120286Y84886D02*
D03*
X189710Y87059D02*
D03*
X191540Y156382D02*
D03*
X270220Y183359D02*
D03*
X270118Y158902D02*
D03*
X136430Y174019D02*
D03*
X136510Y187559D02*
D03*
X161102Y182992D02*
D03*
X256880Y187209D02*
D03*
X271180Y189869D02*
D03*
X313511Y198195D02*
D03*
X336874Y24821D02*
D03*
Y61652D02*
D03*
X342780Y74538D02*
D03*
Y119749D02*
D03*
X152360Y189799D02*
D03*
X152511Y181588D02*
D03*
X72750Y188052D02*
D03*
X58570Y74519D02*
D03*
X58351Y94525D02*
D03*
X58640Y115209D02*
D03*
X58050Y133079D02*
D03*
X63615Y153288D02*
D03*
X62260Y172989D02*
D03*
X-13530Y225219D02*
D03*
X-6350Y224799D02*
D03*
X1185Y224780D02*
D03*
X8222Y224799D02*
D03*
X15440D02*
D03*
X22700Y224789D02*
D03*
X30280Y225039D02*
D03*
X171670Y189799D02*
D03*
X190200Y183269D02*
D03*
X334854Y132292D02*
D03*
X267311Y32864D02*
D03*
X89211Y168893D02*
D03*
X120284Y64649D02*
D03*
X274235Y166492D02*
D03*
X320390Y26702D02*
D03*
X123370Y27172D02*
D03*
X212050Y88642D02*
D03*
X220370Y178602D02*
D03*
Y163512D02*
D03*
X219610Y139592D02*
D03*
X220350Y130312D02*
D03*
X261930Y147832D02*
D03*
Y155142D02*
D03*
X146180Y133932D02*
D03*
X198850Y175592D02*
D03*
X195500Y165932D02*
D03*
X195490Y184862D02*
D03*
X152360Y160362D02*
D03*
X146530Y166192D02*
D03*
X120300Y180832D02*
D03*
X170190Y179342D02*
D03*
X158940Y108529D02*
D03*
X130104Y108348D02*
D03*
X209420Y159622D02*
D03*
X209460Y152832D02*
D03*
X226140Y132332D02*
D03*
X224460Y155062D02*
D03*
X223610Y142422D02*
D03*
X220223Y113069D02*
D03*
X208790Y109162D02*
D03*
Y125052D02*
D03*
X211850Y139522D02*
D03*
X194634Y115648D02*
D03*
X191070Y117082D02*
D03*
X205880Y123742D02*
D03*
X205860Y96442D02*
D03*
X203140Y120542D02*
D03*
X158810Y122272D02*
D03*
X152169Y164132D02*
D03*
X152129Y178062D02*
D03*
X164240Y155062D02*
D03*
X130104Y117468D02*
D03*
X154950Y128092D02*
D03*
X120286Y99637D02*
D03*
X120416Y119916D02*
D03*
X120594Y125467D02*
D03*
X120416Y105148D02*
D03*
X120594Y140236D02*
D03*
X120486Y145817D02*
D03*
Y160536D02*
D03*
X120300Y166202D02*
D03*
D70*
X215750Y113172D02*
D03*
X126020Y72129D02*
D03*
X63621Y132599D02*
D03*
X72750Y183722D02*
D03*
X215845Y92877D02*
D03*
X126440Y103442D02*
D03*
X247135Y104952D02*
D03*
X143125Y153288D02*
D03*
X64100Y29412D02*
D03*
D71*
X361207Y178798D02*
D03*
Y217380D02*
D03*
D72*
X347526Y190215D02*
D03*
Y198089D02*
D03*
Y205963D02*
D03*
D73*
X352520Y149419D02*
D03*
X364016Y159419D02*
D03*
X352520Y169419D02*
D03*
D74*
X288565Y250779D02*
D03*
X215845D02*
D03*
X143125D02*
D03*
X70405D02*
D03*
D75*
X288565Y-8221D02*
D03*
X215845D02*
D03*
X143125D02*
D03*
X70405D02*
D03*
M02*
