G04*
G04 #@! TF.GenerationSoftware,Altium Limited,Altium Designer,20.2.6 (244)*
G04*
G04 Layer_Color=8388736*
%FSLAX25Y25*%
%MOIN*%
G70*
G04*
G04 #@! TF.SameCoordinates,A281CC0B-DA72-4783-A236-2048B1716941*
G04*
G04*
G04 #@! TF.FilePolarity,Negative*
G04*
G01*
G75*
%ADD28R,0.01063X0.05753*%
%ADD29R,0.05753X0.01063*%
%ADD31R,0.03556X0.04343*%
%ADD32R,0.03950X0.04343*%
%ADD33R,0.04343X0.03950*%
%ADD34R,0.11036X0.05524*%
%ADD35R,0.04343X0.03556*%
%ADD36R,0.03950X0.04343*%
%ADD37R,0.06312X0.05524*%
%ADD38R,0.14028X0.19934*%
%ADD39R,0.06312X0.06272*%
%ADD40R,0.08241X0.05800*%
%ADD41R,0.22598X0.22598*%
%ADD42R,0.05524X0.06312*%
%ADD43C,0.09000*%
%ADD44C,0.15800*%
%ADD45C,0.11200*%
%ADD46C,0.10800*%
%ADD47C,0.06300*%
%ADD48C,0.08200*%
%ADD49C,0.29934*%
%ADD50C,0.06706*%
%ADD51R,0.06706X0.06706*%
D28*
X316446Y118859D02*
D03*
X314478D02*
D03*
X312509D02*
D03*
X310541D02*
D03*
X308572D02*
D03*
X306604D02*
D03*
X304635D02*
D03*
X302667D02*
D03*
X300698D02*
D03*
X298730D02*
D03*
X296761D02*
D03*
X294793D02*
D03*
X292824D02*
D03*
X290856D02*
D03*
X288887D02*
D03*
X286919D02*
D03*
Y163150D02*
D03*
X288887D02*
D03*
X290856Y163150D02*
D03*
X292824D02*
D03*
X294793D02*
D03*
X296761D02*
D03*
X298730D02*
D03*
X300698Y163150D02*
D03*
X302667D02*
D03*
X304635Y163150D02*
D03*
X306604D02*
D03*
X308572D02*
D03*
X310541D02*
D03*
X312509D02*
D03*
X314478Y163150D02*
D03*
X316446D02*
D03*
D29*
X279537Y126241D02*
D03*
Y128209D02*
D03*
Y130178D02*
D03*
Y132146D02*
D03*
Y134115D02*
D03*
Y136083D02*
D03*
Y138052D02*
D03*
Y140020D02*
D03*
Y141989D02*
D03*
Y143957D02*
D03*
Y145926D02*
D03*
Y147894D02*
D03*
Y149863D02*
D03*
Y151831D02*
D03*
Y153800D02*
D03*
Y155768D02*
D03*
X323828D02*
D03*
Y153800D02*
D03*
X323828Y151831D02*
D03*
Y149863D02*
D03*
Y147894D02*
D03*
Y145926D02*
D03*
Y143957D02*
D03*
X323828Y141989D02*
D03*
Y140020D02*
D03*
X323828Y138052D02*
D03*
Y136083D02*
D03*
Y134115D02*
D03*
Y132146D02*
D03*
Y130178D02*
D03*
X323828Y128209D02*
D03*
Y126241D02*
D03*
D31*
X157102Y118000D02*
D03*
X163007D02*
D03*
X157102Y125286D02*
D03*
X163007D02*
D03*
X157102Y132572D02*
D03*
X163007D02*
D03*
X157102Y139858D02*
D03*
X163007D02*
D03*
X157102Y147144D02*
D03*
X163007D02*
D03*
X157102Y154430D02*
D03*
X163007D02*
D03*
X157102Y161716D02*
D03*
X163007D02*
D03*
X131557Y118000D02*
D03*
X137463D02*
D03*
X131557Y125286D02*
D03*
X137463D02*
D03*
X131557Y132572D02*
D03*
X137463D02*
D03*
X131557Y139858D02*
D03*
X137463D02*
D03*
X131557Y147144D02*
D03*
X137463D02*
D03*
X131557Y154430D02*
D03*
X137463D02*
D03*
X131557Y161716D02*
D03*
X137463D02*
D03*
X18897Y71417D02*
D03*
X24803D02*
D03*
X18897Y91417D02*
D03*
X24803D02*
D03*
X18897Y111417D02*
D03*
X24803D02*
D03*
X18897Y131417D02*
D03*
X24803D02*
D03*
X545493Y167108D02*
D03*
X539587D02*
D03*
X545493Y155652D02*
D03*
X539587D02*
D03*
X545493Y137108D02*
D03*
X539587D02*
D03*
X545493Y125673D02*
D03*
X539587D02*
D03*
X287903Y170240D02*
D03*
X293809D02*
D03*
X341973Y159200D02*
D03*
X336067D02*
D03*
X278930Y113130D02*
D03*
X273025D02*
D03*
X342183Y138052D02*
D03*
X336277D02*
D03*
X342183Y116990D02*
D03*
X336277D02*
D03*
D32*
X269346Y145980D02*
D03*
X263834D02*
D03*
X263974Y153370D02*
D03*
X269486D02*
D03*
X269506Y158110D02*
D03*
X263994D02*
D03*
X301879Y173420D02*
D03*
X307391D02*
D03*
X341986Y149400D02*
D03*
X336474D02*
D03*
X342556Y143300D02*
D03*
X337044D02*
D03*
X545296Y161380D02*
D03*
X539784D02*
D03*
X545296Y131380D02*
D03*
X539784D02*
D03*
D33*
X302350Y184163D02*
D03*
Y178652D02*
D03*
D34*
X478330Y16321D02*
D03*
Y-1001D02*
D03*
X561940Y266569D02*
D03*
Y283891D02*
D03*
X391620Y266319D02*
D03*
Y283641D02*
D03*
X219450Y266569D02*
D03*
Y283891D02*
D03*
X305100Y16321D02*
D03*
Y-1001D02*
D03*
X133750Y16321D02*
D03*
Y-1001D02*
D03*
X48730Y283891D02*
D03*
Y266569D02*
D03*
D35*
X496250Y22217D02*
D03*
Y28123D02*
D03*
X488770D02*
D03*
Y22217D02*
D03*
X580890Y255952D02*
D03*
Y250046D02*
D03*
X573410Y255952D02*
D03*
Y250046D02*
D03*
X409780Y255952D02*
D03*
Y250046D02*
D03*
X402300Y255952D02*
D03*
Y250046D02*
D03*
X239000Y255952D02*
D03*
Y250046D02*
D03*
X231170Y255952D02*
D03*
Y250046D02*
D03*
X323720Y22217D02*
D03*
Y28123D02*
D03*
X316240D02*
D03*
Y22217D02*
D03*
X151192Y28123D02*
D03*
Y22217D02*
D03*
X143711D02*
D03*
Y28123D02*
D03*
X69177Y249997D02*
D03*
Y255903D02*
D03*
X61500Y249997D02*
D03*
Y255903D02*
D03*
X315392Y98139D02*
D03*
Y104045D02*
D03*
X309902Y98139D02*
D03*
Y104045D02*
D03*
D36*
X496250Y16487D02*
D03*
X488770D02*
D03*
X492510Y8613D02*
D03*
X573410Y266333D02*
D03*
X580890D02*
D03*
X577150Y274207D02*
D03*
X406610Y274094D02*
D03*
X410350Y266220D02*
D03*
X402870D02*
D03*
X235063Y274207D02*
D03*
X238803Y266333D02*
D03*
X231323D02*
D03*
X323720Y16487D02*
D03*
X316240D02*
D03*
X319980Y8613D02*
D03*
X65240Y274207D02*
D03*
X68980Y266333D02*
D03*
X61500D02*
D03*
X147452Y8613D02*
D03*
X143711Y16487D02*
D03*
X151192D02*
D03*
D37*
X261700Y105513D02*
D03*
Y98427D02*
D03*
X291796Y98084D02*
D03*
Y105171D02*
D03*
X298730Y98084D02*
D03*
Y105171D02*
D03*
X283940Y98084D02*
D03*
Y105171D02*
D03*
D38*
X272590Y89712D02*
D03*
D39*
X276212Y105389D02*
D03*
X268968D02*
D03*
D40*
X611280Y126380D02*
D03*
Y136380D02*
D03*
Y146380D02*
D03*
Y156380D02*
D03*
Y166380D02*
D03*
X556989Y126380D02*
D03*
Y136380D02*
D03*
Y146380D02*
D03*
Y156380D02*
D03*
Y166380D02*
D03*
D41*
X301683Y141005D02*
D03*
D42*
X337262Y126690D02*
D03*
X344348D02*
D03*
D43*
X405767Y-80D02*
D03*
Y284420D02*
D03*
X147547Y-120D02*
D03*
Y284380D02*
D03*
X234223Y-170D02*
D03*
Y284330D02*
D03*
X318995Y-120D02*
D03*
Y284380D02*
D03*
X62870Y-170D02*
D03*
Y284330D02*
D03*
D44*
X436767Y251420D02*
D03*
X374767Y33920D02*
D03*
X178547Y250380D02*
D03*
X116547Y32880D02*
D03*
X265223Y251330D02*
D03*
X203223Y33830D02*
D03*
X349995Y250380D02*
D03*
X287995Y32880D02*
D03*
X546310Y34230D02*
D03*
X608310Y251730D02*
D03*
X93870Y251330D02*
D03*
X31870Y33830D02*
D03*
X521538Y250380D02*
D03*
X459538Y32880D02*
D03*
D45*
X374767Y284420D02*
D03*
X178547Y-120D02*
D03*
X203223Y284330D02*
D03*
X349995Y-120D02*
D03*
X546310Y284730D02*
D03*
X31870Y284330D02*
D03*
X521538Y-120D02*
D03*
D46*
X635251Y36301D02*
D03*
Y134701D02*
D03*
Y160551D02*
D03*
Y258951D02*
D03*
X600Y159210D02*
D03*
Y257610D02*
D03*
D47*
X630220Y63926D02*
D03*
X640220Y69320D02*
D03*
X630220Y74714D02*
D03*
X640220Y80107D02*
D03*
X630220Y85501D02*
D03*
X640220Y90895D02*
D03*
X630220Y96289D02*
D03*
X640220Y101682D02*
D03*
X630220Y107076D02*
D03*
Y188176D02*
D03*
X640220Y193570D02*
D03*
X630220Y198964D02*
D03*
X640220Y204357D02*
D03*
X630220Y209751D02*
D03*
X640220Y215145D02*
D03*
X630220Y220538D02*
D03*
X640220Y225932D02*
D03*
X630220Y231326D02*
D03*
X5631Y186835D02*
D03*
X-4369Y192229D02*
D03*
X5631Y197623D02*
D03*
X-4369Y203016D02*
D03*
X5631Y208410D02*
D03*
X-4369Y213804D02*
D03*
X5631Y219197D02*
D03*
X-4369Y224591D02*
D03*
X5631Y229985D02*
D03*
D48*
X577310Y284730D02*
D03*
Y230D02*
D03*
X490538Y-120D02*
D03*
Y284380D02*
D03*
D49*
X0Y289340D02*
D03*
Y0D02*
D03*
X648700D02*
D03*
Y289340D02*
D03*
D50*
X8579Y61417D02*
D03*
Y51417D02*
D03*
Y21417D02*
D03*
Y31417D02*
D03*
Y41417D02*
D03*
Y131417D02*
D03*
Y121417D02*
D03*
Y111417D02*
D03*
Y101417D02*
D03*
Y71417D02*
D03*
Y81417D02*
D03*
Y91417D02*
D03*
D51*
Y141417D02*
D03*
M02*
