G04*
G04 #@! TF.GenerationSoftware,Altium Limited,Altium Designer,20.0.11 (256)*
G04*
G04 Layer_Color=16711935*
%FSLAX25Y25*%
%MOIN*%
G70*
G01*
G75*
%ADD34R,0.03556X0.04343*%
%ADD41R,0.04343X0.03556*%
%ADD45C,0.29934*%
%ADD46C,0.06706*%
%ADD47R,0.06706X0.06706*%
%ADD48C,0.10800*%
%ADD49C,0.06300*%
%ADD50C,0.07847*%
%ADD51R,0.07847X0.07847*%
G04:AMPARAMS|DCode=52|XSize=8mil|YSize=8mil|CornerRadius=0mil|HoleSize=0mil|Usage=FLASHONLY|Rotation=90.000|XOffset=0mil|YOffset=0mil|HoleType=Round|Shape=RoundedRectangle|*
%AMROUNDEDRECTD52*
21,1,0.00800,0.00800,0,0,90.0*
21,1,0.00800,0.00800,0,0,90.0*
1,1,0.00000,0.00400,0.00400*
1,1,0.00000,0.00400,-0.00400*
1,1,0.00000,-0.00400,-0.00400*
1,1,0.00000,-0.00400,0.00400*
%
%ADD52ROUNDEDRECTD52*%
%ADD76R,0.07493X0.07493*%
%ADD77R,0.10839X0.04737*%
%ADD78R,0.14304X0.05800*%
G04:AMPARAMS|DCode=79|XSize=91.66mil|YSize=441.07mil|CornerRadius=45.83mil|HoleSize=0mil|Usage=FLASHONLY|Rotation=90.000|XOffset=0mil|YOffset=0mil|HoleType=Round|Shape=RoundedRectangle|*
%AMROUNDEDRECTD79*
21,1,0.09166,0.34941,0,0,90.0*
21,1,0.00000,0.44107,0,0,90.0*
1,1,0.09166,0.17471,0.00000*
1,1,0.09166,0.17471,0.00000*
1,1,0.09166,-0.17471,0.00000*
1,1,0.09166,-0.17471,0.00000*
%
%ADD79ROUNDEDRECTD79*%
G04:AMPARAMS|DCode=80|XSize=96.58mil|YSize=441.07mil|CornerRadius=48.29mil|HoleSize=0mil|Usage=FLASHONLY|Rotation=270.000|XOffset=0mil|YOffset=0mil|HoleType=Round|Shape=RoundedRectangle|*
%AMROUNDEDRECTD80*
21,1,0.09658,0.34449,0,0,270.0*
21,1,0.00000,0.44107,0,0,270.0*
1,1,0.09658,-0.17224,0.00000*
1,1,0.09658,-0.17224,0.00000*
1,1,0.09658,0.17224,0.00000*
1,1,0.09658,0.17224,0.00000*
%
%ADD80ROUNDEDRECTD80*%
G36*
X345567Y152120D02*
Y146718D01*
X359472D01*
Y152120D01*
X345567D01*
D02*
G37*
G36*
Y172120D02*
Y166718D01*
X359472D01*
Y172120D01*
X345567D01*
D02*
G37*
G36*
X357063Y162120D02*
Y156718D01*
X370969D01*
Y162120D01*
X357063D01*
D02*
G37*
D34*
X350884Y224856D02*
D03*
X344978D02*
D03*
X370364Y224786D02*
D03*
X364458D02*
D03*
D41*
X-13636Y214716D02*
D03*
Y220622D02*
D03*
X-6350Y214716D02*
D03*
Y220622D02*
D03*
X936Y214716D02*
D03*
Y220622D02*
D03*
X8222Y214716D02*
D03*
Y220622D02*
D03*
X15508Y214716D02*
D03*
Y220622D02*
D03*
X30080Y214716D02*
D03*
Y220622D02*
D03*
X22794Y214716D02*
D03*
Y220622D02*
D03*
D45*
X358268Y244094D02*
D03*
Y0D02*
D03*
X0D02*
D03*
Y244094D02*
D03*
D46*
X357768Y69779D02*
D03*
Y79779D02*
D03*
Y89779D02*
D03*
Y59779D02*
D03*
Y49779D02*
D03*
Y39779D02*
D03*
Y29779D02*
D03*
Y119779D02*
D03*
Y129779D02*
D03*
Y139779D02*
D03*
Y109779D02*
D03*
Y99779D02*
D03*
D47*
Y19779D02*
D03*
D48*
X21260Y183919D02*
D03*
Y85519D02*
D03*
D49*
X26291Y156294D02*
D03*
X16291Y150900D02*
D03*
X26291Y145506D02*
D03*
X16291Y140113D02*
D03*
X26291Y134719D02*
D03*
X16291Y129325D02*
D03*
X26291Y123932D02*
D03*
X16291Y118538D02*
D03*
X26291Y113144D02*
D03*
D50*
X33330Y53679D02*
D03*
Y24649D02*
D03*
D51*
Y63679D02*
D03*
Y34649D02*
D03*
D52*
X288565Y4559D02*
D03*
Y238000D02*
D03*
X215845Y4559D02*
D03*
Y238000D02*
D03*
X143125Y4559D02*
D03*
Y238000D02*
D03*
X70405Y4559D02*
D03*
Y238000D02*
D03*
D76*
X361207Y178798D02*
D03*
Y217380D02*
D03*
D77*
X347526Y190215D02*
D03*
Y198089D02*
D03*
Y205963D02*
D03*
D78*
X352520Y149419D02*
D03*
X364016Y159419D02*
D03*
X352520Y169419D02*
D03*
D79*
X288565Y250779D02*
D03*
X215845D02*
D03*
X143125D02*
D03*
X70405D02*
D03*
D80*
X288565Y-8221D02*
D03*
X215845D02*
D03*
X143125D02*
D03*
X70405D02*
D03*
M02*
