G04*
G04 #@! TF.GenerationSoftware,Altium Limited,Altium Designer,20.2.6 (244)*
G04*
G04 Layer_Color=32896*
%FSLAX25Y25*%
%MOIN*%
G70*
G04*
G04 #@! TF.SameCoordinates,A281CC0B-DA72-4783-A236-2048B1716941*
G04*
G04*
G04 #@! TF.FilePolarity,Positive*
G04*
G01*
G75*
%ADD10C,0.02000*%
%ADD12C,0.01000*%
%ADD13C,0.00787*%
%ADD14C,0.00600*%
%ADD15C,0.00500*%
D10*
X407267Y-13030D02*
G03*
X407267Y-13030I-1500J0D01*
G01*
X149047Y297330D02*
G03*
X149047Y297330I-1500J0D01*
G01*
X320495D02*
G03*
X320495Y297330I-1500J0D01*
G01*
X235723Y-13120D02*
G03*
X235723Y-13120I-1500J0D01*
G01*
X578810Y-12720D02*
G03*
X578810Y-12720I-1500J0D01*
G01*
X64370Y-13120D02*
G03*
X64370Y-13120I-1500J0D01*
G01*
X492038Y297330D02*
G03*
X492038Y297330I-1500J0D01*
G01*
D12*
X3078Y17417D02*
X14078D01*
X3078Y145417D02*
X14078D01*
X3078Y126417D02*
X14078D01*
X2578Y106417D02*
X13578D01*
X3078Y86417D02*
X14078D01*
X3078Y66417D02*
X14078D01*
X451458Y300214D02*
X456705D01*
X454081Y297590D02*
Y302838D01*
X280218Y300014D02*
X285465D01*
X282841Y297390D02*
Y302638D01*
X107328Y299734D02*
X112575D01*
X109951Y297110D02*
Y302358D01*
X366424Y300887D02*
X371671D01*
X22794D02*
X28041D01*
X539030Y299790D02*
X544278D01*
X194694Y300717D02*
X199941D01*
X537358Y-14226D02*
X542605D01*
X539981Y-16850D02*
Y-11602D01*
X451033Y-15630D02*
X456281D01*
X365168Y-14226D02*
X370415D01*
X367791Y-16850D02*
Y-11602D01*
X280863Y-15630D02*
X286111D01*
X109400D02*
X114648D01*
X23450Y-14226D02*
X28698D01*
X26074Y-16850D02*
Y-11602D01*
X194658Y-14226D02*
X199905D01*
X197281Y-16850D02*
Y-11602D01*
D13*
X-13634Y110108D02*
X-12060D01*
X-13634Y107352D02*
X-12060D01*
X-27552Y110108D02*
X-25977D01*
X-27552Y107352D02*
X-25977D01*
D14*
X363617Y-10530D02*
Y294870D01*
X446917D01*
Y-10530D02*
Y294870D01*
X363617Y-10530D02*
X446917D01*
X106397Y294830D02*
X189697D01*
X106397Y-10570D02*
Y294830D01*
Y-10570D02*
X189697D01*
Y294830D01*
X192073Y-10620D02*
Y294780D01*
X275373D01*
Y-10620D02*
Y294780D01*
X192073Y-10620D02*
X275373D01*
X680712Y51601D02*
X704512D01*
Y119102D01*
X680712D02*
X704512D01*
X680712Y51601D02*
Y119102D01*
X621612Y24002D02*
X681712D01*
Y146702D01*
X621612D02*
X681712D01*
X621612Y24002D02*
Y146702D01*
X681712Y141802D02*
X704512D01*
Y127302D02*
Y141802D01*
X681712Y127302D02*
X704512D01*
X681712Y43402D02*
X704512D01*
Y28901D02*
Y43402D01*
X681712Y28901D02*
X704512D01*
X277845Y294830D02*
X361145D01*
X277845Y-10570D02*
Y294830D01*
Y-10570D02*
X361145D01*
Y294830D01*
X535160Y-10220D02*
X618460D01*
Y295180D01*
X535160D02*
X618460D01*
X535160Y-10220D02*
Y295180D01*
X20720Y-10620D02*
Y294780D01*
X104020D01*
Y-10620D02*
Y294780D01*
X20720Y-10620D02*
X104020D01*
X680712Y175852D02*
X704512D01*
Y243352D01*
X680712D02*
X704512D01*
X680712Y175852D02*
Y243352D01*
X621612Y148251D02*
X681712D01*
Y270952D01*
X621612D02*
X681712D01*
X621612Y148251D02*
Y270952D01*
X681712Y266052D02*
X704512D01*
Y251552D02*
Y266052D01*
X681712Y251552D02*
X704512D01*
X681712Y167651D02*
X704512D01*
Y153152D02*
Y167651D01*
X681712Y153152D02*
X704512D01*
X449388Y294830D02*
X532688D01*
X449388Y-10570D02*
Y294830D01*
Y-10570D02*
X532688D01*
Y294830D01*
X-68661Y265010D02*
X-45861D01*
X-68661Y250510D02*
Y265010D01*
Y250510D02*
X-45861D01*
X-68661Y166610D02*
X-45861D01*
X-68661Y152110D02*
Y166610D01*
Y152110D02*
X-45861D01*
X14239Y147210D02*
Y269910D01*
X-45861Y147210D02*
X14239D01*
X-45861D02*
Y269910D01*
X14239D01*
X-44861Y174810D02*
Y242310D01*
X-68661Y174810D02*
X-44861D01*
X-68661D02*
Y242310D01*
X-44861D01*
D15*
X-40406Y79219D02*
X-32532D01*
X-40406Y73313D02*
Y79219D01*
Y73313D02*
X-32532D01*
X-22690Y56384D02*
X-16784D01*
Y66226D01*
X-32532Y81187D02*
Y97919D01*
Y79219D02*
Y81187D01*
Y73313D02*
Y79219D01*
Y56581D02*
Y73313D01*
X438536Y302050D02*
Y299550D01*
X437286D01*
X436869Y299967D01*
Y300383D01*
X437286Y300800D01*
X438536D01*
X437286D01*
X436869Y301217D01*
Y301633D01*
X437286Y302050D01*
X438536D01*
X436036D02*
X434370D01*
X435203D01*
Y299550D01*
X431871Y302050D02*
X433537D01*
Y300800D01*
X432704Y301217D01*
X432288D01*
X431871Y300800D01*
Y299967D01*
X432288Y299550D01*
X433121D01*
X433537Y299967D01*
X181432Y301940D02*
Y299440D01*
X180183D01*
X179766Y299857D01*
Y300273D01*
X180183Y300690D01*
X181432D01*
X180183D01*
X179766Y301107D01*
Y301523D01*
X180183Y301940D01*
X181432D01*
X178933D02*
X177267D01*
X178100D01*
Y299440D01*
X174768D02*
X176434D01*
X174768Y301107D01*
Y301523D01*
X175184Y301940D01*
X176017D01*
X176434Y301523D01*
X-1174Y131176D02*
Y132009D01*
Y131593D01*
X1325D01*
X909Y131176D01*
X909Y90602D02*
X1325Y91019D01*
Y91852D01*
X909Y92268D01*
X492D01*
X76Y91852D01*
Y91435D01*
Y91852D01*
X-341Y92268D01*
X-757D01*
X-1174Y91852D01*
Y91019D01*
X-757Y90602D01*
X1325Y52558D02*
X909Y51725D01*
X76Y50892D01*
X-757D01*
X-1174Y51309D01*
Y52142D01*
X-757Y52558D01*
X-341D01*
X76Y52142D01*
Y50892D01*
X-757Y20852D02*
X-1174Y21269D01*
Y22102D01*
X-757Y22518D01*
X909D01*
X1325Y22102D01*
Y21269D01*
X909Y20852D01*
X492D01*
X76Y21269D01*
Y22518D01*
X173449Y250268D02*
X170950D01*
Y251517D01*
X171366Y251934D01*
X171783D01*
X172199Y251517D01*
Y250268D01*
Y251517D01*
X172616Y251934D01*
X173032D01*
X173449Y251517D01*
Y250268D01*
Y254433D02*
X173032Y253600D01*
X172199Y252767D01*
X171366D01*
X170950Y253184D01*
Y254016D01*
X171366Y254433D01*
X171783D01*
X172199Y254016D01*
Y252767D01*
X181023Y250268D02*
X178524D01*
Y251517D01*
X178940Y251934D01*
X179357D01*
X179773Y251517D01*
Y250268D01*
Y251517D01*
X180190Y251934D01*
X180606D01*
X181023Y251517D01*
Y250268D01*
Y252767D02*
Y254433D01*
X180606D01*
X178940Y252767D01*
X178524D01*
X909Y139502D02*
X1325Y139086D01*
Y138253D01*
X909Y137836D01*
X-757D01*
X-1174Y138253D01*
Y139086D01*
X-757Y139502D01*
X76D01*
Y138669D01*
X-1174Y140335D02*
X1325D01*
X-1174Y142001D01*
X1325D01*
Y142834D02*
X-1174D01*
Y144084D01*
X-757Y144501D01*
X909D01*
X1325Y144084D01*
Y142834D01*
X909Y100339D02*
X1325Y99923D01*
Y99089D01*
X909Y98673D01*
X-757D01*
X-1174Y99089D01*
Y99923D01*
X-757Y100339D01*
X76D01*
Y99506D01*
X-1174Y101172D02*
X1325D01*
X-1174Y102838D01*
X1325D01*
Y103671D02*
X-1174D01*
Y104921D01*
X-757Y105338D01*
X909D01*
X1325Y104921D01*
Y103671D01*
X-1174Y112192D02*
Y110526D01*
X492Y112192D01*
X909D01*
X1325Y111776D01*
Y110943D01*
X909Y110526D01*
Y80170D02*
X1325Y79754D01*
Y78921D01*
X909Y78504D01*
X-757D01*
X-1174Y78921D01*
Y79754D01*
X-757Y80170D01*
X76D01*
Y79337D01*
X-1174Y81003D02*
X1325D01*
X-1174Y82669D01*
X1325D01*
Y83503D02*
X-1174D01*
Y84752D01*
X-757Y85169D01*
X909D01*
X1325Y84752D01*
Y83503D01*
X-1174Y72462D02*
X1325D01*
X76Y71212D01*
Y72878D01*
X1325Y41092D02*
Y42758D01*
X909D01*
X-757Y41092D01*
X-1174D01*
X909Y30652D02*
X1325Y31069D01*
Y31902D01*
X909Y32318D01*
X492D01*
X76Y31902D01*
X-341Y32318D01*
X-757D01*
X-1174Y31902D01*
Y31069D01*
X-757Y30652D01*
X-341D01*
X76Y31069D01*
X492Y30652D01*
X909D01*
X76Y31069D02*
Y31902D01*
X-10280Y106019D02*
X-9447D01*
X-9030Y105603D01*
Y103937D01*
X-9447Y103520D01*
X-10280D01*
X-10696Y103937D01*
Y105603D01*
X-10280Y106019D01*
X-11529Y103520D02*
Y105186D01*
X-12779D01*
X-13195Y104770D01*
Y103520D01*
X909Y120599D02*
X1325Y120183D01*
Y119350D01*
X909Y118933D01*
X-757D01*
X-1174Y119350D01*
Y120183D01*
X-757Y120599D01*
X76D01*
Y119766D01*
X-1174Y121432D02*
X1325D01*
X-1174Y123098D01*
X1325D01*
Y123931D02*
X-1174D01*
Y125181D01*
X-757Y125598D01*
X909D01*
X1325Y125181D01*
Y123931D01*
Y62638D02*
Y60972D01*
X76D01*
X492Y61805D01*
Y62222D01*
X76Y62638D01*
X-757D01*
X-1174Y62222D01*
Y61389D01*
X-757Y60972D01*
X632664Y17050D02*
Y19550D01*
X631414D01*
X630998Y19133D01*
Y18300D01*
X631414Y17884D01*
X632664D01*
X630165Y17050D02*
X629332D01*
X629748D01*
Y19550D01*
X630165Y19133D01*
X628082D02*
X627666Y19550D01*
X626832D01*
X626416Y19133D01*
Y17467D01*
X626832Y17050D01*
X627666D01*
X628082Y17467D01*
Y19133D01*
X631407Y274950D02*
Y277450D01*
X630158D01*
X629741Y277033D01*
Y276200D01*
X630158Y275783D01*
X631407D01*
X628908Y274950D02*
X628075D01*
X628492D01*
Y277450D01*
X628908Y277033D01*
X626826Y274950D02*
X625992D01*
X626409D01*
Y277450D01*
X626826Y277033D01*
X-18697Y274720D02*
Y277220D01*
X-19947D01*
X-20364Y276803D01*
Y275970D01*
X-19947Y275553D01*
X-18697D01*
X-21196Y275137D02*
X-21613Y274720D01*
X-22446D01*
X-22863Y275137D01*
Y276803D01*
X-22446Y277220D01*
X-21613D01*
X-21196Y276803D01*
Y276386D01*
X-21613Y275970D01*
X-22863D01*
X94566Y301630D02*
Y299130D01*
X93316D01*
X92900Y299547D01*
Y299963D01*
X93316Y300380D01*
X94566D01*
X93316D01*
X92900Y300797D01*
Y301213D01*
X93316Y301630D01*
X94566D01*
X92067D02*
X90400D01*
X91233D01*
Y299130D01*
X89567D02*
X88734D01*
X89151D01*
Y301630D01*
X89567Y301213D01*
X267509Y302300D02*
Y299800D01*
X266259D01*
X265843Y300217D01*
Y300634D01*
X266259Y301050D01*
X267509D01*
X266259D01*
X265843Y301466D01*
Y301883D01*
X266259Y302300D01*
X267509D01*
X265010D02*
X263344D01*
X264177D01*
Y299800D01*
X262510Y301883D02*
X262094Y302300D01*
X261261D01*
X260844Y301883D01*
Y301466D01*
X261261Y301050D01*
X261678D01*
X261261D01*
X260844Y300634D01*
Y300217D01*
X261261Y299800D01*
X262094D01*
X262510Y300217D01*
X349472Y303070D02*
Y300570D01*
X348223D01*
X347806Y300987D01*
Y301403D01*
X348223Y301820D01*
X349472D01*
X348223D01*
X347806Y302237D01*
Y302653D01*
X348223Y303070D01*
X349472D01*
X346973D02*
X345307D01*
X346140D01*
Y300570D01*
X343224D02*
Y303070D01*
X344474Y301820D01*
X342808D01*
X523879Y302730D02*
Y300230D01*
X522629D01*
X522213Y300647D01*
Y301063D01*
X522629Y301480D01*
X523879D01*
X522629D01*
X522213Y301897D01*
Y302313D01*
X522629Y302730D01*
X523879D01*
X521380D02*
X519714D01*
X520547D01*
Y300230D01*
X517214Y302730D02*
X518048Y302313D01*
X518881Y301480D01*
Y300647D01*
X518464Y300230D01*
X517631D01*
X517214Y300647D01*
Y301063D01*
X517631Y301480D01*
X518881D01*
X611592Y302360D02*
Y299860D01*
X610343D01*
X609926Y300277D01*
Y300693D01*
X610343Y301110D01*
X611592D01*
X610343D01*
X609926Y301526D01*
Y301943D01*
X610343Y302360D01*
X611592D01*
X609093D02*
X607427D01*
X608260D01*
Y299860D01*
X606594Y302360D02*
X604928D01*
Y301943D01*
X606594Y300277D01*
Y299860D01*
X13633Y13390D02*
Y15890D01*
X12383D01*
X11966Y15473D01*
Y14640D01*
X12383Y14223D01*
X13633D01*
X11134Y15473D02*
X10717Y15890D01*
X9884D01*
X9467Y15473D01*
Y15056D01*
X9884Y14640D01*
X9467Y14223D01*
Y13807D01*
X9884Y13390D01*
X10717D01*
X11134Y13807D01*
Y14223D01*
X10717Y14640D01*
X11134Y15056D01*
Y15473D01*
X10717Y14640D02*
X9884D01*
X-22710Y112100D02*
Y114599D01*
X-23960D01*
X-24376Y114183D01*
Y113350D01*
X-23960Y112933D01*
X-22710D01*
X-23543D02*
X-24376Y112100D01*
X-26875D02*
X-25209D01*
X-26875Y113766D01*
Y114183D01*
X-26459Y114599D01*
X-25626D01*
X-25209Y114183D01*
X-27708Y112100D02*
X-28541D01*
X-28125D01*
Y114599D01*
X-27708Y114183D01*
X-29106Y52783D02*
X-28690Y53199D01*
X-27856D01*
X-27440Y52783D01*
Y52366D01*
X-27856Y51950D01*
X-28690D01*
X-29106Y51533D01*
Y51117D01*
X-28690Y50700D01*
X-27856D01*
X-27440Y51117D01*
X-31605Y50700D02*
X-29939D01*
X-31605Y52366D01*
Y52783D01*
X-31189Y53199D01*
X-30356D01*
X-29939Y52783D01*
X-8960Y114529D02*
Y112030D01*
X-10210D01*
X-10626Y112446D01*
Y114113D01*
X-10210Y114529D01*
X-8960D01*
X-13125D02*
X-11459D01*
Y113280D01*
X-12292Y113696D01*
X-12709D01*
X-13125Y113280D01*
Y112446D01*
X-12709Y112030D01*
X-11876D01*
X-11459Y112446D01*
X-29326Y18663D02*
X-28910Y19079D01*
X-28076D01*
X-27660Y18663D01*
Y18246D01*
X-28076Y17830D01*
X-28910D01*
X-29326Y17413D01*
Y16996D01*
X-28910Y16580D01*
X-28076D01*
X-27660Y16996D01*
X-30159Y16580D02*
X-30992D01*
X-30576D01*
Y19079D01*
X-30159Y18663D01*
M02*
