G04*
G04 #@! TF.GenerationSoftware,Altium Limited,Altium Designer,20.2.6 (244)*
G04*
G04 Layer_Physical_Order=4*
G04 Layer_Color=16711680*
%FSLAX25Y25*%
%MOIN*%
G70*
G04*
G04 #@! TF.SameCoordinates,A281CC0B-DA72-4783-A236-2048B1716941*
G04*
G04*
G04 #@! TF.FilePolarity,Positive*
G04*
G01*
G75*
%ADD12C,0.01000*%
%ADD17R,0.02756X0.03543*%
%ADD48C,0.08200*%
%ADD53C,0.01200*%
%ADD55C,0.15000*%
%ADD56C,0.10400*%
%ADD57C,0.10000*%
%ADD58C,0.05500*%
%ADD59C,0.29134*%
%ADD60C,0.05906*%
%ADD61R,0.05906X0.05906*%
%ADD62C,0.01987*%
%ADD63R,0.10039X0.03937*%
%ADD64R,0.06693X0.06693*%
%ADD65R,0.13504X0.05000*%
G36*
X417146Y298600D02*
X417146Y265285D01*
X308496D01*
X308496Y298600D01*
X417146Y298600D01*
D02*
G37*
G36*
X588156Y299340D02*
X588156Y265025D01*
X479506D01*
X479506Y299340D01*
X588156Y299340D01*
D02*
G37*
G36*
X246170Y298110D02*
X246170Y273716D01*
X246105Y273390D01*
X246170Y273064D01*
X246170Y264620D01*
X137520D01*
X137520Y298110D01*
X246170Y298110D01*
D02*
G37*
G36*
X328067Y-10892D02*
X222447D01*
X222447Y13698D01*
X312401Y13698D01*
X312481Y13448D01*
X312484Y13198D01*
X312021Y12889D01*
X311669Y12362D01*
X311545Y11740D01*
X311669Y11118D01*
X312021Y10591D01*
X312548Y10239D01*
X313170Y10115D01*
X313792Y10239D01*
X314319Y10591D01*
X314671Y11118D01*
X314795Y11740D01*
X314671Y12362D01*
X314319Y12889D01*
X313856Y13198D01*
X313859Y13448D01*
X313939Y13698D01*
X328067D01*
X328067Y-10892D01*
D02*
G37*
G36*
X499997Y-10632D02*
X394377D01*
X394377Y13958D01*
X499997Y13958D01*
X499997Y-10632D01*
D02*
G37*
G36*
X157155Y-11140D02*
X51535D01*
X51535Y13450D01*
X157155Y13450D01*
X157155Y-11140D01*
D02*
G37*
%LPC*%
G36*
X374767Y290248D02*
X373630Y290136D01*
X372536Y289804D01*
X371529Y289266D01*
X370646Y288541D01*
X369921Y287658D01*
X369382Y286650D01*
X369051Y285557D01*
X368939Y284420D01*
X369051Y283283D01*
X369382Y282190D01*
X369921Y281182D01*
X370646Y280299D01*
X371529Y279574D01*
X372536Y279036D01*
X373630Y278704D01*
X374767Y278592D01*
X375904Y278704D01*
X376997Y279036D01*
X378005Y279574D01*
X378888Y280299D01*
X379612Y281182D01*
X380151Y282190D01*
X380483Y283283D01*
X380595Y284420D01*
X380483Y285557D01*
X380151Y286650D01*
X379612Y287658D01*
X378888Y288541D01*
X378005Y289266D01*
X376997Y289804D01*
X375904Y290136D01*
X374767Y290248D01*
D02*
G37*
G36*
X546310Y290558D02*
X545173Y290446D01*
X544080Y290114D01*
X543072Y289576D01*
X542189Y288851D01*
X541464Y287968D01*
X540926Y286960D01*
X540594Y285867D01*
X540482Y284730D01*
X540594Y283593D01*
X540926Y282500D01*
X541464Y281492D01*
X542189Y280609D01*
X543072Y279884D01*
X544080Y279346D01*
X545173Y279014D01*
X546310Y278902D01*
X547447Y279014D01*
X548540Y279346D01*
X549548Y279884D01*
X550431Y280609D01*
X551156Y281492D01*
X551694Y282500D01*
X552026Y283593D01*
X552138Y284730D01*
X552026Y285867D01*
X551694Y286960D01*
X551156Y287968D01*
X550431Y288851D01*
X549548Y289576D01*
X548540Y290114D01*
X547447Y290446D01*
X546310Y290558D01*
D02*
G37*
G36*
X203223Y290158D02*
X202086Y290046D01*
X200993Y289714D01*
X199985Y289176D01*
X199102Y288451D01*
X198378Y287568D01*
X197839Y286560D01*
X197507Y285467D01*
X197395Y284330D01*
X197507Y283193D01*
X197839Y282100D01*
X198378Y281092D01*
X199102Y280209D01*
X199985Y279484D01*
X200993Y278946D01*
X202086Y278614D01*
X203223Y278502D01*
X204360Y278614D01*
X205454Y278946D01*
X206461Y279484D01*
X207344Y280209D01*
X208069Y281092D01*
X208608Y282100D01*
X208939Y283193D01*
X209051Y284330D01*
X208939Y285467D01*
X208608Y286560D01*
X208069Y287568D01*
X207344Y288451D01*
X206461Y289176D01*
X205454Y289714D01*
X204360Y290046D01*
X203223Y290158D01*
D02*
G37*
%LPD*%
D12*
X387278Y251660D02*
X392628Y257010D01*
X385920Y251660D02*
X387278D01*
X182801Y149323D02*
X183068D01*
X321750Y156360D02*
X416390Y251000D01*
X313780Y157960D02*
X440200Y284380D01*
X223880Y157960D02*
X313780D01*
X217930Y163910D02*
X223880Y157960D01*
X218100Y156360D02*
X321750D01*
X217930Y156530D02*
X218100Y156360D01*
X231960Y238730D02*
X372990D01*
X385920Y251660D01*
X440200Y284380D02*
X490538D01*
X181640Y188410D02*
X231960Y238730D01*
X174930Y142800D02*
Y154600D01*
X276250Y41480D02*
X355044D01*
X174930Y142800D02*
X276250Y41480D01*
X181640Y150053D02*
Y188410D01*
X167202Y138066D02*
X288578Y16690D01*
X167202Y138066D02*
Y139669D01*
X288578Y16690D02*
X293080D01*
X169654Y183754D02*
X247730Y261830D01*
X169654Y137876D02*
Y183754D01*
X247730Y261830D02*
Y273390D01*
X169654Y137876D02*
X170085D01*
X171068Y136894D01*
X171335D01*
X167013Y139858D02*
X167202Y139669D01*
X-4260Y77250D02*
X-4030Y77480D01*
X-13536Y77250D02*
X-4260D01*
X-13536Y69376D02*
Y72844D01*
X-19656Y74826D02*
Y98575D01*
X-14527Y73835D02*
X-13536Y72844D01*
X-19656Y98575D02*
X-9894Y108336D01*
Y108730D01*
X-18665Y73835D02*
X-14527D01*
X-19656Y74826D02*
X-18665Y73835D01*
X355044Y41480D02*
X379774Y16750D01*
X465780D01*
X181640Y150053D02*
X182071D01*
X182801Y149323D01*
D17*
X-9894Y108730D02*
D03*
X-15800D02*
D03*
X-29717D02*
D03*
X-23812D02*
D03*
D48*
X405767Y-80D02*
D03*
Y284420D02*
D03*
X147547Y-120D02*
D03*
Y284380D02*
D03*
X234223Y-170D02*
D03*
Y284330D02*
D03*
X318995Y-120D02*
D03*
Y284380D02*
D03*
X577310Y284730D02*
D03*
Y230D02*
D03*
X62870Y-170D02*
D03*
Y284330D02*
D03*
X490538Y-120D02*
D03*
Y284380D02*
D03*
D53*
X147800Y19727D02*
Y106073D01*
X147547Y19473D02*
X147800Y19727D01*
X-9894Y108418D02*
Y108730D01*
Y108418D02*
X-9116Y107640D01*
X-2990D01*
X129256Y131734D02*
Y280209D01*
X133427Y284380D02*
X147547D01*
X129256Y280209D02*
X133427Y284380D01*
X125247Y1703D02*
X127070Y-120D01*
X147547D01*
X125247Y1703D02*
Y36484D01*
X302350Y131132D02*
X304544Y128939D01*
X302350Y131132D02*
Y154030D01*
X304544Y78596D02*
Y128939D01*
Y78596D02*
X318120Y65020D01*
X298470Y78260D02*
Y153900D01*
X298340Y154030D02*
X298470Y153900D01*
X318530Y123504D02*
X434704D01*
X434888Y123320D01*
X550850D01*
X293050Y123990D02*
X293060Y123980D01*
X313500Y124640D02*
X319310Y130450D01*
X492220Y36960D02*
X496250Y32930D01*
X492220Y36960D02*
Y116230D01*
X346353Y159420D02*
Y174983D01*
X346220Y149400D02*
Y159200D01*
X346440Y159420D01*
X321476Y147510D02*
X345008D01*
X348414Y148969D02*
X379850Y180405D01*
X345311Y147206D02*
X347129D01*
X348414Y148491D01*
X345008Y147510D02*
X345311Y147206D01*
X348414Y148491D02*
Y148969D01*
X304410Y168143D02*
X304807D01*
X386624Y249960D01*
X346353Y159420D02*
X346440D01*
X318120Y144154D02*
X321476Y147510D01*
X332836Y145316D02*
X351846D01*
X386420Y179890D01*
X346353Y174983D02*
X416560Y245190D01*
X379850Y180405D02*
Y185490D01*
X386420Y179890D02*
X505490D01*
X487630Y33764D02*
X488794Y32600D01*
X487630Y33764D02*
Y117040D01*
X550850Y123320D02*
X564630Y137100D01*
X319310Y130450D02*
X538297D01*
X310609Y126241D02*
X317058Y132690D01*
X531170D01*
X564800Y166320D01*
X538297Y130450D02*
X564567Y156720D01*
X267278Y163520D02*
X283420D01*
X263527Y167271D02*
X267278Y163520D01*
X249170Y231640D02*
X271300Y209510D01*
Y166930D02*
Y209510D01*
X562600Y244080D02*
X563180D01*
X562250Y243730D02*
X562600Y244080D01*
X559830Y243730D02*
X562250D01*
X503730Y187630D02*
X559830Y243730D01*
X381990Y187630D02*
X503730D01*
X379850Y185490D02*
X381990Y187630D01*
X567980Y242380D02*
Y250040D01*
X568100Y250160D01*
X567740D02*
X568100D01*
X385295Y174775D02*
X504300D01*
X348630Y138110D02*
X385295Y174775D01*
X505490Y179890D02*
X567980Y242380D01*
X386624Y249960D02*
X396110D01*
X230415Y166235D02*
X248640Y184460D01*
X263527Y167271D02*
Y202653D01*
X239700Y226480D02*
X263527Y202653D01*
X236480Y231640D02*
X249170D01*
X298470Y78260D02*
X320540Y56190D01*
X323740D01*
X293050Y71270D02*
Y123990D01*
X202270Y129450D02*
Y144140D01*
Y164070D01*
X236350Y198150D01*
X202270Y129450D02*
X285150Y46570D01*
X282270Y58390D02*
Y145443D01*
X274077Y153636D02*
X282270Y145443D01*
X284646Y54937D02*
X286300Y53283D01*
X284646Y54937D02*
Y151831D01*
X286300Y53070D02*
Y53283D01*
X234223Y-80D02*
Y63237D01*
X161490Y135970D02*
X234223Y63237D01*
X155030Y135970D02*
X161490D01*
X94027Y42530D02*
X95140Y41417D01*
X-26764Y35760D02*
X8794D01*
X15564Y42530D01*
X94027D01*
X-15268Y45760D02*
X95140D01*
X155030Y179670D02*
X235130Y259770D01*
X155030Y135970D02*
Y179670D01*
X124010Y125240D02*
Y203540D01*
X80730Y246820D02*
Y259400D01*
Y246820D02*
X124010Y203540D01*
X75080Y265050D02*
X80730Y259400D01*
X65360Y175270D02*
Y270240D01*
Y175270D02*
X119430Y121200D01*
X75080Y265050D02*
Y266150D01*
X124010Y37720D02*
Y125240D01*
Y37720D02*
X125247Y36484D01*
X131480Y129510D02*
X146000Y114990D01*
Y68838D02*
Y114990D01*
X145606Y68445D02*
X146000Y68838D01*
X145606Y24960D02*
Y68445D01*
X147800Y106073D02*
X167106Y125379D01*
X27860Y111328D02*
Y131238D01*
Y91417D02*
Y111328D01*
Y71455D02*
Y91417D01*
Y71455D02*
X27897Y71417D01*
X129256Y131734D02*
X131480Y129510D01*
X-15268Y19358D02*
X-15130Y19220D01*
X-15268Y19358D02*
Y25760D01*
X-23812Y108730D02*
X-15800D01*
X-29717D02*
Y183255D01*
X-6005Y206966D01*
X-5621D01*
X5631Y218218D01*
Y219197D01*
D55*
X436767Y251420D02*
D03*
X374767Y33920D02*
D03*
X178547Y250380D02*
D03*
X116547Y32880D02*
D03*
X265223Y251330D02*
D03*
X203223Y33830D02*
D03*
X349995Y250380D02*
D03*
X287995Y32880D02*
D03*
X546310Y34230D02*
D03*
X608310Y251730D02*
D03*
X93870Y251330D02*
D03*
X31870Y33830D02*
D03*
X521538Y250380D02*
D03*
X459538Y32880D02*
D03*
D56*
X374767Y284420D02*
D03*
X178547Y-120D02*
D03*
X203223Y284330D02*
D03*
X349995Y-120D02*
D03*
X546310Y284730D02*
D03*
X31870Y284330D02*
D03*
X521538Y-120D02*
D03*
D57*
X635251Y36301D02*
D03*
Y134701D02*
D03*
Y160551D02*
D03*
Y258951D02*
D03*
X600Y159210D02*
D03*
Y257610D02*
D03*
D58*
X630220Y63926D02*
D03*
X640220Y69320D02*
D03*
X630220Y74714D02*
D03*
X640220Y80107D02*
D03*
X630220Y85501D02*
D03*
X640220Y90895D02*
D03*
X630220Y96289D02*
D03*
X640220Y101682D02*
D03*
X630220Y107076D02*
D03*
Y188176D02*
D03*
X640220Y193570D02*
D03*
X630220Y198964D02*
D03*
X640220Y204357D02*
D03*
X630220Y209751D02*
D03*
X640220Y215145D02*
D03*
X630220Y220538D02*
D03*
X640220Y225932D02*
D03*
X630220Y231326D02*
D03*
X5631Y186835D02*
D03*
X-4369Y192229D02*
D03*
X5631Y197623D02*
D03*
X-4369Y203016D02*
D03*
X5631Y208410D02*
D03*
X-4369Y213804D02*
D03*
X5631Y219197D02*
D03*
X-4369Y224591D02*
D03*
X5631Y229985D02*
D03*
D59*
X0Y289340D02*
D03*
Y0D02*
D03*
X648700D02*
D03*
Y289340D02*
D03*
D60*
X8579Y61417D02*
D03*
Y51417D02*
D03*
Y21417D02*
D03*
Y31417D02*
D03*
Y41417D02*
D03*
Y131417D02*
D03*
Y121417D02*
D03*
Y111417D02*
D03*
Y101417D02*
D03*
Y71417D02*
D03*
Y81417D02*
D03*
Y91417D02*
D03*
D61*
Y141417D02*
D03*
D62*
X147547Y19473D02*
D03*
X603737Y266130D02*
D03*
X623422Y226760D02*
D03*
X584052D02*
D03*
X564367Y187390D02*
D03*
Y108650D02*
D03*
Y29910D02*
D03*
X524997Y187390D02*
D03*
Y108650D02*
D03*
X544682Y69280D02*
D03*
X524997Y29910D02*
D03*
X505312Y226760D02*
D03*
Y148020D02*
D03*
Y69280D02*
D03*
X446257Y266130D02*
D03*
X465942Y226760D02*
D03*
Y148020D02*
D03*
X446257Y108650D02*
D03*
X465942Y69280D02*
D03*
X446257Y29910D02*
D03*
X426572Y226760D02*
D03*
Y148020D02*
D03*
Y69280D02*
D03*
X387201Y226760D02*
D03*
X367516Y187390D02*
D03*
X387201Y148020D02*
D03*
X367516Y108650D02*
D03*
X387201Y69280D02*
D03*
X347831Y226760D02*
D03*
X328146Y187390D02*
D03*
Y108650D02*
D03*
X347831Y69280D02*
D03*
X328146Y29910D02*
D03*
X288776Y266130D02*
D03*
X308461Y226760D02*
D03*
X288776Y187390D02*
D03*
X269091Y226760D02*
D03*
X249406Y187390D02*
D03*
Y29910D02*
D03*
X229721Y226760D02*
D03*
X210036Y187390D02*
D03*
X229721Y148020D02*
D03*
X190351Y226760D02*
D03*
Y148020D02*
D03*
X170666Y29910D02*
D03*
X150981Y226760D02*
D03*
X131296Y29910D02*
D03*
X91926Y266130D02*
D03*
X111611Y226760D02*
D03*
X91926Y187390D02*
D03*
X111611Y69280D02*
D03*
X91926Y29910D02*
D03*
X72241Y226760D02*
D03*
X52556Y187390D02*
D03*
X72241Y69280D02*
D03*
X13186Y266130D02*
D03*
X32871Y226760D02*
D03*
X-26184Y266130D02*
D03*
X-6499Y69280D02*
D03*
X-26184Y29910D02*
D03*
X392628Y257010D02*
D03*
X273796Y145988D02*
D03*
X183068Y149323D02*
D03*
X300698Y124640D02*
D03*
X302350Y128030D02*
D03*
X-2990Y107640D02*
D03*
X325520Y121310D02*
D03*
X318530Y123504D02*
D03*
X293060Y123980D02*
D03*
X288039D02*
D03*
X272582Y117180D02*
D03*
X313500Y124640D02*
D03*
X496250Y32930D02*
D03*
X492220Y116230D02*
D03*
X346220Y149400D02*
D03*
X304410Y168143D02*
D03*
X346440Y159420D02*
D03*
X332836Y145316D02*
D03*
X488794Y32600D02*
D03*
X487630Y117040D02*
D03*
X283420Y163520D02*
D03*
X271300Y166930D02*
D03*
X298340Y154030D02*
D03*
X273470D02*
D03*
X302350D02*
D03*
X576870Y247990D02*
D03*
X563180Y244080D02*
D03*
X567740Y250160D02*
D03*
X318120Y144154D02*
D03*
X396110Y249960D02*
D03*
X416560Y245190D02*
D03*
X483020Y26010D02*
D03*
X504300Y174775D02*
D03*
X248640Y184460D02*
D03*
X230415Y166235D02*
D03*
X217930Y163910D02*
D03*
Y156530D02*
D03*
X261700Y93041D02*
D03*
X315340Y95526D02*
D03*
X288039Y91440D02*
D03*
X202270Y144140D02*
D03*
X285150Y46570D02*
D03*
X236350Y198150D02*
D03*
X239700Y226480D02*
D03*
X236480Y231640D02*
D03*
X263527Y167271D02*
D03*
X323740Y56190D02*
D03*
X318120Y65020D02*
D03*
X310609Y126241D02*
D03*
X282270Y58390D02*
D03*
X286300Y53070D02*
D03*
X284646Y151831D02*
D03*
X293050Y71270D02*
D03*
X95140Y41417D02*
D03*
Y45760D02*
D03*
X564630Y137100D02*
D03*
X549650Y131400D02*
D03*
X348640Y126620D02*
D03*
X564567Y156720D02*
D03*
X564800Y166320D02*
D03*
X548810Y161070D02*
D03*
X235130Y259770D02*
D03*
X75080Y266150D02*
D03*
X119430Y121200D02*
D03*
X124010Y125240D02*
D03*
X155030Y135970D02*
D03*
X167106Y125379D02*
D03*
X167013Y139858D02*
D03*
X171335Y136894D02*
D03*
X27860Y111328D02*
D03*
Y91417D02*
D03*
Y131238D02*
D03*
X27897Y71417D02*
D03*
X348630Y138110D02*
D03*
X-4030Y77480D02*
D03*
X127549Y117870D02*
D03*
X465780Y16750D02*
D03*
X174930Y154600D02*
D03*
X416390Y251000D02*
D03*
X313170Y11740D02*
D03*
X293080Y16690D02*
D03*
X247730Y273390D02*
D03*
X131480Y129510D02*
D03*
X-15130Y19220D02*
D03*
X65360Y270240D02*
D03*
X145606Y24960D02*
D03*
D63*
X-13536Y69376D02*
D03*
Y77250D02*
D03*
Y85124D02*
D03*
D64*
X-27217Y57959D02*
D03*
Y96541D02*
D03*
D65*
X-15268Y25760D02*
D03*
X-26764Y35760D02*
D03*
X-15268Y45760D02*
D03*
M02*
