M48
;Layer_Color=9474304
;FILE_FORMAT=2:5
INCH,LZ
;TYPE=PLATED
T1F00S00C0.00787
T2F00S00C0.03500
T3F00S00C0.03543
T4F00S00C0.06200
T5F00S00C0.10000
T6F00S00C0.12800
;TYPE=NON_PLATED
T7F00S00C0.10400
T8F00S00C0.15000
%
T01
X-001513Y001922
X0147547Y0019473
X0145606Y002496
X029308Y001669
X031317Y001174
X046578Y001675
X048302Y002601
X0488794Y00326
X049625Y003293
X0524997Y002991
X0564367
X0544682Y006928
X0505312
X0524997Y010865
X0564367
X056463Y01371
X0564567Y015672
X05648Y016632
X054881Y016107
X054965Y01314
X0505312Y014802
X05043Y0174775
X049222Y011623
X048763Y011704
X0446257Y010865
X0465942Y014802
X0426572
X0387201
X034622Y01494
X034644Y015942
X034863Y013811
X034864Y012662
X032552Y012131
X0328146Y010865
X0367516
X0387201Y006928
X0426572
X0465942
X0446257Y002991
X0328146
X0347831Y006928
X0332836Y0145316
X031812Y0144154
X031853Y0123504
X03135Y012464
X0310609Y0126241
X030235Y012803
X0300698Y012464
X029306Y012398
X0288039
X0272582Y011718
X0273796Y0145988
X027347Y015403
X0284646Y0151831
X028342Y016352
X02713Y016693
X0263527Y0167271
X024864Y018446
X0230415Y0166235
X021793Y016391
Y015653
X0229721Y014802
X020227Y014414
X0190351Y014802
X0183068Y0149323
X017493Y01546
X0171335Y0136894
X0170666Y002991
X0249406
X028515Y004657
X02863Y005307
X028227Y005839
X029305Y007127
X0288039Y009144
X02617Y0093041
X031534Y0095526
X031812Y006502
X032374Y005619
X030235Y015403
X029834
X030441Y0168143
X0167013Y0139858
X0167106Y0125379
X015503Y013597
X013148Y012951
X012401Y012524
X011943Y01212
X0127549Y011787
X0111611Y006928
X0072241
X009514Y004576
Y0041417
X0091926Y002991
X0131296
X0027897Y0071417
X002786Y0091417
Y0111328
Y0131238
X-000299Y010764
X-000403Y007748
X-0006499Y006928
X-0026184Y002991
Y026613
X0013186
X006536Y027024
X007508Y026615
X0091926Y026613
X0111611Y022676
X0150981
X0072241
X0032871
X0052556Y018739
X0091926
X0210036
X023635Y019815
X0249406Y018739
X0288776
X0308461Y022676
X0269091
X02397Y022648
X023648Y023164
X0229721Y022676
X023513Y025977
X024773Y027339
X0288776Y026613
X0190351Y022676
X0347831
X0387201
X039611Y024996
X0392628Y025701
X041639Y0251
X041656Y024519
X0426572Y022676
X0465942
X0446257Y026613
X0367516Y018739
X0328146
X0524997
X0564367
X056318Y024408
X056774Y025016
X057687Y024799
X0584052Y022676
X0623422
X0603737Y026613
X0505312Y022676
T02
X064022Y006932
Y0080107
Y0090895
Y0101682
X063022Y0096289
Y0085501
Y0074714
Y0063926
Y0107076
X0005631Y0186835
Y0197623
Y020841
Y0219197
Y0229985
X-0004369Y0224591
Y0213804
Y0203016
Y0192229
X063022Y0188176
Y0198964
Y0209751
Y0220538
Y0231326
X064022Y0225932
Y0215145
Y0204357
Y019357
T03
X0008579Y0021417
Y0031417
Y0041417
Y0051417
Y0061417
Y0071417
Y0081417
Y0091417
Y0101417
Y0111417
Y0121417
Y0131417
Y0141417
T04
X006287Y-000017
X0147547Y-000012
X0234223Y-000017
X0318995Y-000012
X0405767Y-000008
X0490538Y-000012
X057731Y000023
X0147547Y028438
X006287Y028433
X0234223
X0318995Y028438
X0405767Y028442
X0490538Y028438
X057731Y028473
T05
X0635251Y0036301
Y0134701
Y0160551
X00006Y015921
Y025761
X0635251Y0258951
T06
X0Y0
X06487
X0Y028934
X06487
T07
X0178547Y-000012
X0349995
X0521538
X003187Y028433
X0203223
X0374767Y028442
X054631Y028473
T08
X054631Y003423
X0459538Y003288
X0374767Y003392
X0287995Y003288
X0203223Y003383
X0116547Y003288
X003187Y003383
X009387Y025133
X0178547Y025038
X0265223Y025133
X0349995Y025038
X0436767Y025142
X0521538Y025038
X060831Y025173
M30
