G04*
G04 #@! TF.GenerationSoftware,Altium Limited,Altium Designer,20.2.6 (244)*
G04*
G04 Layer_Color=16711935*
%FSLAX25Y25*%
%MOIN*%
G70*
G04*
G04 #@! TF.SameCoordinates,A281CC0B-DA72-4783-A236-2048B1716941*
G04*
G04*
G04 #@! TF.FilePolarity,Negative*
G04*
G01*
G75*
%ADD31R,0.03556X0.04343*%
%ADD43C,0.09000*%
%ADD44C,0.15800*%
%ADD45C,0.11200*%
%ADD46C,0.10800*%
%ADD47C,0.06300*%
%ADD48C,0.08200*%
%ADD49C,0.29934*%
%ADD50C,0.06706*%
%ADD51R,0.06706X0.06706*%
%ADD66R,0.10839X0.04737*%
%ADD67R,0.07493X0.07493*%
%ADD68R,0.14304X0.05800*%
G36*
X-8316Y23059D02*
Y28461D01*
X-22221D01*
Y23059D01*
X-8316D01*
D02*
G37*
G36*
X-19812Y33059D02*
Y38461D01*
X-33717D01*
Y33059D01*
X-19812D01*
D02*
G37*
G36*
X-8316Y43059D02*
Y48461D01*
X-22221D01*
Y43059D01*
X-8316D01*
D02*
G37*
D31*
X-9894Y108730D02*
D03*
X-15800D02*
D03*
X-29717D02*
D03*
X-23812D02*
D03*
D43*
X405767Y-80D02*
D03*
Y284420D02*
D03*
X147547Y-120D02*
D03*
Y284380D02*
D03*
X234223Y-170D02*
D03*
Y284330D02*
D03*
X318995Y-120D02*
D03*
Y284380D02*
D03*
X62870Y-170D02*
D03*
Y284330D02*
D03*
D44*
X436767Y251420D02*
D03*
X374767Y33920D02*
D03*
X178547Y250380D02*
D03*
X116547Y32880D02*
D03*
X265223Y251330D02*
D03*
X203223Y33830D02*
D03*
X349995Y250380D02*
D03*
X287995Y32880D02*
D03*
X546310Y34230D02*
D03*
X608310Y251730D02*
D03*
X93870Y251330D02*
D03*
X31870Y33830D02*
D03*
X521538Y250380D02*
D03*
X459538Y32880D02*
D03*
D45*
X374767Y284420D02*
D03*
X178547Y-120D02*
D03*
X203223Y284330D02*
D03*
X349995Y-120D02*
D03*
X546310Y284730D02*
D03*
X31870Y284330D02*
D03*
X521538Y-120D02*
D03*
D46*
X635251Y36301D02*
D03*
Y134701D02*
D03*
Y160551D02*
D03*
Y258951D02*
D03*
X600Y159210D02*
D03*
Y257610D02*
D03*
D47*
X630220Y63926D02*
D03*
X640220Y69320D02*
D03*
X630220Y74714D02*
D03*
X640220Y80107D02*
D03*
X630220Y85501D02*
D03*
X640220Y90895D02*
D03*
X630220Y96289D02*
D03*
X640220Y101682D02*
D03*
X630220Y107076D02*
D03*
Y188176D02*
D03*
X640220Y193570D02*
D03*
X630220Y198964D02*
D03*
X640220Y204357D02*
D03*
X630220Y209751D02*
D03*
X640220Y215145D02*
D03*
X630220Y220538D02*
D03*
X640220Y225932D02*
D03*
X630220Y231326D02*
D03*
X5631Y186835D02*
D03*
X-4369Y192229D02*
D03*
X5631Y197623D02*
D03*
X-4369Y203016D02*
D03*
X5631Y208410D02*
D03*
X-4369Y213804D02*
D03*
X5631Y219197D02*
D03*
X-4369Y224591D02*
D03*
X5631Y229985D02*
D03*
D48*
X577310Y284730D02*
D03*
Y230D02*
D03*
X490538Y-120D02*
D03*
Y284380D02*
D03*
D49*
X0Y289340D02*
D03*
Y0D02*
D03*
X648700D02*
D03*
Y289340D02*
D03*
D50*
X8579Y61417D02*
D03*
Y51417D02*
D03*
Y21417D02*
D03*
Y31417D02*
D03*
Y41417D02*
D03*
Y131417D02*
D03*
Y121417D02*
D03*
Y111417D02*
D03*
Y101417D02*
D03*
Y71417D02*
D03*
Y81417D02*
D03*
Y91417D02*
D03*
D51*
Y141417D02*
D03*
D66*
X-13536Y69376D02*
D03*
Y77250D02*
D03*
Y85124D02*
D03*
D67*
X-27217Y57959D02*
D03*
Y96541D02*
D03*
D68*
X-15268Y25760D02*
D03*
X-26764Y35760D02*
D03*
X-15268Y45760D02*
D03*
M02*
