M48
;Layer_Color=9474304
;FILE_FORMAT=2:5
INCH,LZ
;TYPE=PLATED
T1F00S00C0.00787
T2F00S00C0.02800
T3F00S00C0.03500
T4F00S00C0.03543
T6F00S00C0.04291
T7F00S00C0.10000
T8F00S00C0.12800
%
T01
X012337Y0027172
X0259733Y0027643
X0264851
X0269969
X0275087
X0280205
X0285323
X0290441
X0310914
X0316032
X032039Y0026702
X0318591Y0022524
X0323709
X0328827
X0326268Y0027643
Y0017406
X032115
X0316032
X0318591Y0012288
X0323709
X0328827
X0326268Y000717
X032115
X0316032
X0318591Y0002052
X0323709
X0328827
X0326268Y-0003066
X032115
X0316032
X0318591Y-0008184
X0323709
X0328827
X0326268Y-0013302
X032115
X0316032
X0313473Y-0008184
Y0002052
Y0012288
Y0022524
X0336874Y0024821
X026741Y0022524
X0262292
X0259733Y0017406
X0264851
X0262292Y0012288
X0259733Y000717
X0264851
X0262292Y0002052
X0259733Y-0003066
X0264851
X0262292Y-0008184
X0259733Y-0013302
X0264851
X0262292Y0032761
X0267311Y0032864
X0272528Y0032761
X0277646
X0282764
X0287882
X0293
X0290441Y0037879
X0295559
X0300677
X0305796
X0310914
X0316032
X032115
X0326268
X0328827Y0042997
X0323709
X0318591
X0313473
X0308355
X0303237
X0298118
X0293
X0287882
X0282764
X0277646
X0272528
X026741
X0262292
X0259733Y0048115
X0264851
X0269969
X0275087
X0280205
X0285323
X0290441
X0295559
X0300677
X0305796
X0310914
X0316032
X032115
X0326268
X033685Y0045929
X0336874Y0061652
X034278Y0074538
Y0119749
X0334854Y0132292
X033782Y014066
X0328827Y0145359
X0323709
X0318591
X0313473
X0308355
X0303237
X0298118
X0293
X0287882
X0282764
X0277646
X0275087Y0150477
X0280205
X0285323
X0290441
X0295559
X0300677
X0305796
X0310914
X0308355Y0155595
X0303237
X0298118
X0293
X0287882
X0282764
X0277646
X0275087Y0160713
X0280205
X0277646Y0165832
X0274235Y0166492
X0275087Y017095
X0280205
X0282764Y0176068
X0287882
X0293
X0298118
X0303237
X0308355
X0305796Y017095
X0310914
X0308355Y0165832
X0303237
X0298118
X0295559Y017095
X0300677
Y0160713
X0305796
X0310914
X0295559
X0270118Y0158902
X026193Y0155142
Y0147832
X027022Y0183359
X0277646Y0176068
X024205Y0117879
X0242361Y0054046
X0259733Y0037879
X0264851
X0269969
X0275087
X0280205
X0285323
X028609Y005614
X0308355Y0032761
X0313473
X0318591
X0323709
X0328827
X021205Y0088642
X0203361Y0086478
X019746Y0084886
X019526Y0088642
X018971Y0087059
X0190705Y0080574
X0188382Y0078251
X0186005Y0075874
X0183825Y0073694
X018383Y0099594
X0187418Y009707
Y011556
X019107Y0117082
X0194634Y0115648
X019746Y0115872
X020314Y0120542
X020588Y0123742
X020879Y0125052
Y0109162
X0220223Y0113069
X0222667Y0116279
X022035Y0130312
X022614Y0132332
X022361Y0142422
X021961Y0139592
X021185Y0139522
X020946Y0152832
X020942Y0159622
X019858Y016329
X01955Y0165932
X019885Y0175592
X019549Y0184862
X01902Y0183269
X017019Y0179342
X0161102Y0182992
X0152511Y0181588
X0152129Y0178062
X0152169Y0164132
X015236Y0160362
X014653Y0166192
X013643Y0174019
X01203Y0180832
Y0166202
X0120486Y0160536
Y0145817
X0120594Y0140236
Y0125467
X0120416Y0119916
X0130104Y0117468
Y0108348
X0120416Y0105148
X0120286Y0099637
Y0084886
X0120284Y0079337
Y0064649
X012365Y0059162
X013909Y0125499
X014618Y0133932
X015039Y0133029
X015495Y0128092
X015881Y0122272
X015894Y0108529
X016332Y0136579
X016424Y0155062
X017411Y0161149
X017628Y0163339
X017858Y0165793
X018099Y0168029
X019154Y0156382
X022446Y0155062
X022037Y0163512
Y0178602
X0183825Y0125499
X020586Y0096442
X0089211Y0168893
X006226Y0172989
X0063615Y0153288
X005805Y0133079
X005864Y0115209
X0058351Y0094525
X005857Y0074519
X007275Y0188052
X003028Y0225039
X00227Y0224789
X001544Y0224799
X0008222
X0001185Y022478
X-000635Y0224799
X-001353Y0225219
X013651Y0187559
X015236Y0189799
X017167
X025688Y0187209
X027118Y0189869
X0313511Y0198195
T02
X00641Y0029412
X0247135Y0104952
X021575Y0113172
X0215845Y0092877
X012644Y0103442
X012602Y0072129
X0143125Y0153288
X0063621Y0132599
X007275Y0183722
T03
X0016291Y0118538
Y0129325
Y0140113
Y01509
X0026291Y0156294
Y0145506
Y0134719
Y0123932
Y0113144
T04
X0357768Y0019779
Y0029779
Y0039779
Y0049779
Y0059779
Y0069779
Y0079779
Y0089779
Y0099779
Y0109779
Y0119779
Y0129779
Y0139779
T06
X003333Y0024649
Y0034649
Y0053679
Y0063679
T07
X002126Y0085519
Y0183919
T08
X0Y0
X0358268
X0Y0244094
X0358268
M30
