G04*
G04 #@! TF.GenerationSoftware,Altium Limited,Altium Designer,18.1.9 (240)*
G04*
G04 Layer_Color=32896*
%FSLAX25Y25*%
%MOIN*%
G70*
G01*
G75*
%ADD12C,0.00787*%
%ADD14C,0.00500*%
%ADD82C,0.01968*%
G36*
X349444Y62891D02*
X341967D01*
Y65246D01*
X349444D01*
Y62891D01*
D02*
G37*
G36*
X349444Y55009D02*
X341967D01*
Y57372D01*
X349444D01*
Y55009D01*
D02*
G37*
G36*
X349446Y47133D02*
X341967D01*
Y49498D01*
X349446D01*
Y47133D01*
D02*
G37*
D12*
X2120Y93121D02*
Y247221D01*
Y93121D02*
X51819D01*
Y247221D01*
X2120D02*
X51819D01*
X-22181Y218714D02*
X2120D01*
X-22181Y121627D02*
Y218714D01*
Y121627D02*
X2120D01*
Y247221D02*
X51819D01*
Y93121D02*
Y247221D01*
X2120Y93121D02*
X51819D01*
X2120D02*
Y247221D01*
X-22181Y218714D02*
X2120D01*
X-22181Y121627D02*
Y218714D01*
Y121627D02*
X2120D01*
X-22181Y112130D02*
X2120D01*
X-22181Y97030D02*
X2120D01*
X-22181D02*
Y112130D01*
X2120D01*
X-22181Y97030D02*
Y112130D01*
Y97030D02*
X2120D01*
Y93121D02*
Y247221D01*
Y93121D02*
X51819D01*
Y247221D01*
X2120D02*
X51819D01*
X-22181Y218714D02*
X2120D01*
X-22181Y121627D02*
Y218714D01*
Y121627D02*
X2120D01*
Y247221D02*
X51819D01*
Y93121D02*
Y247221D01*
X2120Y93121D02*
X51819D01*
X2120D02*
Y247221D01*
X-22181Y218714D02*
X2120D01*
X-22181Y121627D02*
Y218714D01*
Y121627D02*
X2120D01*
X-22181Y112130D02*
X2120D01*
X-22181Y97030D02*
X2120D01*
X-22181D02*
Y112130D01*
X2120D01*
X-22181Y97030D02*
Y112130D01*
Y97030D02*
X2120D01*
D14*
X355352Y77057D02*
X364014D01*
X349447Y44774D02*
Y67215D01*
X355352Y35325D02*
X364407D01*
X355352Y77057D02*
X364014D01*
X349447Y44774D02*
Y67215D01*
X355352Y35325D02*
X364407D01*
D82*
X54971Y208222D02*
G03*
X54971Y208222I-134J0D01*
G01*
D02*
G03*
X54971Y208222I-134J0D01*
G01*
M02*
