G04*
G04 #@! TF.GenerationSoftware,Altium Limited,Altium Designer,18.1.9 (240)*
G04*
G04 Layer_Color=128*
%FSLAX25Y25*%
%MOIN*%
G70*
G01*
G75*
%ADD24R,0.02756X0.03543*%
%ADD72R,0.06693X0.06693*%
%ADD73R,0.10039X0.03937*%
%ADD74R,0.13504X0.05000*%
G36*
X347138Y86850D02*
Y81850D01*
X360642D01*
Y86850D01*
X347138D01*
D02*
G37*
G36*
Y106850D02*
Y101850D01*
X360642D01*
Y106850D01*
X347138D01*
D02*
G37*
G36*
X358634Y96850D02*
Y91850D01*
X372138D01*
Y96850D01*
X358634D01*
D02*
G37*
G36*
X347138Y116880D02*
Y111880D01*
X360642D01*
Y116880D01*
X347138D01*
D02*
G37*
G36*
X358634Y126880D02*
Y121880D01*
X372138D01*
Y126880D01*
X358634D01*
D02*
G37*
G36*
X347138Y136880D02*
Y131880D01*
X360642D01*
Y136880D01*
X347138D01*
D02*
G37*
G36*
X347152Y146950D02*
Y141950D01*
X360656D01*
Y146950D01*
X347152D01*
D02*
G37*
G36*
X358648Y156950D02*
Y151950D01*
X372152D01*
Y156950D01*
X358648D01*
D02*
G37*
G36*
X347152Y166950D02*
Y161950D01*
X360656D01*
Y166950D01*
X347152D01*
D02*
G37*
G36*
Y177030D02*
Y172030D01*
X360656D01*
Y177030D01*
X347152D01*
D02*
G37*
G36*
X358648Y187030D02*
Y182030D01*
X372152D01*
Y187030D01*
X358648D01*
D02*
G37*
G36*
X347152Y197030D02*
Y192030D01*
X360656D01*
Y197030D01*
X347152D01*
D02*
G37*
D24*
X351653Y202810D02*
D03*
X345747D02*
D03*
X351513Y246320D02*
D03*
X345607D02*
D03*
X351443Y240104D02*
D03*
X345537D02*
D03*
X351443Y233889D02*
D03*
X345537D02*
D03*
X351443Y227673D02*
D03*
X345537D02*
D03*
X351443Y221457D02*
D03*
X345537D02*
D03*
X351443Y209026D02*
D03*
X345537D02*
D03*
X351443Y215241D02*
D03*
X345537D02*
D03*
X371133Y202740D02*
D03*
X365227D02*
D03*
X370923Y208956D02*
D03*
X365017D02*
D03*
X370923Y215171D02*
D03*
X365017D02*
D03*
X370923Y221387D02*
D03*
X365017D02*
D03*
X370923Y227603D02*
D03*
X365017D02*
D03*
X370923Y240034D02*
D03*
X365017D02*
D03*
X370923Y233819D02*
D03*
X365017D02*
D03*
X370993Y246250D02*
D03*
X365087D02*
D03*
D72*
X359880Y36900D02*
D03*
Y75483D02*
D03*
D73*
X346199Y48317D02*
D03*
Y56191D02*
D03*
Y64065D02*
D03*
D74*
X353890Y84350D02*
D03*
X365386Y94350D02*
D03*
X353890Y104350D02*
D03*
Y114380D02*
D03*
X365386Y124380D02*
D03*
X353890Y134380D02*
D03*
X353904Y144450D02*
D03*
X365400Y154450D02*
D03*
X353904Y164450D02*
D03*
Y174530D02*
D03*
X365400Y184530D02*
D03*
X353904Y194530D02*
D03*
M02*
