G04*
G04 #@! TF.GenerationSoftware,Altium Limited,Altium Designer,18.1.9 (240)*
G04*
G04 Layer_Color=32896*
%FSLAX25Y25*%
%MOIN*%
G70*
G01*
G75*
%ADD10C,0.01000*%
%ADD12C,0.00787*%
%ADD14C,0.00500*%
%ADD16C,0.01400*%
D10*
X45983Y93217D02*
X55984D01*
X56283Y62300D02*
Y69100D01*
X45983Y62300D02*
X56283D01*
X55984Y77300D02*
Y77500D01*
Y88000D02*
Y93217D01*
Y58930D02*
Y64147D01*
Y48230D02*
Y48430D01*
X45983Y33230D02*
X56283D01*
Y40030D01*
X45983Y64147D02*
X55984D01*
X278285Y268677D02*
Y272677D01*
X276285Y270677D02*
X280285D01*
X329285Y8177D02*
Y272677D01*
X283285Y8177D02*
Y272677D01*
X205565Y268677D02*
Y272677D01*
X203565Y270677D02*
X207565D01*
X256565Y8177D02*
Y272677D01*
X210565Y8177D02*
Y272677D01*
X132845Y268677D02*
Y272677D01*
X130845Y270677D02*
X134845D01*
X183845Y8177D02*
Y272677D01*
X137845Y8177D02*
Y272677D01*
X60125Y268677D02*
Y272677D01*
X58125Y270677D02*
X62125D01*
X111125Y8177D02*
Y272677D01*
X65125Y8177D02*
Y272677D01*
X54975Y250597D02*
Y256595D01*
X51976D01*
X50977Y255595D01*
Y253596D01*
X51976Y252596D01*
X54975D01*
X44979Y250597D02*
X48977D01*
X44979Y254596D01*
Y255595D01*
X45978Y256595D01*
X47978D01*
X48977Y255595D01*
D12*
X347913Y201432D02*
X349487D01*
X347913Y204188D02*
X349487D01*
X347773Y244942D02*
X349347D01*
X347773Y247698D02*
X349347D01*
X347703Y238726D02*
X349277D01*
X347703Y241482D02*
X349277D01*
X347703Y232511D02*
X349277D01*
X347703Y235266D02*
X349277D01*
X347703Y226295D02*
X349277D01*
X347703Y229051D02*
X349277D01*
X347703Y220079D02*
X349277D01*
X347703Y222835D02*
X349277D01*
X347703Y207648D02*
X349277D01*
X347703Y210404D02*
X349277D01*
X347703Y213863D02*
X349277D01*
X347703Y216619D02*
X349277D01*
X367393Y204118D02*
X368967D01*
X367393Y201362D02*
X368967D01*
X367183Y210334D02*
X368757D01*
X367183Y207578D02*
X368757D01*
X367183Y216549D02*
X368757D01*
X367183Y213793D02*
X368757D01*
X367183Y222765D02*
X368757D01*
X367183Y220009D02*
X368757D01*
X367183Y228981D02*
X368757D01*
X367183Y226225D02*
X368757D01*
X367183Y241412D02*
X368757D01*
X367183Y238656D02*
X368757D01*
X367183Y235196D02*
X368757D01*
X367183Y232441D02*
X368757D01*
X367253Y247628D02*
X368827D01*
X367253Y244872D02*
X368827D01*
D14*
X365195Y60128D02*
Y76861D01*
Y54223D02*
Y60128D01*
Y52254D02*
Y54223D01*
Y35522D02*
Y52254D01*
X349447Y67215D02*
Y77057D01*
X355352D01*
X365195Y60128D02*
X373069D01*
Y54223D02*
Y60128D01*
X365195Y54223D02*
X373069D01*
X61950Y90740D02*
Y93239D01*
X60700D01*
X60284Y92823D01*
Y91990D01*
X60700Y91573D01*
X61950D01*
X59451Y92823D02*
X59034Y93239D01*
X58201D01*
X57785Y92823D01*
Y92406D01*
X58201Y91990D01*
X58618D01*
X58201D01*
X57785Y91573D01*
Y91157D01*
X58201Y90740D01*
X59034D01*
X59451Y91157D01*
X61880Y59950D02*
Y62449D01*
X60630D01*
X60214Y62033D01*
Y61200D01*
X60630Y60783D01*
X61880D01*
X58131Y59950D02*
Y62449D01*
X59381Y61200D01*
X57715D01*
X360040Y203910D02*
Y201410D01*
X358790D01*
X358374Y201827D01*
Y202243D01*
X358790Y202660D01*
X360040D01*
X358790D01*
X358374Y203077D01*
Y203493D01*
X358790Y203910D01*
X360040D01*
X357541Y201410D02*
X356708D01*
X357124D01*
Y203910D01*
X357541Y203493D01*
X360040Y210125D02*
Y207626D01*
X358790D01*
X358374Y208043D01*
Y208459D01*
X358790Y208876D01*
X360040D01*
X358790D01*
X358374Y209292D01*
Y209709D01*
X358790Y210125D01*
X360040D01*
X355875Y207626D02*
X357541D01*
X355875Y209292D01*
Y209709D01*
X356291Y210125D01*
X357124D01*
X357541Y209709D01*
X360040Y216341D02*
Y213842D01*
X358790D01*
X358374Y214258D01*
Y214675D01*
X358790Y215091D01*
X360040D01*
X358790D01*
X358374Y215508D01*
Y215925D01*
X358790Y216341D01*
X360040D01*
X357541Y215925D02*
X357124Y216341D01*
X356291D01*
X355875Y215925D01*
Y215508D01*
X356291Y215091D01*
X356708D01*
X356291D01*
X355875Y214675D01*
Y214258D01*
X356291Y213842D01*
X357124D01*
X357541Y214258D01*
X360040Y222557D02*
Y220058D01*
X358790D01*
X358374Y220474D01*
Y220891D01*
X358790Y221307D01*
X360040D01*
X358790D01*
X358374Y221724D01*
Y222140D01*
X358790Y222557D01*
X360040D01*
X356291Y220058D02*
Y222557D01*
X357541Y221307D01*
X355875D01*
X360040Y228772D02*
Y226273D01*
X358790D01*
X358374Y226690D01*
Y227106D01*
X358790Y227523D01*
X360040D01*
X358790D01*
X358374Y227939D01*
Y228356D01*
X358790Y228772D01*
X360040D01*
X355875D02*
X357541D01*
Y227523D01*
X356708Y227939D01*
X356291D01*
X355875Y227523D01*
Y226690D01*
X356291Y226273D01*
X357124D01*
X357541Y226690D01*
X360040Y234988D02*
Y232489D01*
X358790D01*
X358374Y232906D01*
Y233322D01*
X358790Y233739D01*
X360040D01*
X358790D01*
X358374Y234155D01*
Y234572D01*
X358790Y234988D01*
X360040D01*
X355875D02*
X356708Y234572D01*
X357541Y233739D01*
Y232906D01*
X357124Y232489D01*
X356291D01*
X355875Y232906D01*
Y233322D01*
X356291Y233739D01*
X357541D01*
X360040Y241204D02*
Y238705D01*
X358790D01*
X358374Y239121D01*
Y239538D01*
X358790Y239954D01*
X360040D01*
X358790D01*
X358374Y240371D01*
Y240787D01*
X358790Y241204D01*
X360040D01*
X357541D02*
X355875D01*
Y240787D01*
X357541Y239121D01*
Y238705D01*
X358790Y247420D02*
X359624D01*
X360040Y247003D01*
Y245337D01*
X359624Y244920D01*
X358790D01*
X358374Y245337D01*
Y247003D01*
X358790Y247420D01*
X357541Y244920D02*
Y246586D01*
X356291D01*
X355875Y246170D01*
Y244920D01*
X370984Y76033D02*
X371400Y76449D01*
X372234D01*
X372650Y76033D01*
Y75616D01*
X372234Y75200D01*
X371400D01*
X370984Y74783D01*
Y74366D01*
X371400Y73950D01*
X372234D01*
X372650Y74366D01*
X368485Y76449D02*
X370151D01*
Y75200D01*
X369318Y75616D01*
X368901D01*
X368485Y75200D01*
Y74366D01*
X368901Y73950D01*
X369734D01*
X370151Y74366D01*
X367974Y108833D02*
X368390Y109249D01*
X369223D01*
X369640Y108833D01*
Y108416D01*
X369223Y108000D01*
X368390D01*
X367974Y107583D01*
Y107167D01*
X368390Y106750D01*
X369223D01*
X369640Y107167D01*
X367141Y106750D02*
X366308D01*
X366724D01*
Y109249D01*
X367141Y108833D01*
X368064Y138953D02*
X368480Y139369D01*
X369314D01*
X369730Y138953D01*
Y138536D01*
X369314Y138120D01*
X368480D01*
X368064Y137703D01*
Y137286D01*
X368480Y136870D01*
X369314D01*
X369730Y137286D01*
X367231Y138953D02*
X366814Y139369D01*
X365981D01*
X365565Y138953D01*
Y138536D01*
X365981Y138120D01*
X366398D01*
X365981D01*
X365565Y137703D01*
Y137286D01*
X365981Y136870D01*
X366814D01*
X367231Y137286D01*
X368034Y169043D02*
X368450Y169459D01*
X369284D01*
X369700Y169043D01*
Y168626D01*
X369284Y168210D01*
X368450D01*
X368034Y167793D01*
Y167376D01*
X368450Y166960D01*
X369284D01*
X369700Y167376D01*
X365535Y166960D02*
X367201D01*
X365535Y168626D01*
Y169043D01*
X365951Y169459D01*
X366784D01*
X367201Y169043D01*
X368014Y199423D02*
X368430Y199839D01*
X369264D01*
X369680Y199423D01*
Y199006D01*
X369264Y198590D01*
X368430D01*
X368014Y198173D01*
Y197757D01*
X368430Y197340D01*
X369264D01*
X369680Y197757D01*
X365931Y197340D02*
Y199839D01*
X367181Y198590D01*
X365515D01*
X337480Y245410D02*
Y247909D01*
X336230D01*
X335814Y247493D01*
Y246660D01*
X336230Y246243D01*
X337480D01*
X336647D02*
X335814Y245410D01*
X333315D02*
X334981D01*
X333315Y247076D01*
Y247493D01*
X333731Y247909D01*
X334564D01*
X334981Y247493D01*
X332482D02*
X332065Y247909D01*
X331232D01*
X330816Y247493D01*
Y247076D01*
X331232Y246660D01*
X331649D01*
X331232D01*
X330816Y246243D01*
Y245827D01*
X331232Y245410D01*
X332065D01*
X332482Y245827D01*
X336320Y202040D02*
Y204539D01*
X335070D01*
X334654Y204123D01*
Y203290D01*
X335070Y202873D01*
X336320D01*
X335487D02*
X334654Y202040D01*
X332155Y204539D02*
X333821D01*
Y203290D01*
X332988Y203706D01*
X332571D01*
X332155Y203290D01*
Y202456D01*
X332571Y202040D01*
X333404D01*
X333821Y202456D01*
X331322Y202040D02*
X330489D01*
X330905D01*
Y204539D01*
X331322Y204123D01*
X337240Y208120D02*
Y210619D01*
X335990D01*
X335574Y210203D01*
Y209370D01*
X335990Y208953D01*
X337240D01*
X336407D02*
X335574Y208120D01*
X333075Y210619D02*
X334741D01*
Y209370D01*
X333908Y209786D01*
X333491D01*
X333075Y209370D01*
Y208537D01*
X333491Y208120D01*
X334324D01*
X334741Y208537D01*
X332242Y210203D02*
X331825Y210619D01*
X330992D01*
X330575Y210203D01*
Y208537D01*
X330992Y208120D01*
X331825D01*
X332242Y208537D01*
Y210203D01*
X337780Y214010D02*
Y216509D01*
X336530D01*
X336114Y216093D01*
Y215260D01*
X336530Y214843D01*
X337780D01*
X336947D02*
X336114Y214010D01*
X334031D02*
Y216509D01*
X335281Y215260D01*
X333615D01*
X332782Y214426D02*
X332365Y214010D01*
X331532D01*
X331116Y214426D01*
Y216093D01*
X331532Y216509D01*
X332365D01*
X332782Y216093D01*
Y215676D01*
X332365Y215260D01*
X331116D01*
X337170Y220480D02*
Y222979D01*
X335920D01*
X335504Y222563D01*
Y221730D01*
X335920Y221313D01*
X337170D01*
X336337D02*
X335504Y220480D01*
X333421D02*
Y222979D01*
X334671Y221730D01*
X333005D01*
X332172Y222563D02*
X331755Y222979D01*
X330922D01*
X330505Y222563D01*
Y222146D01*
X330922Y221730D01*
X330505Y221313D01*
Y220897D01*
X330922Y220480D01*
X331755D01*
X332172Y220897D01*
Y221313D01*
X331755Y221730D01*
X332172Y222146D01*
Y222563D01*
X331755Y221730D02*
X330922D01*
X337400Y226370D02*
Y228869D01*
X336150D01*
X335734Y228453D01*
Y227620D01*
X336150Y227203D01*
X337400D01*
X336567D02*
X335734Y226370D01*
X333651D02*
Y228869D01*
X334901Y227620D01*
X333235D01*
X330735Y228869D02*
X331569Y228453D01*
X332402Y227620D01*
Y226786D01*
X331985Y226370D01*
X331152D01*
X330735Y226786D01*
Y227203D01*
X331152Y227620D01*
X332402D01*
X337210Y232630D02*
Y235129D01*
X335960D01*
X335544Y234713D01*
Y233880D01*
X335960Y233463D01*
X337210D01*
X336377D02*
X335544Y232630D01*
X333461D02*
Y235129D01*
X334711Y233880D01*
X333045D01*
X330545Y235129D02*
X332212D01*
Y233880D01*
X331379Y234296D01*
X330962D01*
X330545Y233880D01*
Y233047D01*
X330962Y232630D01*
X331795D01*
X332212Y233047D01*
X337270Y239290D02*
Y241789D01*
X336020D01*
X335604Y241373D01*
Y240540D01*
X336020Y240123D01*
X337270D01*
X336437D02*
X335604Y239290D01*
X333521D02*
Y241789D01*
X334771Y240540D01*
X333105D01*
X332272Y241373D02*
X331855Y241789D01*
X331022D01*
X330606Y241373D01*
Y239706D01*
X331022Y239290D01*
X331855D01*
X332272Y239706D01*
Y241373D01*
X342780Y204339D02*
Y201840D01*
X341530D01*
X341114Y202256D01*
Y203923D01*
X341530Y204339D01*
X342780D01*
X340281Y202256D02*
X339864Y201840D01*
X339031D01*
X338615Y202256D01*
Y203923D01*
X339031Y204339D01*
X339864D01*
X340281Y203923D01*
Y203506D01*
X339864Y203090D01*
X338615D01*
X343080Y216719D02*
Y214220D01*
X341830D01*
X341414Y214636D01*
Y216303D01*
X341830Y216719D01*
X343080D01*
X340581D02*
X338915D01*
Y216303D01*
X340581Y214636D01*
Y214220D01*
X342860Y222909D02*
Y220410D01*
X341610D01*
X341194Y220827D01*
Y222493D01*
X341610Y222909D01*
X342860D01*
X338695D02*
X339528Y222493D01*
X340361Y221660D01*
Y220827D01*
X339944Y220410D01*
X339111D01*
X338695Y220827D01*
Y221243D01*
X339111Y221660D01*
X340361D01*
X343460Y228989D02*
Y226490D01*
X342210D01*
X341794Y226906D01*
Y228573D01*
X342210Y228989D01*
X343460D01*
X339711Y226490D02*
Y228989D01*
X340961Y227740D01*
X339295D01*
X342510Y235189D02*
Y232690D01*
X341260D01*
X340844Y233106D01*
Y234773D01*
X341260Y235189D01*
X342510D01*
X340011Y234773D02*
X339594Y235189D01*
X338761D01*
X338345Y234773D01*
Y234356D01*
X338761Y233940D01*
X339178D01*
X338761D01*
X338345Y233523D01*
Y233106D01*
X338761Y232690D01*
X339594D01*
X340011Y233106D01*
X342770Y241579D02*
Y239080D01*
X341520D01*
X341104Y239496D01*
Y241163D01*
X341520Y241579D01*
X342770D01*
X338605Y239080D02*
X340271D01*
X338605Y240746D01*
Y241163D01*
X339021Y241579D01*
X339854D01*
X340271Y241163D01*
X342930Y210589D02*
Y208090D01*
X341680D01*
X341264Y208506D01*
Y210173D01*
X341680Y210589D01*
X342930D01*
X340431Y210173D02*
X340014Y210589D01*
X339181D01*
X338765Y210173D01*
Y209756D01*
X339181Y209340D01*
X338765Y208923D01*
Y208506D01*
X339181Y208090D01*
X340014D01*
X340431Y208506D01*
Y208923D01*
X340014Y209340D01*
X340431Y209756D01*
Y210173D01*
X340014Y209340D02*
X339181D01*
X343080Y247789D02*
Y245290D01*
X341830D01*
X341414Y245707D01*
Y247373D01*
X341830Y247789D01*
X343080D01*
X338915D02*
X340581D01*
Y246540D01*
X339748Y246956D01*
X339331D01*
X338915Y246540D01*
Y245707D01*
X339331Y245290D01*
X340164D01*
X340581Y245707D01*
X264850Y266899D02*
Y264400D01*
X263600D01*
X263184Y264816D01*
Y265233D01*
X263600Y265650D01*
X264850D01*
X263600D01*
X263184Y266066D01*
Y266483D01*
X263600Y266899D01*
X264850D01*
X262351D02*
X260685D01*
X261518D01*
Y264400D01*
X258186Y266899D02*
X259852D01*
Y265650D01*
X259019Y266066D01*
X258602D01*
X258186Y265650D01*
Y264816D01*
X258602Y264400D01*
X259435D01*
X259852Y264816D01*
X339270Y267919D02*
Y265420D01*
X338020D01*
X337604Y265837D01*
Y266253D01*
X338020Y266670D01*
X339270D01*
X338020D01*
X337604Y267086D01*
Y267503D01*
X338020Y267919D01*
X339270D01*
X336771D02*
X335105D01*
X335938D01*
Y265420D01*
X334272Y267919D02*
X332606D01*
Y267503D01*
X334272Y265837D01*
Y265420D01*
X192330Y267079D02*
Y264580D01*
X191080D01*
X190664Y264997D01*
Y265413D01*
X191080Y265830D01*
X192330D01*
X191080D01*
X190664Y266246D01*
Y266663D01*
X191080Y267079D01*
X192330D01*
X189831D02*
X188165D01*
X188998D01*
Y264580D01*
X187332Y266663D02*
X186915Y267079D01*
X186082D01*
X185666Y266663D01*
Y266246D01*
X186082Y265830D01*
X186499D01*
X186082D01*
X185666Y265413D01*
Y264997D01*
X186082Y264580D01*
X186915D01*
X187332Y264997D01*
X113190Y267439D02*
Y264940D01*
X114440D01*
X114856Y265356D01*
Y265773D01*
X114440Y266190D01*
X113190D01*
X114440D01*
X114856Y266606D01*
Y267023D01*
X114440Y267439D01*
X113190D01*
X115689D02*
X117355D01*
X116522D01*
Y264940D01*
X118188D02*
X119021D01*
X118605D01*
Y267439D01*
X118188Y267023D01*
D16*
X339460Y2732D02*
Y9730D01*
X335961D01*
X334795Y8564D01*
Y7397D01*
X335961Y6231D01*
X339460D01*
X335961D01*
X334795Y5065D01*
Y3899D01*
X335961Y2732D01*
X339460D01*
X332462Y6231D02*
X327797D01*
X197720Y10838D02*
Y3840D01*
X194221D01*
X193055Y5006D01*
Y6173D01*
X194221Y7339D01*
X197720D01*
X194221D01*
X193055Y8505D01*
Y9672D01*
X194221Y10838D01*
X197720D01*
X187223Y3840D02*
Y10838D01*
X190722Y7339D01*
X186057D01*
X125430Y11408D02*
Y4410D01*
X121931D01*
X120765Y5576D01*
Y6743D01*
X121931Y7909D01*
X125430D01*
X121931D01*
X120765Y9075D01*
Y10242D01*
X121931Y11408D01*
X125430D01*
X113767D02*
X116100Y10242D01*
X118432Y7909D01*
Y5576D01*
X117266Y4410D01*
X114933D01*
X113767Y5576D01*
Y6743D01*
X114933Y7909D01*
X118432D01*
X340340Y276708D02*
Y269710D01*
X336841D01*
X335675Y270876D01*
Y272043D01*
X336841Y273209D01*
X340340D01*
X336841D01*
X335675Y274375D01*
Y275541D01*
X336841Y276708D01*
X340340D01*
X333342Y269710D02*
X331010D01*
X332176D01*
Y276708D01*
X333342Y275541D01*
X124210Y278558D02*
Y271560D01*
X120711D01*
X119545Y272726D01*
Y273893D01*
X120711Y275059D01*
X124210D01*
X120711D01*
X119545Y276225D01*
Y277391D01*
X120711Y278558D01*
X124210D01*
X117212Y275059D02*
X112547D01*
X114880Y277391D02*
Y272726D01*
X270200Y10028D02*
Y3030D01*
X266701D01*
X265535Y4196D01*
Y5363D01*
X266701Y6529D01*
X270200D01*
X266701D01*
X265535Y7695D01*
Y8862D01*
X266701Y10028D01*
X270200D01*
X258537Y3030D02*
X263202D01*
X258537Y7695D01*
Y8862D01*
X259703Y10028D01*
X262036D01*
X263202Y8862D01*
X270930Y277788D02*
Y270790D01*
X267431D01*
X266265Y271956D01*
Y273123D01*
X267431Y274289D01*
X270930D01*
X267431D01*
X266265Y275455D01*
Y276622D01*
X267431Y277788D01*
X270930D01*
X263932Y276622D02*
X262766Y277788D01*
X260433D01*
X259267Y276622D01*
Y275455D01*
X260433Y274289D01*
X261600D01*
X260433D01*
X259267Y273123D01*
Y271956D01*
X260433Y270790D01*
X262766D01*
X263932Y271956D01*
X198390Y278558D02*
Y271560D01*
X194891D01*
X193725Y272726D01*
Y273893D01*
X194891Y275059D01*
X198390D01*
X194891D01*
X193725Y276225D01*
Y277391D01*
X194891Y278558D01*
X198390D01*
X186727D02*
X191392D01*
Y275059D01*
X189060Y276225D01*
X187893D01*
X186727Y275059D01*
Y272726D01*
X187893Y271560D01*
X190226D01*
X191392Y272726D01*
M02*
