M48
;Layer_Color=9474304
;FILE_FORMAT=2:5
INCH,LZ
;TYPE=PLATED
T1F00S00C0.00787
T2F00S00C0.02800
T4F00S00C0.04094
T5F00S00C0.04291
T6F00S00C0.12795
T7F00S00C0.12800
%
T01
X01157Y004869
X014109Y004607
X025578Y004852
X0277775Y0048997
X0280775Y0042997
X0286775
X0292775
X0298775
X0304775
X0307775Y0048997
X0301775
X0295775
X0289775
X0274775Y0042997
X0277775Y0036997
X0280775Y0030997
X0274775
X0277775Y0024997
X0280775Y0018997
X0274775
X0277775Y0012997
X0280775Y0006997
X0274775
X0334775
X0337775Y0012997
X0331775
X0334775Y0018997
X0337775Y0024997
X0331775
X0334775Y0030997
X0337775Y0036997
X0331775
X0334775Y0042997
X033811Y00456
X0337775Y0048997
X0331775
X0325775
X0328775Y0042997
X0370903Y0043307
Y0063187
X0373611Y0068041
X0370903Y0083057
X034432Y008646
X03419Y009964
X034482Y010556
X034473Y011612
X0345408Y012183
X034644Y012576
X033628Y012588
X033338Y01261
X033791Y013417
X034184Y013627
X0346038Y015119
X03334Y015592
X036948Y015889
X037183Y016786
X0370136Y012913
X0365386Y0118326
X0331575Y0111775
X033162Y010852
Y009527
Y0082
X033539Y007286
X0341293Y0072653
X0347179Y0068041
X033369Y005983
X033162Y005557
X0298355Y0060315
Y0068635
Y0076825
X0298143Y0085317
Y0093436
Y0101737
X028531Y010531
X028503Y008625
X0285031Y0075859
X027474Y007055
X027221Y006055
X0285031Y0051761
X028172Y01217
X0276726Y0118326
X026999Y012966
X0279263Y0155597
X028422Y015581
X028409Y015889
X028245Y016472
X0279263Y0163307
X027965Y016673
Y017404
X028245Y017173
X028364Y01778
X028444Y018478
X0291954Y018539
X0295775Y0180997
X0298775Y0174997
X0304775
X0292775
X0295775Y0192997
X0301775
X0307775
X02745Y019133
X027221Y019389
X026999Y018705
X0276726Y0188666
X0280363Y0201983
X0283244Y0204076
X034125Y019865
X023809Y01975
X023777Y0202
X022798Y020402
X021321Y020376
X021657Y019449
X02163Y018409
X021322Y018483
X020926Y017528
X020958Y017004
X021331Y0170986
X022718Y017173
X022714Y017852
X023809Y018241
X024218Y017396
X024133Y016132
X023733Y015849
X022957Y015842
X022651Y014395
X02236Y014264
X022086Y013944
X021861Y013727
X021518Y013477
X0212354Y0134546
X020879Y013598
X0205138Y0134458
X019771Y01433
X017653Y014117
X017267Y014699
X01639Y015283
X015937Y015214
X015689Y014902
X015714Y014435
X015712Y013753
X0147824Y0136366
X014807Y01416
Y015158
X0138314Y0144364
X0138136Y0138814
Y0124046
X0138006Y0118534
Y0103784
X0138004Y0098234
Y0083546
X014137Y007806
X014902Y005801
X016685Y005634
X020259Y006116
X0204783Y007157
X020737
X021537Y007526
X021861Y006445
X022086Y008415
X021016Y008902
X020833Y009085
X020879Y009709
X0212354Y0098234
X0205138Y0115968
X019771Y011823
X022358Y011534
X022977Y010754
X022651Y012806
X0237943Y0131967
X0240387Y0135189
X025002Y013416
X025298Y011886
X025583Y011639
X024386Y015123
X023807Y014921
X018126Y015545
X018092Y016091
X017643Y016205
X0178722Y016465
X018096Y016759
X018196Y017396
X018612Y017776
X019273Y01831
X019706Y018652
X020345Y017992
X018254Y018871
X018418Y019152
X018791Y019824
X0180144Y0205246
X0169849Y0196959
X0169889Y018303
X017008Y017926
X016425Y018509
X015689Y019987
X013802Y019973
Y01851
X0138206Y0179434
X012688Y018259
X0116947Y0186433
X011837Y019209
X012096Y01913
X011177Y018996
X011288Y016194
X010897Y016179
X012742Y016192
X0138206Y0164714
X0138314Y0159134
X013009Y015036
X012225Y01416
X011292Y014149
X010494Y014004
X010457Y012003
X010904Y01007
X011335Y008368
X011642Y006121
X010904Y0051234
X010464Y005275
X014888Y010523
X0147824Y0127246
X017666Y0127426
X025016Y00506
X025301Y005269
X010065Y005796
X009364Y018256
X0109Y021063
X01092Y021642
X012145Y021136
X013496Y020935
X016525Y021072
X015698Y02192
X018911Y021094
X021131Y021489
X027495Y021918
X028623Y021406
X028833Y0211966
X0286297Y0209873
X028867Y020777
X028601Y020568
X028858Y021626
X030931Y023699
X035869
T02
X008182Y004831
X0264855Y012385
X023347Y013269
X0233565Y0111775
X014416Y012234
X014374Y009127
X0160845Y0172185
X0081335Y015149
X009047Y020262
X0116837Y020994
T04
X003392Y0137808
Y0148596
Y0159383
Y0170171
Y0180958
Y0191745
Y0202533
X0045101Y0197139
Y0186352
Y0175564
Y0164777
Y015399
Y0143202
Y0132415
Y0207927
T05
X0052184Y004373
Y005373
Y00728
Y00828
T06
X003951Y010458
Y0235761
T07
X001772Y0017717
X0358254
X001772Y026337
X0358254
M30
