G04*
G04 #@! TF.GenerationSoftware,Altium Limited,Altium Designer,18.1.9 (240)*
G04*
G04 Layer_Color=16711935*
%FSLAX25Y25*%
%MOIN*%
G70*
G01*
G75*
%ADD84C,0.00100*%
%ADD86C,0.00100*%
D84*
X375900Y265960D02*
G03*
X375900Y265961I-50J0D01*
G01*
X360851Y281010D02*
G03*
X360850Y281010I-1J-15050D01*
G01*
X375900Y265961D02*
G03*
X360851Y281010I-15050J-1D01*
G01*
X375900Y265960D02*
G03*
X375900Y265961I-15050J-0D01*
G01*
X375800Y265960D02*
G03*
X375800Y265959I50J0D01*
G01*
X360851Y281010D02*
G03*
X360850Y281010I-1J-50D01*
G01*
X360849Y280910D02*
G03*
X360850Y280910I1J50D01*
G01*
X375800Y265960D02*
G03*
X360850Y280910I-14950J-0D01*
G01*
X375800Y15352D02*
G03*
X375800Y15350I50J-2D01*
G01*
X375900Y15348D02*
G03*
X375900Y15350I-50J2D01*
G01*
X375900Y15348D02*
G03*
X375900Y15350I-15400J2D01*
G01*
X360500Y-50D02*
G03*
X375900Y15348I0J15400D01*
G01*
X360500Y50D02*
G03*
X375800Y15350I0J15300D01*
G01*
X15790Y280910D02*
G03*
X15791Y280910I0J50D01*
G01*
X15790Y280910D02*
G03*
X55Y265175I-0J-15734D01*
G01*
X15790Y281010D02*
G03*
X15789Y281010I0J-50D01*
G01*
D02*
G03*
X-45Y265175I1J-15835D01*
G01*
X15790Y281010D02*
G03*
X15789Y281010I-0J-15835D01*
G01*
X55Y16195D02*
G03*
X16200Y50I16145J0D01*
G01*
X-45Y16195D02*
G03*
X16200Y-50I16245J0D01*
G01*
X375900Y15350D02*
X375900Y265960D01*
X375800Y265959D02*
Y265960D01*
X375800Y15352D02*
X375800Y265959D01*
X375800Y15350D02*
Y15352D01*
X16200Y50D02*
X360500Y50D01*
X16200Y50D02*
X16200D01*
Y-50D02*
X360500Y-50D01*
X16200Y-50D02*
X16200D01*
X15790Y281010D02*
X360850D01*
X360849Y280910D02*
X360850D01*
X15791D02*
X360849D01*
X15790D02*
X15791D01*
X55Y265175D02*
X55Y16195D01*
X-45Y265175D02*
Y265175D01*
Y265175D02*
X-45Y16195D01*
D86*
X375900Y15350D02*
D03*
M02*
