G04*
G04 #@! TF.GenerationSoftware,Altium Limited,Altium Designer,18.1.9 (240)*
G04*
G04 Layer_Color=8388736*
%FSLAX25Y25*%
%MOIN*%
G70*
G01*
G75*
G04:AMPARAMS|DCode=26|XSize=10.63mil|YSize=57.53mil|CornerRadius=0mil|HoleSize=0mil|Usage=FLASHONLY|Rotation=225.000|XOffset=0mil|YOffset=0mil|HoleType=Round|Shape=Rectangle|*
%AMROTATEDRECTD26*
4,1,4,-0.01658,0.02410,0.02410,-0.01658,0.01658,-0.02410,-0.02410,0.01658,-0.01658,0.02410,0.0*
%
%ADD26ROTATEDRECTD26*%

G04:AMPARAMS|DCode=27|XSize=10.63mil|YSize=57.53mil|CornerRadius=0mil|HoleSize=0mil|Usage=FLASHONLY|Rotation=135.000|XOffset=0mil|YOffset=0mil|HoleType=Round|Shape=Rectangle|*
%AMROTATEDRECTD27*
4,1,4,0.02410,0.01658,-0.01658,-0.02410,-0.02410,-0.01658,0.01658,0.02410,0.02410,0.01658,0.0*
%
%ADD27ROTATEDRECTD27*%

%ADD35R,0.11824X0.11036*%
%ADD36R,0.20800X0.06800*%
%ADD37O,0.20800X0.06800*%
%ADD38R,0.05524X0.06312*%
%ADD39R,0.55918X0.28359*%
%ADD40R,0.08241X0.05800*%
%ADD41R,0.11036X0.11824*%
%ADD42R,0.03556X0.04343*%
%ADD43R,0.03950X0.04343*%
%ADD44P,0.31959X4X360.0*%
%ADD45R,0.04343X0.03556*%
%ADD46R,0.06272X0.06312*%
%ADD47R,0.19934X0.14028*%
%ADD48R,0.04343X0.03950*%
%ADD49R,0.05524X0.11036*%
%ADD50R,0.04343X0.03950*%
%ADD51C,0.07847*%
%ADD52R,0.07847X0.07847*%
%ADD53C,0.07099*%
%ADD54C,0.18910*%
G04:AMPARAMS|DCode=55|XSize=8mil|YSize=8mil|CornerRadius=0mil|HoleSize=0mil|Usage=FLASHONLY|Rotation=90.000|XOffset=0mil|YOffset=0mil|HoleType=Round|Shape=RoundedRectangle|*
%AMROUNDEDRECTD55*
21,1,0.00800,0.00800,0,0,90.0*
21,1,0.00800,0.00800,0,0,90.0*
1,1,0.00000,0.00400,0.00400*
1,1,0.00000,0.00400,-0.00400*
1,1,0.00000,-0.00400,-0.00400*
1,1,0.00000,-0.00400,0.00400*
%
%ADD55ROUNDEDRECTD55*%
G04:AMPARAMS|DCode=56|XSize=362.33mil|YSize=441.07mil|CornerRadius=48.29mil|HoleSize=0mil|Usage=FLASHONLY|Rotation=270.000|XOffset=0mil|YOffset=0mil|HoleType=Round|Shape=RoundedRectangle|*
%AMROUNDEDRECTD56*
21,1,0.36233,0.34449,0,0,270.0*
21,1,0.26575,0.44107,0,0,270.0*
1,1,0.09658,-0.17224,-0.13287*
1,1,0.09658,-0.17224,0.13287*
1,1,0.09658,0.17224,0.13287*
1,1,0.09658,0.17224,-0.13287*
%
%ADD56ROUNDEDRECTD56*%
%ADD57C,0.29934*%
%ADD58C,0.02787*%
D26*
X191110Y189849D02*
D03*
X189718Y188457D02*
D03*
X188326Y187065D02*
D03*
X186934Y185673D02*
D03*
X185543Y184281D02*
D03*
X184151Y182889D02*
D03*
X182759Y181497D02*
D03*
X181367Y180105D02*
D03*
X179975Y178713D02*
D03*
X178583Y177321D02*
D03*
X177191Y175929D02*
D03*
X175799Y174538D02*
D03*
X174407Y173146D02*
D03*
X173015Y171754D02*
D03*
X171623Y170362D02*
D03*
X170231Y168970D02*
D03*
X201550Y137651D02*
D03*
X202942Y139043D02*
D03*
X204334Y140435D02*
D03*
X205726Y141827D02*
D03*
X207118Y143219D02*
D03*
X208509Y144611D02*
D03*
X209901Y146003D02*
D03*
X211293Y147395D02*
D03*
X212685Y148787D02*
D03*
X214077Y150179D02*
D03*
X215469Y151570D02*
D03*
X216861Y152962D02*
D03*
X218253Y154354D02*
D03*
X219645Y155746D02*
D03*
X221037Y157138D02*
D03*
X222429Y158530D02*
D03*
D27*
X170231D02*
D03*
X171623Y157138D02*
D03*
X173015Y155746D02*
D03*
X174407Y154354D02*
D03*
X175799Y152962D02*
D03*
X177191Y151570D02*
D03*
X178583Y150179D02*
D03*
X179975Y148787D02*
D03*
X181367Y147395D02*
D03*
X182759Y146003D02*
D03*
X184151Y144611D02*
D03*
X185543Y143219D02*
D03*
X186934Y141827D02*
D03*
X188326Y140435D02*
D03*
X189718Y139043D02*
D03*
X191110Y137651D02*
D03*
X222429Y168970D02*
D03*
X221037Y170362D02*
D03*
X219645Y171754D02*
D03*
X218253Y173146D02*
D03*
X216861Y174538D02*
D03*
X215469Y175929D02*
D03*
X214077Y177321D02*
D03*
X212685Y178713D02*
D03*
X211293Y180105D02*
D03*
X209901Y181497D02*
D03*
X208509Y182889D02*
D03*
X207118Y184281D02*
D03*
X205726Y185673D02*
D03*
X204334Y187065D02*
D03*
X202942Y188457D02*
D03*
X201550Y189849D02*
D03*
D35*
X317760Y89680D02*
D03*
Y47554D02*
D03*
X317770Y100854D02*
D03*
Y142980D02*
D03*
X305220Y143030D02*
D03*
Y185156D02*
D03*
D36*
X358225Y43307D02*
D03*
D37*
Y53307D02*
D03*
Y63307D02*
D03*
Y73307D02*
D03*
Y83307D02*
D03*
Y93307D02*
D03*
Y103307D02*
D03*
Y113307D02*
D03*
Y123307D02*
D03*
Y133307D02*
D03*
Y143307D02*
D03*
Y153307D02*
D03*
Y163307D02*
D03*
D38*
X231147Y177800D02*
D03*
X238233D02*
D03*
X253259Y177800D02*
D03*
X246173D02*
D03*
X199553Y198150D02*
D03*
X192467D02*
D03*
X268285Y177800D02*
D03*
X261199D02*
D03*
X230067Y163590D02*
D03*
X237153D02*
D03*
D39*
X339420Y184590D02*
D03*
X339050Y218500D02*
D03*
D40*
X280721Y60550D02*
D03*
Y70550D02*
D03*
Y80550D02*
D03*
Y90550D02*
D03*
Y100550D02*
D03*
X226430Y60550D02*
D03*
Y70550D02*
D03*
Y80550D02*
D03*
Y90550D02*
D03*
Y100550D02*
D03*
D41*
X250181Y226870D02*
D03*
X208055D02*
D03*
X303466D02*
D03*
X261340D02*
D03*
X143610D02*
D03*
X101484D02*
D03*
X196895D02*
D03*
X154769D02*
D03*
D42*
X127883Y187359D02*
D03*
X121977D02*
D03*
X294668Y60217D02*
D03*
X288763D02*
D03*
X294668Y68521D02*
D03*
X288763D02*
D03*
X294668Y101737D02*
D03*
X288763D02*
D03*
X294668Y93433D02*
D03*
X288763D02*
D03*
X167390Y144350D02*
D03*
X161485D02*
D03*
X199003Y211010D02*
D03*
X193097D02*
D03*
X280556Y177800D02*
D03*
X274650D02*
D03*
X167390Y137530D02*
D03*
X161485D02*
D03*
X180763Y198230D02*
D03*
X174857D02*
D03*
X335387Y108578D02*
D03*
X341293D02*
D03*
X335387Y95326D02*
D03*
X341293D02*
D03*
X335387Y82074D02*
D03*
X341293D02*
D03*
X335387Y55570D02*
D03*
X341293D02*
D03*
X16687Y181143D02*
D03*
X22593D02*
D03*
X16687Y191890D02*
D03*
X22593D02*
D03*
X22593Y170397D02*
D03*
X16687D02*
D03*
X22593Y159650D02*
D03*
X16687D02*
D03*
X341293Y121830D02*
D03*
X335387D02*
D03*
X341293Y68822D02*
D03*
X335387D02*
D03*
X121977Y75173D02*
D03*
X127883D02*
D03*
X121977Y85372D02*
D03*
X127883D02*
D03*
X121977Y95571D02*
D03*
X127883D02*
D03*
X121977Y105769D02*
D03*
X127883D02*
D03*
X121977Y115968D02*
D03*
X127883D02*
D03*
X121977Y126167D02*
D03*
X127883D02*
D03*
X121977Y136366D02*
D03*
X127883D02*
D03*
X121977Y146564D02*
D03*
X127883D02*
D03*
X121977Y156763D02*
D03*
X127883D02*
D03*
X121977Y166962D02*
D03*
X127883D02*
D03*
X121977Y177161D02*
D03*
X127883D02*
D03*
X121977Y197558D02*
D03*
X127883D02*
D03*
X121977Y207757D02*
D03*
X127883D02*
D03*
D43*
X294471Y76825D02*
D03*
X288960D02*
D03*
X294471Y85129D02*
D03*
X288960D02*
D03*
D44*
X196330Y163750D02*
D03*
D45*
X216570Y203913D02*
D03*
Y198007D02*
D03*
X222485Y203830D02*
D03*
Y197924D02*
D03*
D46*
X246303Y159558D02*
D03*
Y166802D02*
D03*
D47*
X261980Y163180D02*
D03*
D48*
X134260Y77934D02*
D03*
Y83446D02*
D03*
X134260Y98234D02*
D03*
Y103746D02*
D03*
Y118534D02*
D03*
Y124046D02*
D03*
Y138834D02*
D03*
Y144346D02*
D03*
Y159134D02*
D03*
Y164646D02*
D03*
Y179434D02*
D03*
Y184946D02*
D03*
Y199734D02*
D03*
Y205246D02*
D03*
D49*
X99037Y80347D02*
D03*
X81714D02*
D03*
X99037Y100737D02*
D03*
X81714D02*
D03*
X99037Y121127D02*
D03*
X81714D02*
D03*
X99037Y141517D02*
D03*
X81714D02*
D03*
X99037Y161907D02*
D03*
X81714D02*
D03*
X99037Y182297D02*
D03*
X81714D02*
D03*
X99037Y202687D02*
D03*
X81714D02*
D03*
D50*
X109073Y84340D02*
D03*
Y76860D02*
D03*
X116947Y80600D02*
D03*
X109073Y104712D02*
D03*
Y97232D02*
D03*
X116947Y100972D02*
D03*
X109073Y125083D02*
D03*
Y117603D02*
D03*
X116947Y121343D02*
D03*
X109073Y145455D02*
D03*
Y137975D02*
D03*
X116947Y141715D02*
D03*
X109073Y165827D02*
D03*
Y158346D02*
D03*
X116947Y162087D02*
D03*
X109073Y186198D02*
D03*
Y178718D02*
D03*
X116947Y182458D02*
D03*
X108963Y206570D02*
D03*
Y199090D02*
D03*
X116837Y202830D02*
D03*
D51*
X52184Y72800D02*
D03*
Y43730D02*
D03*
D52*
Y82800D02*
D03*
Y53730D02*
D03*
D53*
X45101Y207927D02*
D03*
Y197139D02*
D03*
Y186352D02*
D03*
Y175564D02*
D03*
Y164777D02*
D03*
Y153990D02*
D03*
Y143202D02*
D03*
Y132415D02*
D03*
X33920Y202533D02*
D03*
Y191745D02*
D03*
Y180958D02*
D03*
Y170171D02*
D03*
Y159383D02*
D03*
Y148596D02*
D03*
Y137808D02*
D03*
D54*
X39510Y104580D02*
D03*
Y235761D02*
D03*
D55*
X306285Y269677D02*
D03*
Y10677D02*
D03*
X233565Y269677D02*
D03*
Y10677D02*
D03*
X160845Y269677D02*
D03*
Y10677D02*
D03*
X88125Y269677D02*
D03*
Y10677D02*
D03*
D56*
X306285Y23457D02*
D03*
Y256897D02*
D03*
X233565Y23457D02*
D03*
Y256897D02*
D03*
X160845Y23457D02*
D03*
Y256897D02*
D03*
X88125Y23457D02*
D03*
Y256897D02*
D03*
D57*
X358254Y17717D02*
D03*
Y263370D02*
D03*
X17720Y17717D02*
D03*
Y263370D02*
D03*
D58*
X291954Y185390D02*
D03*
X338110Y45600D02*
D03*
X285031Y51761D02*
D03*
M02*
