G04*
G04 #@! TF.GenerationSoftware,Altium Limited,Altium Designer,18.1.9 (240)*
G04*
G04 Layer_Color=32768*
%FSLAX25Y25*%
%MOIN*%
G70*
G01*
G75*
%ADD13C,0.00600*%
%ADD83C,0.00394*%
%ADD85C,0.00197*%
G36*
X169850Y160977D02*
X167077Y163750D01*
X169850Y166523D01*
X165983Y170390D01*
X189690Y194097D01*
X193557Y190230D01*
X196330Y193003D01*
X199103Y190230D01*
X202970Y194097D01*
X226677Y170390D01*
X222810Y166523D01*
X225583Y163750D01*
X222810Y160977D01*
X226677Y157110D01*
X202970Y133403D01*
X199103Y137270D01*
X196330Y134497D01*
X193557Y137270D01*
X189690Y133403D01*
X165983Y157110D01*
X169850Y160977D01*
D02*
G37*
D13*
X167077Y163750D02*
X169850Y166523D01*
X165983Y170390D02*
X169850Y166523D01*
X165983Y170390D02*
X189690Y194097D01*
X193557Y190230D01*
X196330Y193003D01*
X199103Y190230D01*
X202970Y194097D01*
X226677Y170390D01*
X222810Y166523D02*
X226677Y170390D01*
X222810Y166523D02*
X225583Y163750D01*
X222810Y160977D02*
X225583Y163750D01*
X222810Y160977D02*
X226677Y157110D01*
X202970Y133403D02*
X226677Y157110D01*
X199103Y137270D02*
X202970Y133403D01*
X196330Y134497D02*
X199103Y137270D01*
X193557D02*
X196330Y134497D01*
X189690Y133403D02*
X193557Y137270D01*
X165983Y157110D02*
X189690Y133403D01*
X165983Y157110D02*
X169850Y160977D01*
X167077Y163750D02*
X169850Y160977D01*
D83*
X234690Y175831D02*
Y179769D01*
X232721Y177800D02*
X236659D01*
X227800Y181540D02*
X241580D01*
X227800Y174060D02*
X241580D01*
X227800D02*
Y181540D01*
X241580D02*
X241580Y174060D01*
X249716Y175831D02*
Y179769D01*
X247747Y177800D02*
X251684D01*
X242826Y174060D02*
X256606D01*
X242826Y181540D02*
X256606D01*
Y174060D02*
Y181540D01*
X242826Y174060D02*
Y181540D01*
X346830Y202810D02*
X350570D01*
X353424Y200645D02*
Y204975D01*
X348700Y200940D02*
Y204680D01*
X343976Y200645D02*
X353424D01*
X343976Y204975D02*
X353424D01*
X343976Y200645D02*
Y204975D01*
X346690Y246320D02*
X350430D01*
X353284Y244155D02*
Y248485D01*
X348560Y244450D02*
Y248190D01*
X343836Y244155D02*
X353284D01*
X343836Y248485D02*
X353284D01*
X343836Y244155D02*
Y248485D01*
X346620Y240104D02*
X350360D01*
X353214Y237939D02*
Y242270D01*
X348490Y238234D02*
Y241974D01*
X343766Y237939D02*
X353214D01*
X343766Y242270D02*
X353214D01*
X343766Y237939D02*
Y242270D01*
X346620Y233889D02*
X350360D01*
X353214Y231723D02*
Y236054D01*
X348490Y232018D02*
Y235759D01*
X343766Y231723D02*
X353214D01*
X343766Y236054D02*
X353214D01*
X343766Y231723D02*
Y236054D01*
X346620Y227673D02*
X350360D01*
X353214Y225507D02*
Y229838D01*
X348490Y225803D02*
Y229543D01*
X343766Y225507D02*
X353214D01*
X343766Y229838D02*
X353214D01*
X343766Y225507D02*
Y229838D01*
X346620Y221457D02*
X350360D01*
X353214Y219292D02*
Y223622D01*
X348490Y219587D02*
Y223327D01*
X343766Y219292D02*
X353214D01*
X343766Y223622D02*
X353214D01*
X343766Y219292D02*
Y223622D01*
X346620Y209026D02*
X350360D01*
X353214Y206860D02*
Y211191D01*
X348490Y207156D02*
Y210896D01*
X343766Y206860D02*
X353214D01*
X343766Y211191D02*
X353214D01*
X343766Y206860D02*
Y211191D01*
X346620Y215241D02*
X350360D01*
X353214Y213076D02*
Y217407D01*
X348490Y213371D02*
Y217111D01*
X343766Y213076D02*
X353214D01*
X343766Y217407D02*
X353214D01*
X343766Y213076D02*
Y217407D01*
X123060Y187359D02*
X126800D01*
X129654Y185194D02*
Y189525D01*
X124930Y185489D02*
Y189230D01*
X120206Y189525D02*
X129654D01*
X120206Y185194D02*
X129654D01*
X120206D02*
Y189525D01*
X366310Y202740D02*
X370050D01*
X372904Y200575D02*
Y204905D01*
X368180Y200870D02*
Y204610D01*
X363456Y204905D02*
X372904D01*
X363456Y200575D02*
X372904D01*
X363456D02*
Y204905D01*
X366100Y208956D02*
X369840D01*
X372694Y206790D02*
Y211121D01*
X367970Y207086D02*
Y210826D01*
X363246Y211121D02*
X372694D01*
X363246Y206790D02*
X372694D01*
X363246D02*
Y211121D01*
X366100Y215171D02*
X369840D01*
X372694Y213006D02*
Y217337D01*
X367970Y213301D02*
Y217041D01*
X363246Y217337D02*
X372694D01*
X363246Y213006D02*
X372694D01*
X363246D02*
Y217337D01*
X366100Y221387D02*
X369840D01*
X372694Y219222D02*
Y223552D01*
X367970Y219517D02*
Y223257D01*
X363246Y223552D02*
X372694D01*
X363246Y219222D02*
X372694D01*
X363246D02*
Y223552D01*
X366100Y227603D02*
X369840D01*
X372694Y225437D02*
Y229768D01*
X367970Y225733D02*
Y229473D01*
X363246Y229768D02*
X372694D01*
X363246Y225437D02*
X372694D01*
X363246D02*
Y229768D01*
X366100Y240034D02*
X369840D01*
X372694Y237869D02*
Y242200D01*
X367970Y238164D02*
Y241904D01*
X363246Y242200D02*
X372694D01*
X363246Y237869D02*
X372694D01*
X363246D02*
Y242200D01*
X366100Y233819D02*
X369840D01*
X372694Y231653D02*
Y235984D01*
X367970Y231948D02*
Y235689D01*
X363246Y235984D02*
X372694D01*
X363246Y231653D02*
X372694D01*
X363246D02*
Y235984D01*
X366170Y246250D02*
X369910D01*
X372764Y244085D02*
Y248415D01*
X368040Y244380D02*
Y248120D01*
X363316Y248415D02*
X372764D01*
X363316Y244085D02*
X372764D01*
X363316D02*
Y248415D01*
X289845Y60217D02*
X293585D01*
X296440Y58052D02*
Y62382D01*
X291715Y58347D02*
Y62087D01*
X286991Y62382D02*
X296440D01*
X286991Y58052D02*
X296440D01*
X286991D02*
Y62382D01*
X289845Y68521D02*
X293585D01*
X296440Y66356D02*
Y70686D01*
X291715Y66651D02*
Y70391D01*
X286991Y70686D02*
X296440D01*
X286991Y66356D02*
X296440D01*
X286991D02*
Y70686D01*
X291715Y74955D02*
Y78695D01*
X289845Y76825D02*
X293585D01*
X296440Y74660D02*
Y78990D01*
X286991D02*
X296440D01*
X286991Y74660D02*
X296440D01*
X286991D02*
Y78990D01*
X291715Y83259D02*
Y86999D01*
X289845Y85129D02*
X293585D01*
X296440Y82964D02*
Y87294D01*
X286991D02*
X296440D01*
X286991Y82964D02*
X296440D01*
X286991D02*
Y87294D01*
X289845Y101737D02*
X293585D01*
X296440Y99572D02*
Y103902D01*
X291715Y99867D02*
Y103607D01*
X286991Y103902D02*
X296440D01*
X286991Y99572D02*
X296440D01*
X286991D02*
Y103902D01*
X289845Y93433D02*
X293585D01*
X296440Y91268D02*
Y95598D01*
X291715Y91563D02*
Y95303D01*
X286991Y95598D02*
X296440D01*
X286991Y91268D02*
X296440D01*
X286991D02*
Y95598D01*
X162567Y144350D02*
X166307D01*
X169162Y142185D02*
Y146515D01*
X164437Y142480D02*
Y146220D01*
X159713Y146515D02*
X169162D01*
X159713Y142185D02*
X169162D01*
X159713D02*
Y146515D01*
X194180Y211010D02*
X197920D01*
X200774Y208845D02*
Y213175D01*
X196050Y209140D02*
Y212880D01*
X191326Y213175D02*
X200774D01*
X191326Y208845D02*
X200774D01*
X191326D02*
Y213175D01*
X194042Y198150D02*
X197978D01*
X196010Y196181D02*
Y200118D01*
X202900Y194410D02*
Y201890D01*
X189120D02*
X202900D01*
X189120Y194410D02*
X202900D01*
X189120D02*
Y201890D01*
X214700Y200960D02*
X218440D01*
X218735Y196236D02*
Y205684D01*
X216570Y199090D02*
Y202830D01*
X214405Y205684D02*
X218735D01*
X214405Y196236D02*
X218735D01*
X214405D02*
Y205684D01*
X220615Y200877D02*
X224356D01*
X222485Y199007D02*
Y202747D01*
X224651Y196152D02*
Y205601D01*
X220320D02*
X224651D01*
X220320Y196152D02*
X224651D01*
X220320D02*
Y205601D01*
X275733Y177800D02*
X279473D01*
X282327Y175635D02*
Y179965D01*
X277603Y175930D02*
Y179670D01*
X272878Y179965D02*
X282327D01*
X272878Y175635D02*
X282327D01*
X272878D02*
Y179965D01*
X262774Y177800D02*
X266711D01*
X264742Y175831D02*
Y179769D01*
X271632Y174060D02*
Y181540D01*
X257852D02*
X271632D01*
X257852Y174060D02*
X271632D01*
X257852D02*
Y181540D01*
X231642Y163590D02*
X235578D01*
X233610Y161621D02*
Y165559D01*
X226720Y167330D02*
X240500D01*
X226720Y159850D02*
Y167330D01*
X240500D02*
X240500Y159850D01*
X226720D02*
X240500D01*
X162567Y137530D02*
X166307D01*
X169162Y135365D02*
Y139695D01*
X164437Y135660D02*
Y139400D01*
X159713Y139695D02*
X169162D01*
X159713Y135365D02*
X169162D01*
X159713D02*
Y139695D01*
X175940Y198230D02*
X179680D01*
X182534Y196065D02*
Y200395D01*
X177810Y196360D02*
Y200100D01*
X173086Y200395D02*
X182534D01*
X173086Y196065D02*
X182534D01*
X173086D02*
Y200395D01*
X132095Y75966D02*
X136425D01*
X132095Y85414D02*
X136425D01*
X132095Y75966D02*
Y85414D01*
X136425Y75966D02*
Y85414D01*
X134260Y78820D02*
Y82560D01*
X132390Y80690D02*
X136130D01*
X132095Y96266D02*
X136425D01*
X132095Y105714D02*
X136425D01*
X132095Y96266D02*
Y105714D01*
X136425Y96266D02*
Y105714D01*
X134260Y99120D02*
Y102860D01*
X132390Y100990D02*
X136130D01*
X132095Y116566D02*
X136425D01*
X132095Y126014D02*
X136425D01*
X132095Y116566D02*
Y126014D01*
X136425Y116566D02*
Y126014D01*
X134260Y119420D02*
Y123160D01*
X132390Y121290D02*
X136130D01*
X132095Y136866D02*
X136425D01*
X132095Y146314D02*
X136425D01*
X132095Y136866D02*
Y146314D01*
X136425Y136866D02*
Y146314D01*
X134260Y139720D02*
Y143460D01*
X132390Y141590D02*
X136130D01*
X132095Y157166D02*
X136425D01*
X132095Y166614D02*
X136425D01*
X132095Y157166D02*
Y166614D01*
X136425Y157166D02*
Y166614D01*
X134260Y160020D02*
Y163760D01*
X132390Y161890D02*
X136130D01*
X132095Y177466D02*
X136425D01*
X132095Y186914D02*
X136425D01*
X132095Y177466D02*
Y186914D01*
X136425Y177466D02*
Y186914D01*
X134260Y180320D02*
Y184060D01*
X132390Y182190D02*
X136130D01*
X132095Y197766D02*
X136425D01*
X132095Y207214D02*
X136425D01*
X132095Y197766D02*
Y207214D01*
X136425Y197766D02*
Y207214D01*
X134260Y200620D02*
Y204360D01*
X132390Y202490D02*
X136130D01*
X333616Y106413D02*
Y110743D01*
X343064Y106413D02*
Y110743D01*
X333616D02*
X343064D01*
X333616Y106413D02*
X343064D01*
X336470Y108578D02*
X340210D01*
X338340Y106708D02*
Y110448D01*
X333616Y93161D02*
Y97491D01*
X343064Y93161D02*
Y97491D01*
X333616D02*
X343064D01*
X333616Y93161D02*
X343064D01*
X336470Y95326D02*
X340210D01*
X338340Y93456D02*
Y97196D01*
X333616Y79909D02*
Y84239D01*
X343064Y79909D02*
Y84239D01*
X333616D02*
X343064D01*
X333616Y79909D02*
X343064D01*
X336470Y82074D02*
X340210D01*
X338340Y80204D02*
Y83944D01*
X333616Y53405D02*
Y57735D01*
X343064Y53405D02*
Y57735D01*
X333616D02*
X343064D01*
X333616Y53405D02*
X343064D01*
X336470Y55570D02*
X340210D01*
X338340Y53700D02*
Y57440D01*
X14916Y178978D02*
Y183309D01*
X24364Y178978D02*
Y183309D01*
X14916D02*
X24364D01*
X14916Y178978D02*
X24364D01*
X17770Y181143D02*
X21510D01*
X19640Y179273D02*
Y183013D01*
X14916Y189725D02*
Y194055D01*
X24364Y189725D02*
Y194055D01*
X14916D02*
X24364D01*
X14916Y189725D02*
X24364D01*
X17770Y191890D02*
X21510D01*
X19640Y190020D02*
Y193760D01*
X24364Y168231D02*
Y172562D01*
X14916Y168231D02*
Y172562D01*
Y168231D02*
X24364D01*
X14916Y172562D02*
X24364D01*
X17770Y170397D02*
X21510D01*
X19640Y168527D02*
Y172267D01*
X24364Y157485D02*
Y161815D01*
X14916Y157485D02*
Y161815D01*
Y157485D02*
X24364D01*
X14916Y161815D02*
X24364D01*
X17770Y159650D02*
X21510D01*
X19640Y157780D02*
Y161520D01*
X343064Y119665D02*
Y123995D01*
X333616Y119665D02*
Y123995D01*
Y119665D02*
X343064D01*
X333616Y123995D02*
X343064D01*
X336470Y121830D02*
X340210D01*
X338340Y119960D02*
Y123700D01*
X343064Y66657D02*
Y70987D01*
X333616Y66657D02*
Y70987D01*
Y66657D02*
X343064D01*
X333616Y70987D02*
X343064D01*
X336470Y68822D02*
X340210D01*
X338340Y66952D02*
Y70692D01*
X101793Y74835D02*
Y85859D01*
X78958Y74835D02*
Y85859D01*
Y74835D02*
X101793D01*
X78958Y85859D02*
X101793D01*
X88407Y80347D02*
X92344D01*
X90375Y78378D02*
Y82315D01*
X120206Y73008D02*
Y77338D01*
X129654Y73008D02*
Y77338D01*
X120206D02*
X129654D01*
X120206Y73008D02*
X129654D01*
X123060Y75173D02*
X126800D01*
X124930Y73303D02*
Y77043D01*
X120206Y83206D02*
Y87537D01*
X129654Y83206D02*
Y87537D01*
X120206D02*
X129654D01*
X120206Y83206D02*
X129654D01*
X123060Y85372D02*
X126800D01*
X124930Y83502D02*
Y87242D01*
X101793Y95225D02*
Y106249D01*
X78958Y95225D02*
Y106249D01*
Y95225D02*
X101793D01*
X78958Y106249D02*
X101793D01*
X88407Y100737D02*
X92344D01*
X90375Y98768D02*
Y102705D01*
X120206Y93405D02*
Y97736D01*
X129654Y93405D02*
Y97736D01*
X120206D02*
X129654D01*
X120206Y93405D02*
X129654D01*
X123060Y95571D02*
X126800D01*
X124930Y93700D02*
Y97441D01*
X120206Y103604D02*
Y107935D01*
X129654Y103604D02*
Y107935D01*
X120206D02*
X129654D01*
X120206Y103604D02*
X129654D01*
X123060Y105769D02*
X126800D01*
X124930Y103899D02*
Y107640D01*
X101793Y115615D02*
Y126639D01*
X78958Y115615D02*
Y126639D01*
Y115615D02*
X101793D01*
X78958Y126639D02*
X101793D01*
X88407Y121127D02*
X92344D01*
X90375Y119158D02*
Y123095D01*
X120206Y113803D02*
Y118133D01*
X129654Y113803D02*
Y118133D01*
X120206D02*
X129654D01*
X120206Y113803D02*
X129654D01*
X123060Y115968D02*
X126800D01*
X124930Y114098D02*
Y117838D01*
X120206Y124002D02*
Y128332D01*
X129654Y124002D02*
Y128332D01*
X120206D02*
X129654D01*
X120206Y124002D02*
X129654D01*
X123060Y126167D02*
X126800D01*
X124930Y124297D02*
Y128037D01*
X101793Y136005D02*
Y147029D01*
X78958Y136005D02*
Y147029D01*
Y136005D02*
X101793D01*
X78958Y147029D02*
X101793D01*
X88407Y141517D02*
X92344D01*
X90375Y139548D02*
Y143485D01*
X120206Y134200D02*
Y138531D01*
X129654Y134200D02*
Y138531D01*
X120206D02*
X129654D01*
X120206Y134200D02*
X129654D01*
X123060Y136366D02*
X126800D01*
X124930Y134496D02*
Y138236D01*
X120206Y144399D02*
Y148730D01*
X129654Y144399D02*
Y148730D01*
X120206D02*
X129654D01*
X120206Y144399D02*
X129654D01*
X123060Y146564D02*
X126800D01*
X124930Y144694D02*
Y148434D01*
X101793Y156395D02*
Y167419D01*
X78958Y156395D02*
Y167419D01*
Y156395D02*
X101793D01*
X78958Y167419D02*
X101793D01*
X88407Y161907D02*
X92344D01*
X90375Y159938D02*
Y163875D01*
X120206Y154598D02*
Y158929D01*
X129654Y154598D02*
Y158929D01*
X120206D02*
X129654D01*
X120206Y154598D02*
X129654D01*
X123060Y156763D02*
X126800D01*
X124930Y154893D02*
Y158633D01*
X120206Y164797D02*
Y169127D01*
X129654Y164797D02*
Y169127D01*
X120206D02*
X129654D01*
X120206Y164797D02*
X129654D01*
X123060Y166962D02*
X126800D01*
X124930Y165092D02*
Y168832D01*
X101793Y176785D02*
Y187809D01*
X78958Y176785D02*
Y187809D01*
Y176785D02*
X101793D01*
X78958Y187809D02*
X101793D01*
X88407Y182297D02*
X92344D01*
X90375Y180328D02*
Y184265D01*
X120206Y174995D02*
Y179326D01*
X129654Y174995D02*
Y179326D01*
X120206D02*
X129654D01*
X120206Y174995D02*
X129654D01*
X123060Y177161D02*
X126800D01*
X124930Y175291D02*
Y179031D01*
X101793Y197175D02*
Y208199D01*
X78958Y197175D02*
Y208199D01*
Y197175D02*
X101793D01*
X78958Y208199D02*
X101793D01*
X88407Y202687D02*
X92344D01*
X90375Y200718D02*
Y204655D01*
X120206Y195393D02*
Y199724D01*
X129654Y195393D02*
Y199724D01*
X120206D02*
X129654D01*
X120206Y195393D02*
X129654D01*
X123060Y197558D02*
X126800D01*
X124930Y195688D02*
Y199428D01*
X120206Y205592D02*
Y209922D01*
X129654Y205592D02*
Y209922D01*
X120206D02*
X129654D01*
X120206Y205592D02*
X129654D01*
X123060Y207757D02*
X126800D01*
X124930Y205887D02*
Y209627D01*
X111041Y80600D02*
X114979D01*
X113010Y78632D02*
Y82569D01*
X111041Y100972D02*
X114979D01*
X113010Y99003D02*
Y102940D01*
X111041Y121343D02*
X114979D01*
X113010Y119375D02*
Y123312D01*
X111041Y141715D02*
X114979D01*
X113010Y139746D02*
Y143684D01*
X111041Y162087D02*
X114979D01*
X113010Y160118D02*
Y164055D01*
X111041Y182458D02*
X114979D01*
X113010Y180490D02*
Y184427D01*
X110932Y202830D02*
X114868D01*
X112900Y200862D02*
Y204799D01*
D85*
X105431Y73710D02*
Y87490D01*
X120589Y73710D02*
Y87490D01*
X105431D02*
X120589D01*
X105431Y73710D02*
X120589D01*
X105431Y94082D02*
Y107861D01*
X120589Y94082D02*
Y107861D01*
X105431D02*
X120589D01*
X105431Y94082D02*
X120589D01*
X105431Y114454D02*
Y128233D01*
X120589Y114454D02*
Y128233D01*
X105431D02*
X120589D01*
X105431Y114454D02*
X120589D01*
X105431Y134825D02*
Y148605D01*
X120589Y134825D02*
Y148605D01*
X105431D02*
X120589D01*
X105431Y134825D02*
X120589D01*
X105431Y155197D02*
Y168976D01*
X120589Y155197D02*
Y168976D01*
X105431D02*
X120589D01*
X105431Y155197D02*
X120589D01*
X105431Y175568D02*
Y189348D01*
X120589Y175568D02*
Y189348D01*
X105431D02*
X120589D01*
X105431Y175568D02*
X120589D01*
X105321Y195940D02*
Y209720D01*
X120479Y195940D02*
Y209720D01*
X105321D02*
X120479D01*
X105321Y195940D02*
X120479D01*
M02*
