G04*
G04 #@! TF.GenerationSoftware,Altium Limited,Altium Designer,18.1.9 (240)*
G04*
G04 Layer_Color=255*
%FSLAX25Y25*%
%MOIN*%
G70*
G01*
G75*
%ADD24R,0.02756X0.03543*%
%ADD64C,0.07047*%
%ADD65R,0.07047X0.07047*%
%ADD66C,0.06299*%
%ADD67C,0.18110*%
%ADD69C,0.29134*%
%ADD72R,0.06693X0.06693*%
%ADD73R,0.10039X0.03937*%
%ADD74R,0.13504X0.05000*%
G04:AMPARAMS|DCode=75|XSize=83.66mil|YSize=433.07mil|CornerRadius=41.83mil|HoleSize=0mil|Usage=FLASHONLY|Rotation=90.000|XOffset=0mil|YOffset=0mil|HoleType=Round|Shape=RoundedRectangle|*
%AMROUNDEDRECTD75*
21,1,0.08366,0.34941,0,0,90.0*
21,1,0.00000,0.43307,0,0,90.0*
1,1,0.08366,0.17471,0.00000*
1,1,0.08366,0.17471,0.00000*
1,1,0.08366,-0.17471,0.00000*
1,1,0.08366,-0.17471,0.00000*
%
%ADD75ROUNDEDRECTD75*%
G04:AMPARAMS|DCode=76|XSize=88.58mil|YSize=433.07mil|CornerRadius=44.29mil|HoleSize=0mil|Usage=FLASHONLY|Rotation=270.000|XOffset=0mil|YOffset=0mil|HoleType=Round|Shape=RoundedRectangle|*
%AMROUNDEDRECTD76*
21,1,0.08858,0.34449,0,0,270.0*
21,1,0.00000,0.43307,0,0,270.0*
1,1,0.08858,-0.17224,0.00000*
1,1,0.08858,-0.17224,0.00000*
1,1,0.08858,0.17224,0.00000*
1,1,0.08858,0.17224,0.00000*
%
%ADD76ROUNDEDRECTD76*%
D24*
X351653Y202810D02*
D03*
X345747D02*
D03*
X351513Y246320D02*
D03*
X345607D02*
D03*
X351443Y240104D02*
D03*
X345537D02*
D03*
X351443Y233889D02*
D03*
X345537D02*
D03*
X351443Y227673D02*
D03*
X345537D02*
D03*
X351443Y221457D02*
D03*
X345537D02*
D03*
X351443Y209026D02*
D03*
X345537D02*
D03*
X351443Y215241D02*
D03*
X345537D02*
D03*
X371133Y202740D02*
D03*
X365227D02*
D03*
X370923Y208956D02*
D03*
X365017D02*
D03*
X370923Y215171D02*
D03*
X365017D02*
D03*
X370923Y221387D02*
D03*
X365017D02*
D03*
X370923Y227603D02*
D03*
X365017D02*
D03*
X370923Y240034D02*
D03*
X365017D02*
D03*
X370923Y233819D02*
D03*
X365017D02*
D03*
X370993Y246250D02*
D03*
X365087D02*
D03*
D64*
X52184Y72800D02*
D03*
Y43730D02*
D03*
D65*
Y82800D02*
D03*
Y53730D02*
D03*
D66*
X45101Y207927D02*
D03*
Y197139D02*
D03*
Y186352D02*
D03*
Y175564D02*
D03*
Y164777D02*
D03*
Y153990D02*
D03*
Y143202D02*
D03*
Y132415D02*
D03*
X33920Y202533D02*
D03*
Y191745D02*
D03*
Y180958D02*
D03*
Y170171D02*
D03*
Y159383D02*
D03*
Y148596D02*
D03*
Y137808D02*
D03*
D67*
X39510Y104580D02*
D03*
Y235761D02*
D03*
D69*
X358254Y17717D02*
D03*
Y263370D02*
D03*
X17720Y17717D02*
D03*
Y263370D02*
D03*
D72*
X359880Y36900D02*
D03*
Y75483D02*
D03*
D73*
X346199Y48317D02*
D03*
Y56191D02*
D03*
Y64065D02*
D03*
D74*
X353890Y84350D02*
D03*
X365386Y94350D02*
D03*
X353890Y104350D02*
D03*
Y114380D02*
D03*
X365386Y124380D02*
D03*
X353890Y134380D02*
D03*
X353904Y144450D02*
D03*
X365400Y154450D02*
D03*
X353904Y164450D02*
D03*
Y174530D02*
D03*
X365400Y184530D02*
D03*
X353904Y194530D02*
D03*
D75*
X306285Y269677D02*
D03*
X233565D02*
D03*
X160845D02*
D03*
X88125D02*
D03*
D76*
X306285Y10677D02*
D03*
X233565D02*
D03*
X160845D02*
D03*
X88125D02*
D03*
M02*
